<svg xmlns="http://www.w3.org/2000/svg" width="203" height="36" viewBox="0 0 203 36">
    <g fill="none" fill-rule="evenodd">
        <g>
            <g>
                <g>
                    <path stroke="#747588" d="M2 0h197c1.105 0 2 .895 2 2v30c0 1.105-.895 2-2 2H2c-1.105 0-2-.895-2-2V2C0 .895.895 0 2 0z" transform="translate(-147 -1543) translate(148 1372) translate(0 172)"/>
                    <g>
                        <text fill="#232334" font-family="Muli-Bold, Muli" font-size="14" font-weight="bold" transform="translate(-147 -1543) translate(148 1372) translate(0 172) translate(12 8)">
                            <tspan x="25" y="14">Add weight variant</tspan>
                        </text>
                        <g>
                            <path d="M0 0H17V17H0z" transform="translate(-147 -1543) translate(148 1372) translate(0 172) translate(12 8)"/>
                            <path fill="#232334" fill-rule="nonzero" d="M8.5 2c.305 0 .558.227.597.521l.006.082-.001 5.294h5.295c.333 0 .603.27.603.603 0 .305-.227.558-.521.597l-.082.006-5.295-.001.001 5.295c0 .333-.27.603-.603.603-.305 0-.558-.227-.597-.521l-.006-.082V9.102l-5.294.001C2.27 9.103 2 8.833 2 8.5c0-.305.227-.558.521-.597l.082-.006h5.294V2.603c0-.333.27-.603.603-.603z" transform="translate(-147 -1543) translate(148 1372) translate(0 172) translate(12 8)"/>
                        </g>
                    </g>
                </g>
            </g>
        </g>
    </g>
</svg>
