<svg xmlns="http://www.w3.org/2000/svg" width="30" height="30" viewBox="0 0 30 30">
    <g fill="none" fill-rule="evenodd">
        <path d="M0 0H30V30H0z"/>
        <path fill="#979797" fill-rule="nonzero" d="M16.986 14.338c1.463 0 2.65 1.185 2.65 2.648v9.082c0 .627-.509 1.135-1.136 1.135H3.364c-.627 0-1.136-.508-1.136-1.135v-9.082c0-1.463 1.186-2.648 2.65-2.648zm0 2.27H4.877c-.209 0-.378.17-.378.378v7.946h12.865v-7.946c0-.179-.124-.329-.29-.368l-.088-.01zm-6.054-14.38c3.135 0 5.676 2.542 5.676 5.677 0 3.134-2.541 5.676-5.676 5.676-3.135 0-5.676-2.542-5.676-5.676 0-3.135 2.541-5.677 5.676-5.677zm0 2.27c-1.881 0-3.406 1.526-3.406 3.407 0 1.88 1.525 3.405 3.406 3.405 1.88 0 3.406-1.525 3.406-3.405 0-1.881-1.525-3.406-3.406-3.406zM23.295 6.523c.421 0 .768.312.823.718l.008.112v2.839h2.839c.459 0 .83.372.83.83 0 .421-.312.769-.717.824l-.113.007h-2.84l.001 2.84c0 .458-.372.83-.83.83-.421 0-.769-.313-.824-.718l-.007-.113v-2.84l-2.839.001c-.459 0-.83-.372-.83-.83 0-.42.312-.768.717-.823l.113-.008h2.838V7.353c0-.458.373-.83.831-.83z"/>
    </g>
</svg>
