<?xml version="1.0" encoding="UTF-8"?>
<svg width="19px" height="21px" viewBox="0 0 19 21" version="1.1" xmlns="http://www.w3.org/2000/svg" xmlns:xlink="http://www.w3.org/1999/xlink">
    <title>AEEE71DE-E4C6-482E-8C67-1353E842E450</title>
    <g id="Page-1" stroke="none" stroke-width="1" fill="none" fill-rule="evenodd">
        <g id="01_Top-nav" transform="translate(-1012.000000, -24.000000)">
            <g id="Group-14" transform="translate(1013.000000, 25.000000)">
                <g id="noun_Add-User_1892488" fill="#232334" fill-rule="nonzero" stroke="#F7F7F7" stroke-width="0.25">
                    <path d="M6.71052632,8.14285714 C8.93419912,8.14285714 10.7368421,6.32001648 10.7368421,4.07142857 C10.7368421,1.82284066 8.93419912,0 6.71052632,0 C4.48685351,0 2.68421053,1.82284066 2.68421053,4.07142857 C2.68421053,6.32001648 4.48685351,8.14285714 6.71052632,8.14285714 Z M6.71052632,1.35714286 C8.19297485,1.35714286 9.39473684,2.57236996 9.39473684,4.07142857 C9.39473684,5.57048718 8.19297485,6.78571429 6.71052632,6.78571429 C5.22807778,6.78571429 4.02631579,5.57048718 4.02631579,4.07142857 C4.02631579,2.57236996 5.22807778,1.35714286 6.71052632,1.35714286 Z" id="Shape"></path>
                    <path d="M8.91320922,9.04761905 L6.29731709,9.04761905 C2.82064515,9.05055354 0.00299240328,11.8136755 0,15.2230626 L0,17.3856209 C0,17.7775317 0.323976432,18.0952381 0.723621614,18.0952381 L14.4869047,18.0952381 C14.8865499,18.0952381 15.2105263,17.7775317 15.2105263,17.3856209 L15.2105263,15.2230626 C15.2065386,11.8140804 12.3894683,9.05152956 8.91320922,9.04761905 Z M13.7632831,16.6760037 L1.44724323,16.6760037 L1.44724323,15.2230626 C1.45023416,12.5974966 3.61993512,10.4697865 6.29731709,10.4668534 L8.91320922,10.4668534 C11.5905912,10.4697865 13.7602922,12.5974966 13.7632831,15.2230626 L13.7632831,16.6760037 Z" id="Shape"></path>
                </g>
                <g id="plus-circle" transform="translate(9.842105, 11.761905)" fill="#F7F7F7" stroke="#232334" stroke-linecap="round" stroke-linejoin="round">
                    <ellipse id="Oval" cx="3.57894737" cy="3.61904762" rx="3.57894737" ry="3.61904762"></ellipse>
                    <line x1="3.57894737" y1="2.17142857" x2="3.57894737" y2="5.06666667" id="Path"></line>
                    <line x1="2.14736842" y1="3.61904762" x2="5.01052632" y2="3.61904762" id="Path"></line>
                </g>
            </g>
        </g>
    </g>
</svg>