<svg xmlns="http://www.w3.org/2000/svg" width="24" height="24" viewBox="0 0 24 24">
    <g fill="none" fill-rule="evenodd">
        <circle cx="12" cy="12" r="12" fill="#3D8462"/>
        <path fill="#FFF" fill-rule="nonzero" d="M11.821 7c.362 0 .66.269.708.617l.007.097-.001 3.571h3.75c.395 0 .715.32.715.715 0 .362-.269.66-.617.708l-.097.006h-3.751v3.572c0 .394-.32.714-.714.714-.361 0-.66-.269-.707-.617l-.007-.097v-3.572H7.714C7.32 12.714 7 12.394 7 12c0-.362.269-.66.617-.708l.097-.006 3.393-.001v-3.57c0-.395.32-.715.714-.715z"/>
    </g>
</svg>
