<svg xmlns="http://www.w3.org/2000/svg" width="17" height="17" viewBox="0 0 17 17">
    <g fill="none" fill-rule="evenodd">
        <g>
            <g>
                <g>
                    <path d="M0 0H17V17H0z" transform="translate(-1126 -681) translate(1114 673) translate(12 8)"/>
                    <path fill="#232334" fill-rule="nonzero" d="M8.5 2c.305 0 .558.227.597.521l.006.082-.001 5.294h5.295c.333 0 .603.27.603.603 0 .305-.227.558-.521.597l-.082.006-5.295-.001.001 5.295c0 .333-.27.603-.603.603-.305 0-.558-.227-.597-.521l-.006-.082V9.102l-5.294.001C2.27 9.103 2 8.833 2 8.5c0-.305.227-.558.521-.597l.082-.006h5.294V2.603c0-.333.27-.603.603-.603z" transform="translate(-1126 -681) translate(1114 673) translate(12 8)"/>
                </g>
            </g>
        </g>
    </g>
</svg>
