<svg xmlns="http://www.w3.org/2000/svg" width="38" height="38" viewBox="0 0 38 38">
    <g fill="none" fill-rule="evenodd">
        <g>
            <g>
                <path d="M0 0H38V38H0z" transform="translate(-544 -1400) translate(544 1400)"/>
                <g stroke="#A88057" stroke-linecap="round" stroke-linejoin="round" stroke-width="1.2">
                    <path d="M7.528 18.29L12.769 9.474 20.725 21.684" transform="translate(-544 -1400) translate(544 1400) translate(1 1)"/>
                    <path d="M19.55 24.9l5.592-10.458 10.13 16.516c0 1.985-7.896 3.594-17.636 3.594C7.896 34.552 0 32.942 0 30.958l2.91-4.892 4.618-7.776M7.105 3.316L12.789 0 12.789 6.632z" transform="translate(-544 -1400) translate(544 1400) translate(1 1)"/>
                    <path d="M22.45 19.477L24.678 19.007 25.628 22.897 26.506 20.217 30.496 23.172M10.117 14.296L12.537 13.381 17.031 16.015M12.789 0L12.789 9.03" transform="translate(-544 -1400) translate(544 1400) translate(1 1)"/>
                </g>
            </g>
        </g>
    </g>
</svg>
