<?xml version="1.0" encoding="UTF-8"?>
<svg width="16px" height="16px" viewBox="0 0 16 16" version="1.1" xmlns="http://www.w3.org/2000/svg" xmlns:xlink="http://www.w3.org/1999/xlink">
    <title>7A1ACD5B-C47E-4D66-9448-84D14D984C07</title>
    <g id="Rating_&amp;_Review" stroke="none" stroke-width="1" fill="none" fill-rule="evenodd">
        <g id="05_Rating_&amp;_Review" transform="translate(-482.000000, -558.000000)">
            <g id="Group-2" transform="translate(266.000000, 477.000000)">
                <g id="Group-8" transform="translate(0.000000, 80.000000)">
                    <g id="Group-37" transform="translate(107.000000, 0.000000)">
                        <g id="Icons/Side_Nav/Dropdown" transform="translate(117.000000, 9.000000) rotate(-90.000000) translate(-117.000000, -9.000000) translate(109.000000, 1.000000)">
                            <rect id="Rectangle" x="0" y="0" width="16" height="16"></rect>
                            <path d="M2.46966991,5.46966991 C2.73593648,5.20340335 3.15260016,5.1791973 3.44621165,5.39705176 L3.53033009,5.46966991 L8,9.939 L12.4696699,5.46966991 C12.7359365,5.20340335 13.1526002,5.1791973 13.4462117,5.39705176 L13.5303301,5.46966991 C13.7965966,5.73593648 13.8208027,6.15260016 13.6029482,6.44621165 L13.5303301,6.53033009 L8.53033009,11.5303301 C8.26406352,11.7965966 7.84739984,11.8208027 7.55378835,11.6029482 L7.46966991,11.5303301 L2.46966991,6.53033009 C2.1767767,6.23743687 2.1767767,5.76256313 2.46966991,5.46966991 Z" id="Path-5" fill="#30855C" fill-rule="nonzero"></path>
                        </g>
                    </g>
                </g>
            </g>
        </g>
    </g>
</svg>