<?xml version="1.0" encoding="UTF-8"?>
<svg width="16px" height="16px" viewBox="0 0 16 16" version="1.1" xmlns="http://www.w3.org/2000/svg" xmlns:xlink="http://www.w3.org/1999/xlink">
    <title>EF306801-5910-43B5-B884-E5EAED3CBC0F</title>
    <g id="Rating_&amp;_Review" stroke="none" stroke-width="1" fill="none" fill-rule="evenodd">
        <g id="05_Rating_&amp;_Review" transform="translate(-148.000000, -215.000000)">
            <g id="Group-11" transform="translate(148.000000, 214.000000)">
                <g id="Back_Arrow" transform="translate(8.000000, 9.000000) rotate(-270.000000) translate(-8.000000, -9.000000) translate(0.000000, 1.000000)">
                    <rect id="Rectangle" x="0" y="0" width="16" height="16"></rect>
                    <path d="M7.75,1 C8.12969577,1 8.44349096,1.28215388 8.49315338,1.64822944 L8.5,1.75 L8.5,12.552 L12.2196699,8.83330365 C12.4859365,8.56703709 12.9026002,8.54283104 13.1962117,8.7606855 L13.2803301,8.83330365 C13.5465966,9.09957022 13.5708027,9.5162339 13.3529482,9.80984539 L13.2803301,9.89396382 L8.28033009,14.8939638 C8.01406352,15.1602304 7.59739984,15.1844364 7.30378835,14.966582 L7.21966991,14.8939638 L2.21966991,9.89396382 C1.9267767,9.60107061 1.9267767,9.12619687 2.21966991,8.83330365 C2.48593648,8.56703709 2.90260016,8.54283104 3.19621165,8.7606855 L3.28033009,8.83330365 L7,12.552 L7,1.75 C7,1.33578644 7.33578644,1 7.75,1 Z" id="Combined-Shape" fill="#30855C" fill-rule="nonzero"></path>
                </g>
            </g>
        </g>
    </g>
</svg>