<svg xmlns="http://www.w3.org/2000/svg" width="16" height="16" viewBox="0 0 16 16">
    <g fill="none" fill-rule="evenodd">
        <path d="M0 0H16V16H0z" transform="rotate(90 8 8)"/>
        <path fill="#80460B" fill-rule="nonzero" d="M12.74 13.047c-.269.268-.69.29-.984.067l-.077-.067-7.638-7.638v5.26c0 .376-.278.688-.64.741l-.11.008c-.377 0-.689-.277-.742-.639l-.009-.11V3.596c0-.376.278-.688.64-.742l.11-.008h7.071c.415 0 .75.336.75.75 0 .377-.277.689-.639.742l-.11.008h-5.26l7.638 7.64c.293.292.293.767 0 1.06z" transform="rotate(90 8 8)"/>
    </g>
</svg>
