<?xml version="1.0" encoding="UTF-8"?>
<svg width="20px" height="20px" viewBox="0 0 20 20" version="1.1" xmlns="http://www.w3.org/2000/svg" xmlns:xlink="http://www.w3.org/1999/xlink">
    <title>CB667B32-F602-46D4-A40E-A81E5D4D3EE1</title>
    <g id="Page-1" stroke="none" stroke-width="1" fill="none" fill-rule="evenodd">
        <g id="02_Invite" transform="translate(-148.000000, -200.000000)">
            <g id="Group-3" transform="translate(148.000000, 200.000000)">
                <g id="Back_Arrow" transform="translate(10.000000, 10.000000) rotate(-270.000000) translate(-10.000000, -10.000000) ">
                    <rect id="Rectangle" x="0" y="0" width="20" height="20"></rect>
                    <path d="M10.1875,1 C10.6621197,1 11.0543637,1.35269235 11.1164417,1.8102868 L11.125,1.9375 L11.125,15.44 L15.7745874,10.7916296 C16.1074206,10.4587964 16.6282502,10.4285388 16.9952646,10.7008569 L17.1004126,10.7916296 C17.4332458,11.1244628 17.4635034,11.6452924 17.1911853,12.0123067 L17.1004126,12.1174548 L10.8504126,18.3674548 C10.5175794,18.700288 9.9967498,18.7305455 9.62973543,18.4582275 L9.52458739,18.3674548 L3.27458739,12.1174548 C2.90847087,11.7513383 2.90847087,11.1577461 3.27458739,10.7916296 C3.6074206,10.4587964 4.1282502,10.4285388 4.49526457,10.7008569 L4.60041261,10.7916296 L9.25,15.441 L9.25,1.9375 C9.25,1.41973305 9.66973305,1 10.1875,1 Z" id="Combined-Shape" fill="#80460B" fill-rule="nonzero"></path>
                </g>
            </g>
        </g>
    </g>
</svg>