<svg xmlns="http://www.w3.org/2000/svg" width="16" height="16" viewBox="0 0 16 16">
    <g fill="none" fill-rule="evenodd">
        <path d="M0 0H16V16H0z" transform="rotate(90 8 8)"/>
        <path fill="#80460B" fill-rule="nonzero" d="M8.15.8c.38 0 .693.282.743.648l.007.102v10.802l3.72-3.719c.266-.266.683-.29.976-.072l.084.072c.267.267.29.683.073.977l-.073.084-5 5c-.266.266-.683.29-.976.073l-.084-.073-5-5c-.293-.293-.293-.768 0-1.06.266-.267.683-.291.976-.073l.084.072 3.72 3.719V1.55c0-.414.336-.75.75-.75z" transform="rotate(90 8 8)"/>
    </g>
</svg>
