<svg xmlns="http://www.w3.org/2000/svg" xmlns:xlink="http://www.w3.org/1999/xlink" width="24" height="24" viewBox="0 0 24 24">
    <defs>
        <circle id="lcgnj33uma" cx="12" cy="12" r="12"/>
    </defs>
    <g fill="none" fill-rule="evenodd">
        <g>
            <g>
                <g>
                    <g>
                        <g>
                            <g transform="translate(-52 -642) translate(24 134) translate(8 16) translate(0 140) translate(0 340) translate(20 12)">
                                <mask id="rx2zqzq0sb" fill="#fff">
                                    <use xlink:href="#lcgnj33uma"/>
                                </mask>
                                <use fill="#FFF" xlink:href="#lcgnj33uma"/>
                                <g fill="#232334" fill-rule="nonzero" mask="url(#rx2zqzq0sb)">
                                    <path d="M3.053.955c-.139 0-.263.085-.315.213l-.65 1.594-1.72.11c-.138.01-.257.103-.3.235-.044.133-.003.278.103.369l1.315 1.112-.43 1.666c-.035.136.016.28.13.364.114.084.267.09.387.014l1.462-.909 1.452.924c.119.076.272.072.386-.01.114-.083.167-.226.132-.363l-.411-1.67 1.325-1.1c.108-.09.15-.235.108-.368-.042-.134-.161-.228-.3-.24L4.01 2.773 3.375 1.17c-.053-.131-.18-.217-.322-.215zm13.32 0c-.139.001-.263.085-.315.213l-.65 1.594-1.719.11c-.14.009-.26.101-.304.234-.044.133-.003.279.103.37l1.318 1.112-.429 1.666c-.035.136.016.28.13.364.113.083.266.089.385.014l1.463-.909 1.452.924c.119.076.271.071.385-.011.115-.082.167-.226.133-.362l-.411-1.67 1.325-1.1c.108-.09.15-.235.108-.369-.042-.133-.161-.227-.301-.238l-1.716-.125-.635-1.602c-.053-.131-.181-.217-.323-.215zM3.05 2.222l.399 1.005c.049.123.163.206.294.216l1.08.079-.833.687c-.102.085-.146.22-.114.348l.258 1.05-.914-.58c-.111-.07-.253-.072-.366-.003l-.919.572.27-1.046c.033-.129-.01-.265-.112-.35l-.825-.696 1.079-.068c.132-.009.247-.092.297-.214l.406-1zm13.32 0l.399 1.005c.048.123.163.206.294.216l1.08.079-.834.687c-.101.085-.146.22-.114.348l.26 1.05-.915-.58c-.111-.07-.253-.072-.365-.003l-.92.572.27-1.046c.033-.129-.01-.265-.112-.35l-.826-.696 1.08-.068c.132-.009.247-.092.297-.214l.406-1zM9.78 5.819h-.001c-.14.001-.265.085-.318.214l-.647 1.595-1.72.108c-.14.009-.261.102-.305.236-.044.133-.003.28.105.371l1.315 1.11-.426 1.668c-.034.135.018.278.13.36.113.082.264.089.383.016l1.462-.907 1.455.922c.118.075.27.07.385-.012.114-.082.166-.225.133-.361l-.411-1.67 1.325-1.098c.11-.089.153-.236.11-.37-.042-.134-.162-.229-.303-.24l-1.719-.123-.632-1.6c-.052-.132-.18-.22-.321-.219zm-.004 1.267l.399 1.006c.049.122.163.206.294.215l1.076.08-.832.688c-.102.084-.146.22-.114.348l.258 1.048-.911-.579c-.112-.07-.254-.07-.366 0l-.919.569.27-1.046c.032-.128-.012-.263-.112-.348L7.99 8.37 9.073 8.3c.131-.008.246-.09.296-.213l.407-1z" transform="translate(2 6)"/>
                                </g>
                            </g>
                        </g>
                    </g>
                </g>
            </g>
        </g>
    </g>
</svg>
