<svg xmlns="http://www.w3.org/2000/svg" width="30" height="30" viewBox="0 0 30 30">
    <g fill="none" fill-rule="evenodd">
        <path d="M0 0H30V30H0z"/>
        <path fill="#000" fill-rule="nonzero" d="M25.91 3.136l.2.009c1.186.101 2.117 1.097 2.117 2.31V15l-.008.2c-.102 1.187-1.097 2.118-2.31 2.118h-1.162v1.899l-.01.184c-.028.245-.111.48-.244.69-.483.764-1.493.992-2.257.509l-2.191-1.387v1.242c0 1.226-.953 2.23-2.159 2.312l-.159.006h-4.775l-5.188 3.281c-.713.451-1.64.283-2.154-.363l-.103-.145c-.166-.262-.254-.565-.254-.875v-1.898H4.09c-1.213 0-2.208-.932-2.31-2.118l-.008-.2v-9.546c0-1.28 1.038-2.318 2.318-2.318h5.863V5.454l.01-.2c.1-1.187 1.096-2.119 2.309-2.119h13.636zM17.726 10.5H4.091c-.226 0-.41.183-.41.41v9.545c0 .225.184.409.41.409h1.435c.904 0 1.636.732 1.636 1.636v1.676l4.837-3.059c.21-.132.445-.215.69-.243l.185-.01h4.853c.226 0 .41-.184.41-.41V10.91c0-.226-.184-.409-.41-.409zm8.182-5.455H12.273l-.094.011c-.18.043-.315.205-.315.399l-.001 3.135h5.864c1.227 0 2.232.954 2.313 2.16l.005.16v6.045l2.793 1.766v-1.676l.008-.167c.084-.825.78-1.469 1.628-1.469h1.435l.094-.01c.18-.043.315-.205.315-.399V5.455l-.01-.094c-.043-.181-.205-.316-.399-.316z"/>
    </g>
</svg>
