<svg xmlns="http://www.w3.org/2000/svg" width="30" height="30" viewBox="0 0 30 30">
    <g fill="none" fill-rule="evenodd">
        <path d="M0 0H30V30H0z"/>
        <path fill="#000" fill-rule="nonzero" d="M15 4.432c4.33 0 7.84 3.51 7.84 7.84v4.083l1.07.953c.93.827 1.061 2.219.335 3.2l-.137.169c-.453.51-1.102.8-1.783.8h-3.576l.001.341c0 2.004-1.572 3.641-3.55 3.745l-.2.005c-2.071 0-3.75-1.679-3.75-3.75l-.001-.341H7.675c-1.263 0-2.297-.981-2.38-2.223l-.006-.163c0-.681.291-1.33.8-1.783l1.07-.954v-4.081c0-4.23 3.35-7.677 7.54-7.836zm1.705 17.045h-3.41v.341c0 .883.671 1.609 1.53 1.696l.175.009c.941 0 1.705-.763 1.705-1.705v-.34zM15 6.477c-3.2 0-5.795 2.595-5.795 5.796v4.542c0 .292-.125.57-.343.764l-1.413 1.257c-.073.065-.115.158-.115.255 0 .188.153.34.341.34h14.65c.097 0 .19-.04.254-.114.125-.14.113-.356-.028-.48l-1.413-1.258c-.218-.194-.343-.472-.343-.764v-4.542c0-3.201-2.594-5.796-5.795-5.796z"/>
    </g>
</svg>
