<svg xmlns="http://www.w3.org/2000/svg" width="30" height="30" viewBox="0 0 30 30">
    <g fill="none" fill-rule="evenodd">
        <path d="M0 0H30V30H0z"/>
        <path fill="#000" fill-rule="nonzero" d="M16.986 14.338c1.407 0 2.558 1.096 2.644 2.48l.005.168v9.082c0 .585-.443 1.067-1.011 1.129l-.124.006H3.364c-.586 0-1.067-.442-1.129-1.011l-.007-.124v-9.082c0-1.406 1.097-2.557 2.482-2.643l.167-.005h12.11zm0 2.27H4.877c-.183 0-.335.13-.37.302l-.008.076v7.946h12.865v-7.946c0-.153-.09-.285-.222-.345l-.069-.023-.087-.01zm6.31-10.085c.42 0 .767.312.822.718l.008.112v2.839h2.839c.459 0 .83.372.83.83 0 .421-.312.769-.717.824l-.113.007h-2.84l.001 2.84c0 .458-.372.83-.83.83-.421 0-.769-.313-.824-.718l-.007-.113v-2.84l-2.839.001c-.459 0-.83-.372-.83-.83 0-.42.312-.768.717-.823l.113-.008h2.838V7.353c0-.458.373-.83.831-.83zM10.931 2.228c3.135 0 5.676 2.542 5.676 5.677 0 3.134-2.541 5.676-5.676 5.676-3.135 0-5.676-2.542-5.676-5.676 0-3.135 2.541-5.677 5.676-5.677zm0 2.27c-1.881 0-3.406 1.526-3.406 3.407 0 1.88 1.525 3.405 3.406 3.405 1.88 0 3.406-1.525 3.406-3.405 0-1.881-1.525-3.406-3.406-3.406z"/>
    </g>
</svg>
