<svg xmlns="http://www.w3.org/2000/svg" width="32" height="32" viewBox="0 0 32 32">
    <g fill="none" fill-rule="evenodd">
        <circle cx="16" cy="16" r="15" fill="#3D8462" stroke="#FFF" stroke-width="2"/>
        <g fill="#FFF" fill-rule="nonzero">
            <path d="M8.896 6.104c.77.771.77 2.02 0 2.792-.771.77-2.02.77-2.792 0-.77-.771-.77-2.02 0-2.792.771-.77 2.02-.77 2.792 0" transform="translate(9 9)"/>
            <path d="M13.125 1.917h-1.296L10.891 0H4.108L3.17 1.918l-1.294.003C.846 1.922.006 2.78.005 3.837L0 11.503c0 1.058.84 1.918 1.875 1.918h11.25c1.034 0 1.875-.86 1.875-1.917v-7.67c0-1.057-.841-1.917-1.875-1.917zM7.5 11.024c-2.068 0-3.75-1.72-3.75-3.834 0-2.115 1.682-3.835 3.75-3.835s3.75 1.72 3.75 3.835c0 2.114-1.682 3.834-3.75 3.834z" transform="translate(9 9)"/>
        </g>
    </g>
</svg>
