<svg xmlns="http://www.w3.org/2000/svg" width="25" height="25" viewBox="0 0 25 25">
    <g fill="none" fill-rule="evenodd" stroke="#666" transform="translate(1 1)">
        <circle cx="11.812" cy="11.812" r="11.2" stroke-width="1.6"/>
        <path fill="#666" fill-rule="nonzero" stroke-width=".8" d="M15.836 8.164c.203.204.218.525.043.745l-.043.049L12.794 12l3.042 3.042c.219.22.219.574 0 .794-.204.203-.525.218-.745.043l-.049-.043L12 12.793l-3.042 3.043c-.22.219-.574.219-.794 0-.203-.204-.218-.525-.043-.745l.043-.049L11.206 12 8.164 8.958c-.219-.22-.219-.574 0-.794.204-.203.525-.218.745-.043l.049.043L12 11.206l3.042-3.042c.22-.219.574-.219.794 0z"/>
    </g>
</svg>
