<svg xmlns="http://www.w3.org/2000/svg" xmlns:xlink="http://www.w3.org/1999/xlink" width="35" height="35" viewBox="0 0 35 35">
    <defs>
        <circle id="cvzhe0og6a" cx="17.5" cy="17.5" r="17.5"/>
    </defs>
    <g fill="none" fill-rule="evenodd">
        <mask id="eti7vs951b" fill="#fff">
            <use xlink:href="#cvzhe0og6a"/>
        </mask>
        <use fill="#80460B" opacity=".05" xlink:href="#cvzhe0og6a"/>
        <g mask="url(#eti7vs951b)">
            <g transform="translate(9.5 8.5)">
                <path stroke="#80460B" d="M3.455 10.436l3.625 1.69-2.276 4.883c-.059.125-.207.18-.333.12-.06-.028-.107-.08-.13-.143l-.643-1.826c-.046-.13-.189-.199-.319-.153 0 0 0 0 0 0l-1.898.669c-.13.046-.273-.023-.32-.153-.021-.061-.018-.13.01-.188l2.284-4.9h0zM8.92 12.126l3.625-1.69 2.277 4.882c.058.126.004.274-.121.333-.061.028-.131.03-.194.007l-1.813-.681c-.129-.049-.273.017-.322.146 0 0 0 0 0 0l-.708 1.884c-.048.13-.192.195-.322.146-.06-.023-.11-.069-.138-.128L8.92 12.126h0z"/>
                <circle cx="8" cy="6" r="6" stroke="#80460B"/>
                <circle cx="8" cy="6" r="3.5" stroke="#80460B"/>
                <path fill="#80460B" d="M7.884 7.061l-.611.321c-.122.065-.274.018-.338-.105-.025-.048-.034-.104-.025-.158l.117-.68c.014-.082-.013-.164-.072-.222l-.494-.481c-.1-.097-.101-.255-.005-.354.038-.04.089-.065.143-.073l.683-.1c.082-.01.152-.062.188-.136l.306-.619c.06-.124.21-.174.335-.113.049.024.089.064.113.113l.306.62c.036.073.106.124.188.136l.683.1c.136.019.231.146.211.282-.008.055-.033.105-.073.144l-.494.481c-.059.058-.086.14-.072.222l.117.68c.023.136-.068.265-.204.288-.054.01-.11 0-.159-.025l-.61-.32c-.073-.04-.16-.04-.233 0z"/>
            </g>
        </g>
    </g>
</svg>
