<svg xmlns="http://www.w3.org/2000/svg" width="32" height="32" viewBox="0 0 32 32">
    <g fill="none" fill-rule="evenodd">
        <path d="M0 0H32V32H0z"/>
        <path fill="#979797" fill-rule="nonzero" d="M26.327 6.426c.527.528.565 1.36.113 1.932l-.113.127-7.892 7.89 7.892 7.893c.568.568.568 1.49 0 2.059-.528.527-1.36.565-1.932.113l-.127-.113-7.892-7.892-7.89 7.892c-.57.568-1.491.568-2.06 0-.528-.528-.565-1.36-.113-1.932l.113-.127 7.892-7.892-7.892-7.89c-.568-.57-.568-1.491 0-2.06.528-.528 1.36-.565 1.932-.113l.127.113 7.891 7.891 7.892-7.89c.568-.57 1.49-.57 2.059 0z"/>
    </g>
</svg>
