<svg xmlns="http://www.w3.org/2000/svg" width="32" height="33" viewBox="0 0 32 33">
    <g fill="none" fill-rule="evenodd">
        <g>
            <g>
                <g>
                    <path d="M0 0H32V32H0z" transform="translate(-268 -372) translate(148 329) translate(120 43)"/>
                    <g stroke="#A88057" stroke-linecap="round" stroke-linejoin="round" stroke-width="1.2">
                        <path d="M16.464 11.51c-1.808 5.021-5.96 8.125-9.275 6.932C3.876 17.25 2.656 12.21 4.464 7.188 6.273 2.166 10.425-.938 13.74.255c.828.298 1.526.837 2.078 1.556 1.656 2.155 2.004 5.931.647 9.698z" transform="translate(-268 -372) translate(148 329) translate(120 43) translate(1 1)"/>
                        <path d="M16.139 2.678s-5.487 2.715-6.382 8.634c-.895 5.92-4.275 6.007-4.275 6.007M29.247 19.605c.696 5.293-1.57 9.955-5.062 10.414-3.492.46-6.887-3.458-7.583-8.75-.696-5.293 1.57-9.955 5.062-10.414.873-.116 1.74.043 2.56.429 2.46 1.155 4.5 4.352 5.023 8.32z" transform="translate(-268 -372) translate(148 329) translate(120 43) translate(1 1)"/>
                        <path d="M24.908 11.907s-3.63 4.928-1.712 10.6c1.92 5.67-1.045 7.297-1.045 7.297M7.083 20.532c4.254-.542 7.992 1.294 8.35 4.1.357 2.808-2.801 5.522-7.056 6.064-4.254.542-7.992-1.294-8.35-4.1-.09-.702.042-1.399.354-2.056.937-1.973 3.511-3.602 6.702-4.008z" transform="translate(-268 -372) translate(148 329) translate(120 43) translate(1 1)"/>
                        <path d="M.884 23.992s3.947 2.934 8.51 1.41c4.561-1.523 5.86.864 5.86.864" transform="translate(-268 -372) translate(148 329) translate(120 43) translate(1 1)"/>
                    </g>
                </g>
            </g>
        </g>
    </g>
</svg>
