<svg xmlns="http://www.w3.org/2000/svg" width="8" height="12" viewBox="0 0 8 12">
    <path fill="#87623B" d="M7.789 7.113l.058.056c.185.205.202.525.05.751l-.05.065L4.37 11.83c-.185.205-.475.223-.68.056l-.058-.056L.153 7.985c-.204-.225-.204-.59 0-.816.185-.205.475-.223.68-.056l.058.056L4 10.607l3.11-3.438c.185-.205.474-.223.679-.056zm-3.479-7L4.37.17l3.478 3.846c.204.225.204.59 0 .816-.185.205-.475.223-.68.056L7.11 4.83 4 1.393.89 4.831c-.185.205-.474.223-.679.056L.153 4.83c-.185-.205-.202-.525-.05-.751l.05-.065L3.63.17c.185-.205.475-.223.68-.056z"/>
</svg>
