<svg xmlns="http://www.w3.org/2000/svg" width="17" height="17" viewBox="0 0 17 17">
    <g fill="none" fill-rule="evenodd">
        <path d="M0 0H17V17H0z"/>
        <path fill="#FFF" fill-rule="nonzero" d="M13.096 3.904c.216.216.234.554.054.79l-.054.063-3.744 3.742 3.744 3.744c.236.236.236.618 0 .853-.216.216-.554.234-.79.054l-.063-.054L8.5 9.351l-3.743 3.745c-.236.236-.618.236-.853 0-.216-.216-.234-.554-.054-.79l.054-.063L7.648 8.5 3.904 4.757c-.236-.236-.236-.618 0-.853.216-.216.554-.234.79-.054l.063.054L8.5 7.647l3.743-3.743c.236-.236.618-.236.853 0z"/>
    </g>
</svg>
