<?xml version="1.0" encoding="UTF-8"?>
<svg width="24px" height="23px" viewBox="0 0 24 23" version="1.1" xmlns="http://www.w3.org/2000/svg" xmlns:xlink="http://www.w3.org/1999/xlink">
    <title>ED096B6E-CB6A-48EC-BF24-66C0A1D9907E</title>
    <g id="File-Share" stroke="none" stroke-width="1" fill="none" fill-rule="evenodd">
        <g id="08_Farm_Link" transform="translate(-246.000000, -1074.000000)" fill="#FFFFFF" stroke="#232334" stroke-width="1.5">
            <g id="Group-27" transform="translate(148.000000, 765.000000)">
                <g id="Group-25" transform="translate(98.000000, 20.000000)">
                    <g id="Group-14" transform="translate(1.000000, 290.000000)">
                        <path d="M4,0 L14.3063022,0 C15.0350005,-1.33859706e-16 15.7060299,0.396328167 16.0578128,1.03448959 L19.3652791,7.03448959 C19.8985157,8.00182223 19.5466114,9.218274 18.5792788,9.75151068 C18.2835776,9.91451428 17.9514211,10 17.6137684,10 L4,10 C2.8954305,10 2,9.1045695 2,8 L2,2 C2,0.8954305 2.8954305,2.02906125e-16 4,0 Z" id="Rectangle"></path>
                        <rect id="Rectangle" x="0" y="4" width="22" height="17" rx="2"></rect>
                        <path d="M15,17 L15,16 C15,14.8954305 14.1045695,14 13,14 L9,14 C7.8954305,14 7,14.8954305 7,16 L7,17" id="Path" stroke-linecap="round" stroke-linejoin="round"></path>
                        <circle id="Oval" stroke-linecap="round" stroke-linejoin="round" cx="11" cy="10" r="2"></circle>
                    </g>
                </g>
            </g>
        </g>
    </g>
</svg>