<svg xmlns="http://www.w3.org/2000/svg" width="23" height="23" viewBox="0 0 23 23">
    <g fill="none" fill-rule="evenodd">
        <path d="M0 0H23V23H0z" transform="rotate(90 11.5 11.5)"/>
        <path fill="#232334" fill-rule="nonzero" d="M18.314 18.755c-.386.386-.992.418-1.415.096l-.11-.096-10.98-10.98v7.56c0 .542-.4.99-.92 1.067l-.159.012c-.541 0-.99-.4-1.066-.919l-.012-.16V5.172c0-.541.399-.99.919-1.066l.159-.012h10.165c.595 0 1.078.483 1.078 1.078 0 .541-.4.99-.92 1.066l-.158.012-7.561.001 10.98 10.98c.42.421.42 1.104 0 1.525z" transform="rotate(90 11.5 11.5)"/>
    </g>
</svg>
