<svg xmlns="http://www.w3.org/2000/svg" width="20" height="21" viewBox="0 0 20 21">
    <g fill="none" fill-rule="evenodd">
        <path d="M0 0H22V22H0z" transform="translate(-1)"/>
        <path fill="#666" fill-rule="nonzero" d="M9.217 1.674l-7.16 7.283c-.4.407-.624.954-.624 1.524l.005.155c.08 1.128 1.02 2.018 2.168 2.018l.106-.001V18c0 1.38 1.12 2.5 2.5 2.5h1.664c.94 0 1.7-.761 1.7-1.7v-2.704c0-.276.224-.5.5-.5H11.8c.276 0 .5.224.5.5V18.8c0 .939.761 1.7 1.7 1.7h1.667l.164-.005c1.304-.085 2.336-1.17 2.336-2.495l-.001-5.347.167.001c.577 0 1.13-.227 1.542-.63.866-.852.877-2.244.026-3.11l-7.148-7.27c-.985-.968-2.568-.955-3.536.03zm2.39.957l.106.094 7.119 7.24c.27.276.266.718-.009.989-.13.128-.306.2-.49.2h-.666c-.553 0-1 .448-1 1V18c0 .552-.448 1-1 1H14c-.11 0-.2-.09-.2-.2v-2.704c0-1.104-.895-2-2-2h-1.724c-1.104 0-2 .896-2 2V18.8c0 .11-.09.2-.2.2H6.212c-.552 0-1-.448-1-1v-5.846c0-.552-.448-1-1-1h-.606c-.372 0-.673-.301-.673-.673 0-.177.07-.346.193-.472l7.16-7.284c.358-.363.925-.396 1.32-.094z" transform="translate(-1)"/>
    </g>
</svg>
