<svg xmlns="http://www.w3.org/2000/svg" width="40" height="40" viewBox="0 0 40 40">
    <g fill="none" fill-rule="evenodd">
        <g>
            <g>
                <g>
                    <g>
                        <g>
                            <path d="M0 0H39.696V39.696H0z" transform="translate(-701 -401) translate(496 321) translate(81 80) translate(91) translate(33)"/>
                            <path fill="#3D8462" fill-rule="nonzero" d="M31.933 1.266c3.768 0 6.822 3.055 6.822 6.823v4.962c0 1.028-.833 1.86-1.86 1.86h-2.781v21.625c0 .979-.756 1.78-1.715 1.855l-.146.006H7.443c-1.028 0-1.86-.833-1.86-1.861L5.581 14.91h-2.59c-.978 0-1.78-.755-1.855-1.715l-.005-.145V8.089c0-3.768 3.055-6.823 6.823-6.823zm-1.541 13.645H9.302l.002 19.764h21.088V14.91zM15.579 18.48c.942 0 1.72.7 1.844 1.608l.017.252v9.887c0 1.028-.834 1.86-1.861 1.86-.942 0-1.72-.7-1.844-1.607l-.017-.253V20.34c0-1.027.833-1.86 1.86-1.86zm8.121 0c.942 0 1.721.7 1.844 1.608l.017.252v9.887c0 1.028-.833 1.86-1.86 1.86-.943 0-1.721-.7-1.844-1.607l-.017-.253V20.34c0-1.027.833-1.86 1.86-1.86zm8.233-13.491H7.955c-1.713 0-3.102 1.388-3.102 3.101v3.1h30.179l.002-3.1c0-1.606-1.22-2.926-2.784-3.085l-.317-.016z" transform="translate(-701 -401) translate(496 321) translate(81 80) translate(91) translate(33)"/>
                        </g>
                    </g>
                </g>
            </g>
        </g>
    </g>
</svg>
