<svg xmlns="http://www.w3.org/2000/svg" width="24" height="24" viewBox="0 0 24 24">
    <g fill="none" fill-rule="evenodd">
        <path d="M0 0H24V24H0z"/>
        <path fill="#231F20" fill-rule="nonzero" d="M13.398 2.166c.313 0 .578.2.678.479h4.354c1.098 0 1.992.897 1.992 2v1.818c0 .4-.323.723-.72.723h-1.355v13.457c0 .399-.322.723-.72.723H6.795c-.398 0-.72-.324-.72-.723V7.186H4.72c-.397 0-.72-.324-.72-.723V4.644c0-1.102.894-2 1.992-2h4.354c.1-.278.365-.478.677-.478zm3.509 5.02H7.515V19.92h9.392V7.186zm-6.667 1.27c.363 0 .657.318.657.712v7.512c0 .394-.294.713-.657.713-.362 0-.657-.32-.657-.713V9.168c0-.394.295-.713.657-.713zm3.942 0c.362 0 .657.318.657.712v7.512c0 .394-.295.713-.657.713-.363 0-.657-.32-.657-.713V9.168c0-.394.294-.713.657-.713zM18.43 4.09H5.992c-.304 0-.551.248-.551.553V5.74h13.54V4.644c0-.305-.247-.553-.551-.553z"/>
    </g>
</svg>
