<svg xmlns="http://www.w3.org/2000/svg" width="16" height="16" viewBox="0 0 16 16">
    <g fill="none" fill-rule="evenodd">
        <path d="M0 0H16V16H0z"/>
        <path fill="#3D8462" fill-rule="nonzero" d="M12.87.51c1.52 0 2.75 1.232 2.75 2.75v2c0 .415-.335.75-.75.75h-1.12v8.716c0 .38-.282.694-.648.743l-.102.007H3c-.414 0-.75-.336-.75-.75V6.01H1.205c-.38 0-.693-.282-.743-.648L.456 5.26v-2c0-1.518 1.231-2.75 2.75-2.75zm-.62 5.5h-8.5v7.966h8.5V6.01zM6.28 7.448c.379 0 .693.282.742.648l.007.102v3.985c0 .414-.336.75-.75.75-.38 0-.693-.282-.743-.648l-.007-.102V8.198c0-.414.336-.75.75-.75zm3.273 0c.38 0 .693.282.743.648l.007.102v3.985c0 .414-.336.75-.75.75-.38 0-.694-.282-.743-.648l-.007-.102V8.198c0-.414.336-.75.75-.75zM12.87 2.01H3.206c-.69 0-1.25.56-1.25 1.25v1.25H14.12V3.26c0-.647-.491-1.18-1.121-1.243l-.128-.007z"/>
    </g>
</svg>
