<svg width="54" height="54" viewBox="0 0 54 54" xmlns="http://www.w3.org/2000/svg">
    <g fill="none" fill-rule="evenodd">
        <circle cx="27" cy="27" r="27" fill="#30855C" fill-opacity=".053"/>
        <g transform="translate(6 11)" fill-rule="nonzero">
            <path d="M5.784 9.13v2.339L4.65 12.582l.94.923 2.99-2.935a.755.755 0 0 1 .718-.19.737.737 0 0 1 .527.518.723.723 0 0 1-.192.706l-2.99 2.935a.646.646 0 0 0 0 .922 3 3 0 0 1 0 4.295l-3.321 3.261.94.922 1.522-1.495v4.947c.002 1.44 1.19 2.607 2.657 2.609h15.28v-1.304H11.763V27.39h11.958v-1.304H8.44a1.318 1.318 0 0 1-1.328-1.304V21.14l.47-.461a4.285 4.285 0 0 0 .435-5.645l2.554-2.508a2.009 2.009 0 0 0-.006-2.872 2.101 2.101 0 0 0-2.926-.007l-.527.518V2.609a1.319 1.319 0 0 1 1.329-1.305h27.901a1.319 1.319 0 0 1 1.329 1.305v18.26H39V2.61C38.998 1.169 37.81.002 36.343 0H8.441C6.975.001 5.786 1.169 5.784 2.609v5.217H3.791c-1.467.002-2.655 1.169-2.657 2.609v5.6L0 17.146l.94.922 1.329-1.303a.649.649 0 0 0 .194-.462v-5.87A1.318 1.318 0 0 1 3.792 9.13h1.992zm2.657 18.261h1.994v1.305H8.44a1.318 1.318 0 0 1-1.328-1.305v-.35c.404.23.862.35 1.329.35z" fill="#31855C"/>
            <path d="M37.09 21.429a1.8 1.8 0 0 0-.636.116v-.116c.001-.724-.359-1.393-.945-1.758a1.806 1.806 0 0 0-1.9-.015c-.477-.8-1.408-1.141-2.246-.825v-.796c0-1.124-.854-2.035-1.908-2.035-1.055 0-1.91.911-1.91 2.035v5.688l-.666.356c-1.084.577-1.797 1.726-1.872 3.015-.076 1.289.498 2.523 1.506 3.24l1.736 1.234c.355.252.57.676.57 1.132V35h1.272v-2.3c0-.909-.426-1.758-1.136-2.261l-1.058-.755-.678-.48c-.955-.678-1.231-2.04-.626-3.079.206-.357.503-.646.855-.832l.097-.052v2.294h1.274v-9.5c0-.374.284-.678.636-.678.351 0 .636.304.636.678v5.429h1.273V20.75c0-.375.285-.679.636-.679.352 0 .637.304.637.679v3.393h1.273v-2.714c0-.375.284-.68.636-.68.35 0 .636.305.636.68v3.392h1.273v-1.357c0-.374.285-.678.636-.678.352 0 .637.304.637.678v2.394a12.91 12.91 0 0 1-1.206 5.446.72.72 0 0 0-.068.303V35h1.273v-3.235A14.358 14.358 0 0 0 39 25.858v-2.394c-.001-1.124-.855-2.035-1.91-2.036z" fill="#31855C"/>
            <path d="M29.5 6a2.5 2.5 0 1 0 0 5 2.5 2.5 0 0 0 0-5zm0 3.65a1.15 1.15 0 1 1 0-2.3 1.15 1.15 0 0 1 0 2.3z" fill="#D4AE5E"/>
            <path d="M34.796 7.374a.71.71 0 0 0 .156-.754l-.516-1.35a.613.613 0 0 0-.603-.413l-1.167.064-.363-.393.06-1.265a.675.675 0 0 0-.381-.652l-1.247-.56a.586.586 0 0 0-.696.17l-.782.94h-.515l-.782-.94a.588.588 0 0 0-.696-.17l-1.246.56a.676.676 0 0 0-.381.653l.06 1.264-.364.394-1.166-.065a.612.612 0 0 0-.604.413l-.516 1.35a.709.709 0 0 0 .157.754l.867.848v.557l-.867.847a.71.71 0 0 0-.157.754l.517 1.35c.1.263.34.429.603.413l1.166-.065.364.395-.06 1.263a.676.676 0 0 0 .38.653l1.248.56c.242.108.52.04.695-.17l.783-.94h.514l.783.94c.175.21.454.278.695.17l1.247-.56a.676.676 0 0 0 .381-.653l-.06-1.264.364-.394 1.166.065a.616.616 0 0 0 .604-.413l.516-1.35a.709.709 0 0 0-.157-.754l-.867-.848v-.556l.867-.848zm-1.9 2.199.747.73-.183.478-1.005-.055a.593.593 0 0 0-.469.195l-.751.814a.701.701 0 0 0-.18.508l.05 1.089-.44.198-.674-.81a.596.596 0 0 0-.46-.22H28.47a.597.597 0 0 0-.46.22l-.674.81-.44-.198.051-1.09a.7.7 0 0 0-.18-.507l-.752-.814a.592.592 0 0 0-.469-.195l-1.005.055-.183-.477.747-.731a.695.695 0 0 0 .204-.497V7.924c0-.19-.074-.37-.204-.497l-.747-.73.183-.478 1.005.055a.591.591 0 0 0 .469-.195l.752-.814a.703.703 0 0 0 .18-.508l-.051-1.089.44-.198.675.81c.117.14.284.22.459.22h1.063c.175 0 .342-.08.459-.22l.674-.81.44.198-.05 1.089a.7.7 0 0 0 .18.508l.751.814a.594.594 0 0 0 .47.195l1.004-.055.183.477-.747.73a.697.697 0 0 0-.204.498v1.152c0 .19.074.37.204.497z" fill="#31855C"/>
            <path fill="#D4AE5E" d="M11 22.6V24h14v-1.4h-1.273v-2.1h-1.272v2.1h-1.273v-3.5h-1.273v3.5h-1.272V17h-1.273v5.6h-1.273v-3.5h-1.273v3.5h-1.272v-2.1h-1.273v2.1z"/>
            <rect fill="#D4AE5E" x="11" y="4" width="1" height="1" rx=".5"/>
            <rect fill="#D4AE5E" x="13" y="4" width="7" height="1" rx=".5"/>
            <rect fill="#D4AE5E" x="10" y="7" width="10" height="1" rx=".5"/>
            <rect fill="#D4AE5E" x="12" y="8" width="8" height="1" rx=".5"/>
            <rect fill="#D4AE5E" x="12" y="11" width="7" height="1" rx=".5"/>
        </g>
    </g>
</svg>
