<svg width="54" height="54" viewBox="0 0 54 54" xmlns="http://www.w3.org/2000/svg">
    <g fill="none" fill-rule="evenodd">
        <circle cx="27" cy="27" r="27" fill="#30855C" fill-opacity=".053"/>
        <g transform="translate(9 8)" fill-rule="nonzero">
            <rect fill="#D4AE5E" x="18" y="32" width="1" height="1" rx=".5"/>
            <path d="M33.125 10.105A1.887 1.887 0 0 0 35 8.21V1.894A1.887 1.887 0 0 0 33.125 0h-12.5a1.887 1.887 0 0 0-1.875 1.895v1.263h-6.874C10.15 3.16 8.752 4.572 8.75 6.316V8.21H1.875A1.887 1.887 0 0 0 0 10.105v6.316a1.887 1.887 0 0 0 1.875 1.895H8.75v2.526H6.875c-1.38.002-2.499 1.132-2.5 2.526v5.423L3.308 29.87l.884.893 1.25-1.263a.635.635 0 0 0 .183-.446v-5.685a1.259 1.259 0 0 1 1.25-1.263H8.75v1.633l-1.067 1.079.884.893 2.812-2.842a.695.695 0 0 1 .992 0 .713.713 0 0 1 0 1.001l-2.813 2.842a.637.637 0 0 0 0 .893 2.967 2.967 0 0 1 0 4.16l-3.125 3.158.884.893 1.694-1.712A3.127 3.127 0 0 0 11.875 36h12.5c1.725-.002 3.123-1.415 3.125-3.158v-6.316h5.625A1.886 1.886 0 0 0 35 24.632v-6.316a1.887 1.887 0 0 0-1.875-1.894H27.5v-6.316h5.626zM20 1.895c0-.35.28-.631.625-.632h12.5c.345 0 .625.283.625.632V8.21c0 .348-.28.63-.625.631h-7.5a.618.618 0 0 0-.375.127l-1.5 1.136v-.63a.628.628 0 0 0-.625-.633h-2.5a.629.629 0 0 1-.624-.631V1.894zM1.25 16.42v-6.316a.63.63 0 0 1 .624-.631h12.5c.345 0 .625.282.625.631v6.316c0 .349-.28.631-.625.632h-2.498a.628.628 0 0 0-.625.631v.632l-1.5-1.137a.62.62 0 0 0-.375-.127H1.875a.629.629 0 0 1-.625-.63zm32.5 1.895v6.316a.63.63 0 0 1-.625.631h-7.5a.615.615 0 0 0-.375.127l-1.5 1.136v-.631a.628.628 0 0 0-.625-.632h-2.5a.629.629 0 0 1-.624-.631v-6.316c0-.349.28-.632.625-.632h12.5c.345 0 .624.283.625.632h-.001zm-7.5-1.895h-5.625a1.887 1.887 0 0 0-1.875 1.895v6.316a1.888 1.888 0 0 0 1.875 1.894H22.5v1.264c0 .238.134.458.345.564a.62.62 0 0 0 .655-.06l2.333-1.768h.417v6.316a1.887 1.887 0 0 1-1.875 1.895h-12.5a1.884 1.884 0 0 1-1.859-1.65l.426-.43a4.244 4.244 0 0 0 .408-5.466l2.404-2.429a1.986 1.986 0 0 0 .512-1.907 1.962 1.962 0 0 0-1.383-1.398 1.938 1.938 0 0 0-1.887.517l-.496.501v-3.528l1.5 1.137a.62.62 0 0 0 .655.06.633.633 0 0 0 .345-.565v-1.263h1.875a1.887 1.887 0 0 0 1.875-1.895v-6.316a1.888 1.888 0 0 0-1.875-1.895H10V6.316a1.887 1.887 0 0 1 1.875-1.894h6.874V8.21a1.887 1.887 0 0 0 1.876 1.895H22.5v1.263c0 .239.133.458.345.565a.621.621 0 0 0 .655-.06l2.333-1.768h.417v6.316z" fill="#31855C"/>
            <rect fill="#D4AE5E" x="26" y="3" width="6" height="1" rx=".5"/>
            <rect fill="#D4AE5E" x="22" y="6" width="10" height="1" rx=".5"/>
            <rect fill="#D4AE5E" x="23" y="3" width="1" height="1" rx=".5"/>
            <rect fill="#D4AE5E" x="26" y="20" width="6" height="1" rx=".5"/>
            <rect fill="#D4AE5E" x="22" y="22" width="10" height="1" rx=".5"/>
            <rect fill="#D4AE5E" x="23" y="20" width="1" height="1" rx=".5"/>
            <rect fill="#D4AE5E" x="7" y="12" width="6" height="1" rx=".5"/>
            <rect fill="#D4AE5E" x="3" y="14" width="10" height="1" rx=".5"/>
            <rect fill="#D4AE5E" x="5" y="12" width="1" height="1" rx=".5"/>
        </g>
    </g>
</svg>
