<svg xmlns="http://www.w3.org/2000/svg" width="33" height="33" viewBox="0 0 33 33">
    <g transform="translate(.5 .5)">
        <rect width="32" height="32" fill="none" stroke="#747588" stroke-miterlimit="10" rx="2"/>
        <path fill="#232334" d="M10.071 14.588a.706.706 0 0 1-.1-1.4l.1-.006h3.106V10.21a.706.706 0 0 1 .609-.7l.1-.007a.707.707 0 0 1 .7.61l.006.1v2.979a1.387 1.387 0 0 1-1.232 1.393l-.132.006zm-8.707 0a1.377 1.377 0 0 1-1.358-1.265L0 13.189V10.21a.706.706 0 0 1 1.4-.1l.007.1v2.965h3.106a.706.706 0 0 1 .7.609l.006.1a.706.706 0 0 1-.61.7l-.1.006zM13.183 4.475l-.006-.1V1.412h-3.106a.706.706 0 0 1-.7-.61l-.006-.1a.706.706 0 0 1 .61-.7l.1-.006h3.153a1.377 1.377 0 0 1 1.358 1.265l.006.134v2.983a.706.706 0 0 1-1.4.1zm-13.177 0L0 4.378V1.4A1.387 1.387 0 0 1 1.232.006L1.364 0h3.154a.706.706 0 0 1 .1 1.4l-.1.007H1.412v2.971a.707.707 0 0 1-.61.7l-.1.006a.706.706 0 0 1-.696-.609z" transform="translate(8.706 8.706)"/>
    </g>
</svg>
