<svg xmlns="http://www.w3.org/2000/svg" width="36" height="36" viewBox="0 0 36 36">
    <g fill="none" fill-rule="evenodd" transform="translate(1 1)">
        <path fill="#232334" fill-rule="nonzero" d="M19.95 24.75c-.38 0-.693-.282-.743-.648L19.2 24v-3.166c0-.765.567-1.407 1.309-1.48l.141-.007H24c.414 0 .75.336.75.75 0 .38-.282.694-.648.744l-.102.006-3.3.001V24c0 .38-.282.693-.648.743l-.102.007zm-5.9 0c-.38 0-.693-.282-.743-.648L13.3 24v-3.152H10c-.38 0-.693-.283-.743-.649l-.007-.102c0-.38.282-.693.648-.743l.102-.007h3.35c.762 0 1.374.598 1.443 1.345l.007.142V24c0 .414-.336.75-.75.75zM10 14.653c-.414 0-.75-.336-.75-.75 0-.38.282-.694.648-.744l.102-.006h3.3V10c0-.38.282-.693.648-.743l.102-.007c.38 0 .693.282.743.648L14.8 10v3.166c0 .765-.567 1.407-1.309 1.48l-.141.007H10zm10.65 0c-.762 0-1.374-.598-1.443-1.345l-.007-.142V10c0-.414.336-.75.75-.75.38 0 .693.282.743.648L20.7 10v3.153H24c.38 0 .693.282.743.648l.007.102c0 .38-.282.693-.648.743l-.102.007h-3.35z"/>
    </g>
</svg>
