<svg xmlns="http://www.w3.org/2000/svg" width="36" height="36" viewBox="0 0 36 36">
    <g fill="none" fill-rule="evenodd" transform="translate(1 1)">
        <path fill="#232334" fill-rule="nonzero" d="M12.65 11.384l.084.072L17 15.722l4.266-4.266c.293-.292.768-.292 1.06 0 .267.267.291.683.073.977l-.072.084-4.266 4.266 4.266 4.266c.293.293.293.768 0 1.06-.267.267-.683.291-.977.073l-.084-.072L17 17.844l-4.266 4.266c-.293.293-.768.293-1.06 0-.267-.266-.291-.683-.073-.977l.072-.084 4.266-4.266-4.266-4.266c-.293-.293-.293-.768 0-1.06.267-.267.683-.291.977-.073z"/>
    </g>
</svg>
