<svg xmlns="http://www.w3.org/2000/svg" width="16" height="16" viewBox="0 0 16 16">
    <path fill="#232334" d="M15 10.347c.38 0 .693.283.743.649l.007.101v3.166c0 .765-.567 1.407-1.309 1.48l-.141.007h-3.35c-.414 0-.75-.336-.75-.75 0-.38.282-.693.648-.743l.102-.007 3.3-.001v-3.152c0-.38.282-.693.648-.743l.102-.007zm-14 0c.38 0 .693.283.743.649l.007.101v3.152l3.3.001c.38 0 .693.282.743.648L5.8 15c0 .38-.282.693-.648.743l-.102.007H1.7c-.762 0-1.374-.597-1.443-1.345l-.007-.142v-3.166c0-.414.336-.75.75-.75zM5.05.25c.414 0 .75.336.75.75 0 .38-.282.693-.648.743l-.102.007h-3.3v3.153c0 .38-.282.693-.648.743L1 5.653c-.38 0-.693-.283-.743-.649L.25 4.903V1.737C.25.972.817.33 1.559.257L1.7.25h3.35zm9.25 0c.762 0 1.374.597 1.443 1.345l.007.142v3.166c0 .414-.336.75-.75.75-.38 0-.693-.283-.743-.649l-.007-.101V1.75h-3.3c-.38 0-.693-.282-.743-.648L10.2 1c0-.38.282-.693.648-.743L10.95.25h3.35z"/>
</svg>
