<svg xmlns="http://www.w3.org/2000/svg" id="Icon_feather-smile_Copy" width="24" height="24" viewBox="0 0 24 24">
    <defs>
        <clipPath id="clip-path">
            <path id="Mask" d="M0 0H24V24H0z" class="cls-1"/>
        </clipPath>
        <style>
            .cls-1{fill:none}
        </style>
    </defs>
    <path id="Mask-2" d="M0 0H24V24H0z" class="cls-1"/>
    <g id="Icon_feather-smile_Copy-2" clip-path="url(#clip-path)">
        <path id="Icon_ionic-ios-attach" fill="#747588" d="M9.329 5.474a.67.67 0 0 0-.676.662v8.242a3.382 3.382 0 0 1-.953 2.336 3.462 3.462 0 0 1-2.4 1h-.589a3.4 3.4 0 0 1-2.372-1.043A3.371 3.371 0 0 1 1.3 14.335V3.7a2.283 2.283 0 0 1 .749-1.675 2.605 2.605 0 0 1 1.778-.691 2.436 2.436 0 0 1 1.721.685A2.336 2.336 0 0 1 6.264 3.7v9.929A1.351 1.351 0 0 1 5.009 15a1.313 1.313 0 0 1-1.22-1.366V7.967a.659.659 0 0 0-.331-.592.688.688 0 0 0-.689 0 .659.659 0 0 0-.331.592v5.665a2.54 2.54 0 0 0 1.548 2.425 2.638 2.638 0 0 0 2.872-.517 2.648 2.648 0 0 0 .757-1.908V3.7A3.668 3.668 0 0 0 6.5 1.079 3.825 3.825 0 0 0 3.816 0a3.84 3.84 0 0 0-2.692 1.081A3.621 3.621 0 0 0 0 3.706V14.34A4.719 4.719 0 0 0 4.706 19h.588a4.83 4.83 0 0 0 4.32-2.828A4.361 4.361 0 0 0 10 14.387V6.135a.649.649 0 0 0-.195-.467.677.677 0 0 0-.476-.194z" transform="rotate(45 4.879 19.45)"/>
    </g>
</svg>
