<svg xmlns="http://www.w3.org/2000/svg" id="Component_48_1" width="24" height="24" viewBox="0 0 24 24">
    <defs>
        <style>
            .cls-3{fill:none;stroke:#e9e8e8}
        </style>
    </defs>
    <g id="Group_1087" transform="translate(-2270.325 -3917)">
        <path id="Rectangle_21" fill="#747588" d="M0 0h16.65v13.65a3 3 0 0 1-3 3H0V0z" transform="translate(2274 3920)"/>
        <path id="Path_337" d="M2296.632 3921.764s-.018-1.261 1.536-1.305a1.425 1.425 0 0 1 1.634 1.305" class="cls-3" transform="translate(-18.973 4.56)"/>
        <path id="Path_339" fill="none" stroke="#e9e8e8" stroke-linecap="round" stroke-width="1.4px" d="M2296.632 3923.092s-.036-2.544 3.1-2.632a2.874 2.874 0 0 1 3.294 2.632" transform="rotate(180 2291.134 3926.046)"/>
        <path id="Path_338" d="M2296.632 3921.764s-.018-1.261 1.536-1.305a1.425 1.425 0 0 1 1.634 1.305" class="cls-3" transform="translate(-12.811 4.56)"/>
        <path id="Rectangle_24" fill="#e9e8e8" d="M0 0h2.672A2.672 2.672 0 0 1 0 2.672V0z" transform="translate(2286.978 3932.978)"/>
    </g>
</svg>
