<svg xmlns="http://www.w3.org/2000/svg" width="32" height="32" viewBox="0 0 32 32">
    <g fill="none" fill-rule="evenodd">
        <circle cx="16" cy="16" r="16" fill="#3D8462"/>
        <path fill="#FFF" d="M12.414 10.037l10.331 5.453c.489.258.676.863.418 1.351-.094.178-.24.324-.418.418l-10.33 5.452c-.49.258-1.094.071-1.352-.417-.076-.144-.116-.304-.116-.467v-2.785c0-.421.265-.798.662-.94l4.389-1.578c.103-.037.157-.152.12-.255-.02-.057-.064-.1-.12-.121l-4.389-1.577c-.397-.143-.662-.52-.662-.941v-2.708c0-.553.448-1 1-1 .163 0 .323.04.467.115z"/>
    </g>
</svg>
