<?xml version="1.0" encoding="UTF-8"?>
<svg width="27px" height="35px" viewBox="0 0 27 35" version="1.1" xmlns="http://www.w3.org/2000/svg" xmlns:xlink="http://www.w3.org/1999/xlink">
    <title>DE33605B-B49E-4FD0-9308-52C2082C4E26</title>
    <g id="File-Share" stroke="none" stroke-width="1" fill="none" fill-rule="evenodd">
        <g id="16_Farm_Link" transform="translate(-270.000000, -588.000000)">
            <g id="Group-40" transform="translate(270.000000, 588.000000)">
                <g id="Group-37" stroke="#F5F5F5">
                    <path d="M18.9126272,0.5 C19.5904277,0.5 20.2391787,0.775213537 20.7102285,1.26257953 L20.7102285,1.26257953 L25.7976012,6.52616861 C26.2481539,6.99232753 26.5,7.61528216 26.5,8.26358908 L26.5,8.26358908 L26.5,32 C26.5,32.6903559 26.220178,33.3153559 25.767767,33.767767 C25.3153559,34.220178 24.6903559,34.5 24,34.5 L24,34.5 L3,34.5 C2.30964406,34.5 1.68464406,34.220178 1.23223305,33.767767 C0.779822031,33.3153559 0.5,32.6903559 0.5,32 L0.5,32 L0.5,3 C0.5,2.30964406 0.779822031,1.68464406 1.23223305,1.23223305 C1.68464406,0.779822031 2.30964406,0.5 3,0.5 L3,0.5 Z" id="Rectangle" fill="#747588"></path>
                    <polyline id="Path-8" stroke-linecap="round" stroke-linejoin="round" points="19.3626188 0.919452434 19.3626188 7.91945243 26.3339395 7.91945243"></polyline>
                </g>
                <path d="M6.93752,20.06142 C7.48976,20.06142 7.96127,19.96197 8.35205,19.76307 C8.74283,19.56417 9.04118,19.27869 9.2471,18.90663 C9.45302,18.53457 9.55598,18.08412 9.55598,17.55528 C9.55598,17.03112 9.45185,16.58301 9.24359,16.21095 C9.03533,15.83889 8.73581,15.55458 8.34503,15.35802 C7.95425,15.16146 7.48508,15.06318 6.93752,15.06318 L5,15.06318 L5,20.06142 L6.93752,20.06142 Z M6.09512,19.1769 L6.09512,15.9477 L6.8603,15.9477 C7.92734,15.9477 8.46086,16.48356 8.46086,17.55528 C8.46086,18.09816 8.32748,18.50415 8.06072,18.77325 C7.79396,19.04235 7.39382,19.1769 6.8603,19.1769 L6.09512,19.1769 Z M13.4073132,20.1246 C13.9080732,20.1246 14.3398032,20.0193 14.7025032,19.8087 C15.0652032,19.5981 15.3448332,19.30092 15.5413932,18.91716 C15.7379532,18.5334 15.8362332,18.07944 15.8362332,17.55528 C15.8362332,17.0358 15.7379532,16.58418 15.5413932,16.20042 C15.3448332,15.81666 15.0652032,15.52065 14.7025032,15.31239 C14.3398032,15.10413 13.9080732,15 13.4073132,15 C12.9065532,15 12.4736532,15.10413 12.1086132,15.31239 C11.7435732,15.52065 11.4616032,15.81666 11.2627032,16.20042 C11.0638032,16.58418 10.9643532,17.0358 10.9643532,17.55528 C10.9643532,18.07944 11.0638032,18.5334 11.2627032,18.91716 C11.4616032,19.30092 11.7435732,19.5981 12.1086132,19.8087 C12.4736532,20.0193 12.9065532,20.1246 13.4073132,20.1246 Z M13.4073132,19.27518 C12.9907932,19.27518 12.6631932,19.1301 12.4245132,18.83994 C12.1858332,18.54978 12.0664932,18.12156 12.0664932,17.55528 C12.0664932,16.99368 12.1858332,16.56897 12.4245132,16.28115 C12.6631932,15.99333 12.9907932,15.84942 13.4073132,15.84942 C13.8191532,15.84942 14.1455832,15.99333 14.3866032,16.28115 C14.6276232,16.56897 14.7481332,16.99368 14.7481332,17.55528 C14.7481332,18.11688 14.6276232,18.54393 14.3866032,18.83643 C14.1455832,19.12893 13.8191532,19.27518 13.4073132,19.27518 Z M19.6301139,20.1246 C19.9623939,20.1246 20.2782939,20.07429 20.5778139,19.97367 C20.8773339,19.87305 21.1253739,19.73148 21.3219339,19.54896 L20.9779539,18.76272 C20.7533139,18.9312 20.5345239,19.05405 20.3215839,19.13127 C20.1086439,19.20849 19.8851739,19.2471 19.6511739,19.2471 C19.2065739,19.2471 18.8625939,19.10319 18.6192339,18.81537 C18.3758739,18.52755 18.2541939,18.10752 18.2541939,17.55528 C18.2541939,17.00304 18.3758739,16.58535 18.6192339,16.30221 C18.8625939,16.01907 19.2065739,15.8775 19.6511739,15.8775 C19.8851739,15.8775 20.1086439,15.91611 20.3215839,15.99333 C20.5345239,16.07055 20.7533139,16.1934 20.9779539,16.36188 L21.3219339,15.57564 C21.1253739,15.39312 20.8773339,15.25155 20.5778139,15.15093 C20.2782939,15.05031 19.9623939,15 19.6301139,15 C19.1199939,15 18.6777339,15.1053 18.3033339,15.3159 C17.9289339,15.5265 17.6411139,15.82368 17.4398739,16.20744 C17.2386339,16.5912 17.1380139,17.04048 17.1380139,17.55528 C17.1380139,18.07476 17.2386339,18.52755 17.4398739,18.91365 C17.6411139,19.29975 17.9289339,19.5981 18.3033339,19.8087 C18.6777339,20.0193 19.1199939,20.1246 19.6301139,20.1246 Z" id="DOC" fill="#F5F5F5" fill-rule="nonzero"></path>
            </g>
        </g>
    </g>
</svg>