<?xml version="1.0" encoding="UTF-8"?>
<svg width="24px" height="24px" viewBox="0 0 24 24" version="1.1" xmlns="http://www.w3.org/2000/svg" xmlns:xlink="http://www.w3.org/1999/xlink">
    <title>6CB36B94-B5D1-4136-B84E-D3CFBE68113A</title>
    <g id="File-Share" stroke="none" stroke-width="1" fill="none" fill-rule="evenodd">
        <g id="16_Farm_Link" transform="translate(-638.000000, -711.000000)">
            <g id="Group-11" transform="translate(439.000000, 514.000000)">
                <g id="Group-9" transform="translate(199.000000, 197.000000)">
                    <polygon id="Path" points="0 0 24 0 24 24 0 24"></polygon>
                    <path d="M18.75,11.9116475 C19.1296958,11.9116475 19.443491,12.1938014 19.4931534,12.559877 L19.5,12.6616475 L19.5,19.6616475 C19.5,20.0413433 19.2178461,20.3551385 18.8517706,20.4048009 L18.75,20.4116475 L4.75,20.4116475 C4.37030423,20.4116475 4.05650904,20.1294936 4.00684662,19.7634181 L4,19.6616475 L4,13.9320106 C4,13.517797 4.33578644,13.1820106 4.75,13.1820106 C5.12969577,13.1820106 5.44349096,13.4641645 5.49315338,13.83024 L5.5,13.9320106 L5.5,18.9116475 L18,18.9116475 L18,12.6616475 C18,12.2819518 18.2821539,11.9681566 18.6482294,11.9184941 L18.75,11.9116475 Z M11.75,4 C12.1642136,4 12.5,4.33578644 12.5,4.75 L12.5,4.75 L12.5,14.426 L16.2196699,10.7076056 L16.3037883,10.6349875 C16.5973998,10.417133 17.0140635,10.441339 17.2803301,10.7076056 C17.5732233,11.0004988 17.5732233,11.4753726 17.2803301,11.7682658 L17.2803301,11.7682658 L12.2803301,16.7682658 L12.1962117,16.8408839 C11.9026002,17.0587384 11.4859365,17.0345323 11.2196699,16.7682658 L11.2196699,16.7682658 L6.21966991,11.7682658 L6.14705176,11.6841474 C5.9291973,11.3905359 5.95340335,10.9738722 6.21966991,10.7076056 L6.21966991,10.7076056 L6.30378835,10.6349875 C6.59739984,10.417133 7.01406352,10.441339 7.28033009,10.7076056 L7.28033009,10.7076056 L11,14.428 L11,4.75 L11.0068466,4.64822944 C11.056509,4.28215388 11.3703042,4 11.75,4 Z" id="Combined-Shape" fill="#747588" fill-rule="nonzero"></path>
                </g>
            </g>
        </g>
    </g>
</svg>