<svg xmlns="http://www.w3.org/2000/svg" width="17" height="17" viewBox="0 0 17 17">
    <g fill="none" fill-rule="evenodd">
        <path d="M0 0H17V17H0z"/>
        <path fill="#232334" fill-rule="nonzero" d="M15.566 8.143c.38 0 .694.283.743.649l.007.101v7c0 .38-.282.694-.648.744l-.102.006h-14c-.38 0-.693-.282-.743-.648l-.007-.102v-5.73c0-.413.336-.75.75-.75.38 0 .694.283.743.649l.007.102v4.98h12.5v-6.25c0-.38.282-.694.648-.744l.102-.007zm-7-7.911c.414 0 .75.336.75.75v9.676l3.72-3.719.084-.072c.294-.218.71-.194.976.072.293.293.293.768 0 1.061l-5 5-.084.073c-.293.217-.71.193-.976-.073l-5-5-.073-.084c-.218-.294-.193-.71.073-.977l.084-.072c.294-.218.71-.194.976.072l3.72 3.72V.983L7.823.88c.05-.366.363-.648.743-.648z"/>
    </g>
</svg>
