<svg xmlns="http://www.w3.org/2000/svg" width="24" height="24" viewBox="0 0 24 24">
    <g fill="none" fill-rule="evenodd">
        <path d="M0 0H24V24H0z"/>
        <path fill="#231F20" fill-rule="nonzero" d="M20.388 3.854c-1.139-1.139-2.984-1.139-4.123 0L4.71 15.408c-.079.08-.136.178-.166.286l-1.52 5.485c-.062.225.002.466.167.631.165.165.406.229.63.167l5.487-1.52c.108-.03.206-.087.285-.166L21.148 8.735c1.136-1.139 1.136-2.982 0-4.121l-.76-.76zM6.12 15.829l9.457-9.457 3.05 3.05-9.457 9.457-3.05-3.05zm-.61 1.223l2.437 2.437-3.37.934.934-3.371zm14.72-9.232l-.686.687-3.05-3.05.687-.687c.632-.633 1.657-.633 2.29 0l.76.76c.63.633.63 1.657 0 2.29z"/>
    </g>
</svg>
