<svg xmlns="http://www.w3.org/2000/svg" width="16" height="16" viewBox="0 0 16 16">
    <path fill="#30855C" d="M14.642.719c-.958-.959-2.513-.959-3.471 0l-9.731 9.73c-.067.067-.115.15-.14.24L.02 15.31c-.053.19 0 .392.14.531.139.14.342.193.531.14l4.62-1.28c.09-.025.173-.073.24-.14l9.731-9.73c.957-.96.957-2.512 0-3.471l-.64-.64zM2.628 10.804l7.964-7.964 2.569 2.568-7.965 7.964-2.568-2.568zm-.513 1.03l2.052 2.051-2.838.787.786-2.839zm12.396-7.775l-.579.578-2.568-2.568.578-.579c.533-.532 1.396-.532 1.929 0l.64.64c.531.533.531 1.396 0 1.929z"/>
</svg>
