<svg width="54" height="54" viewBox="0 0 54 54" xmlns="http://www.w3.org/2000/svg">
    <g fill="none" fill-rule="evenodd">
        <circle fill-opacity=".053" fill="#30855C" cx="27" cy="27" r="27"/>
        <g fill-rule="nonzero">
            <g transform="translate(11 11)">
                <path d="M2.365 21.942h30.27c1.285-.002 2.327-1.063 2.329-2.372v-1.187a.588.588 0 0 0-.582-.593h-1.165V2.372C33.216 1.062 32.174.002 30.89 0H4.11C2.826.001 1.784 1.063 1.783 2.372v15.419H.619a.588.588 0 0 0-.583.593v1.186c.002 1.31 1.044 2.37 2.329 2.372zm.582-19.57c0-.655.522-1.185 1.164-1.186H30.89c.642.001 1.163.531 1.164 1.186v15.419h-7.568c-.09 0-.18.021-.26.063l-1.04.53h-11.37l-1.04-.53a.571.571 0 0 0-.26-.063H2.947V2.372zM1.2 18.977h9.177l1.041.53c.081.042.17.063.26.063h11.643c.09 0 .18-.022.26-.063l1.042-.53H33.8v.593c0 .654-.522 1.185-1.165 1.186H2.365A1.177 1.177 0 0 1 1.2 19.57v-.593z" fill="#31855C"/>
                <path d="M30.307 16.605a.586.586 0 0 0 .582-.59V2.965a.587.587 0 0 0-.582-.593H4.693a.587.587 0 0 0-.582.593v13.05c0 .326.26.59.582.59a.586.586 0 0 0 .582-.59V3.558h24.45v12.457c0 .326.26.59.581.59zm-17.464 6.523h1.164V25.5h-1.164v-2.372z" fill="#31855C"/>
                <rect fill="#D4AE5E" x="22.739" y="23.128" width="1.164" height="2.372" rx=".582"/>
                <rect fill="#D4AE5E" x="17.5" y="32.023" width="1.164" height="1.779" rx=".582"/>
                <path d="m14.267 26.785.645.988a2.865 2.865 0 0 1 2.985-.141 2.973 2.973 0 0 1 1.534 2.612c0 .166-.013.332-.04.495l1.148.196a4.21 4.21 0 0 0-.907-3.37 4.047 4.047 0 0 0-3.111-1.472c-.802-.001-1.586.24-2.254.692zm-6.43 6.82L8.933 34a2.916 2.916 0 0 1 2.745-1.976c1.233 0 2.333.791 2.745 1.976l1.098-.395c-.577-1.659-2.116-2.768-3.843-2.768-1.728 0-3.267 1.11-3.843 2.768zm17.43-2.768c-1.727.002-3.266 1.11-3.843 2.768L22.52 34a2.916 2.916 0 0 1 2.745-1.977c1.234 0 2.334.792 2.746 1.977l1.097-.395c-.577-1.658-2.116-2.766-3.843-2.768zm-21.738.593a2.81 2.81 0 0 1 .22.01l.025.001.113.012.008.001a2.884 2.884 0 0 1 1.574.73l.777-.883c-.44-.4-.96-.7-1.524-.874a2.962 2.962 0 0 1 1.605-2.254 2.864 2.864 0 0 1 2.732.096l.583-1.027a4.012 4.012 0 0 0-1.456-.513v-3.601H7.022v3.6c-1.787.266-3.19 1.696-3.452 3.516h-.04A4.077 4.077 0 0 0 0 32.32l1.008.593a2.913 2.913 0 0 1 2.521-1.483zm27.942-1.185h-.041c-.261-1.821-1.665-3.25-3.452-3.516v-3.601h-1.164v3.601a4.011 4.011 0 0 0-1.456.513l.583 1.026a2.864 2.864 0 0 1 2.732-.095 2.963 2.963 0 0 1 1.605 2.254 4.04 4.04 0 0 0-1.524.874l.776.884a2.88 2.88 0 0 1 1.575-.73l.008-.002.112-.012.026-.002.095-.006a2.913 2.913 0 0 1 2.646 1.48L35 32.32a4.071 4.071 0 0 0-3.53-2.075z" fill="#31855C"/>
                <rect fill="#D4AE5E" x="11.097" y="27.872" width="1.164" height="1.186" rx=".582"/>
                <rect fill="#D4AE5E" x="22.157" y="27.279" width="1.164" height="1.186" rx=".582"/>
                <rect fill="#D4AE5E" x="9.35" y="24.314" width="1.164" height="1.186" rx=".582"/>
                <rect fill="#D4AE5E" x="17.5" y="23.721" width="1.164" height="1.186" rx=".582"/>
            </g>
            <g fill="#D4AE5E">
                <path d="M28.814 24.424a.967.967 0 0 1-.463-.136c-.261-.155-.49-.428-.637-.768-.15-.34-.21-.71-.166-1.03.052-.34.21-.603.436-.739.236-.127.516-.107.796.058.262.156.489.428.638.768.314.72.192 1.507-.28 1.77a.67.67 0 0 1-.324.077zm-.489-2.508a.468.468 0 0 0-.227.059c-.166.087-.28.281-.315.544-.034.272.009.583.14.875.131.291.324.525.542.66.21.127.41.147.577.05.358-.195.437-.837.175-1.42-.131-.292-.324-.525-.542-.66a.72.72 0 0 0-.35-.108z"/>
                <path d="M29.225 24.259H29.2c-.533-.146-.787-.739-.856-1.244-.009-.049-.009-.088-.018-.137a4.768 4.768 0 0 0-.061-.398c-.044-.175-.183-.38-.34-.437-.062-.02-.097-.098-.07-.166.017-.068.087-.107.148-.077.245.087.428.379.49.612.043.146.052.301.069.447.009.049.009.088.018.136.052.418.262.904.681 1.02.061.02.096.089.087.156a.137.137 0 0 1-.122.088zM26.848 18.436a.681.681 0 0 1-.436-.174 1.39 1.39 0 0 1-.41-.671 1.528 1.528 0 0 1-.019-.817c.07-.262.22-.447.42-.515.2-.068.41-.02.611.146.184.156.333.398.412.67.078.283.087.565.017.817-.07.263-.219.447-.42.516a.6.6 0 0 1-.175.028zm-.27-1.953c-.035 0-.07.01-.105.02-.123.038-.218.164-.262.339-.053.194-.044.428.017.66.07.234.183.429.332.545.13.117.27.156.393.107.122-.039.219-.165.262-.34a1.313 1.313 0 0 0-.017-.661c-.07-.233-.184-.428-.332-.544-.097-.078-.192-.127-.289-.127h.001z"/>
                <path d="M27.154 18.262h-.026a.714.714 0 0 1-.393-.273.925.925 0 0 1-.175-.466 2.182 2.182 0 0 1 0-.34c0-.03 0-.059.009-.078a.77.77 0 0 0-.035-.34c-.026-.079-.087-.156-.166-.175-.061-.01-.105-.078-.096-.146.008-.068.07-.117.13-.107.15.02.29.155.35.33.053.156.053.311.044.447 0 .03 0 .059-.008.088a1.6 1.6 0 0 0 0 .292c.017.126.06.243.122.33.07.097.166.156.27.185.062.02.106.087.088.155a.11.11 0 0 1-.114.098zM26.167 19.933c-.297 0-.63-.204-.848-.564a1.512 1.512 0 0 1-.236-.768c0-.272.097-.496.262-.632.167-.136.394-.155.621-.058.218.087.42.272.568.515.148.244.236.516.236.768 0 .272-.096.496-.262.632a.534.534 0 0 1-.341.107zm-.655-.71c.244.39.637.564.865.39.104-.079.166-.234.166-.419 0-.204-.07-.428-.193-.622-.122-.194-.288-.35-.454-.418-.157-.068-.306-.058-.41.03-.106.077-.167.232-.167.417 0 .204.07.428.193.622z"/>
                <path d="M26.516 19.651a.651.651 0 0 1-.393-.136.978.978 0 0 1-.297-.389 1.549 1.549 0 0 1-.087-.33c-.01-.03-.01-.059-.018-.078-.026-.107-.052-.224-.122-.31-.044-.07-.131-.128-.2-.109-.062.01-.124-.038-.132-.106-.01-.068.034-.136.095-.146.15-.029.315.049.42.204.096.127.13.282.166.419.008.028.008.058.017.086.018.098.044.195.08.283a.655.655 0 0 0 .209.281.45.45 0 0 0 .306.088c.06-.01.122.049.122.117.009.068-.044.136-.105.136-.017-.01-.035-.01-.06-.01zM28.054 17.94a.573.573 0 0 1-.332-.106c-.174-.127-.27-.35-.27-.622 0-.253.078-.535.227-.778.149-.243.35-.428.568-.516.227-.096.454-.077.62.05.341.252.358.884.044 1.4-.149.242-.35.427-.568.514a.798.798 0 0 1-.289.058zm.473-1.827c-.062 0-.131.02-.201.049-.175.068-.332.224-.455.417a1.19 1.19 0 0 0-.183.623c0 .184.06.33.166.418.105.078.253.087.41.02.175-.069.332-.224.455-.419.236-.388.245-.865.017-1.04a.322.322 0 0 0-.21-.068z"/>
                <path d="M27.994 17.912a.115.115 0 0 1-.106-.078.865.865 0 0 1-.052-.515c.035-.166.114-.321.218-.448.08-.087.158-.146.245-.204.018-.02.044-.029.061-.048a.667.667 0 0 0 .22-.233c.034-.069.06-.176.016-.254-.035-.058-.017-.145.044-.174.053-.04.13-.02.157.048.08.146.07.34-.017.515-.07.137-.192.243-.288.321-.018.02-.044.03-.062.049-.078.058-.148.107-.21.175a.642.642 0 0 0-.122.67c.027.069 0 .146-.052.176h-.052zM27.548 20.274a.486.486 0 0 1-.262-.068c-.184-.107-.306-.31-.341-.583a1.453 1.453 0 0 1 .14-.798 1.38 1.38 0 0 1 .498-.593c.218-.126.437-.146.62-.038.183.107.306.31.34.583.036.253-.017.535-.14.797a1.372 1.372 0 0 1-.498.593.744.744 0 0 1-.357.107zm-.359-1.4.106.058a1.23 1.23 0 0 0-.114.642c.026.184.096.32.21.388.113.069.261.05.41-.038.166-.097.306-.262.402-.476.096-.214.14-.448.114-.642-.026-.185-.097-.32-.21-.389-.114-.068-.262-.048-.41.039a1.027 1.027 0 0 0-.402.476l-.106-.058z"/>
                <path d="M27.556 20.245c-.034 0-.078-.02-.095-.059a.825.825 0 0 1-.106-.505c.018-.165.07-.33.167-.477.06-.097.14-.165.218-.242l.053-.059c.07-.078.157-.165.192-.262.026-.078.035-.185-.009-.253a.147.147 0 0 1 .026-.185c.052-.039.122-.029.166.03.096.136.105.33.035.515a1.15 1.15 0 0 1-.254.36.389.389 0 0 1-.061.058c-.07.068-.13.126-.183.204a.658.658 0 0 0-.053.68.135.135 0 0 1-.035.175.15.15 0 0 1-.061.02zM28.963 19.953c-.052 0-.096-.01-.148-.02-.202-.058-.35-.233-.437-.495a1.519 1.519 0 0 1-.009-.817c.07-.282.21-.525.385-.69.192-.175.401-.233.602-.175.201.058.35.233.438.496.078.243.078.535.008.817-.131.524-.49.884-.839.884zm-.367-1.264a1.21 1.21 0 0 0 0 .661c.053.175.158.292.28.33.27.088.586-.232.699-.68a1.21 1.21 0 0 0 0-.66c-.053-.176-.157-.292-.28-.331-.122-.04-.262.01-.393.126-.14.126-.245.32-.306.554z"/>
                <path d="M29.068 19.914a.119.119 0 0 1-.087-.039.956.956 0 0 1-.201-.466c-.018-.166.008-.34.078-.506.044-.107.114-.194.166-.282.018-.02.027-.048.044-.068a.777.777 0 0 0 .14-.301c.017-.078 0-.185-.053-.243-.052-.049-.052-.127-.008-.185.043-.058.113-.058.166-.01a.566.566 0 0 1 .13.496c-.025.156-.113.292-.183.408a.295.295 0 0 0-.043.069c-.053.077-.105.155-.149.242a.742.742 0 0 0-.061.36.605.605 0 0 0 .131.321.146.146 0 0 1 0 .185.152.152 0 0 1-.07.02zM30.344 18.038c-.157 0-.323-.04-.48-.107a1.29 1.29 0 0 1-.577-.506c-.131-.233-.166-.476-.088-.69.149-.427.7-.582 1.215-.35.245.108.446.292.577.506.13.233.166.477.087.69-.105.292-.402.457-.734.457zm-.42-1.487c-.244 0-.445.106-.515.29a.53.53 0 0 0 .07.448.95.95 0 0 0 .463.399c.393.175.813.077.918-.204a.53.53 0 0 0-.07-.447.95.95 0 0 0-.463-.399 1.06 1.06 0 0 0-.403-.087z"/>
                <path d="M30.738 17.659a.547.547 0 0 1-.167-.03.945.945 0 0 1-.34-.243l-.053-.058c-.07-.068-.131-.136-.2-.184a.536.536 0 0 0-.315-.107.414.414 0 0 0-.297.116c-.053.049-.123.039-.167-.02a.137.137 0 0 1 .018-.184.668.668 0 0 1 .437-.165c.148 0 .306.048.437.146.087.068.166.145.236.223l.052.059a.74.74 0 0 0 .253.194c.07.03.166.03.228-.039a.106.106 0 0 1 .166.01.136.136 0 0 1-.009.184.521.521 0 0 1-.28.098zM30.606 19.807c-.262 0-.49-.107-.603-.33-.218-.39 0-.973.472-1.293.472-.32 1.04-.272 1.259.107.218.388 0 .972-.473 1.292a1.131 1.131 0 0 1-.655.224zm.516-1.575a.936.936 0 0 0-.524.175c-.36.243-.543.68-.394.943.149.263.577.272.935.03.359-.244.542-.681.393-.944-.078-.135-.226-.204-.41-.204z"/>
                <path d="M30.274 19.69c-.061 0-.114-.058-.114-.126 0-.175.044-.35.14-.496a.781.781 0 0 1 .368-.301c.095-.039.2-.058.296-.078.027 0 .053-.01.07-.01a.64.64 0 0 0 .289-.116.305.305 0 0 0 .113-.224c-.008-.068.044-.136.105-.145.061-.01.123.048.131.116a.513.513 0 0 1-.21.457.811.811 0 0 1-.384.156c-.026.009-.052.009-.078.019-.088.02-.175.039-.254.068a.59.59 0 0 0-.262.214.621.621 0 0 0-.096.33c0 .078-.053.136-.114.136z"/>
                <path d="M28.5 20.517c-2.185 0-3.889-.779-3.889-1.78 0-.301-.117-1.098 1.185-1.487.062-.02.123.02.14.087.017.069-.017.137-.078.156-1.145.35-1.01 1.001-1.01 1.244 0 .827 1.677 1.517 3.652 1.517s3.653-.7 3.653-1.517c0-.35-.264-.972-1.034-1.244-.06-.02-.095-.097-.078-.165a.12.12 0 0 1 .149-.088c.803.282 1.199.972 1.199 1.497 0 1.001-1.704 1.78-3.889 1.78z" stroke="#D4AE5E" stroke-width=".75"/>
                <path d="M27.18 21.537h-.017c-1.573-.281-2.455-.748-2.621-1.39-.149-.534.28-.972.297-.992.052-.048.122-.038.166.01.044.049.035.136-.009.185-.009.01-.332.34-.236.73.096.369.594.874 2.438 1.204.061.01.105.078.096.147-.008.058-.061.106-.113.106z" stroke="#D4AE5E" stroke-width=".75"/>
                <path d="M25.25 22.043h-.027c-.393-.117-.63-.311-.699-.593-.123-.457.271-.933.288-.953.044-.048.114-.058.166-.01a.146.146 0 0 1 .009.185c-.087.107-.305.447-.236.71.053.184.227.32.533.408.062.02.097.088.088.155-.026.059-.07.098-.123.098z" stroke="#D4AE5E" stroke-width=".75"/>
                <path d="M26.857 24.483h-.009c-.742-.068-1.459-.185-1.834-.311-.438-.146-.743-.603-.726-1.118.018-.788.323-1.478.332-1.507.035-.068.105-.088.157-.058.062.029.079.107.053.175 0 .01-.297.67-.314 1.4-.01.388.218.738.559.855.358.116 1.074.243 1.79.302.062.009.115.067.106.135-.008.078-.052.127-.114.127zm2.963-2.946c-.053 0-.105-.048-.114-.107-.009-.067.035-.136.096-.146 1.835-.33 2.342-.835 2.438-1.205.105-.388-.227-.72-.236-.72a.146.146 0 0 1-.008-.184c.043-.058.113-.058.166-.01.017.02.445.448.305.992-.166.641-1.048 1.108-2.621 1.39-.009-.01-.018-.01-.026-.01z" stroke="#D4AE5E" stroke-width=".75"/>
                <path d="M31.751 22.043c-.053 0-.096-.04-.114-.098a.126.126 0 0 1 .088-.155c.306-.087.489-.233.532-.408.07-.263-.148-.603-.235-.71a.136.136 0 0 1 .008-.184.106.106 0 0 1 .167.01c.017.019.41.495.288.952-.07.282-.306.476-.7.593h-.034z"/>
                <path d="M30.143 24.483a.114.114 0 0 1-.114-.117c-.008-.068.044-.136.105-.136.708-.058 1.433-.185 1.791-.302.341-.116.569-.466.56-.854-.026-.74-.315-1.4-.315-1.41-.026-.069-.008-.146.053-.175.061-.03.13-.01.157.058.008.029.315.72.34 1.517.018.505-.279.962-.724 1.117-.376.127-1.102.253-1.835.311-.01-.009-.01-.009-.018-.009z" stroke="#D4AE5E" stroke-width=".75"/>
                <path d="M28.492 25.571c-.534 0-1.058-.02-1.582-.048a12.452 12.452 0 0 1-1.425-.155c-.602-.117-.987-.36-1.136-.74-.21-.505.096-1.05.105-1.069.035-.058.105-.078.157-.039.053.04.07.117.035.175 0 0-.245.447-.087.826.123.292.446.496.961.594.359.067.804.116 1.399.146 1.03.058 2.097.058 3.145 0 .62-.04 1.058-.078 1.416-.147.515-.097.848-.29.961-.593.157-.379-.087-.826-.087-.826a.135.135 0 0 1 .035-.175c.052-.039.122-.019.157.04.008.019.315.563.105 1.069-.149.379-.533.632-1.136.738-.376.069-.822.117-1.45.156-.516.029-1.05.048-1.574.048z" stroke="#D4AE5E" stroke-width=".75"/>
            </g>
        </g>
    </g>
</svg>
