<?xml version="1.0" encoding="UTF-8"?>
<svg width="39px" height="38px" viewBox="0 0 39 38" version="1.1" xmlns="http://www.w3.org/2000/svg" xmlns:xlink="http://www.w3.org/1999/xlink">
    <title>B7D13336-4597-4841-B684-989448A64D62</title>
    <g id="Sourcing_Module" stroke="none" stroke-width="1" fill="none" fill-rule="evenodd">
        <g id="07_Sourcing" transform="translate(-338.000000, -945.000000)">
            <g id="Group-8" transform="translate(339.000000, 945.000000)">
                <g id="Group-18">
                    <rect id="Rectangle" x="0" y="0" width="38" height="38"></rect>
                    <g id="Group-15" transform="translate(0.000000, 6.000000)" stroke="#A88057" stroke-linecap="round" stroke-linejoin="round" stroke-width="1.2">
                        <polyline id="Stroke-1" points="7.9466842 9.30648177 13.4782435 -1.86517468e-14 21.8760885 12.8886859"></polyline>
                        <line x1="5.05669885" y1="14.1698223" x2="5.92527029" y2="12.7091528" id="Stroke-3"></line>
                        <path d="M20.6360166,16.284108 L26.53858,5.24391191 L37.2319352,22.6777081 C37.2319352,24.7726632 28.8973719,26.4713408 18.6159676,26.4713408 C8.33456339,26.4713408 1.45949319e-14,24.7726632 1.45949319e-14,22.6777081 L3.07102045,17.5140182" id="Stroke-4"></path>
                        <path d="M9.66732423,12.5121014 L5.51431192,12.5121014 C3.29945474,12.5121014 1.50275268,10.7638891 1.50275268,8.60731768 L5.6570058,8.60731768 C7.87186297,8.60731768 9.66732423,10.35553 9.66732423,12.5121014 Z" id="Stroke-6"></path>
                        <path d="M10.2707332,12.5121014 L14.4237455,12.5121014 C16.6398435,12.5121014 18.4353048,10.7638891 18.4353048,8.60731768 L14.2822925,8.60731768 C12.0661945,8.60731768 10.2707332,10.35553 10.2707332,12.5121014 Z" id="Stroke-8"></path>
                        <path d="M9.29172912,18.0762974 L5.13871681,18.0762974 C2.92261882,18.0762974 1.12715757,16.3280851 1.12715757,14.1703055 L5.28016987,14.1703055 C7.49626787,14.1703055 9.29172912,15.919726 9.29172912,18.0762974 Z" id="Stroke-10"></path>
                        <path d="M10.0441601,18.2615088 L14.1971725,18.2615088 C16.4132704,18.2615088 18.2087317,16.5132966 18.2087317,14.3555169 L14.0557194,14.3555169 C11.8396214,14.3555169 10.0441601,16.1037292 10.0441601,18.2615088 Z" id="Stroke-12"></path>
                        <line x1="9.96909076" y1="12.0189292" x2="9.96909076" y2="25.5503579" id="Stroke-14"></line>
                        <polyline id="Stroke-16" points="23.6968624 10.5594679 26.0494502 10.0629128 27.0520298 14.1694598 27.9789196 11.3399414 32.1902503 14.459419"></polyline>
                        <polyline id="Stroke-18" points="10.6790859 5.08975028 13.2339267 4.12442782 17.9775676 6.90441153"></polyline>
                    </g>
                </g>
            </g>
        </g>
    </g>
</svg>