<svg xmlns="http://www.w3.org/2000/svg" width="14" height="14" viewBox="0 0 14 14">
    <g fill="none" fill-rule="evenodd">
        <g fill="#232334" fill-rule="nonzero">
            <g>
                <path d="M12 12H1.5V1.5H6c.414 0 .75-.336.75-.75S6.414 0 6 0H1.5C.667 0 0 .675 0 1.5V12c0 .825.667 1.5 1.5 1.5H12c.825 0 1.5-.675 1.5-1.5V7.5c0-.414-.336-.75-.75-.75s-.75.336-.75.75V12zM8.25.75c0 .414.336.75.75.75h1.943L4.099 8.344c-.292.292-.292.765 0 1.057.292.292.765.292 1.057 0L12 2.558V4.5c0 .414.336.75.75.75s.75-.336.75-.75V0H9c-.414 0-.75.336-.75.75z" transform="translate(-676 -1082) translate(676 1082)"/>
            </g>
        </g>
    </g>
</svg>
