<svg xmlns="http://www.w3.org/2000/svg" width="22" height="22" viewBox="0 0 22 22">
    <g fill="none" fill-rule="evenodd">
        <path d="M0 0H22V22H0z"/>
        <path fill="#666" fill-rule="nonzero" d="M9.317 2.603c.308 0 .608.092.863.26l.123.092 2.331 1.9.06.039c.125.09.235.197.328.317h4.13c1.236 0 2.238 1.007 2.238 2.249v9.895c0 1.242-1.002 2.248-2.237 2.248H4.627c-1.236 0-2.237-1.006-2.237-2.248V7.46c0-.07.003-.137.009-.205L2.4 4.178c0-.826.633-1.504 1.438-1.57l.128-.005h5.351zm7.836 3.957H4.627c-.451 0-.824.335-.886.77l.001.532h-.01v9.493c0 .458.341.837.782.892l.113.007h12.526c.494 0 .895-.403.895-.9V7.46c0-.497-.401-.9-.895-.9zM9.317 3.953h-5.35c-.107 0-.195.074-.219.173l-.006.052v1.216c.271-.118.57-.183.885-.183h6.313L9.458 4.002c-.026-.022-.057-.037-.09-.045l-.05-.005z"/>
    </g>
</svg>
