<svg xmlns="http://www.w3.org/2000/svg" width="24" height="24" viewBox="0 0 24 24">
    <g fill="none" fill-rule="evenodd">
        <path d="M0 0H24V24H0z"/>
        <path fill="#979797" fill-rule="nonzero" d="M19.45 5.303c.375.375.402.967.08 1.373l-.08.09-5.61 5.61 5.61 5.61c.404.404.404 1.06 0 1.464-.375.375-.967.402-1.373.08l-.09-.08-5.61-5.61-5.61 5.61c-.405.404-1.06.404-1.464 0-.375-.375-.402-.967-.08-1.373l.08-.09 5.61-5.61-5.61-5.61c-.404-.405-.404-1.06 0-1.464.375-.375.967-.402 1.373-.08l.09.08 5.61 5.61 5.61-5.61c.404-.404 1.06-.404 1.464 0z"/>
    </g>
</svg>
