<?xml version="1.0" encoding="UTF-8"?>
<svg width="41px" height="37px" viewBox="0 0 41 37" version="1.1" xmlns="http://www.w3.org/2000/svg" xmlns:xlink="http://www.w3.org/1999/xlink">
    <title>818F6F0A-589E-4103-9F43-883B99F06DDA</title>
    <g id="Sourcing_Module" stroke="none" stroke-width="1" fill="none" fill-rule="evenodd" stroke-linecap="round" stroke-linejoin="round">
        <g id="07_Sourcing" transform="translate(-685.000000, -942.000000)" stroke="#A88057">
            <g id="Group-29" transform="translate(148.000000, 738.000000)">
                <g id="1__yield-farm" transform="translate(538.000000, 205.000000)">
                    <g id="Group" transform="translate(0.000000, 15.842190)">
                        <path d="M7.5,15.68337 L9.9,15.68337 C12.2,15.68337 14.1,13.78337 14.1,11.48337 L14.1,11.48337 L11.7,11.48337 C9.4,11.48337 7.5,13.38337 7.5,15.68337 L7.5,15.68337 Z" id="Path"></path>
                        <g transform="translate(4.117580, 0.000000)" id="Oval" stroke-width="1.0000378">
                            <ellipse transform="translate(5.090450, 3.886930) rotate(-10.113190) translate(-5.090450, -3.886930) " cx="5.09045" cy="3.88693" rx="1.60006049" ry="1.20004537"></ellipse>
                            <ellipse transform="translate(3.188580, 1.687470) rotate(-10.113190) translate(-3.188580, -1.687470) " cx="3.18858" cy="1.68747" rx="1.20004537" ry="1.50005671"></ellipse>
                            <ellipse transform="translate(1.687470, 4.088670) rotate(-10.113190) translate(-1.687470, -4.088670) " cx="1.68747" cy="4.08867" rx="1.50005671" ry="1.20004537"></ellipse>
                        </g>
                        <path d="M7.5,12.08337 L4.2,12.08337 C1.9,12.08337 8.8817842e-16,10.18337 8.8817842e-16,7.88337 L8.8817842e-16,7.88337 L3.3,7.88337 C5.6,7.88337 7.5,9.78337 7.5,12.08337 L7.5,12.08337 Z" id="Path"></path>
                        <line x1="7.5" y1="3.28337" x2="7.5" y2="17.88337" id="Path"></line>
                    </g>
                    <g id="Group" transform="translate(25.100000, 16.244590)">
                        <path d="M7.5,15.68097 L9.9,15.68097 C12.2,15.68097 14.1,13.78097 14.1,11.48097 L14.1,11.48097 L11.7,11.48097 C9.3,11.58097 7.5,13.38097 7.5,15.68097 L7.5,15.68097 Z" id="Path"></path>
                        <g transform="translate(4.014720, 0.000000)" id="Oval" stroke-width="1.0000378">
                            <ellipse transform="translate(5.090550, 3.886930) rotate(-10.113190) translate(-5.090550, -3.886930) " cx="5.09055" cy="3.88693" rx="1.60006049" ry="1.20004537"></ellipse>
                            <ellipse transform="translate(3.188680, 1.687470) rotate(-10.113190) translate(-3.188680, -1.687470) " cx="3.18868" cy="1.68747" rx="1.20004537" ry="1.50005671"></ellipse>
                            <ellipse transform="translate(1.687470, 4.088670) rotate(-10.113190) translate(-1.687470, -4.088670) " cx="1.68747" cy="4.08867" rx="1.50005671" ry="1.20004537"></ellipse>
                        </g>
                        <path d="M7.5,12.08097 L4.2,12.08097 C1.9,12.08097 3.55271368e-15,10.18097 3.55271368e-15,7.88097 L3.55271368e-15,7.88097 L3.2,7.88097 C5.6,7.88097 7.5,9.78097 7.5,12.08097 L7.5,12.08097 Z" id="Path"></path>
                        <line x1="7.5" y1="3.28097" x2="7.5" y2="17.88097" id="Path"></line>
                    </g>
                    <g id="Group" transform="translate(10.800000, 0.000000)">
                        <path d="M8.9,23.02556 L11.5,23.02556 C14,23.02556 16,21.02556 16,18.52556 L16,18.52556 L13.5,18.52556 C11,18.52556 8.9,20.52556 8.9,23.02556 L8.9,23.02556 Z" id="Path"></path>
                        <g transform="translate(2.766640, 0.000000)" id="Oval" stroke-width="1.0000378">
                            <ellipse transform="translate(9.227570, 7.025210) rotate(-10.113190) translate(-9.227570, -7.025210) " cx="9.22757" cy="7.02521" rx="2.90010963" ry="2.10007939"></ellipse>
                            <ellipse transform="translate(5.731720, 3.026910) rotate(-10.113190) translate(-5.731720, -3.026910) " cx="5.73172" cy="3.02691" rx="2.10007939" ry="2.70010207"></ellipse>
                            <ellipse transform="translate(3.026910, 7.419430) rotate(-10.113190) translate(-3.026910, -7.419430) " cx="3.02691" cy="7.41943" rx="2.70010207" ry="2.10007939"></ellipse>
                        </g>
                        <path d="M8.9,17.12556 L5,17.12556 C2.2,17.12556 0,14.92556 0,12.12556 L0,12.12556 L3.9,12.12556 C6.7,12.12556 8.9,14.42556 8.9,17.12556 L8.9,17.12556 Z" id="Path"></path>
                        <path d="M8.9,26.52556 L6.2,26.52556 C5.8,26.52556 5.4,26.42556 5.1,26.32556 C3.7,25.82556 2.7,24.52556 2.7,23.02556 L2.7,23.02556 L5.4,23.02556 C7.3,23.02556 8.9,24.62556 8.9,26.52556 L8.9,26.52556 Z" id="Path"></path>
                        <line x1="8.9" y1="5.82556" x2="8.9" y2="33.32556" id="Path"></line>
                    </g>
                    <path d="M0,35.42556 C0.2,35.32556 15.5,31.52556 39.2,35.42556" id="Path"></path>
                    <path d="M24.5,17.72556 C26.9,13.12556 29.9,8.82556 33.4,4.92556 C34.1,4.12556 34.9,3.32556 35.9,2.92556 C36.9,2.52556 38.3,2.92556 38.8,3.92556" id="Path"></path>
                    <path d="M0.7,14.82556 C2.3,11.62556 4.3,8.62556 6.5,5.92556 C6.7,5.72556 6.8,5.52556 7.1,5.52556 C7.4,5.52556 7.6,5.72556 7.8,5.92556 C9.1,7.52556 11.2,9.82556 12.3,11.62556" id="Path"></path>
                </g>
            </g>
        </g>
    </g>
</svg>