<svg xmlns="http://www.w3.org/2000/svg" width="30" height="30" viewBox="0 0 30 30">
    <g fill="none" fill-rule="evenodd">
        <g>
            <g>
                <g transform="translate(-318 -421) translate(148 250) translate(170 171)">
                    <circle cx="15" cy="15" r="15" fill="#30855C"/>
                    <path fill="#FFF" fill-rule="nonzero" d="M15.559 9.466l.08.07 4.705 4.828c.25.258.273.66.068.944l-.068.08-4.706 4.83c-.275.282-.722.282-.998 0-.25-.258-.273-.66-.068-.944l.068-.08L18.1 15.64h-8.5c-.41 0-.74-.342-.74-.764 0-.393.285-.716.653-.76l.087-.005h8.5L14.64 10.56c-.25-.257-.273-.66-.068-.943l.068-.081c.25-.257.643-.28.919-.07z"/>
                </g>
            </g>
        </g>
    </g>
</svg>
