<svg xmlns="http://www.w3.org/2000/svg" width="38" height="38" viewBox="0 0 38 38">
    <g fill="none" fill-rule="evenodd">
        <path d="M0 0H38V38H0z"/>
        <g stroke="#A88057" stroke-linecap="round" stroke-linejoin="round" stroke-width="1.2">
            <path d="M22.664 5.585L22.664 30.605.75 30.605.75.75 17.464.75 17.464 5.585zM22.664 5.585L17.464.75" transform="translate(0 4)"/>
            <path d="M14.504 14.042c-.843 2.342-2.778 3.788-4.323 3.232-1.545-.556-2.114-2.905-1.271-5.246.843-2.341 2.779-3.788 4.323-3.232.386.14.711.39.969.725.773 1.005.934 2.765.302 4.52z" transform="translate(0 4)"/>
            <path d="M14.353 9.925s-2.558 1.266-2.975 4.024c-.418 2.76-1.993 2.8-1.993 2.8M5.277 22.134L18.136 22.134M8.492 25.232L14.922 25.232" transform="translate(0 4)"/>
        </g>
    </g>
</svg>
