<svg xmlns="http://www.w3.org/2000/svg" width="24" height="24" viewBox="0 0 24 24">
    <g fill="none" fill-rule="evenodd">
        <path d="M0 0H24V24H0z"/>
        <path fill="#30855C" fill-rule="nonzero" d="M21.508 2.044l.175.008c1.04.089 1.855.96 1.855 2.022v8.358l-.008.175c-.088 1.04-.96 1.855-2.022 1.855h-1.017v1.662l-.01.162c-.024.214-.097.42-.213.604-.423.669-1.308.868-1.976.445l-1.919-1.214v1.087c0 1.07-.827 1.947-1.877 2.024l-.152.006h-4.181L5.62 22.11c-.624.395-1.436.248-1.886-.317l-.09-.128c-.145-.23-.222-.495-.222-.766v-1.662H2.403c-1.062 0-1.934-.816-2.022-1.855l-.008-.175V8.85c0-1.12.909-2.03 2.03-2.03h5.134V4.074l.008-.175c.088-1.04.96-1.855 2.022-1.855h11.94zm-7.164 6.448H2.404c-.198 0-.358.16-.358.358v8.358c0 .198.16.358.358.358h1.257c.79 0 1.432.642 1.432 1.433v1.468l4.235-2.679c.184-.116.39-.188.604-.213l.162-.009h4.25c.198 0 .358-.16.358-.358V8.85c0-.198-.16-.358-.358-.358zm7.164-4.776H9.568l-.082.01c-.158.037-.276.179-.276.348V6.82h5.134c1.07 0 1.947.828 2.024 1.879l.006.151v5.293l2.445 1.548v-1.468l.007-.146c.073-.723.684-1.287 1.426-1.287h1.256l.082-.01c.158-.036.276-.178.276-.348V4.074l-.01-.082c-.036-.158-.178-.276-.348-.276z"/>
    </g>
</svg>
