<svg xmlns="http://www.w3.org/2000/svg" width="24" height="24" viewBox="0 0 24 24">
    <g fill="none" fill-rule="evenodd">
        <path d="M0 0H24V24H0z"/>
        <path fill="#747588" fill-rule="nonzero" d="M9.75 15c.966 0 1.75.784 1.75 1.75v4c0 .966-.784 1.75-1.75 1.75h-6c-.966 0-1.75-.784-1.75-1.75v-4c0-.966.784-1.75 1.75-1.75zm11-4c.966 0 1.75.784 1.75 1.75v8c0 .966-.784 1.75-1.75 1.75h-6c-.966 0-1.75-.784-1.75-1.75v-8c0-.966.784-1.75 1.75-1.75zm-11 5.5h-6c-.138 0-.25.112-.25.25v4c0 .138.112.25.25.25h6c.138 0 .25-.112.25-.25v-4c0-.138-.112-.25-.25-.25zm11-4h-6c-.138 0-.25.112-.25.25v8c0 .138.112.25.25.25h6c.138 0 .25-.112.25-.25v-8c0-.138-.112-.25-.25-.25zM9.75 2c.966 0 1.75.784 1.75 1.75v8c0 .966-.784 1.75-1.75 1.75h-6c-.966 0-1.75-.784-1.75-1.75v-8C2 2.784 2.784 2 3.75 2zm0 1.5h-6c-.138 0-.25.112-.25.25v8c0 .138.112.25.25.25h6c.138 0 .25-.112.25-.25v-8c0-.138-.112-.25-.25-.25zm11-1.5c.966 0 1.75.784 1.75 1.75v4c0 .966-.784 1.75-1.75 1.75h-6c-.966 0-1.75-.784-1.75-1.75v-4c0-.966.784-1.75 1.75-1.75zm0 1.5h-6c-.138 0-.25.112-.25.25v4c0 .138.112.25.25.25h6c.138 0 .25-.112.25-.25v-4c0-.138-.112-.25-.25-.25z"/>
    </g>
</svg>
