<svg xmlns="http://www.w3.org/2000/svg" width="24" height="24" viewBox="0 0 24 24">
    <g fill="none" fill-rule="evenodd">
        <path d="M0 0H24V24H0z"/>
        <path fill="#30855C" fill-rule="nonzero" d="M12.228 2c4.115 0 7.451 3.336 7.451 7.451v3.88l1.017.905c.884.786 1.008 2.108.317 3.041l-.13.16c-.43.484-1.047.761-1.694.761H15.79v.324c0 1.905-1.493 3.46-3.374 3.559l-.189.005c-1.968 0-3.563-1.596-3.563-3.564l-.001-.324H5.268c-1.2 0-2.183-.932-2.263-2.112L3 15.93c0-.647.277-1.264.76-1.694l1.017-.906V9.45c0-4.02 3.183-7.295 7.165-7.446zm1.62 16.198h-3.24v.324c0 .839.638 1.529 1.455 1.611l.165.009c.895 0 1.62-.725 1.62-1.62v-.324zm-1.62-14.254c-3.041 0-5.507 2.465-5.507 5.507v4.317c0 .277-.119.542-.326.726l-1.343 1.194c-.069.062-.108.15-.108.242 0 .18.145.324.324.324h13.92c.093 0 .181-.04.243-.108.119-.134.107-.339-.027-.458l-1.343-1.194c-.207-.184-.325-.449-.325-.726V9.45c0-3.042-2.466-5.507-5.508-5.507z"/>
    </g>
</svg>
