<?xml version="1.0" encoding="UTF-8"?>
<svg width="17px" height="20px" viewBox="0 0 17 20" version="1.1" xmlns="http://www.w3.org/2000/svg" xmlns:xlink="http://www.w3.org/1999/xlink">
    <title>551E570A-A340-4273-825A-933EA8F11D4B</title>
    <g id="Page-1" stroke="none" stroke-width="1" fill="none" fill-rule="evenodd">
        <g id="01_Mobile-nav" transform="translate(-316.000000, -594.000000)" fill="#232334" fill-rule="nonzero" stroke="#FFFFFF" stroke-width="0.25">
            <g id="noun_Add-User_1892488" transform="translate(317.000000, 595.000000)">
                <path d="M8.02631579,8.14285714 C10.2499886,8.14285714 12.0526316,6.32001648 12.0526316,4.07142857 C12.0526316,1.82284066 10.2499886,0 8.02631579,0 C5.80264298,0 4,1.82284066 4,4.07142857 C4,6.32001648 5.80264298,8.14285714 8.02631579,8.14285714 Z M8.02631579,1.35714286 C9.50876433,1.35714286 10.7105263,2.57236996 10.7105263,4.07142857 C10.7105263,5.57048718 9.50876433,6.78571429 8.02631579,6.78571429 C6.54386725,6.78571429 5.34210526,5.57048718 5.34210526,4.07142857 C5.34210526,2.57236996 6.54386725,1.35714286 8.02631579,1.35714286 Z" id="Shape"></path>
                <path d="M8.91320922,9 L6.29731709,9 C2.82064515,9.00293449 0.00299240328,11.7660565 0,15.1754435 L0,17.3380019 C0,17.7299126 0.323976432,18.047619 0.723621614,18.047619 L14.4869047,18.047619 C14.8865499,18.047619 15.2105263,17.7299126 15.2105263,17.3380019 L15.2105263,15.1754435 C15.2065386,11.7664613 12.3894683,9.00391051 8.91320922,9 Z M13.7632831,16.6283847 L1.44724323,16.6283847 L1.44724323,15.1754435 C1.45023416,12.5498776 3.61993512,10.4221674 6.29731709,10.4192344 L8.91320922,10.4192344 C11.5905912,10.4221674 13.7602922,12.5498776 13.7632831,15.1754435 L13.7632831,16.6283847 Z" id="Shape"></path>
            </g>
        </g>
    </g>
</svg>