<?xml version="1.0" encoding="UTF-8"?>
<svg width="22px" height="19px" viewBox="0 0 22 19" version="1.1" xmlns="http://www.w3.org/2000/svg" xmlns:xlink="http://www.w3.org/1999/xlink">
    <title>E86E6453-4C1A-4340-B527-11B1C229AF5B</title>
    <g id="Page-1" stroke="none" stroke-width="1" fill="none" fill-rule="evenodd">
        <g id="03_Mobile-nav" transform="translate(-169.000000, -595.000000)" fill="#30855C" fill-rule="nonzero">
            <g id="Group" transform="translate(170.000000, 596.000000)">
                <path d="M10.4602222,0 L5.252,0 C2.356,0 0,2.27508576 0,5.07182676 L0,6.39944254 C0,8.56389365 1.414,10.4819897 3.52466667,11.1884648 C3.25111111,11.6503002 2.88511111,12.3574185 2.40733333,13.3473413 C2.31,13.5482419 2.35333333,13.7894511 2.516,13.94747 C2.61844444,14.0463122 2.76177778,14.1031304 2.90955556,14.1031304 C2.98822222,14.1031304 3.06666667,14.0866209 3.13533333,14.0557461 L8.99133333,11.4714837 L10.46,11.4714837 C13.356,11.4714837 15.712,9.19618353 15.712,6.39944254 L15.712,5.07182676 C15.7122222,2.27508576 13.3562222,0 10.4602222,0 Z M4.73733333,11.3220412 C4.87777778,11.2371355 4.97044444,11.0977702 4.99155556,10.9386792 C5.02911111,10.656518 4.83088889,10.3964408 4.53977778,10.3466981 C2.54822222,10.010506 1.10288889,8.35055746 1.10288889,6.39965695 L1.10288889,5.07204117 C1.10288889,2.86213551 2.96422222,1.06410806 5.25222222,1.06410806 L10.4602222,1.06410806 C12.7482222,1.06410806 14.6095556,2.86213551 14.6095556,5.07204117 L14.6095556,6.39965695 C14.6095556,8.60956261 12.7482222,10.4075901 10.4602222,10.4075901 L8.87155556,10.4075901 C8.79333333,10.4075901 8.71422222,10.4240995 8.64222222,10.4558319 L4.07444444,12.4716981 C4.38222222,11.8859348 4.62177778,11.4706261 4.73733333,11.3220412 Z" id="Shape" stroke="#30855C" stroke-width="0.1"></path>
                <path d="M15.7217778,2.99056604 C15.8822222,3.36749571 16.0004444,3.76543739 16.0708889,4.17881647 C17.7497778,4.72362779 18.8973333,6.23992281 18.8973333,7.96891081 L18.8973333,9.29652659 C18.8973333,11.2474271 17.452,12.9073756 15.4602222,13.2435678 C15.1695556,13.2928816 14.9711111,13.5531732 15.0086667,13.8355489 C15.0297778,13.9946398 15.1224444,14.1340051 15.2628889,14.2186964 C15.3793333,14.3687822 15.6186667,14.7838765 15.926,15.3683533 L11.3586667,13.352916 C11.2873333,13.3211835 11.2077778,13.3044597 11.1286667,13.3044597 L9.54,13.3044597 C8.74555556,13.3044597 7.98333333,13.0866209 7.31622222,12.6721698 L6.17066667,13.1777444 C7.11577778,13.9444683 8.30644444,14.3683533 9.54,14.3683533 L11.0086667,14.3683533 L16.864,16.9526158 C16.9335556,16.9834906 17.012,17 17.0906667,17 C17.2384444,17 17.382,16.9431818 17.4848889,16.8439108 C17.6468889,16.6858919 17.6902222,16.4451115 17.5931111,16.2444254 C17.116,15.255789 16.75,14.5486707 16.4755556,14.0855489 C18.5857778,13.3786449 20,11.4605489 20,9.29652659 L20,7.96891081 C20,5.51908233 18.2055556,3.44168096 15.7217778,2.99056604 Z" id="Path" stroke="#30855C" stroke-width="0.1"></path>
                <path d="M3.92066667,4.72212693 C3.27755556,4.72212693 2.75422222,5.22705832 2.75422222,5.84755575 C2.75422222,6.46826758 3.27733333,6.97319897 3.92066667,6.97319897 C4.56377778,6.97319897 5.08711111,6.46826758 5.08711111,5.84755575 C5.08711111,5.22705832 4.56377778,4.72212693 3.92066667,4.72212693 Z" id="Path"></path>
                <path d="M11.7915556,4.72212693 C11.1484444,4.72212693 10.6251111,5.22705832 10.6251111,5.84755575 C10.6251111,6.46826758 11.1482222,6.97319897 11.7915556,6.97319897 C12.4348889,6.97319897 12.958,6.46826758 12.958,5.84755575 C12.958,5.22705832 12.4346667,4.72212693 11.7915556,4.72212693 Z" id="Path"></path>
                <path d="M7.85622222,4.72212693 C7.21311111,4.72212693 6.68977778,5.22705832 6.68977778,5.84755575 C6.68977778,6.46826758 7.21288889,6.97319897 7.85622222,6.97319897 C8.49933333,6.97319897 9.02266667,6.46826758 9.02266667,5.84755575 C9.02244444,5.22705832 8.49933333,4.72212693 7.85622222,4.72212693 Z" id="Path"></path>
            </g>
        </g>
    </g>
</svg>