<svg xmlns="http://www.w3.org/2000/svg" width="24" height="24" viewBox="0 0 24 24">
    <g fill="none" fill-rule="evenodd">
        <path d="M0 0H24V24H0z"/>
        <path fill="#747588" fill-rule="nonzero" d="M17.37 12.15c1.226 0 2.22.994 2.22 2.22v7.612c0 .526-.426.952-.951.952H5.952c-.526 0-.952-.426-.952-.952V14.37c0-1.226.994-2.22 2.22-2.22zm0 1.903H7.22c-.175 0-.317.142-.317.317v6.66h10.784v-6.66c0-.15-.104-.276-.244-.309l-.073-.008zM12.295 2c2.628 0 4.758 2.13 4.758 4.758 0 2.627-2.13 4.757-4.758 4.757s-4.758-2.13-4.758-4.757C7.537 4.13 9.667 2 12.295 2zm0 1.903c-1.576 0-2.855 1.278-2.855 2.855 0 1.576 1.279 2.854 2.855 2.854 1.577 0 2.855-1.278 2.855-2.854 0-1.577-1.278-2.855-2.855-2.855z"/>
    </g>
</svg>
