<svg width="54" height="54" viewBox="0 0 54 54" xmlns="http://www.w3.org/2000/svg">
    <g fill="none" fill-rule="evenodd">
        <circle fill-opacity=".053" fill="#30855C" cx="27" cy="27" r="27"/>
        <g transform="translate(9 9)" fill-rule="nonzero">
            <path d="M5.586 36c3.085 0 5.586-2.779 5.586-6.207s-2.5-6.207-5.585-6.207C2.5 23.586 0 26.366 0 29.793.004 33.22 2.502 35.996 5.586 36zM3.91 34.395v-.877c0-1.029.75-1.863 1.676-1.863.926 0 1.676.834 1.676 1.862v.878a4.044 4.044 0 0 1-3.352 0zm.56-5.223c0-.685.5-1.241 1.116-1.241.617 0 1.117.556 1.117 1.241 0 .686-.5 1.242-1.117 1.242-.617-.001-1.116-.556-1.117-1.242zm1.116-4.345c1.897 0 3.588 1.33 4.217 3.32.628 1.988.058 4.201-1.423 5.518v-.148c0-1.031-.462-1.995-1.232-2.571.65-.706.85-1.778.508-2.712-.343-.936-1.161-1.547-2.07-1.547-.908 0-1.726.611-2.069 1.546-.343.935-.143 2.007.507 2.712-.769.577-1.23 1.541-1.23 2.572v.148c-1.482-1.317-2.053-3.53-1.425-5.519.63-1.99 2.32-3.32 4.217-3.319z" fill="#D4AE5E"/>
            <path d="M24.794 19.762a.584.584 0 0 0-.49-.27h-2.761l-1.616-1.113a.571.571 0 0 0-.326-.102h-.999l-1.615-1.113a.572.572 0 0 0-.59-.038l-2.352 1.215a.6.6 0 0 0-.152.114l-1.176 1.215a.582.582 0 0 0-.074.092l-1.176 1.824a.624.624 0 0 0 0 .674l1.176 1.822a.602.602 0 0 0 .137.149l2.352 1.822a.575.575 0 0 0 .353.121h.666l.515 3.731a.6.6 0 0 0 .467.51l2.94.607a.592.592 0 0 0 .686-.448l.533-2.202 1.575-1.085a.614.614 0 0 0 .262-.505v-1.384l1.362-.47c.148-.05.27-.16.34-.304l1.176-2.43a.625.625 0 0 0-.037-.609l-1.176-1.822zm-.906 4.093-1.533.528a.605.605 0 0 0-.402.576v1.498L20.45 27.49a.608.608 0 0 0-.244.358l-.452 1.868-1.982-.41-.53-3.826a.595.595 0 0 0-.581-.522h-.98l-2.115-1.638-.903-1.4.926-1.434 1.068-1.103 1.961-1.014 1.48 1.02c.097.066.21.102.326.102h.999l1.616 1.113c.097.066.21.102.326.102h2.625l.812 1.258-.914 1.89zM3.724 18.277c-.001 1.043.22 2.532.662 4.468a.535.535 0 0 0 .643.407l.052-.015a.624.624 0 0 0 .388-.763 12.382 12.382 0 0 1-.124-.452h1.319c.197 0 .38-.102.49-.27l1.074-1.666 2.77-1.145a.586.586 0 0 0 .198-.135l1.176-1.214a.617.617 0 0 0 .172-.43v-2.786l1.231-1.272 1.945 1.506.026.02 1.765 1.215c.203.14.468.136.667-.011l4.116-3.037a.609.609 0 0 0 .23-.347l.587-2.43a.617.617 0 0 0-.244-.654l-1.596-1.099-.524-1.625a.598.598 0 0 0-.373-.384l-3.024-1.04.29-1.351c.452-.046.91-.068 1.373-.07 1.057-.001 2.56.269 4.51.811a.65.65 0 0 0 .782-.404.557.557 0 0 0-.365-.732c-2.132-.595-3.774-.891-4.927-.89-8.43 0-15.289 7.086-15.289 15.795zm12.75-12.18 3.25 1.118.495 1.534a.606.606 0 0 0 .232.314l1.419.976-.435 1.799-3.61 2.663-1.413-.973-2.339-1.812a.574.574 0 0 0-.768.056l-1.765 1.823a.618.618 0 0 0-.172.43v2.785l-.918.949-2.829 1.169a.593.593 0 0 0-.27.227l-1.002 1.552H5.095a15.1 15.1 0 0 1-.195-2.43c0-7.115 4.96-13.056 11.496-14.327l-.31 1.438a.61.61 0 0 0 .388.708z" fill="#31855C"/>
            <path d="M29.793 0c-3.428 0-6.207 2.686-6.207 6s2.779 6 6.207 6S36 9.314 36 6c-.004-3.312-2.78-5.996-6.207-6zm-1.862 10.449v-.85c0-.993.834-1.799 1.862-1.799 1.029 0 1.863.806 1.863 1.8v.848a5.108 5.108 0 0 1-3.725 0zm.62-5.05c0-.662.556-1.199 1.242-1.199.686 0 1.241.537 1.241 1.2 0 .663-.555 1.2-1.24 1.2-.687 0-1.242-.537-1.242-1.2zm4.345 4.344V9.6c0-.997-.512-1.929-1.367-2.486a2.343 2.343 0 0 0 .563-2.622c-.38-.904-1.29-1.494-2.299-1.494-1.01 0-1.919.59-2.3 1.494-.38.903-.157 1.94.565 2.622A2.975 2.975 0 0 0 26.689 9.6v.143c-1.646-1.274-2.28-3.414-1.581-5.336.698-1.924 2.577-3.211 4.685-3.211 2.108 0 3.987 1.287 4.685 3.21.699 1.923.064 4.063-1.582 5.337zm3.051 7.047-.004-.061c-.022-.315-.307-.552-.637-.531l-.022.002-.011.001a.612.612 0 0 0-.565.64.62.62 0 0 0 .65.56h.01c.332-.012.592-.277.58-.592v-.02zm-1.572-2.267a.64.64 0 0 0 .738.477.577.577 0 0 0 .488-.665l-.003-.017-.018-.083a.595.595 0 0 0-.704-.44l-.025.005a.616.616 0 0 0-.476.723zM17.379 34.8V36c10.034 0 18.264-7.685 18.61-17.38l-1.24-.04c-.146 4.348-2.04 8.47-5.28 11.488-3.236 3.043-7.575 4.74-12.09 4.732z" fill="#D4AE5E"/>
            <path d="m1.28 19.32.004.062c.02.316.288.555.595.534l.02-.002.011-.001a.602.602 0 0 0 .528-.644.594.594 0 0 0-.607-.562h-.01a.57.57 0 0 0-.54.614zM2.75 21.6a.599.599 0 0 0-.69-.48.576.576 0 0 0-.455.67l.003.016.017.084a.557.557 0 0 0 .658.443l.022-.005a.62.62 0 0 0 .444-.728zM7.33 5.965c3.022-3.06 7.075-4.767 11.29-4.758V0C9.25 0 1.565 7.73 1.242 17.48l1.16.04c.135-4.372 1.904-8.518 4.93-11.554z" fill="#31855C"/>
            <rect fill="#D4AE5E" x="17.379" y="9.931" width="1.241" height="1.241" rx=".621"/>
            <rect fill="#D4AE5E" x="7.448" y="14.897" width="1.241" height="1.241" rx=".621"/>
            <rect fill="#D4AE5E" x="13.655" y="21.103" width="1.241" height="1.241" rx=".621"/>
            <rect fill="#D4AE5E" x="28.552" y="17.379" width="1.241" height="1.241" rx=".621"/>
            <path d="m26.367 23.479-.548 2.847-1.585 1.097a.633.633 0 0 0-.241.694l.703 2.432a13.858 13.858 0 0 1-11.852.736l-.43 1.156A14.952 14.952 0 0 0 18 33.517c8.556 0 15.517-7.229 15.517-16.114.002-1.065-.222-2.584-.671-4.559a.544.544 0 0 0-.706-.4.64.64 0 0 0-.396.78c.095.335.165.604.21.81l-4.36-.349a.587.587 0 0 0-.522.247l-1.791 2.479a.64.64 0 0 0-.04.68l2.228 4.05-1.05 2.182a.636.636 0 0 0-.052.156zm.574 3.342.581-3.018 1.158-2.405a.64.64 0 0 0-.016-.584l-2.192-3.985 1.358-1.881 4.351.347c.788 5.755-1.721 11.46-6.426 14.608l-.492-1.702 1.424-.986a.62.62 0 0 0 .254-.394z" fill="#31855C"/>
        </g>
    </g>
</svg>
