<svg xmlns="http://www.w3.org/2000/svg" width="30" height="30" viewBox="0 0 30 30">
    <g fill="none" fill-rule="evenodd">
        <g fill="#30855C" fill-rule="nonzero">
            <g>
                <path d="M15 0c8.284 0 15 6.716 15 15 0 8.284-6.716 15-15 15-8.284 0-15-6.716-15-15C0 6.716 6.716 0 15 0zm0 1.538C7.565 1.538 1.538 7.565 1.538 15S7.565 28.462 15 28.462 28.462 22.435 28.462 15 22.435 1.538 15 1.538zm.559 7.928l.08.07 4.705 4.828c.25.258.273.66.068.944l-.068.08-4.706 4.83c-.275.282-.722.282-.998 0-.25-.258-.273-.66-.068-.944l.068-.08L18.1 15.64h-8.5c-.41 0-.74-.342-.74-.764 0-.393.285-.716.653-.76l.087-.005h8.5L14.64 10.56c-.25-.257-.273-.66-.068-.943l.068-.081c.25-.257.643-.28.919-.07z" transform="translate(-560 -454) translate(439 329) translate(121 125)"/>
            </g>
        </g>
    </g>
</svg>
