<?xml version="1.0" encoding="UTF-8"?>
<svg width="38px" height="38px" viewBox="0 0 38 38" version="1.1" xmlns="http://www.w3.org/2000/svg" xmlns:xlink="http://www.w3.org/1999/xlink">
    <title>E8B14F84-C4F3-4C35-AB37-3223579BE4EA</title>
    <g id="Sourcing_Module" stroke="none" stroke-width="1" fill="none" fill-rule="evenodd">
        <g id="07_Sourcing" transform="translate(-172.000000, -1067.000000)">
            <g id="Group-7" transform="translate(172.000000, 1067.000000)">
                <g id="Group-22">
                    <rect id="Rectangle" x="0" y="0" width="38" height="38"></rect>
                    <circle id="Oval" stroke="#A88057" stroke-width="1.2" stroke-linecap="round" stroke-linejoin="round" cx="19" cy="19" r="16"></circle>
                    <g id="Group-5" transform="translate(10.000000, 11.000000)" stroke="#A88057" stroke-linecap="round" stroke-linejoin="round" stroke-width="1.2">
                        <path d="M17.9695413,6.06146487 C17.9062682,5.86498515 17.7270297,5.73724058 17.5055388,5.71759261 L11.6457495,5.36392911 L9.47337405,0.275104355 C9.39955547,0.0982726068 9.19919074,0.00982398602 8.99882602,0 C8.78791579,0 8.5769704,0.0884486208 8.49267661,0.275104355 L6.3203012,5.36392911 L0.498616311,5.71759261 C0.277125413,5.73727333 0.0978868659,5.86498515 0.024068284,6.06146487 C-0.0392047863,6.2481206 0.024068284,6.46421555 0.19276132,6.59192737 L4.67520137,10.0892664 L3.21992076,15.3942516 C3.16715805,15.5809073 3.25152214,15.7871783 3.42028548,15.9050661 C3.59952403,16.0229539 3.83152529,16.0327779 4.01083414,15.9247468 L8.99882602,13.0069902 L13.944671,15.9247468 C14.1344902,16.0328107 14.3665266,16.0229539 14.5457652,15.9050661 C14.7144582,15.7871783 14.7988575,15.5906986 14.7461299,15.3942516 L13.2908493,10.0892664 L17.8113235,6.59192737 C17.9800868,6.46421555 18.0433599,6.2481206 17.9695413,6.06146487 Z" id="Path-Copy-3"></path>
                    </g>
                </g>
            </g>
        </g>
    </g>
</svg>