<svg xmlns="http://www.w3.org/2000/svg" width="32" height="32" viewBox="0 0 32 32">
    <g fill="none" fill-rule="evenodd">
        <g>
            <g>
                <g>
                    <path d="M0 0H32V32H0z" transform="translate(-450 -409) translate(434 390) translate(16 19)"/>
                    <path fill="#747588" fill-rule="nonzero" d="M19.951 2.5c.245 0 .45.177.492.41l.008.09v7.54c.452-.211.955-.329 1.486-.329 1.944 0 3.52 1.576 3.52 3.52 0 .696-.202 1.345-.551 1.891l3.482 1.775c.905.462 1.494 1.365 1.56 2.37l.006.189v6.57c0 .245-.177.45-.41.492l-.09.008h-9.003v2.065c0 .245-.177.45-.41.492l-.09.008H2c-.245 0-.45-.177-.492-.41l-.008-.09V3c0-.245.177-.45.41-.492L2 2.5h17.951zm-.5 1H2.5v25.091h16.951v-1.565h-5.264c-.245 0-.45-.177-.492-.41l-.008-.09v-6.367c0-1.003.522-1.927 1.368-2.447l.174-.098 3.758-1.965c-.36-.552-.568-1.211-.568-1.919 0-.973.394-1.853 1.032-2.49V3.5zm-8.476 21.695c.276 0 .5.224.5.5 0 .245-.177.45-.41.492l-.09.008H4.192c-.276 0-.5-.224-.5-.5 0-.245.177-.45.41-.492l.09-.008h6.783zm8.695-8.773L15.692 18.5c-.57.298-.944.865-.998 1.5l-.007.159v5.867h2.442v-5.428c0-.276.225-.5.5-.5.246 0 .45.177.493.41l.008.09-.001 5.428h3.308v-8.811c-.668-.095-1.275-.378-1.767-.793zm4.56-.021c-.496.426-1.113.717-1.792.814l-.001 8.811h3.252v-5.428c0-.276.224-.5.5-.5.246 0 .45.177.492.41l.008.09v5.428h2.265v-6.07c0-.65-.336-1.249-.88-1.589l-.14-.08zm.727 4.269c.276 0 .5.223.5.5 0 .245-.177.45-.41.492l-.09.008h-1.429c-.276 0-.5-.224-.5-.5 0-.246.177-.45.41-.492l.09-.008h1.43zm-10.77-3.666c.276 0 .5.224.5.5 0 .246-.177.45-.41.492l-.09.009H4.192c-.276 0-.5-.224-.5-.5 0-.246.177-.45.41-.492l.09-.009h9.995zm7.75-5.793c-1.39 0-2.518 1.128-2.518 2.52 0 1.391 1.127 2.52 2.518 2.52-.005-.001-.002-.001 0-.001 1.397-.005 2.52-1.131 2.52-2.52 0-1.39-1.128-2.519-2.52-2.519zm-7.75 2.96c.276 0 .5.223.5.5 0 .245-.177.45-.41.492l-.09.008H4.192c-.276 0-.5-.224-.5-.5 0-.246.177-.45.41-.492l.09-.008h9.995zm0-2.835c.276 0 .5.223.5.5 0 .245-.177.45-.41.492l-.09.008H4.192c-.276 0-.5-.224-.5-.5 0-.246.177-.45.41-.492l.09-.008h9.995zM8.517 8.5c.276 0 .5.223.5.5 0 .245-.177.45-.41.492l-.09.008H4.192c-.276 0-.5-.224-.5-.5 0-.246.177-.45.41-.492l.09-.008h4.325z" transform="translate(-450 -409) translate(434 390) translate(16 19)"/>
                </g>
            </g>
        </g>
    </g>
</svg>
