<svg xmlns="http://www.w3.org/2000/svg" width="15" height="15" viewBox="0 0 15 15">
    <g fill="none" fill-rule="evenodd">
        <path d="M0 0H15V15H0z"/>
        <path fill="#FFA001" d="M13.978 6.073c-.046-.148-.175-.243-.335-.258L9.41 5.55 7.84 1.733c-.052-.133-.197-.199-.342-.206-.152 0-.305.066-.365.206L5.564 5.55l-4.204.265c-.16.015-.29.11-.343.258-.045.14 0 .302.122.398l3.238 2.623-1.052 3.978c-.038.14.023.295.145.383.13.089.297.096.427.015l3.602-2.188 3.572 2.188c.137.081.305.074.434-.015.122-.088.183-.235.145-.383l-1.051-3.978 3.265-2.623c.122-.096.167-.258.114-.398z"/>
    </g>
</svg>
