<svg xmlns="http://www.w3.org/2000/svg" width="34" height="32" viewBox="0 0 34 32">
    <g fill="none" fill-rule="evenodd">
        <path d="M1 0H33V32H1z"/>
        <path fill="#A88057" fill-rule="nonzero" d="M16.922 1.774c6.794 0 12.32 5.425 12.484 12.18l.004.308v.693c2.482 1.076 4.217 3.546 4.217 6.423 0 2.614-1.433 4.894-3.557 6.095v3.496c0 .513-.386.936-.883.994l-.117.006H17.764c-.513 0-.936-.386-.994-.883l-.006-.117v-2.058c0-.552.447-1 1-1 .513 0 .935.386.993.883l.007.117-.001 1.058h9.307v-1.74c-.465.097-.948.148-1.442.148-.553 0-1-.448-1-1V15.38c0-.552.447-1 1-1 .264 0 .525.015.782.043v-.16c0-5.793-4.696-10.489-10.488-10.489-5.698 0-10.334 4.543-10.484 10.204l-.004.284v.246c.433-.084.88-.128 1.339-.128.552 0 1 .448 1 1v11.997c0 .552-.448 1-1 1-3.866 0-7-3.134-7-7 0-2.655 1.48-4.965 3.66-6.15l.001-.965c0-6.897 5.59-12.488 12.488-12.488zM6.772 16.481l-.058.011c-.237.051-.468.12-.69.203-.12.09-.262.152-.416.18-1.678.804-2.835 2.518-2.835 4.503 0 2.397 1.688 4.401 3.94 4.887l.059.01v-9.794zm20.855 0v9.794l.06-.01c.32-.07.628-.169.922-.296.041-.024.086-.044.132-.06 1.643-.767 2.8-2.401 2.881-4.315l.005-.216c0-2.397-1.688-4.4-3.94-4.886l-.06-.011z"/>
    </g>
</svg>
