<svg xmlns="http://www.w3.org/2000/svg" width="17" height="17" viewBox="0 0 17 17">
    <g fill="none" fill-rule="evenodd">
        <g>
            <g>
                <g>
                    <path d="M0 0H16V16H0z" transform="translate(-1092 -896) translate(496 880) translate(596 16)"/>
                    <path fill="#979797" fill-rule="nonzero" stroke="#979797" stroke-width=".5" d="M14.727 1.674c-.899-.899-2.356-.899-3.254 0L2.35 10.796c-.063.063-.108.14-.132.225l-1.2 4.331c-.049.178.001.368.132.498.13.13.32.18.498.131l4.331-1.2c.085-.023.163-.068.225-.13l9.123-9.123c.897-.9.897-2.355 0-3.254l-.6-.6zM3.464 11.129l7.466-7.467 2.408 2.408-7.466 7.466-2.408-2.407zm-.481.965l1.924 1.923-2.661.738.737-2.661zm11.62-7.289l-.541.542-2.409-2.408.543-.542c.5-.5 1.309-.5 1.808 0l.6.6c.498.5.498 1.308 0 1.808h0z" transform="translate(-1092 -896) translate(496 880) translate(596 16)"/>
                </g>
            </g>
        </g>
    </g>
</svg>
