<svg xmlns="http://www.w3.org/2000/svg" width="32" height="32" viewBox="0 0 32 32">
    <g fill="none" fill-rule="evenodd">
        <g>
            <g>
                <g>
                    <path d="M0 0H32V32H0z" transform="translate(-180 -566) translate(180 565) translate(0 1)"/>
                    <g stroke="#A88057" stroke-linecap="round" stroke-linejoin="round" stroke-width="1.3">
                        <path d="M2 0h16c1.105 0 2 .895 2 2v11.2c0 1.105-.895 2-2 2H2c-1.105 0-2-.895-2-2V2C0 .895.895 0 2 0z" transform="translate(-180 -566) translate(180 565) translate(0 1) translate(6 6) rotate(-180 10 7.6)"/>
                        <path d="M.195 11.024L19.856 11.024M6.8 16L6.8 19.175M13.2 16L13.2 19.175M2.595 20L17.456 20" transform="translate(-180 -566) translate(180 565) translate(0 1) translate(6 6)"/>
                    </g>
                </g>
            </g>
        </g>
    </g>
</svg>
