<svg xmlns="http://www.w3.org/2000/svg" width="32" height="32" viewBox="0 0 32 32">
    <g fill="none" fill-rule="evenodd">
        <g>
            <g>
                <g>
                    <g>
                        <path d="M0 0H32V32H0z" transform="translate(-168 -587) translate(148 327) translate(20 144) translate(0 116)"/>
                        <g fill="#A88057" fill-rule="nonzero">
                            <path d="M16.163 7.267c.884 0 1.6.717 1.6 1.6v2.8h4.422c2.83 0 5.139 2.237 5.253 5.04l.004.217v4.42l3.07.001c.378 0 .685.307.685.686 0 .347-.258.634-.593.68l-.093.006H.914c-.378 0-.685-.307-.685-.686 0-.347.258-.634.592-.68l.093-.006h2.28v-4.421c0-2.83 2.238-5.14 5.04-5.253l.217-.004h4.422v-2.8c0-.834.639-1.52 1.454-1.593l.146-.007zm2.346 11.506l-.18.074-.92.413c-1.06.477-2.266.507-3.345.09l-.214-.09-.92-.413c-.714-.321-1.524-.346-2.254-.074l-.18.074-.92.413c-1.061.477-2.266.507-3.345.09l-.214-.09-1.452-.653v2.737h21.506l-.001-2.755-.641.372c-1.142.662-2.52.767-3.743.293l-.214-.089-.708-.318c-.715-.321-1.525-.346-2.255-.074zm3.676-5.735H8.45c-2.146 0-3.886 1.74-3.886 3.886v.18l2.014.905c.715.321 1.525.346 2.255.074l.18-.074.92-.413c1.06-.477 2.266-.507 3.345-.09l.214.09.919.413c.715.321 1.525.346 2.255.074l.18-.074.92-.413c1.06-.477 2.266-.507 3.345-.09l.214.09.708.318c.814.366 1.746.345 2.54-.05l.167-.09 1.329-.77v-.08c0-2.016-1.534-3.673-3.499-3.867l-.198-.014-.188-.005zm-6.022-4.4h-1.69c-.127 0-.229.103-.229.23v2.798h2.147l.001-2.799c0-.108-.075-.198-.176-.222l-.053-.006zM14.543.73c.277-.392.82-.485 1.21-.208.081.057.152.127.209.208l1.216 1.72c.801 1.134.718 2.67-.202 3.71-.842.952-2.296 1.04-3.248.199-.07-.062-.137-.129-.199-.2-.92-1.04-1.003-2.575-.202-3.708zm.71 1.372l-.806 1.14c-.434.614-.389 1.446.11 2.01l.08.08c.384.34.972.304 1.312-.08.498-.564.543-1.396.11-2.01l-.807-1.14z" transform="translate(-168 -587) translate(148 327) translate(20 144) translate(0 116) translate(0 5)"/>
                        </g>
                    </g>
                </g>
            </g>
        </g>
    </g>
</svg>
