<svg xmlns="http://www.w3.org/2000/svg" xmlns:xlink="http://www.w3.org/1999/xlink" width="32" height="32" viewBox="0 0 32 32">
    <defs>
        <path id="mfyqbj418a" d="M0 0H32V32H0z"/>
    </defs>
    <g fill="none" fill-rule="evenodd">
        <g>
            <g>
                <g>
                    <g transform="translate(-168 -645) translate(148 327) translate(20 144) translate(0 174)">
                        <mask id="bjpcfnwgub" fill="#fff">
                            <use xlink:href="#mfyqbj418a"/>
                        </mask>
                        <path fill="#A88057" fill-rule="nonzero" d="M23.7 3c-.331 0-.6.269-.6.6 0 .331.269.6.6.6h3.647L22.78 8.766C21.381 7.426 19.487 6.6 17.4 6.6c-1.18 0-2.297.26-3.3.731-1.003-.47-2.12-.731-3.3-.731-4.3 0-7.8 3.5-7.8 7.8 0 4.1 3.178 7.474 7.2 7.781V24.9H7.5c-.331 0-.6.269-.6.6 0 .331.269.6.6.6h2.7v2.7c0 .331.269.6.6.6.331 0 .6-.269.6-.6v-2.7h2.7c.331 0 .6-.269.6-.6 0-.331-.269-.6-.6-.6h-2.7v-2.719c.96-.073 1.868-.322 2.7-.712 1.003.47 2.12.731 3.3.731 4.3 0 7.8-3.5 7.8-7.8 0-1.783-.601-3.428-1.612-4.744L28.2 5.044 28.19 8.7h.01c0 .331.269.6.6.6.331 0 .6-.269.6-.6h-.01l.01-5.1c0-.331-.269-.6-.6-.6h-5.1zM10.8 7.8c.695 0 1.368.111 1.997.31C10.86 9.53 9.6 11.82 9.6 14.4s1.261 4.87 3.197 6.29c-.629.199-1.302.31-1.997.31-3.652 0-6.6-2.948-6.6-6.6 0-3.652 2.948-6.6 6.6-6.6zm6.6 0c3.652 0 6.6 2.948 6.6 6.6 0 3.652-2.948 6.6-6.6 6.6-.695 0-1.368-.111-1.997-.31 1.936-1.42 3.197-3.71 3.197-6.29s-1.261-4.87-3.197-6.29c.629-.199 1.302-.31 1.997-.31zm-3.3.881c1.974 1.14 3.3 3.27 3.3 5.719 0 2.449-1.326 4.58-3.3 5.719-1.974-1.14-3.3-3.27-3.3-5.719 0-2.449 1.326-4.58 3.3-5.719z" mask="url(#bjpcfnwgub)"/>
                    </g>
                </g>
            </g>
        </g>
    </g>
</svg>
