<svg xmlns="http://www.w3.org/2000/svg" width="32" height="32" viewBox="0 0 32 32">
    <g fill="none" fill-rule="evenodd">
        <g>
            <g>
                <g>
                    <g>
                        <path d="M0 0H32V32H0z" transform="translate(-168 -529) translate(148 327) translate(20 144) translate(0 58)"/>
                        <path fill="#A88057" fill-rule="nonzero" d="M7.51 10H4.75C3.231 10 2 11.231 2 12.75v3.81c0 3.176 2.574 5.75 5.75 5.75h16.708c3.176 0 5.75-2.574 5.75-5.75v-3.81c0-1.519-1.23-2.75-2.75-2.75H24.7l-.167.005c-1.441.087-2.583 1.282-2.583 2.745v2.319h-11.69V12.75c0-1.519-1.231-2.75-2.75-2.75zm-2.76 1.5h2.76c.69 0 1.25.56 1.25 1.25v3.07c0 .414.335.75.75.75H22.7c.413 0 .75-.336.75-.75v-3.07c0-.69.559-1.25 1.25-1.25h2.758c.69 0 1.25.56 1.25 1.25v3.81c0 2.347-1.902 4.25-4.25 4.25H7.75c-2.347 0-4.25-1.903-4.25-4.25v-3.81c0-.69.56-1.25 1.25-1.25z" transform="translate(-168 -529) translate(148 327) translate(20 144) translate(0 58) rotate(45 16.104 16.155)"/>
                    </g>
                </g>
            </g>
        </g>
    </g>
</svg>
