<svg xmlns="http://www.w3.org/2000/svg" width="24" height="24" viewBox="0 0 24 24">
    <g fill="none" fill-rule="evenodd">
        <g>
            <g>
                <g>
                    <path d="M0 0H24V24H0z" transform="translate(-306 -404) translate(23 401) translate(283 3)"/>
                    <g fill="#747588">
                        <path d="M1.5 14c.828 0 1.5.672 1.5 1.5S2.328 17 1.5 17 0 16.328 0 15.5.672 14 1.5 14zm0-7C2.328 7 3 7.672 3 8.5S2.328 10 1.5 10 0 9.328 0 8.5.672 7 1.5 7zm0-7C2.328 0 3 .672 3 1.5S2.328 3 1.5 3 0 2.328 0 1.5.672 0 1.5 0z" transform="translate(-306 -404) translate(23 401) translate(283 3) translate(11 4)"/>
                    </g>
                </g>
            </g>
        </g>
    </g>
</svg>
