<svg xmlns="http://www.w3.org/2000/svg" width="18" height="18" viewBox="0 0 18 18">
  <g id="Kebab_Menu" data-name="Kebab Menu" transform="translate(-1215 -506.5)">
    <g id="Rectangle_1" data-name="Rectangle 1" transform="translate(1215 506.5)" fill="#fff" stroke="#707070" stroke-width="1" opacity="0">
      <rect width="18" height="18" stroke="none"/>
      <rect x="0.5" y="0.5" width="17" height="17" fill="none"/>
    </g>
    <g id="icons_Ellipses" data-name="icons/Ellipses" transform="translate(1222.5 507)">
      <g id="Menu_3_dot" data-name="Menu 3 dot">
        <path id="icons_Ellipses-2" data-name="icons/Ellipses" d="M0,15.5A1.5,1.5,0,1,1,1.5,17,1.5,1.5,0,0,1,0,15.5Zm0-7A1.5,1.5,0,1,1,1.5,10,1.5,1.5,0,0,1,0,8.5Zm0-7A1.5,1.5,0,1,1,1.5,3,1.5,1.5,0,0,1,0,1.5Z" fill="#979797"/>
      </g>
    </g>
  </g>
</svg>
