<svg xmlns="http://www.w3.org/2000/svg" width="32" height="32" viewBox="0 0 32 32">
    <g fill="none" fill-rule="evenodd">
        <path d="M0 0H32V32H0z"/>
        <path fill="#A88057" fill-rule="nonzero" d="M27 1c2.761 0 5 2.239 5 5v14.425c0 1.755-.92 3.381-2.424 4.285l-9.081 5.46c-.667.4-1.516-.08-1.516-.858v-5.625H5c-2.689 0-4.882-2.122-4.995-4.783L0 18.688V6c0-2.761 2.239-5 5-5zm0 2H5C3.343 3 2 4.343 2 6v12.688c0 1.656 1.343 3 3 3h14.98c.552 0 1 .447 1 1l-.001 4.856 7.567-4.548c.846-.508 1.384-1.398 1.448-2.375l.006-.196V6c0-1.657-1.343-3-3-3zM16.907 6.5l.055.113 2.878 6.856c.057.09.1.19.126.298l1.311 3.125c.214.51-.026 1.096-.535 1.31-.473.198-1.012.006-1.258-.43l-.051-.106L18.313 15h-4.344l-1.038 2.645c-.188.478-.702.73-1.186.601l-.11-.036c-.478-.188-.73-.701-.602-1.185l.036-.111 4.04-10.28c.313-.795 1.396-.845 1.798-.134zm-.837 3.156L14.755 13h2.719L16.07 9.656z"/>
    </g>
</svg>
