<?xml version="1.0" encoding="UTF-8"?>
<svg width="121px" height="102px" viewBox="0 0 121 102" version="1.1" xmlns="http://www.w3.org/2000/svg" xmlns:xlink="http://www.w3.org/1999/xlink">
    <title>0A28E4B8-DEEA-4D0A-967E-99EF2F8EF7ED</title>
    <g id="Dashboard" stroke="none" stroke-width="1" fill="none" fill-rule="evenodd" opacity="0.699999988">
        <g id="04_Roaster-dashboard" transform="translate(-660.000000, -1666.000000)">
            <g id="Group-33-Copy" transform="translate(661.000000, 1667.000000)">
                <path d="M31.0619281,80.188552 C36.1547108,73.5989209 44.0627058,71.0838263 48.7215648,74.5691478 C53.3825404,78.0544693 53.031168,86.2181166 47.9383854,92.8098298 C42.843486,99.3994609 34.935491,101.916638 30.2766321,98.431316 C25.6177731,94.9439125 25.9691455,86.7781832 31.0619281,80.188552 Z" id="Stroke-1" stroke="#A88057" stroke-width="1.5" stroke-linecap="round" stroke-linejoin="round"></path>
                <path d="M35.5,94 C36.3284271,94 37,93.3284271 37,92.5 C37,91.6715729 36.3284271,91 35.5,91 C34.6715729,91 34,91.6715729 34,92.5 C34,93.3284271 34.6715729,94 35.5,94 Z" id="Oval" fill="#A88057"></path>
                <path d="M62.5522412,91.9531039 C55.2245747,88.3362859 51.2732416,81.1718012 53.7287568,75.9519323 C56.1863182,70.7320635 64.1196784,69.4307634 71.4493911,73.0475814 C78.7791039,76.6623039 82.7263445,83.8267886 80.2708293,89.0466575 C77.8153142,94.2665263 69.881954,95.5699219 62.5522412,91.9531039 Z" id="Stroke-5" stroke="#A88057" stroke-width="1.5" stroke-linecap="round" stroke-linejoin="round"></path>
                <path d="M73.5,88 C74.3284271,88 75,87.3284271 75,86.5 C75,85.6715729 74.3284271,85 73.5,85 C72.6715729,85 72,85.6715729 72,86.5 C72,87.3284271 72.6715729,88 73.5,88 Z" id="Oval" fill="#A88057"></path>
                <path d="M61.998033,58.8603842 C62.1091458,67.1456527 57.4990101,73.9243193 51.7001764,73.9993368 C45.9013427,74.0764382 41.1130071,67.4207169 41.0018943,59.1375322 C40.8928779,50.8543475 45.5030136,44.0756809 51.2976543,44.0006634 C57.096488,43.923562 61.8869201,50.5771995 61.998033,58.8603842 Z" id="Stroke-9" stroke="#A88057" stroke-width="1.5" stroke-linecap="round" stroke-linejoin="round"></path>
                <path d="M51.5,52 C52.3284271,52 53,51.3284271 53,50.5 C53,49.6715729 52.3284271,49 51.5,49 C50.6715729,49 50,49.6715729 50,50.5 C50,51.3284271 50.6715729,52 51.5,52 Z" id="Oval" fill="#A88057"></path>
                <line x1="52" y1="51" x2="52" y2="51" id="Stroke-11" stroke="#A88057" stroke-width="5.20000029" stroke-linecap="round" stroke-linejoin="round"></line>
                <path d="M59,46.5047062 L59,46.5047062 C65.3745436,29.9383167 78.81012,17.1383533 95.5863328,11.6526547 L119,4 L117.222222,20.6399525 C114.941575,42.0047519 101.322379,60.43754 81.6604069,68.7774833 L71.580073,73" id="Stroke-13" stroke="#A88057" stroke-width="1.5" stroke-linecap="round" stroke-linejoin="round"></path>
                <path d="M119,7 C119,7 82.9095383,34.9471488 59,70" id="Stroke-15" stroke="#A88057" stroke-width="1.5" stroke-linecap="round" stroke-linejoin="round"></path>
                <polyline id="Stroke-17" stroke="#A88057" stroke-width="1.5" stroke-linecap="round" stroke-linejoin="round" points="69 30 71.8869117 53.0079621 96 61"></polyline>
                <polyline id="Stroke-19" stroke="#A88057" stroke-width="1.5" stroke-linecap="round" stroke-linejoin="round" points="84 18 86.3771762 36.8583304 111 42"></polyline>
                <polyline id="Stroke-21" stroke="#A88057" stroke-width="1.5" stroke-linecap="round" stroke-linejoin="round" points="99 11 99 24 117 24"></polyline>
                <path d="M61,43.2310607 C54.7604921,26.5473521 39.8540796,13.4352539 23.2167737,7.82755086 L0,0 L1.67285146,16.7343998 C3.82040303,38.216866 17.2467462,56.8183879 36.7322527,65.3112595 L42.9862711,68" id="Stroke-23" stroke="#A88057" stroke-width="1.5" stroke-linecap="round" stroke-linejoin="round"></path>
                <path d="M0,2 C0,2 19.4201363,14.052856 45,47" id="Stroke-25" stroke="#A88057" stroke-width="1.5" stroke-linecap="round" stroke-linejoin="round"></path>
                <polyline id="Stroke-27" stroke="#A88057" stroke-width="1.5" stroke-linecap="round" stroke-linejoin="round" points="50 26 43.8169058 44.4382976 23 56"></polyline>
                <polyline id="Stroke-29" stroke="#A88057" stroke-width="1.5" stroke-linecap="round" stroke-linejoin="round" points="35 13 32.5254121 31.9653129 8 37"></polyline>
                <polyline id="Stroke-31" stroke="#A88057" stroke-width="1.5" stroke-linecap="round" stroke-linejoin="round" points="20 6 19.9285047 19 2 18.8973684"></polyline>
            </g>
        </g>
    </g>
</svg>