<svg xmlns="http://www.w3.org/2000/svg" width="14" height="10" viewBox="0 0 14 10">
    <path fill="#FFF" d="M13.25 8c.414 0 .75.336.75.75s-.336.75-.75.75h-9.5c-.414 0-.75-.336-.75-.75S3.336 8 3.75 8h9.5zM.75 8c.414 0 .75.336.75.75s-.336.75-.75.75S0 9.164 0 8.75.336 8 .75 8zm12.5-4c.414 0 .75.336.75.75s-.336.75-.75.75h-9.5c-.414 0-.75-.336-.75-.75S3.336 4 3.75 4h9.5zM.75 4c.414 0 .75.336.75.75s-.336.75-.75.75S0 5.164 0 4.75.336 4 .75 4zm12.5-4c.414 0 .75.336.75.75s-.336.75-.75.75h-9.5C3.336 1.5 3 1.164 3 .75S3.336 0 3.75 0h9.5zM.75 0c.414 0 .75.336.75.75s-.336.75-.75.75S0 1.164 0 .75.336 0 .75 0z"/>
</svg>
