<svg xmlns="http://www.w3.org/2000/svg" xmlns:xlink="http://www.w3.org/1999/xlink" width="90" height="90" viewBox="0 0 90 90">
    <defs>
        <path id="prefix__a" d="M45 0c24.853 0 45 20.147 45 45S69.853 90 45 90 0 69.853 0 45 20.147 0 45 0z"/>
    </defs>
    <g fill="none" fill-rule="evenodd">
        <mask id="prefix__b" fill="#fff">
            <use xlink:href="#prefix__a"/>
        </mask>
        <use fill="#EEE" xlink:href="#prefix__a"/>
        <path fill="#D6D2D2" fill-rule="nonzero" d="M58 55.111V34.89C58 33.3 56.7 32 55.111 32H34.89C33.3 32 32 33.3 32 34.889V55.11C32 56.7 33.3 58 34.889 58H55.11C56.7 58 58 56.7 58 55.111zm-18.056-7.944l3.612 4.347L48.61 45l6.5 8.667H34.89l5.055-6.5z" mask="url(#prefix__b)"/>
    </g>
</svg>
