<svg xmlns="http://www.w3.org/2000/svg" width="571" height="300" viewBox="0 0 571 300">
    <g fill="none" fill-rule="evenodd" stroke="#926F4B" stroke-width=".546">
        <path d="M98.686 23.798c-1.163-.7-2.376-1.426-3.742-1.621-1.875-.266-4.008-.118-5.738-1.003-1.18-.603-3.626-3.968-.642-3.738 2 .154 5.997.077 7.382-1.463 3.547-3.949 8.21 5.585 12.223 4.543 2.076-.539 2.614-3.31 4.767-2.002 1.394.847 2.868 2.158 3.892 3.418 1.511 1.855.506 2.899-1.645 3.203-1.946.274-3.91.067-5.865.092-1.84.023-3.686.171-5.519.335-1.934.173-3.519-.806-5.113-1.764zm21.26-12.169s1.057 4.272 2.465 4.793c1.41.52 2.113 1.25 3.052-.625.94-1.876-1.173-2.71-2.758-4.168-1.585-1.459-4.05-5.105-2.759 0zm-1.167 29.218s2.537 3.811 2.422-.809c-.115-4.62-5.685-6.237-3.65-8.779 2.035-2.54 3.535-4.504 5.841-.808 2.307 3.696 2.422 5.544 2.768 3.003.346-2.541 1.032-4.967-.464-6.237-1.497-1.271-2.777-.924-3.002-3.12-.225-2.194-.57-4.85.698-4.62 1.269.232 3.806 1.618 6.804 5.545 2.999 3.927 2.422 5.89.923 7.623-1.5 1.733-1.153 3.004-.116 5.43 1.038 2.425 3.23 5.082 3.23 5.082s4.036 5.429 3.69-.693c-.346-6.122-4.036-8.076-2.537-10.045 1.499-1.968 1.384-4.047 4.382-3.816 2.998.23 13.262-1.386 15.915 1.963 2.652 3.35 1.268 3.235 6.342 5.198 5.075 1.964 9.457 9.612 9.457 9.612s3.921 5.173-2.422 4.827c-6.343-.347-4.267 1.386-3.805 2.194.46.809 6.458 4.39-.577 3.812-7.035-.577-6.804.116-7.38-2.31-.577-2.426-2.077-3.119.115-3.58 2.19-.463 3.344-1.733.807-2.773s-7.15 1.964-6.804-1.964c.346-3.927-1.73-5.428-3.806-3.465-2.076 1.964-.115 6.007-4.498 6.122-4.382.116-4.382.347-4.382 2.426s.461 2.079 2.883 2.079 3.329-.578 3.28 1.27c-.05 1.849-3.972 4.852-3.972 4.852s-2.537 2.888-5.074 0-5.074-1.27-6.689-.809c-1.614.462-6.355.578-6.464 3.12-.11 2.54-1.147 8.085 2.082 8.316 3.229.23 6.573 2.194 7.611 4.62 1.038 2.426 1.154 2.541 3.806 2.888 2.652.346 3.69 0 3.806 2.31.115 2.31.576 5.082 2.767 2.772 2.192-2.31 5.882-6.815 5.19-10.165-.692-3.35-1.73-5.66-1.038-9.24.692-3.581.23-3.812 2.422-3.697 2.191.116 8.073-.693 8.88 1.733.807 2.426 2.652 4.274 2.306 6.006-.346 1.733-.461 4.62 1.845 1.733 2.307-2.888 5.42-7.277 6.343-4.62.923 2.656.346 5.429 2.307 7.277 1.96 1.848 13.377 18.02 8.764 17.788-4.613-.23-8.188.231-9.802 1.04-1.615.808-6.228 1.155-3.46 2.656 2.768 1.502 8.88 1.387 6.228 3.35-2.653 1.964-4.383 6.7-8.996 7.046-4.613.347-4.382-.808-7.034 1.848-2.653 2.657-20.297 20.907-19.375 26.567.923 5.66 1.384 11.667-2.422 5.776l-3.805-5.891s-2.768-4.043-5.074-1.617c-2.307 2.425-4.729 4.389-8.188 3.811-3.46-.577-4.267-1.732-6.805.462-2.537 2.195-2.652 4.273-2.19 8.086.46 3.812 2.19 8.548 6.111 9.24 3.921.694 5.42-.115 5.882-1.616.461-1.502.346-2.284 2.191-2.181 1.845.101 3.46.333 3.114 2.527-.346 2.195.115 5.314 2.537 6.7 2.422 1.386 3.46 2.656 3.921 5.66.461 3.003 1.845 6.237 3.69 6.468 1.845.231 6.875.462 8.454 0 1.58-.462 3.079-5.082 6.423-4.158 3.344.924 1.5.924 5.19 1.963 3.69 1.04 9.34-.462 12.109 1.387 2.767 1.848 9.225 7.854 11.301 7.854 2.076 0 3.806-.115 4.96 1.848 1.152 1.964 3.113 5.891 2.882 8.201-.23 2.31 2.883 1.964 3.46 1.964s7.611.809 11.994 3.696c4.382 2.888 11.763 3.35 10.84 7.277-.923 3.928-.807 7.74-3.114 9.472-2.306 1.733-2.421 5.313-2.537 6.93-.115 1.618-2.768 8.664-6.227 11.09-3.46 2.425-9.572 8.316-9.341 10.395.23 2.08 0 5.66-1.615 7.508-1.615 1.848-21.335 21.947-21.335 21.947s-3.575 1.617-3.575 4.851.923 4.62-.115 6.469c-1.038 1.848-3.575 3.465-3.575 6.468s-.692 7.046.23 8.663c.923 1.617 7.018 8.317-1.393 3.812-8.41-4.505-10.946-6.584-10.946-8.317 0-1.732.23-24.14.23-24.14s-.346-5.083 1.384-7.393c1.73-2.31 1.845-2.31 1.96-4.274.116-1.964.116-27.26.116-27.26s.461-3.35-2.076-4.852c-2.537-1.501-13.031-18.712-13.031-18.712s-1.96-1.04-1.96-6.006c0-4.967.23-9.241 1.96-11.09 1.73-1.847 4.151-5.428 3.46-7.97-.692-2.54.576-2.194-2.884-2.194s-7.265-1.964-9.802-3.812c-2.537-1.848-1.5-6.584-7.496-7.277-5.997-.693-5.766-2.657-5.766-2.657s.115-1.367-4.96-1.781c-5.073-.413-12.685-4.34-14.415-9.076-1.73-4.736-10.61-14.901-10.61-14.901s-2.883-3.58-1.383.347c1.499 3.926 3.805 12.474-1.154 5.66-4.958-6.816-9.456-16.865-11.301-18.597-1.845-1.733-5.882-5.545-5.766-11.09.115-5.544-.231-24.256-3.575-26.566-3.345-2.31-9.342-17.211-16.146-17.326-6.804-.116-16.376-1.271-19.374 1.27-2.999 2.541-6.689 5.314-9.11 5.314-2.422 0-10.495 2.54-12.34 3.234-1.845.693-12.34 2.772-1.5-1.848s8.996-5.891 7.727-6.815c-1.268-.924-3.46-.347-3.92-3.812-.462-3.465-1.385-7.508.922-7.508 2.306 0 6.112 1.04 5.997-.924-.116-1.964-1.269-2.426-4.152-2.195-2.883.231-3.921 0-3.69-1.733.23-1.732-.462-3.118 1.96-3.118s7.035 1.848 7.15-.231c.115-2.08-.922-6.469 1.5-7.508 2.421-1.04 4.151-3.466 7.265-3.466 3.113 0 24.564-1.27 27.677-.23 3.114 1.039 10.725 5.197 14.3 3.58 3.576-1.617 2.884-3.119 9.918-2.31 7.035.808 14.646 1.848 14.992-.578.346-2.425.231-4.851-3.805-5.313-4.037-.462-9.803.462-6.69-3.119 3.115-3.58 2.538-3.35 9.573-2.656 7.035.693 5.766.924 7.15 2.31 1.384 1.386 4.036 6.7 6.689 3.812 2.652-2.888 4.613-6.007 5.535-2.888.923 3.119-.346 4.851 2.307 6.122 2.652 1.27 5.535 4.274 5.535 4.274z" transform="translate(1 1)"/>
        <path d="M29.125 125.67s2.075 10.049 4.61 9.588c5.174-.942 1.317-4.242-3.227-9.588-.436-.513-1.948-2.335-1.383 0zm105.248 21.73s-9.222-.245-4.265-2.44c4.957-2.194 5.649-1.732 7.839-1.154 2.19.577 14.755 4.62 10.052 5.73-1.084.257-3.33 1.336-4.417.903-.848-.338-1.362-1.16-2.14-1.605-.49-.28-1.056-.438-1.596-.59-1.774-.503-3.642-.7-5.473-.844zm16.647 3.609c-.005.563.013 1.097.058 1.206.423 1.012 1.73.622 2.645.61.87-.013 5.975-.264 3.593-1.191-1.452-.568-3.072-1.587-4.74-2.165-2.28-.79-1.546.385-1.556 1.54zM129.186 16.93s-1.499-5.617 1.268-2.729c1.972 2.058 1.844 3.234 3.92 4.043 2.074.808 3.573.924 4.495 2.657.922 1.732 1.267 2.295 4.496 2.194 7.36-.23 11.067 2.818 5.303 2.951-5.764.132-14.18 1.092-14.525-1.565-.346-2.656-.577-3.792-1.499-4.264-.922-.471-2.075-.198-2.767-1.742l-.691-1.545zm18.214 3.287s-4.611.222-4.957-1.511c-.346-1.733.689-2.541-2.308-2.772-2.995-.231-3.802-.124-3.571-3.008.23-2.883-1.038-5.31 1.96-5.425 2.997-.115 9.798-.577 9.798 2.31 0 2.888-.461 3.227 1.037 3.115 1.499-.111 4.612 1.16 4.842-1.266.23-2.426 1.73-1.848 2.651-1.964.923-.115 9.873-1.08-1.729-2.293-1.107-.116-2.346-.18-3.326-.765-1.051-.626-1.689-1.548-2.86-2.006-.864-.338-2.745-.516-3.31-1.35.411-.19.841-.183 1.312-.17 4.38.115 18.329 1.492 20.634-.005 2.306-1.497 2.19-2.767 4.266-2.883 2.075-.115 9.798-.23 9.913 1.617.116 1.848.231 3.35-4.61 4.505-4.842 1.155-3.228.347-4.727 2.08-1.499 1.732-3.228 1.81-6.57 1.77-3.344-.038-5.765 1.686-5.995 2.73-.23 1.044-2.767 7.301-6.917 7.29-4.15-.008-5.533 0-5.533 0zm39.079-15.603s-2.652-.694-4.035 1.155c-1.383 1.848.115 2.079-3.112 2.194-3.228.116-2.998.31-3.805 2.234-.806 1.925-2.305 3.773-4.61 3.773-2.306 0-5.995-.85-5.65.961.347 1.811 3.46 6.547 5.073 6.663 1.614.115 14.756-1.422 16.139 3.91 1.383 5.33-.807 14.225 1.614 15.727 2.42 1.501 1.383 3.234.576 3.696-.807.462-2.075-.578-2.075 2.08 0 2.656.807 1.5 2.306 3.696 1.498 2.194 2.19 1.386 2.19 4.735 0 3.35-.346 4.62 2.075 4.967 2.42.347 4.611 2.426 4.957 3.581.346 1.155 2.882.116 3.458-1.386.577-1.501 8.3-11.897 10.606-12.128 2.305-.232 6.225.115 6.34-1.964.115-2.08-1.153-4.967 1.614-5.083 2.767-.115 8.3 0 10.72-2.656 2.422-2.657 7.379-5.526 2.768-6.286-2.103-.348-4.073-2.222-2.976-4.472.138-.283 3.298-.003 3.786-.08 1.15-.181 2.614-.527 3.224-1.639 1.056-1.923 2.02-3.897 3.155-5.777.971-1.608 4.294-5.025.188-5.773-1.268-.23-1.96-1.767-.115-3.367 0 0 2.766-6.22 5.532-6.22.87-.001 8.642-.357 7.577-1.664-.55-.675-.55-.675-6.103-1.082-.782-.057-1.173-.761-1.889-1.004-.93-.315-2.084-.223-3.042-.178-4.957.231-3.343.347-5.418-1.386C235.472.11 233.397.112 224.405.17c-8.991.056-12.446-.868-14.638 1.096-2.192 1.963-1.155 3.119-5.881 3.119-4.727 0-17.407.23-17.407.23zm48.284 48.588c.027.306.04.621.035.954-.011.75.004 2.169 1.06 2.169 1.505 0 2.945-.05 4.458-.155.77-.054 1.524.256 2.161-.21 1.32-.966 1.809-2.087 3.563-2.369.699-.112 2.79.253 2.884-.81.041-.462-.557-5.067-1.307-5.627-1.846-1.38-6.487 1.338-9.584 1.28-1.126-.02-2.246-.348-3.373-.162-.985.164-.655 1.43-.483 2.085.267 1.015.498 1.881.586 2.845zm23.997 22.219s-3.69 2.695-3.766 4.851c-.077 2.156-.769 6.084 1.883 4.39 2.651-1.695 4.65-5.391 4.65-5.391s.507-7.256-2.767-3.85zm4.074-2.708c-1.335-1.178-2.778-2.288-2.307-4.377.539-2.387 1.922-2.926 2.92-1.617 1.413 1.85 2.92 3.376 3.697 5.62.816 2.358 2.42 4.13 3.837 6.139 1.032 1.464 1.972 3.81.152 5.105-2.383 1.694-5.687 5.698-8.146 4.005-1.875-1.291-.475-2.962.545-4.279 1.184-1.527 2.373-3.261 1.882-5.294-.272-1.12-.417-2.328-.921-3.372-.362-.745-.996-1.346-1.659-1.93zm42.021-5.83c1.971-4.077-4.918-.923-2.92-5.62 2-4.697 9.224-7.316 7.994-9.164-1.23-1.848-1.846-3.79-5.996-.556-2.451 1.911-4.858 4.176-6.778 6.763-2.237 3.014 1.62 5.478-.522 8.733-2.382 3.62-5.072 7.161-5.072 7.161s-1.306 3.163-3.075.31c-.537-.866-1.547-1.61-1.94-2.543-.107-.256-.107-.437-.035-.573.275-.528 1.613-.374 1.837-1.21.307-1.155 1.828-3.455-.862-3.455s-6.978 1.91-7.055-.705c-.076-2.616-1.46-9.24.538-10.317 1.998-1.078 5.723-1.231 7.664-3.696 1.94-2.465 4.937-5.237 5.245-7.7l.308-2.465s1.153-2.541 5.534-4.158c4.38-1.618 5.686-4.62 9.836-3.235 4.15 1.386 7.915 1.079 9.453 3.466 1.537 2.387 3.075 1.848 4.458 1.848s2.92-1.617 5.533.539c2.613 2.156 7.99 7.008 8.99 5.16 1-1.848 1.691-6.084 3.612-3.542 1.921 2.54 1.152 5.312 3.996 3.542 2.844-1.772 4.38-3.542 7.532-3.542 3.151 0 8.607.384 10.067-1.002 1.46-1.386 2.079-2.619 5.69-2.619 3.612 0 4.918 1.233 5.149-1.077.23-2.31-.461-5.7.692-7.316 1.152-1.618 2.074-2.85 2.382-2.08.308.77 2.075 5.392 1.998 7.547-.076 2.156 3.459 11.397 3.92 10.242.46-1.155.537-11.86.537-11.86s-.308-3.542.769-2.926c1.076.616 3.996 5.082 4.765 3.08.768-2.002.23-5.16 1.767-5.314 1.537-.153 4.918.078 6.916-2.232 1.999-2.31 2.305-6.469 8.53-6.16 6.225.307 5.149-.462 6.993-.77 1.845-.309 3.151.077 4.535-.924 1.383-1.002 1.845-3.004 2.229-3.62.383-.616 1.228 1.386 2.458 1.848 1.23.462 7.454-.538 8.376.308.922.847 8.609 3.85 6.918 5.852-1.692 2.003-4.766 6.238-1.692 5.776 3.075-.462 14.91-.077 14.91-.077l6.993-.385s2.92-3.465 3.458-.154c.538 3.311 1.46 6.469 4.304 6.547 2.843.076 17.676.692 17.752-1.002.077-1.694 0-6.545 1.921-6.007 1.921.54 2.92 1.002 3.074 2.465.154 1.463.23 4.929 1.845 3.465 1.613-1.463 2.228-3.08 3.919-2.926 1.691.154 3.69 4.236 5.613 4.312 1.922.077 12.373-.846 13.295.231.923 1.079.692 4.004 5.303 4.236 4.611.23 23.44-.77 24.592.385 1.153 1.155 14.603 17.712 8.147 18.482-6.456.77-5.84 2.232-6.917 2.925-1.076.693-1.614 2.234-5.918 2.156-4.303-.076-7.07-.54-7.07 3.388 0 3.927 1.076 6.545-.845 8.008-1.921 1.464-1.691 3.234-1.998 5.16-.308 1.925.153 7.855-2.537 3.004-2.689-4.852-5.07-9.165-4.072-10.859.999-1.694 9.145-7.085 4.764-10.088-4.38-3.003-6.687-4.082-7.301-1.31-.614 2.773 1.845 6.855-3.381 5.776-5.226-1.077-8.992-2.925-8.992-2.925s-3.152-2.234-6.302 1.077c-3.15 3.312-13.45 12.553-6.686 12.09 6.763-.461 9.991 3.389 10.529 6.007.537 2.618.076 14.015.076 14.015s-.46 2.233 1.845 2.31c2.305.077 3.38.386 2.997 2.696-.384 2.31.615 2.464-1.921 2.695-2.536.23-2.228-.617-2.152 2.233.077 2.85 1.153 7.854-1.306 9.702-2.46 1.848-6.764 4.852-9.377 4.62-2.612-.23-3.611 3.234-3.842 4.467-.23 1.232-2.766 4.004-2.536-1.079.23-5.082.923-5.775 3.074-6.237 2.152-.462 2.614.076 6.533-2.388 3.92-2.465 3.688-3.85 3.842-7.085.154-3.234-.153-20.869-.153-20.869s-1.844-8.548-2.767-.693c-.922 7.855-3.074 11.474-5.226 12.321-2.151.847-8.838 4.082-9.222 5.237-.385 1.155-1.921 4.543-.538 6.622 1.384 2.08 3.765 4.082 3.15 5.622-.614 1.54-1.46 7.777-5.148 3.157-3.69-4.62-6.456-9.318-6.456-9.318s-2.69-5.775-5.457-2.541c-2.766 3.234-2.383 4.851-.46 8.086 1.921 3.234 6.15 11.165 1.692 17.48-4.457 6.314-4.15 9.163-6.84 9.548-2.689.386-7.455.77-12.374 2.54-4.92 1.772-.692 7.317.307 8.318.999 1 3.843 5.774.615 9.777-3.228 4.005-1.69 5.007-5.61 2.466-3.92-2.541-6.226-6.084-7.455-3.235-1.23 2.848-1.074 5.62 1.615 8.393 2.69 2.772 8.936 8.832 5.38 9.474-5.39.973-9.147-9.165-9.147-9.165-.163-1.092-.361-2.182-.594-3.261-.349-1.61-1.31-3.032-1.539-4.675-.207-1.498.137-3.004.162-4.5.023-1.409 1.033-4.593-.502-5.494-1.078-.633-2.587-.117-3.775-.287-1.395-.2-2.665-.801-3.665-1.803 0 0-3.227-3.235-3.842-5.776-.616-2.542-2.845-1.694-3.997-1.848-.591-.079-2.41-.22-2.889.195-.596.519-.014 2.191-.11 2.94-.136 1.062-.568 2.183-1.612 2.641-2.46 1.077-9.303 4.776-9.533 7.162-.231 2.388 1.306 15.016-4.765 11.242-3.145-1.954-4.458-13.4-4.458-13.4s-2.151-9.008-6.686-9.47c-4.534-.462-4.072-2.927-4.918-3.85-.846-.925-7.762-.925-7.762-.925s-2.767-1-3.69-2.233c-.921-1.232-3.535-2.848-7.608-2.54-4.072.308-6.072-.616-7.377-2.233-1.306-1.617-1.538-3.004-4.15-3.235-2.613-.23-5.995-.462-2.306 1.849 3.689 2.31 5.072 7.238 9.146 8.008 4.073.77 6.224.308 7.224 2.54 1 2.234 1.845 4.313-.615 6.008-2.46 1.694-10.758 10.627-16.83 10.473-6.072-.155-5.843-.155-7.764-4.082-1.92-3.928-4.073-14.247-8.069-17.173-3.996-2.926-5.072-5.006-5.072-5.006s-2.954-6.043-2.152 1.772c.36 3.498 3.304 6.468 3.612 7.085 0 0 1.23 2.926 1.768 6.16.537 3.234 3.765 5.929 5.148 7.546 1.384 1.617 4.458 7.546 7.302 7.855 2.843.308 8.992.155 8.992.155s6.763-1.157 2.613 3.388c-4.15 4.542-15.447 21.174-15.447 21.174s-3.382 2.543-3.152 7.78c.23 5.235 2.537 18.25-.768 21.484-3.305 3.235-5.686 4.698-5.764 9.472-.077 4.774.23 6.853-2.229 7.009-2.46.153-2.844.386-2.69 2.85.154 2.463.076 2.85-1.154 4.004-1.229 1.156-4.764 8.857-9.605 9.01-4.842.154-5.918 0-5.918 0s-1.152-.308-1.46 1c-.308 1.31-1.384 1.155-2.383 1.155-.999 0-2.613.156-3.305-3.156-.691-3.312-6.148-18.484-6.148-18.484s-2.152-6.391-3.535-6.93c-2.254-.88-1.826-3.1-1.862-5.11-.023-1.363.195-2.013.96-3.08.507-.705.757-1.565.985-2.394.692-2.52.993-5.214.993-7.825 0-4.003-1.076-11.626-3.996-13.399-.962-.584-2.108-1.153-2.87-2.007-1.36-1.523-.904-4.55-.004-6.183.992-1.803-.073-4.168-1.214-5.645-1.156-1.498-2.897-2.105-4.75-2.105-4.303 0-23.209.077-23.209.077s-2.711.233-5.61-4.005c-2.331-3.407-5.84-4.617-6.301-5.232 0 0-5.3-.994-4.608-2.611.692-1.618-.537-7.778.461-8.164 1-.384 2.536-1.848 2.46-3.696-.077-1.848-1.153-7.162.768-8.932 1.922-1.772 4.765-10.054 6.456-9.725 1.691.33 2.305-1.21 2.305-2.596 0-1.387-1.228-9.164 2.844-9.703 4.073-.54 6.84.077 9.606-1.77 2.767-1.85 2.691-.772 4.152-2.696 1.46-1.926 2.382-1.464 4.842-1.464 2.458 0 5.148-.077 5.686-.693.539-.616 3.767-2.465 4.765-.462 1 2.002.538 4.005 3.305 6.084 2.766 2.08 10.452 5.775 11.374 6.853.923 1.078 2.921 2.927 3.92.462.999-2.464.383-4.543 4.533-3.85 4.15.693 4.765.386 8.454 2.387 3.688 2.003 6.533.154 8.146-.153 1.614-.309 6.687-5.7 4.458-7.933-2.23-2.232-2.766-1.462-4.688-.77-1.922.694-6.38-.461-7.686-2.155-1.306-1.695-2.459-6.239-4.764-6.316-2.306-.076-2.307.386-1.691 2.157.615 1.77 3.38 6.546-.231 6.238-3.611-.309-4.073-.616-5.225-4.62-1.153-4.006-4.528-8.907-6.84-10.782 0 0-5.15-6.314-7.378-3.696-2.23 2.618.923 4.698 2.229 5.775 1.306 1.079 8.07 4.159 5.149 7.778-2.921 3.62-4.886 5.293-6.84 1.618-1.436-2.696 3.409-1.078 4.073-2.387.253-.501-2.47-2.61-3.458-3.389-2.05-1.617-6.917-7.394-9.914-5.391-2.998 2.002-5.304-.231-5.688 2.157-.383 2.387-1.46 4.39-4.533 4.466-3.075.076-1.999.847-2.46 2.31-.461 1.463.077 5.082-3.074 4.928-3.151-.153-6.148.924-7.07-1.155-.923-2.08-2.614-2.926-3.382-3.157-.768-.23-1.306-.924-1.23-3.157.077-2.234-.845-5.853 1.46-5.853 2.306 0 7.78.25 9.453 0 1.444-.216.922-3.518.846-4.417l-.006-.06c-.188-2.184-.446-4.243-2.376-5.613-2.472-1.755-2.063-2.773 1.082-2.695 3.145.076 5.144-1.772 6.45-2.541 1.306-.77 5.303-2.464 6.379-6.315 1.075-3.85.23-2.619 2.075-2.926 1.39-.233.78-2.571.7-3.46-.04-.447-.21-1.402.062-1.806.399-.592 1.404.054 2.092.194 1.882.385 1.087 5.43 2.932 5.891 3.32.831 5.174.088 8.61-.595 3.683-.732 4.735-2.5 8.951-11.226z" transform="translate(1 1)"/>
        <path d="M352.685 32.768c-.491-.426-.918-.89-1.178-1.406-.357-.71-.501-1.642-.133-2.377 1.228-2.456 3.759-5.488 4.794-5.795 1.035-.308 3.22-.595 5.292-.806 2.16-.22 16.314-4.452 1.15 3.07 0 0-4.448 1.881-4.448 4.069 0 2.188-.153 3.34 1.112 4.951.673.857 1.462 1.849 1.857 2.874.567 1.474-1.583.2-2.044-.065-1.438-.832-2.798-1.792-4.114-2.804-.67-.514-1.551-1.07-2.288-1.71zm-.738 180.22s2.071-6.333 3.797-2.533c1.725 3.8 2.186 6.102 1.38 7.83-.805 1.727-2.876 4.375-2.99 6.908-.115 2.516-3.065 6.96-3.107 7.024-2.27 3.411-4.06-6.306-4.027-7.715.115-4.836-.115-7.714 1.036-8.635 1.15-.922 3.464-1.722 3.911-2.88zm88.584-26.023s-2.53-2.879-3.566-5.066c-1.036-2.188-4.487-7.945 1.035-2.303s5.292 1.497 8.859 7.37c3.566 5.871 4.601 5.641 4.256 7.944-.345 2.303 2.416 2.188 2.416 2.188s7.938-.346 9.664.921 3.681.921 4.602 1.036c.92.115 16.911 1.612-4.257 1.612-3.592 0-7.232-.187-10.815-.057-.844.03-1.83.052-2.483-.576-.789-.758-.628-2.038-1.036-2.983-.414-.955-1.318-1.666-2.032-2.389-.686-.694-1.29-1.463-1.94-2.191-1.313-1.474-2.595-2.98-3.855-4.498-.28-.338-.567-.672-.848-1.008zm31.543 1.948c.288-.776.721-1.066 1.666-1.142.699-.056 1.418-.064 2.167-.01.574.042 1.067.51 1.495.874.406.346 1.675.266 1.728.863.057.628-1.335 1.436-1.785 1.727-2.589 1.67-2.129 2.418-4.66 1.728-1.421-.39-1.432-1.54-1.028-2.724.139-.405.255-.874.417-1.316zm-12.135.125l-.167-.011c-.798-.046-1.614-.184-2.233-.735-.341-.304-.61-.723-.822-1.125-.772-1.469-2.299-2.895-.666-4.313 1.294-1.125 2.627-2.161 3.982-3.208 1.091-.843 2.71-1.145 2.744-2.767.026-1.295-.65-3.107.61-4.079 1.354-1.041 4.45-2.225 4.822-1.232.7 1.864 1.375 1.004 1.374 5.42 0 2.553.11 5.17-.402 7.685-.18.884-.349 1.774-1.345 2.636-.571.494-1.09 1.083-1.79 1.404-.784.357-1.715.353-2.561.379-1.181.034-2.366.002-3.546-.054zm16.409-28.44s-2.992-2.533-2.685-5.757c.306-3.224-.1-9.672 1.33-4.528 1.431 5.144 2.352 4.989 3.425 6.37 1.391 1.79 3.653 2.874 4.806 4.853 1.119 1.92.878 5.97.838 8.754-.018 1.23.232 2.822-.939 3.724-.924.715-1.924-.494-2.404-1.21-.867-1.291-1.743-2.614-2.39-4.034-1.241-2.724.14-5.68-1.981-8.171zm21.812 33.904c-1.482.18-3.395.308-3.788-1.294-.46-1.867-1.266-4.15-3.567-5.484-2.3-1.335-3.681-.644-3.911-2.371-.099-.734-.127-1.476-.117-2.214.006-.474-.19-1.469.1-1.861.597-.797 1.167 1.45 1.167 1.772 0 1.727.69 1.958 1.956 2.648 1.266.691 6.788-.92 8.168.576 1.38 1.497.575 3.78 3.106 4.192 2.531.414 7.248-1.659 9.55.644 2.3 2.303 7.362 6.103 9.433 8.636 2.07 2.533 5.442 7.418-2.531.921-1.394-1.135-4.257.691-4.602.921 0 0-.69.73-1.956-.92-.968-1.264-2.06-.1-3.173.233-1.115.333-1.848-.78-2.349-1.615-.707-1.179-.977-2.523-1.896-3.6-.75-.878-1.742-1.323-2.888-1.38-.906-.045-1.806.087-2.702.196zm16.486 68.428c.476.072.95.139 1.434.191.468.05 1.13.113 1.396.569.177.302.132.747.058 1.074-.47 2.095-.765 3.377-2.914 3.224-2.147-.155-1.994-2.454-1.994-3.223 0-.547-.981-1.164-.785-1.704.199-.546 1.109-.397 1.533-.33.427.066.85.135 1.272.2zm-25.901-53.13c.95-.083 2.038-.162 2.406-1.188.575-1.612-.69-2.533 2.3-2.418 2.992.115 5.523-.715 5.638 1.773.115 2.488 1.035 4.1 2.53 4.906 1.496.806 2.102.575 3.121 1.842 1.021 1.267 2.977 1.497 2.977.576 0-.921-.92-7.14.69-7.6 1.61-.46 2.905-3.314 3.408-1.542.504 1.772-.417 3.615 1.079 5.227 1.495 1.612 9.87 11.975 9.87 11.975S529 229.684 529 234.175c0 4.49-.69 10.363-2.531 12.896-1.84 2.533-5.637 8.981-5.637 8.981s-1.726 2.879-4.602 3.11c-1.662.133-3.328.091-4.993.088-2.382-.004-4.306.127-5.246-2.507-.575-1.612-.69-3.224-2.76-3.224-2.072 0-3.797.957-4.373-1.652-.266-1.208-.034-2.506-.337-3.692-.434-1.69-2.607-1.17-3.903-1.203-2.369-.056-4.724-.333-7.08-.554-2.283-.212-4.307.458-6.166 1.804-1.167.842-2.135 1.868-3.557 2.28-1.396.405-2.878.299-4.314.32-1.33.02-2.751.277-3.974-.28-1.694-.772-4.453-2.744-4.76-4.892-.327-2.29 1.074-6.602-.383-7.292-1.457-.691-3.22-.461-2.454-3.377.409-1.554.946-3.129 1.122-4.732.173-1.58-.885-5.65 1.41-6.094 1.993-.383 4.294.232 4.907-.306.614-.538.077-2.227 1.687-2.457 1.611-.23 6.023 1.27 6.253-.42.19-1.4.042-3.6.62-4.922.657-1.504 2.085-2.434 3.47-3.195 2.135-1.175 4.437-2.725 6.913-3.012.14-.017.285-.03.433-.043zM551.943 269.559l-.115.131c-1.053 1.217-4.102 5.313-2.236 5.622 1.762.29 4.01 1.359 5.066.056 1.135-1.402.748-2.556 4.058-3.808 1.704-.644 3.096-5.792 3.096-5.792s-.531-1.92-1.703-2.974c-.972-.875-3.168 2.378-3.961 3.162-1.3 1.286-2.99 2.254-4.205 3.603zm11.571-6.831c-.481-.182-1.002-2.452-1.158-2.904-.603-1.751-.524-1.787.306-3.287.697-1.26-1.9-6.265.852-3.92 1.44 1.226 5.486 3.769 5.486 5.17 0 1.402-1.463.215-2.081 2.219-.619 2.003-.766 3.618-3.405 2.722z" transform="translate(1 1)"/>
    </g>
</svg>
