<svg xmlns="http://www.w3.org/2000/svg" width="51" height="43" viewBox="0 0 51 43">
    <g fill="none" fill-rule="evenodd">
        <g fill="#747588" fill-rule="nonzero" stroke="#FFF" stroke-width="1.2">
            <g>
                <path d="M176.97 73h35.06c3.85-.007 6.966-3.118 6.97-6.956V46.26c-.004-3.837-3.12-6.948-6.97-6.956h-13.214c-.973.003-1.917-.322-2.68-.922h0l-6.213-4.89c-1.228-.962-2.742-1.486-4.302-1.491h-8.652c-3.848.007-6.965 3.118-6.969 6.956v27.088c.004 3.838 3.12 6.949 6.97 6.956zm22.884-16.758c-.925 0-1.675-.748-1.675-1.67 0-.923.75-1.671 1.675-1.671.926 0 1.676.748 1.676 1.67 0 .923-.75 1.67-1.676 1.67zm16.465 9.802c-.003 2.364-1.924 4.28-4.295 4.283h-10.83v-2.392h1.676c.74 0 1.34-.598 1.34-1.336 0-.738-.6-1.337-1.34-1.337h-1.675v-2.004h1.675c.74 0 1.34-.598 1.34-1.337 0-.738-.6-1.336-1.34-1.336h-1.675v-1.884c2.04-.658 3.296-2.698 2.962-4.81-.334-2.11-2.159-3.666-4.303-3.666-2.143 0-3.968 1.555-4.302 3.667-.334 2.111.922 4.151 2.962 4.809v1.884h-1.675c-.74 0-1.34.598-1.34 1.336 0 .739.6 1.337 1.34 1.337h1.675v2.004h-1.675c-.74 0-1.34.599-1.34 1.337s.6 1.336 1.34 1.336h1.675v2.392h-16.023c.989-1.235 1.527-2.769 1.528-4.35V52.981c.004-2.359 1.917-4.272 4.282-4.283h23.73c2.37.004 4.291 1.92 4.295 4.283l-.007 13.063zm-43.638-27.088c.003-2.364 1.924-4.28 4.295-4.283h8.645c.972-.003 1.916.322 2.68.922l6.199 4.878h0c1.232.967 2.754 1.494 4.322 1.496h13.209c2.37.004 4.291 1.92 4.295 4.283v1.25c-1.224-.962-2.737-1.484-4.295-1.483H188.3c-3.848.01-6.962 3.125-6.962 6.962v12.99c-.004 2.4-1.955 4.346-4.363 4.35-2.37-.004-4.292-1.92-4.295-4.284V38.956z" transform="translate(-1073 -940) translate(904 909)"/>
            </g>
        </g>
    </g>
</svg>
