<svg width="105" height="112" viewBox="0 0 105 112" xmlns="http://www.w3.org/2000/svg">
    <g stroke="#A88057" fill="none" fill-rule="evenodd" stroke-linecap="round" stroke-linejoin="round">
        <path d="M68.633 40.143c-1.283-1.714-1.4-3.886-.233-4.686 1.167-.8 3.15-.114 4.433 1.714 1.284 1.829 1.4 3.886.234 4.686-.35.229-.7.343-1.05.343-1.05 0-2.45-.8-3.384-2.057z"/>
        <path d="M71.667 41.971s.35-2.514-1.4-4.114C68.4 36.143 69.217 35 69.217 35M62.933 28.6c1.984-.96 4.2-.6 4.784.84.583 1.32-.584 3.24-2.567 4.2"/>
        <path d="M63.517 31.36c.466-.12.816-.36 1.283-.6 1.983-1.44 3.033-.48 3.033-.48M19.667 73.8c-.267.985-.4 2.092-.4 3.323.133 4.185 2.666 7.63 5.733 7.508 3.067-.123 5.333-3.57 5.2-7.754-.133-3.2-1.6-5.785-3.467-6.892"/>
        <path d="M23.8 73.062c.8 1.353 1.333 3.323.933 5.538-.8 4.677 1.867 5.538 1.867 5.538M43 74h55v11H43zM49 85h44v26H49zM95 50c0 13.25-10.778 24-24.063 24C57.653 74 47 63.25 47 50h48zM70 50v-7.2h31V38M100 31h4v7h-4zM48 92.5h40M48 105.5h40M70.2 98.5h.6M28 41h5.884c1.918 0 3.709.417 5.116 1M3 111V49.968C3 44.986 7.103 41 12.23 41H18M42.5 85v26M42.5 63v10"/>
        <path d="M28 37v1.75c0 2.875-2.488 5.25-5.5 5.25h0c-3.012 0-5.5-2.375-5.5-5.25V37"/>
        <path d="M36.588 22.25V9.875C36.588 5 32.527 1 27.577 1H19.2C13.362 1 8.538 5.75 8.538 11.5v10.125h0c1.27.125 2.285 1.125 2.285 2.5v.625l.254-6.125c.127-3.25 2.92-9.375 6.092-9.375 0 0 6.981 11.375 17.262 8.375h0v9.625C34.43 33.75 29.1 39 22.5 39h0c-6.6 0-11.93-5.25-11.93-11.75v-2.375"/>
        <path d="M8.538 22.25c-.888.5-1.523 1.5-1.523 2.625h0c0 1.75 1.397 3 3.047 3h.761M34.685 21.75h.761c1.777 0 3.046 1.375 3.046 3h0c0 1.75-1.396 3-3.046 3h-.761M9.056 21C4.61 21 1 17.638 1 13.5S4.611 6 9.056 6H11M20.124 59.706 38.556 43 45 49.075 24.378 71.476c-2.45 2.152-6.058 2.025-8.378-.38h0M14 51l7 8M3 56l10.75 12.625L16 71M14 41s1 5.6 1 12M32.2 41s.5 2.51.6 6M9 64S6.115 90.4 3 97M17 54.5h8"/>
        <path d="M36 58s1.111 12.953 6 14M39 44.733l3.028-5.2c.378-.533.883-1.067 1.514-1.2l4.036-1.2c1.136-.4 2.397.133 3.028 1.2h0c.757 1.333.379 2.933-.757 3.867L45.686 45l5.046-1.2-.252.933c-.252.934-.883 1.6-1.766 1.867l-3.91 1.333-.758.4-.883.667M40 60l12 14M6 80.5H3M45 50l2 3"/>
        <path d="M41.798 38.875 40 35l21.193-9L68 41l-21.064 9-1.285-2.75M40 35l1.492-4.17L62 22l-1.492 4.17M67 32l1 3M63 22l2 5"/>
    </g>
</svg>
