<?xml version="1.0" encoding="UTF-8"?>
<svg width="16px" height="16px" viewBox="0 0 16 16" version="1.1" xmlns="http://www.w3.org/2000/svg" xmlns:xlink="http://www.w3.org/1999/xlink">
    <title>9B9F5D0E-2150-4993-AFE6-DD88F54AB1D0</title>
    <defs>
        <rect id="path-1" x="0" y="0" width="16" height="16"></rect>
    </defs>
    <g id="Page-1" stroke="none" stroke-width="1" fill="none" fill-rule="evenodd">
        <g id="02_Farm_Link-Home" transform="translate(-53.000000, -1998.000000)">
            <g id="Group-7-Copy-2" transform="translate(32.000000, 1466.000000)">
                <g id="Group-12" transform="translate(16.000000, 318.000000)">
                    <g id="Group-27" transform="translate(0.000000, 203.000000)">
                        <g transform="translate(1.000000, 1.000000)" id="Group-23">
                            <g id="noun_drag_2281567" transform="translate(4.000000, 10.000000)">
                                <mask id="mask-2" fill="white">
                                    <use xlink:href="#path-1"></use>
                                </mask>
                                <g id="Mask"></g>
                                <g mask="url(#mask-2)" id="Group">
                                    <g transform="translate(3.000000, 2.000000)">
                                        <g transform="translate(0.000000, 0.700005)">
                                            <path d="M5.3499992,0.326325 L3.4818968,2.194425 L4.04310185,2.755635 L4.95312425,1.845615 L4.95312425,4.062525 L5.7468743,4.062525 L5.7468743,1.845615 L6.6568967,2.755635 L7.21810175,2.194425 L5.3499992,0.326325 Z M1.8943967,3.781935 L0.02629424,5.650035 L1.8943967,7.518135 L2.45560175,6.956925 L1.54557935,6.046905 L3.76249925,6.046905 L3.76249925,5.25315 L1.54557935,5.25315 L2.45560175,4.34313 L1.8943967,3.781935 Z M8.80560185,3.781935 L8.2443968,4.34313 L9.1544192,5.25315 L6.9374993,5.25315 L6.9374993,6.046905 L9.1544192,6.046905 L8.2443968,6.956925 L8.80560185,7.518135 L10.6737044,5.650035 L8.80560185,3.781935 Z M4.95312425,7.23753 L4.95312425,9.454455 L4.04310185,8.544435 L3.4818968,9.10563 L5.3499992,10.97373 L7.21810175,9.10563 L6.6568967,8.544435 L5.7468743,9.454455 L5.7468743,7.23753 L4.95312425,7.23753 Z" id="Shape" fill="#747588" fill-rule="nonzero"></path>
                                        </g>
                                    </g>
                                </g>
                            </g>
                        </g>
                    </g>
                </g>
            </g>
        </g>
    </g>
</svg>