<?xml version="1.0" encoding="UTF-8"?>
<svg width="18px" height="18px" viewBox="0 0 18 18" version="1.1" xmlns="http://www.w3.org/2000/svg" xmlns:xlink="http://www.w3.org/1999/xlink">
    <title>C46ED893-719A-4463-88FF-C7B34C60E754</title>
    <g id="Sourcing_Module" stroke="none" stroke-width="1" fill="none" fill-rule="evenodd">
        <g id="08_Sourcing" transform="translate(-184.000000, -1751.000000)">
            <g id="Group-9" transform="translate(172.000000, 1743.000000)">
                <g id="Group-17" transform="translate(12.000000, 8.000000)">
                    <g id="Message_Icon">
                        <rect id="Rectangle" x="0" y="0" width="18" height="18"></rect>
                        <path d="M15.4603986,-5.15143483e-14 C16.8622489,-5.15143483e-14 17.998673,1.13642416 17.998673,2.5382744 L17.998673,2.5382744 L17.998673,11.7683631 C17.998673,13.1702134 16.8622489,14.3066375 15.4603986,14.3066375 L15.4603986,14.3066375 L12.3581658,14.3066375 L12.3584914,17.3064164 C12.3584914,17.8863878 11.6976719,18.1959286 11.2550563,17.8638912 L11.2550563,17.8638912 L11.1834582,17.8025475 L7.59082498,14.3066375 L2.5382744,14.3066375 C1.18834454,14.3066375 0.0845436635,13.2528341 0.00463239134,11.9229877 L0.00463239134,11.9229877 L-3.53495011e-13,11.7683631 L-3.53495011e-13,2.5382744 C-3.53495011e-13,1.13642416 1.13642416,-5.15143483e-14 2.5382744,-5.15143483e-14 L2.5382744,-5.15143483e-14 Z M15.4603986,1.38451331 L2.5382744,1.38451331 C1.90106975,1.38451331 1.38451331,1.90106975 1.38451331,2.5382744 L1.38451331,2.5382744 L1.38451331,11.7683631 C1.38451331,12.4055678 1.90106975,12.9221242 2.5382744,12.9221242 L2.5382744,12.9221242 L7.87207093,12.9221242 C8.05239869,12.9221242 8.22560903,12.9924901 8.35484752,13.1182498 L8.35484752,13.1182498 L10.9736525,15.6662296 L10.9739781,13.6143809 C10.9739781,13.2639183 11.2344087,12.9742826 11.5722997,12.9284437 L11.5722997,12.9284437 L11.6662348,12.9221242 L15.4603986,12.9221242 C16.0976033,12.9221242 16.6141597,12.4055678 16.6141597,11.7683631 L16.6141597,11.7683631 L16.6141597,2.5382744 C16.6141597,1.90106975 16.0976033,1.38451331 15.4603986,1.38451331 L15.4603986,1.38451331 Z M4.38429215,6.2303099 C4.89405588,6.2303099 5.30730102,6.64355505 5.30730102,7.15331877 C5.30730102,7.6630825 4.89405588,8.07632765 4.38429215,8.07632765 C3.87452843,8.07632765 3.46128328,7.6630825 3.46128328,7.15331877 C3.46128328,6.64355505 3.87452843,6.2303099 4.38429215,6.2303099 Z M8.99933652,6.2303099 C9.50910024,6.2303099 9.92234539,6.64355505 9.92234539,7.15331877 C9.92234539,7.6630825 9.50910024,8.07632765 8.99933652,8.07632765 C8.4895728,8.07632765 8.07632765,7.6630825 8.07632765,7.15331877 C8.07632765,6.64355505 8.4895728,6.2303099 8.99933652,6.2303099 Z M13.6143809,6.2303099 C14.1241446,6.2303099 14.5373898,6.64355505 14.5373898,7.15331877 C14.5373898,7.6630825 14.1241446,8.07632765 13.6143809,8.07632765 C13.1046172,8.07632765 12.691372,7.6630825 12.691372,7.15331877 C12.691372,6.64355505 13.1046172,6.2303099 13.6143809,6.2303099 Z" id="Combined-Shape" fill="#232334" fill-rule="nonzero"></path>
                    </g>
                </g>
            </g>
        </g>
    </g>
</svg>