<svg xmlns="http://www.w3.org/2000/svg" width="30" height="30" viewBox="0 0 30 30">
    <g fill="none" fill-rule="evenodd">
        <path d="M0 0H30V30H0z"/>
        <g transform="translate(5.09 4.09)">
            <path fill="#979797" fill-rule="nonzero" d="M9.711 0c.956 0 1.872.171 2.719.484 2.99 1.106 5.122 3.982 5.122 7.357v4.083l1.07.952c.93.827 1.06 2.219.334 3.2l-.137.17c-.453.508-1.102.8-1.783.8l-3.576-.001.001.341c0 2.005-1.572 3.642-3.55 3.745l-.2.005c-2.071 0-3.75-1.679-3.75-3.75l-.001-.341H2.386c-1.263 0-2.297-.98-2.38-2.223L0 14.66c0-.681.291-1.33.8-1.783l1.07-.954V7.841C1.87 3.61 5.22.164 9.41.006zm1.705 17.045h-3.41v.341c0 .883.671 1.609 1.53 1.696l.175.009c.941 0 1.705-.763 1.705-1.705v-.34zm-1.705-15c-3.2 0-5.795 2.595-5.795 5.796v4.542c0 .292-.125.57-.343.765L2.16 14.404c-.073.065-.115.158-.115.255 0 .188.153.341.341.341h14.65c.097 0 .19-.042.254-.114.125-.141.113-.356-.028-.482l-1.413-1.256c-.218-.195-.343-.473-.343-.765V7.841c0-3.2-2.594-5.796-5.795-5.796z"/>
            <ellipse cx="15.667" cy="3.659" fill="#E02F1F" rx="3.667" ry="3.659"/>
        </g>
    </g>
</svg>
