<svg xmlns="http://www.w3.org/2000/svg" width="34" height="32" viewBox="0 0 34 32">
    <g fill="none" fill-rule="evenodd">
        <path d="M1 0H33V32H1z"/>
        <path fill="#A88057" fill-rule="nonzero" d="M18.28.8c8.615 0 15.611 6.782 15.611 15.164S26.895 31.13 18.281 31.13H1.8c-.729 0-1.213-.752-.91-1.414l3.299-7.242-.168-.352c-.822-1.788-1.283-3.714-1.345-5.698l-.007-.459C2.67 7.582 9.666.8 18.28.8zm0 2c-7.523 0-13.61 5.9-13.61 13.164 0 2.12.526 4.17 1.52 6.029.19.356.147.721-.03.999l-.025.034-2.78 6.103H18.28c7.418 0 13.44-5.736 13.608-12.859l.003-.306c0-7.263-6.087-13.164-13.61-13.164zm4.344 15.14c.552 0 1 .447 1 1 0 .512-.386.935-.883.993l-.117.006H10.923c-.553 0-1-.447-1-1 0-.512.386-.935.883-.993l.117-.007h11.701zm4.263 0c.553 0 1 .447 1 1 0 .512-.386.935-.883.993l-.117.006H25.6c-.552 0-1-.447-1-1 0-.512.386-.935.883-.993l.117-.007h1.288zm.695-5.95c.552 0 1 .447 1 1 0 .512-.386.935-.883.993l-.117.006h-16.66c-.552 0-1-.447-1-1 0-.512.387-.935.884-.993l.117-.007h16.659z"/>
    </g>
</svg>
