<svg xmlns="http://www.w3.org/2000/svg" xmlns:xlink="http://www.w3.org/1999/xlink" width="24" height="24" viewBox="0 0 24 24">
    <defs>
        <path id="gputv4buma" d="M0 0H24V24H0z"/>
    </defs>
    <g fill="none" fill-rule="evenodd">
        <g>
            <g>
                <g>
                    <g transform="translate(-395 -641) translate(148 609) translate(24 24) translate(223 8)">
                        <mask id="yr19zwaxmb" fill="#fff">
                            <use xlink:href="#gputv4buma"/>
                        </mask>
                        <g fill="#232334" fill-rule="nonzero" mask="url(#yr19zwaxmb)">
                            <path d="M18.24 15.9c.74 0 1.36-.6 1.36-1.36V1.44C19.6.7 19 .08 18.24.08H1.36C.62.08 0 .68 0 1.44v13.1c0 .74.6 1.36 1.36 1.36h16.88zM1.36.8h16.88c.36 0 .66.3.66.66v2.42H.7V1.44c0-.36.3-.64.66-.64zM.7 14.56V4.58h18.2v9.98c0 .36-.3.66-.66.66H1.36C1 15.2.7 14.92.7 14.56zM2 2.58c-.06-.06-.1-.16-.1-.24 0-.1.04-.18.1-.24.12-.12.36-.12.5 0 .06.06.1.16.1.24 0 .1-.04.18-.1.24-.06.06-.16.1-.24.1-.1 0-.2-.04-.26-.1zm1.88 0c-.06-.06-.1-.16-.1-.24 0-.08.04-.18.1-.24.14-.12.36-.12.5 0 .06.06.1.16.1.24 0 .08-.04.18-.1.24-.06.06-.16.1-.24.1-.1 0-.18-.04-.26-.1zm1.9 0c-.06-.06-.1-.16-.1-.24 0-.08.04-.18.1-.24.12-.12.36-.12.5 0 .06.06.1.16.1.24 0 .08-.04.18-.1.24-.06.06-.16.1-.24.1-.08 0-.2-.04-.26-.1zm3.68 3.94c0-.2.16-.36.36-.36h7.08c.2 0 .36.16.36.36 0 .2-.16.36-.36.36H9.8c-.2 0-.34-.16-.34-.36zm0 2.26c0-.2.16-.36.36-.36h3.36c.2 0 .36.16.36.36 0 .2-.16.36-.36.36H9.8c-.2 0-.34-.16-.34-.36zm0 2.28c0-.2.16-.36.36-.36h7.08c.2 0 .36.16.36.36 0 .2-.2.34-.38.34H9.8c-.2 0-.34-.16-.34-.34zm-7.08 2.26c0-.2.16-.36.36-.36h14.14c.2 0 .36.16.36.36 0 .2-.16.36-.36.36H2.72c-.18-.02-.34-.16-.34-.36zm.54-1.96h4.9c.2 0 .36-.16.36-.36V6.52c0-.2-.16-.36-.36-.36h-4.9c-.2 0-.36.16-.36.36V11c0 .2.16.36.36.36zm.34-4.48h4.2v3.78h-4.2V6.88z" transform="translate(2 4)"/>
                        </g>
                    </g>
                </g>
            </g>
        </g>
    </g>
</svg>
