<svg xmlns="http://www.w3.org/2000/svg" xmlns:xlink="http://www.w3.org/1999/xlink" width="24" height="24" viewBox="0 0 24 24">
    <defs>
        <path id="6oqfneytna" d="M0 0H24V24H0z"/>
    </defs>
    <g fill="none" fill-rule="evenodd">
        <g>
            <g>
                <g>
                    <g transform="translate(-395 -1273) translate(148 1241) translate(24 24) translate(223 8)">
                        <mask id="0o0y7qpiqb" fill="#fff">
                            <use xlink:href="#6oqfneytna"/>
                        </mask>
                        <g mask="url(#0o0y7qpiqb)">
                            <g fill="#232334" fill-rule="nonzero">
                                <path d="M18.708 5.821H3.637l-.05.231c-.092.436-.158.908-.198 1.4h-.6c-1.46 0-2.647 1.187-2.647 2.646 0 1.459 1.188 2.647 2.647 2.647h.801c.581 3.029 2.44 4.323 6.191 4.323h2.782c6.438 0 6.438-4.017 6.438-8.663 0-.782-.082-1.574-.244-2.353l-.05-.23zm-15.92 6.346c-1.141 0-2.069-.927-2.069-2.069s.928-2.07 2.07-2.07h.56c-.003.126-.006.252-.006.377 0 .324 0 .647.003.96v.083c.003.307.007.61.017.907l.003.11c.01.29.026.57.046.85l.01.123c.02.237.043.475.076.73h-.71zm9.772 4.323H9.778c-4.402 0-5.336-2.062-5.666-4.079-.195-1.181-.195-2.554-.195-4.006 0-.218.01-.432.02-.647.026-.455.082-.914.165-1.356h14.127c.126.667.188 1.34.188 2.006.007 4.515.007 8.082-5.857 8.082zM7.29 2.97c.835.614-.07 2.07-.08 2.086l-.066.105.486.31.066-.105c.05-.08 1.204-1.924-.066-2.858-.169-.122-.255-.267-.271-.455-.053-.535.482-1.248.693-1.479l.082-.092L7.71.089l-.083.092c-.04.043-.93 1.02-.845 1.924.04.353.208.644.509.865zM10.97 2.97c.834.614-.07 2.07-.08 2.086l-.066.105.485.31.066-.105c.05-.08 1.205-1.924-.066-2.858-.168-.122-.254-.267-.27-.455-.053-.535.481-1.248.693-1.479l.082-.092-.426-.393-.082.092c-.04.043-.93 1.02-.845 1.924.04.353.208.644.508.865zM14.652 2.97c.835.614-.07 2.07-.08 2.086l-.065.105.485.31.066-.105c.05-.08 1.204-1.924-.066-2.858-.168-.122-.254-.267-.27-.455-.053-.535.481-1.248.692-1.479l.083-.092-.426-.393-.082.092c-.04.043-.931 1.02-.845 1.924.036.353.208.644.508.865z" transform="translate(2 3)"/>
                                <path d="M11.286 7.415c-1.181 0-2.109 1.624-2.109 3.7 0 2.072.924 3.695 2.109 3.695 1.181 0 2.105-1.623 2.105-3.696 0-2.075-.924-3.699-2.105-3.699zm-.201 6.785c-.743-.211-1.33-1.554-1.33-3.089 0-1.346.465-2.57 1.092-2.977-.234.858-.521 2.426.231 3.182.63.63.175 2.336.007 2.884zm.637-.109c.234-.858.521-2.429-.231-3.181-.627-.627-.172-2.337-.007-2.884.742.21 1.33 1.554 1.33 3.088 0 1.347-.465 2.571-1.092 2.977z" transform="translate(2 3)"/>
                            </g>
                        </g>
                    </g>
                </g>
            </g>
        </g>
    </g>
</svg>
