<svg xmlns="http://www.w3.org/2000/svg" width="22" height="22" viewBox="0 0 22 22">
    <g fill="none" fill-rule="evenodd">
        <path d="M0 0H22V22H0z"/>
        <path fill="#666" fill-rule="nonzero" d="M3 2.25c.38 0 .693.282.743.648L3.75 3v15c0 .118.082.217.193.243L4 18.25h15c.414 0 .75.336.75.75 0 .38-.282.693-.648.743L19 19.75H4c-.918 0-1.671-.707-1.744-1.606L2.25 18V3c0-.414.336-.75.75-.75zm4.5 7.713c.38 0 .693.282.743.649l.007.101v4.05c0 .413-.336.75-.75.75-.38 0-.693-.283-.743-.649l-.007-.102v-4.049c0-.414.336-.75.75-.75zm4-3c.38 0 .693.282.743.649l.007.101v7.05c0 .413-.336.75-.75.75-.38 0-.693-.283-.743-.649l-.007-.102V7.713c0-.414.336-.75.75-.75zm4-3c.38 0 .693.282.743.649l.007.101v10.05c0 .413-.336.75-.75.75-.38 0-.693-.283-.743-.649l-.007-.102V4.713c0-.414.336-.75.75-.75z"/>
    </g>
</svg>
