<?xml version="1.0" encoding="UTF-8"?>
<svg width="38px" height="38px" viewBox="0 0 38 38" version="1.1" xmlns="http://www.w3.org/2000/svg" xmlns:xlink="http://www.w3.org/1999/xlink">
    <title>F869C397-C66E-4E72-94BD-2195B5FCBC8D</title>
    <g id="Sourcing_Module" stroke="none" stroke-width="1" fill="none" fill-rule="evenodd">
        <g id="07_Sourcing" transform="translate(-172.000000, -945.000000)">
            <g id="Group-11" transform="translate(172.000000, 945.000000)">
                <g id="Group-17">
                    <rect id="Rectangle" x="0" y="0" width="38" height="38"></rect>
                    <g id="Group-16" transform="translate(7.000000, 1.000000)" stroke="#A88057" stroke-linecap="round" stroke-linejoin="round" stroke-width="1.2">
                        <path d="M14.8147587,4.17697015 C14.8147587,4.99786017 13.6120887,5.66314019 12.1278087,5.66314019 C10.6441586,5.66314019 9.44085861,4.99786017 9.44085861,4.17697015 C9.44085861,3.35608013 10.6441586,2.69080012 12.1278087,2.69080012 C13.6120887,2.69080012 14.8147587,3.35608013 14.8147587,4.17697015 Z" id="Stroke-1"></path>
                        <path d="M24.1263479,10.4093083 C23.6059679,6.99848822 21.9427679,4.27751815 19.1569078,2.25269811 C17.3191978,0.917728078 15.2458677,0.187558061 12.9841677,0.0313180576 C11.0551076,-0.101611945 9.1821176,0.185038061 7.39921756,0.959938079 C4.5100375,2.21552811 2.39197745,4.26932815 1.07842742,7.13582822 C0.226667398,8.99369826 -0.11983261,10.9479583 0.0364073936,12.9885284 C0.177527397,14.8400984 0.679637408,16.5738584 1.63786743,18.1816185 C2.84620746,20.2083285 4.05958748,22.2312586 5.31202751,24.2308786 C6.40759754,25.9797586 7.50001756,27.7317887 8.60881759,29.4731087 C9.72454761,31.2270288 10.8579176,32.9708688 11.9837277,34.7184888 C12.1160277,34.9244988 12.1342977,34.9238688 12.2672277,34.7178588 C13.9776777,32.0781588 15.6723777,29.4283787 17.3494378,26.7666287 C18.8330878,24.4129486 20.3123279,22.0561186 21.7336079,19.6627485 C22.2546179,18.7851585 22.8235079,17.9302485 23.2393079,16.9978484 C23.9285279,15.4524584 24.2397479,13.8176084 24.2561854,12.1266883 C24.2580179,11.5502383 24.2132879,10.9781983 24.1263479,10.4093083 Z" id="Stroke-3"></path>
                        <line x1="1.48843424e-13" y1="35.7351199" x2="18.4739248" y2="35.7351199" id="Stroke-5"></line>
                        <line x1="22.4762519" y1="35.7351199" x2="24.2560019" y2="35.7351199" id="Stroke-7"></line>
                        <path d="M16.3270108,24.2075056 C17.5051108,22.3370356 18.6806908,20.4646755 19.8096508,18.5633355 C20.2241909,17.8659255 20.6752709,17.1867854 21.0060209,16.4459054 C21.5534909,15.2180354 21.8004509,13.9189754 21.8143429,12.5751853 C21.8155709,12.1178053 21.7796609,11.6629453 21.7109909,11.2112353 C21.2977109,8.50160525 19.9766008,6.3394452 17.7627808,4.73042516" id="Stroke-9"></path>
                    </g>
                </g>
            </g>
        </g>
    </g>
</svg>