<svg xmlns="http://www.w3.org/2000/svg" width="32" height="32" viewBox="0 0 32 32">
    <g fill="none" fill-rule="evenodd">
        <g>
            <g>
                <g>
                    <path d="M0 0H32V32H0z" transform="translate(-559 -589) translate(439 546) translate(120 43)"/>
                    <g stroke="#A88057" stroke-width="1.3">
                        <path d="M18.5 13.65c1.339 0 2.551.543 3.429 1.421.878.878 1.42 2.09 1.42 3.43 0 1.34-.542 2.552-1.42 3.43-.877.877-2.09 1.42-3.429 1.42-1.34 0-2.552-.543-3.43-1.42-.877-.878-1.42-2.09-1.42-3.43 0-1.34.543-2.552 1.42-3.43.879-.878 2.09-1.421 3.43-1.421zM5.5 13.65c1.339 0 2.551.543 3.43 1.421.877.878 1.42 2.09 1.42 3.43 0 1.34-.543 2.552-1.42 3.43-.878.877-2.09 1.42-3.43 1.42-1.34 0-2.552-.543-3.43-1.42-.877-.878-1.42-2.09-1.42-3.43 0-1.34.543-2.552 1.42-3.43.879-.878 2.091-1.421 3.43-1.421zM18.5.65c1.339 0 2.551.543 3.429 1.421.878.878 1.42 2.09 1.42 3.43 0 1.34-.542 2.552-1.42 3.43-.877.877-2.09 1.42-3.429 1.42-1.34 0-2.552-.543-3.43-1.42-.877-.878-1.42-2.09-1.42-3.43 0-1.34.543-2.552 1.42-3.43C15.95 1.193 17.16.65 18.5.65zM5.5.65c1.339 0 2.551.543 3.43 1.421.877.878 1.42 2.09 1.42 3.43 0 1.34-.543 2.552-1.42 3.43-.878.877-2.09 1.42-3.43 1.42-1.34 0-2.552-.543-3.43-1.42C1.194 8.052.65 6.84.65 5.5c0-1.34.543-2.552 1.42-3.43C2.95 1.193 4.162.65 5.5.65z" transform="translate(-559 -589) translate(439 546) translate(120 43) translate(4 4)"/>
                    </g>
                </g>
            </g>
        </g>
    </g>
</svg>
