<svg xmlns="http://www.w3.org/2000/svg" xmlns:xlink="http://www.w3.org/1999/xlink" width="24" height="24" viewBox="0 0 24 24">
    <defs>
        <circle id="83mqchs9ya" cx="12" cy="12" r="12"/>
    </defs>
    <g fill="none" fill-rule="evenodd">
        <g>
            <g>
                <g>
                    <g>
                        <g>
                            <g>
                                <g transform="translate(-200 -642) translate(24 134) translate(8 16) translate(0 140) translate(0 340) translate(20 12) translate(148)">
                                    <mask id="n43mrfd7ib" fill="#fff">
                                        <use xlink:href="#83mqchs9ya"/>
                                    </mask>
                                    <use fill="#FFF" xlink:href="#83mqchs9ya"/>
                                    <g mask="url(#n43mrfd7ib)">
                                        <g fill="#232334" fill-rule="nonzero">
                                            <path d="M8.448 11.88h2.235c.242 0 .44-.198.44-.44s-.198-.44-.44-.44H8.888V8.131c0-.242-.198-.44-.44-.44s-.44.198-.44.44v3.305c0 .242.198.444.44.444zM16.76 5.58c.171-.172.171-.454-.005-.621l-1.729-1.712c-.172-.171-.453-.171-.62.005-.172.171-.172.453.004.62l1.73 1.712c.083.083.197.127.307.127.115 0 .229-.044.313-.132z" transform="translate(4 2)"/>
                                            <path d="M8.448 18.933c4.29 0 7.784-3.463 7.784-7.717 0-4.123-3.278-7.502-7.388-7.71V.88h.937c.242 0 .44-.198.44-.44S10.023 0 9.781 0H7.115c-.242 0-.44.198-.44.44s.198.44.44.44h.849v2.636c-4.066.25-7.3 3.608-7.3 7.7 0 4.254 3.494 7.717 7.784 7.717zm0-14.555c3.806 0 6.904 3.067 6.904 6.838 0 3.77-3.098 6.837-6.904 6.837s-6.904-3.067-6.904-6.837c0-3.771 3.098-6.838 6.904-6.838zM2.49 3.247c-.171-.171-.448-.176-.62-.004L.14 4.954c-.17.172-.175.45-.004.62.088.089.198.133.313.133.11 0 .224-.044.308-.128l1.729-1.711c.172-.168.172-.45.004-.62z" transform="translate(4 2)"/>
                                        </g>
                                    </g>
                                </g>
                            </g>
                        </g>
                    </g>
                </g>
            </g>
        </g>
    </g>
</svg>
