<svg xmlns="http://www.w3.org/2000/svg" width="16" height="19" viewBox="0 0 16 19">
    <g fill="none" fill-rule="evenodd">
        <g fill="#979797" fill-rule="nonzero">
            <g>
                <path d="M14.154 19H9.23c-1.02 0-1.846-.797-1.846-1.781v-7.124c0-.984.826-1.781 1.846-1.781h4.923c1.02 0 1.846.797 1.846 1.781v7.124c0 .984-.827 1.781-1.846 1.781zM9.23 9.501c-.34 0-.616.266-.616.594v7.124c0 .328.276.594.616.594h4.923c.34 0 .615-.266.615-.594v-7.124c0-.328-.275-.594-.615-.594H9.23z" transform="translate(-1010 -639) translate(1010 639)"/>
                <path d="M12.923 9.501c-.34 0-.615-.265-.615-.593v-4.75c0-.328-.276-.593-.616-.593h-1.23c-.34 0-.616-.266-.616-.594 0-.328.276-.594.616-.594h1.23c1.02 0 1.846.798 1.846 1.781v4.75c0 .328-.275.593-.615.593zM8 17.813H1.846C.826 17.813 0 17.015 0 16.032V4.158c0-.983.827-1.78 1.846-1.78h1.23c.34 0 .616.265.616.593 0 .328-.275.594-.615.594h-1.23c-.34 0-.616.265-.616.593v11.874c0 .328.275.593.615.593H8c.34 0 .615.266.615.594 0 .328-.275.594-.615.594z" transform="translate(-1010 -639) translate(1010 639)"/>
                <path d="M10.462 4.752H3.077c-.34 0-.615-.266-.615-.594V2.971c0-.984.826-1.781 1.846-1.781h.72C5.288.477 5.986 0 6.769 0c.784 0 1.482.477 1.742 1.19h.72c1.02 0 1.846.797 1.846 1.781v1.187c0 .328-.276.594-.615.594zm-6.77-1.187h6.154V2.97c0-.328-.275-.594-.615-.594H8c-.34 0-.615-.265-.615-.593 0-.328-.276-.594-.616-.594-.34 0-.615.266-.615.594 0 .328-.276.593-.616.593h-1.23c-.34 0-.616.266-.616.594v.594zM12.923 11.876h-2.461c-.34 0-.616-.266-.616-.594 0-.328.276-.593.616-.593h2.461c.34 0 .615.265.615.593 0 .328-.275.594-.615.594zM12.923 14.25h-2.461c-.34 0-.616-.265-.616-.593 0-.328.276-.594.616-.594h2.461c.34 0 .615.266.615.594 0 .328-.275.594-.615.594zM11.692 16.625h-1.23c-.34 0-.616-.265-.616-.593 0-.328.276-.594.616-.594h1.23c.34 0 .616.266.616.594 0 .328-.276.593-.616.593z" transform="translate(-1010 -639) translate(1010 639)"/>
            </g>
        </g>
    </g>
</svg>
