<?xml version="1.0" encoding="UTF-8"?>
<svg width="24px" height="32px" viewBox="0 0 24 32" version="1.1" xmlns="http://www.w3.org/2000/svg" xmlns:xlink="http://www.w3.org/1999/xlink">
    <title>2A5617EE-B084-4BEF-BCB4-3530BEB9BEDC</title>
    <g id="File-Share" stroke="none" stroke-width="1" fill="none" fill-rule="evenodd">
        <g id="08_Farm_Link" transform="translate(-246.000000, -994.000000)" fill="#232334" fill-rule="nonzero">
            <g id="Group-27" transform="translate(148.000000, 765.000000)">
                <g id="Group-25" transform="translate(98.000000, 20.000000)">
                    <g id="Group-18" transform="translate(0.000000, 209.000000)">
                        <path d="M14.9007919,0.25 C15.0601673,0.25 15.2143041,0.300727032 15.3416236,0.393228056 L15.4317479,0.470296557 L23.530956,8.58865619 C23.6431715,8.70113701 23.7160303,8.84555122 23.7406853,9.00050367 L23.75,9.11835963 L23.75,29 C23.75,30.4625318 22.6082954,31.6584043 21.1675223,31.7449812 L21,31.75 L3,31.75 C1.53746816,31.75 0.341595721,30.6082954 0.255018794,29.1675223 L0.25,29 L0.25,3 C0.25,1.53746816 1.3917046,0.341595721 2.83247767,0.255018794 L3,0.25 L14.9007919,0.25 Z M14.25,1.75 L3,1.75 C2.35279131,1.75 1.8204661,2.24187466 1.75645361,2.87219476 L1.75,3 L1.75,29 C1.75,29.6472087 2.24187466,30.1795339 2.87219476,30.2435464 L3,30.25 L21,30.25 C21.6472087,30.25 22.1795339,29.7581253 22.2435464,29.1278052 L22.25,29 L22.25,9.75 L15,9.75 C14.6203042,9.75 14.306509,9.46784612 14.2568466,9.10177056 L14.25,9 L14.25,1.75 Z M7.49122891,15.016 C8.05122891,15.016 8.48172891,15.149 8.78272891,15.415 C9.08372891,15.681 9.23422891,16.0426667 9.23422891,16.5 C9.23422891,16.9526667 9.08139558,17.3131667 8.77572891,17.5815 C8.47006224,17.8498333 8.04189558,17.984 7.49122891,17.984 L7.49122891,17.984 L6.32222891,17.984 L6.32222891,19.454 C6.32222891,19.7555475 6.07777638,20 5.77622891,20 C5.47468144,20 5.23022891,19.7555475 5.23022891,19.454 L5.23022891,19.454 L5.23022891,15.016 Z M11.8872289,15.016 C12.4332289,15.016 12.9010622,15.114 13.2907289,15.31 C13.6803956,15.506 13.9790622,15.7895 14.1867289,16.1605 C14.3943956,16.5315 14.4982289,16.9783333 14.4982289,17.501 C14.4982289,18.0283333 14.3955622,18.4775 14.1902289,18.8485 C13.9848956,19.2195 13.6873956,19.5041667 13.2977289,19.7025 C12.9080622,19.9008333 12.4378956,20 11.8872289,20 L11.8872289,20 L9.95522891,20 L9.95522891,15.016 Z M18.2782289,15.016 C18.5179205,15.016 18.7122289,15.2103084 18.7122289,15.45 C18.7122289,15.6896916 18.5179205,15.884 18.2782289,15.884 L18.2782289,15.884 L16.4302289,15.884 L16.4302289,17.039 L18.1417289,17.039 C18.3794875,17.039 18.5722289,17.2317414 18.5722289,17.4695 C18.5722289,17.7072586 18.3794875,17.9 18.1417289,17.9 L18.1417289,17.9 L16.4302289,17.9 L16.4302289,19.461 C16.4302289,19.7586815 16.1889104,20 15.8912289,20 C15.5935474,20 15.3522289,19.7586815 15.3522289,19.461 L15.3522289,19.461 L15.3522289,15.016 Z M11.8102289,15.898 L11.0472289,15.898 L11.0472289,19.118 L11.8102289,19.118 C12.3422289,19.118 12.7412289,18.9838333 13.0072289,18.7155 C13.2732289,18.4471667 13.4062289,18.0423333 13.4062289,17.501 C13.4062289,16.4323333 12.8742289,15.898 11.8102289,15.898 L11.8102289,15.898 Z M7.35122891,15.856 L6.32222891,15.856 L6.32222891,17.151 L7.35122891,17.151 C7.64056224,17.151 7.85522891,17.095 7.99522891,16.983 C8.13522891,16.871 8.20522891,16.7123333 8.20522891,16.507 C8.20522891,16.297 8.13639558,16.136 7.99872891,16.024 C7.86106224,15.912 7.64522891,15.856 7.35122891,15.856 L7.35122891,15.856 Z M15.75,2.914 L15.75,8.25 L21.074,8.25 L15.75,2.914 Z" id="Combined-Shape"></path>
                    </g>
                </g>
            </g>
        </g>
    </g>
</svg>