<svg xmlns="http://www.w3.org/2000/svg" width="13" height="17" viewBox="0 0 13 17">
    <path fill="#FFF" d="M2.353.001c-.26.022-.499.144-.665.338-.166.194-.245.444-.22.694.068.666.123 1.308.397 1.961.196.47.594.89 1.067 1.239v2.816C1.284 8.05.196 9.762.004 11.709c-.026.264.066.528.252.724.186.197.449.308.724.307h4.392v3.303c-.005.34.18.657.484.828.304.172.68.172.984 0 .304-.171.489-.488.484-.828V12.74h4.391c.276.001.539-.11.725-.307.186-.196.277-.46.251-.725-.191-1.946-1.278-3.658-2.928-4.66V4.234c.474-.349.871-.769 1.068-1.239.273-.653.329-1.294.396-1.96.026-.266-.065-.53-.251-.726-.186-.197-.45-.308-.725-.307H2.353zm1.25 1.887h5.49c-.028.112-.043.316-.077.398-.124.298-.23.45-.64.634-.344.155-.564.489-.564.856V7.55c.003.358.215.684.548.84 1.02.47 1.78 1.366 2.15 2.463H2.185c.37-1.096 1.133-1.992 2.15-2.462.333-.157.546-.483.549-.84V3.775c0-.367-.22-.7-.564-.856-.41-.184-.516-.336-.64-.634-.035-.082-.05-.286-.077-.398z"/>
</svg>
