<?xml version="1.0" encoding="UTF-8"?>
<svg width="35px" height="43px" viewBox="0 0 35 43" version="1.1" xmlns="http://www.w3.org/2000/svg" xmlns:xlink="http://www.w3.org/1999/xlink">
    <title>5F19E498-945B-41B9-A989-1F1408526DAA</title>
    <g id="File-Share" stroke="none" stroke-width="1" fill="none" fill-rule="evenodd">
        <g id="08_Farm_Link" transform="translate(-266.000000, -420.000000)" fill="#80460B" fill-rule="nonzero" stroke="#FAF8F4" stroke-width="0.5">
            <g id="Group-2" transform="translate(148.000000, 350.000000)">
                <g id="noun_pinned-file_547912" transform="translate(119.000000, 71.000000)">
                    <g id="Group" transform="translate(0.000000, 0.019657)">
                        <path d="M4.21659804,4.648753e-05 C1.89681086,4.648753e-05 0,1.83419899 0,4.07730117 L0,35.7889051 C0,38.0320027 1.89681086,39.8661113 4.21659804,39.8661113 L29.5161863,39.8661113 C31.8359735,39.8661113 33.7328245,38.0320027 33.7328245,35.7889051 L33.7328245,8.6075303 C33.7352582,8.34897674 33.6233835,8.10171645 33.425324,7.92799593 L24.5236171,0.226606414 C24.3499209,0.0784719718 24.1256468,-0.00222015765 23.8940556,4.648753e-05 L4.21659804,4.648753e-05 Z M4.21659804,1.81218661 L22.9570338,1.81218661 L22.9570338,7.70148447 C22.9570338,8.21511732 23.165984,8.56780019 23.4694676,8.89066962 C23.7729511,9.21353905 24.238999,9.51357613 24.8310773,9.51357613 L31.8587407,9.51357613 L31.8587407,35.7889051 C31.8587407,37.0594531 30.8301696,38.0540196 29.5161863,38.0540196 L4.21659804,38.0540196 C2.90261473,38.0540196 1.87404357,37.0594531 1.87404357,35.7889051 L1.87404357,4.07730117 C1.87404357,2.80675764 2.90261473,1.81218661 4.21659804,1.81218661 Z M24.8310773,2.93058692 L30.3507213,7.70148447 L24.8310773,7.70148447 L24.8310773,2.93058692 Z M12.5619483,15.8558969 C12.3130085,15.8774213 12.083275,15.9942092 11.9238133,16.1803009 C11.7643515,16.3663927 11.6883751,16.6063679 11.7127723,16.8468845 C11.7775571,17.4863717 11.830897,18.1028452 12.0934374,18.729761 C12.2823012,19.1807227 12.6642022,19.5842981 13.118305,19.9189462 L13.118305,22.6229267 C11.5356059,23.584649 10.4909784,25.227899 10.3072397,27.0965279 C10.2824689,27.3511634 10.3701397,27.6040626 10.5486184,27.7928205 C10.7270972,27.9815783 10.9797605,28.088614 11.2442614,28.0875156 L15.4608595,28.0875156 L15.4608595,31.2586759 C15.4560828,31.5854271 15.6336261,31.8893536 15.9255051,32.054077 C16.2173841,32.2188005 16.5783784,32.2188005 16.8702574,32.054077 C17.1621364,31.8893536 17.3396797,31.5854271 17.3349031,31.2586759 L17.3349031,28.0875156 L21.5515011,28.0875156 C21.816002,28.088614 22.0686654,27.9815783 22.2471441,27.7928205 C22.4256228,27.6040626 22.5132936,27.3511634 22.4885229,27.0965279 C22.3048418,25.2279443 21.2614221,23.5839242 19.6774575,22.6229267 L19.6774575,19.9189462 C20.1325254,19.5844793 20.5136417,19.1810851 20.7023251,18.729761 C20.9646148,18.102365 21.0181876,17.4867296 21.0829902,16.8468845 C21.1077609,16.5922491 21.0200902,16.3393498 20.8416114,16.150592 C20.6631327,15.9618341 20.4104694,15.854901 20.1459684,15.8558969 L12.6497941,15.8558969 C12.6205283,15.8545691 12.5912142,15.8545691 12.5619483,15.8558969 Z M13.7625075,17.6679886 L19.033255,17.6679886 C19.0068732,17.774988 18.9929818,17.971455 18.9600502,18.0502266 C18.8407589,18.3355722 18.7398459,18.4823018 18.3451297,18.6589762 C18.0148543,18.8076009 17.8035843,19.1278328 17.8034139,19.4800802 L17.8034139,23.1042635 C17.8064988,23.4481673 18.0106628,23.7607406 18.3304887,23.9112106 C19.3089123,24.3624667 20.0400475,25.222508 20.3948648,26.2754239 L12.4008977,26.2754239 C12.756794,25.2234141 13.4893596,24.3633274 14.4652738,23.9112106 C14.7850998,23.7607406 14.9892637,23.4481673 14.9923486,23.1042635 L14.9923486,19.4800802 C14.9921782,19.1278328 14.7809082,18.8076009 14.4506329,18.6589762 C14.0572917,18.4821296 13.9555265,18.3363287 13.8357123,18.0502266 C13.8026355,17.9712466 13.7890112,17.774988 13.7625075,17.6679886 Z" id="Shape"></path>
                    </g>
                </g>
            </g>
        </g>
    </g>
</svg>