<svg xmlns="http://www.w3.org/2000/svg" width="33" height="33" viewBox="0 0 33 33">
    <g fill="#FFF">
        <path d="M16.45 0C7.379 0 0 7.38 0 16.45S7.379 32.9 16.45 32.9 32.9 25.52 32.9 16.45 25.521 0 16.45 0zm0 31.53c-8.315 0-15.08-6.765-15.08-15.08 0-8.315 6.765-15.08 15.08-15.08 8.315 0 15.08 6.765 15.08 15.08 0 8.315-6.765 15.08-15.08 15.08z"/>
        <path d="M22.799 15.89L13.61 9.907c-.2-.133-.461-.14-.669-.025-.211.117-.342.34-.342.584v11.97c0 .243.13.467.342.584.098.054.207.081.314.081.123 0 .248-.035.355-.106L22.8 17.01c.187-.122.301-.333.301-.559 0-.226-.114-.437-.301-.56zm-8.887 5.327v-9.534l7.318 4.767-7.318 4.767z"/>
    </g>
</svg>
