<svg xmlns="http://www.w3.org/2000/svg" width="24" height="32" viewBox="0 0 24 32">
    <g fill="none" fill-rule="evenodd">
        <g fill="#232334" fill-rule="nonzero">
            <g>
                <path d="M14.9.25c.16 0 .314.05.442.143l.09.077L23.53 8.59c.112.112.185.257.21.412l.009.117V29c0 1.463-1.142 2.658-2.582 2.745L21 31.75H3c-1.463 0-2.658-1.142-2.745-2.582L.25 29V3C.25 1.537 1.392.342 2.832.255L3 .25h11.9zm-.65 1.5H3c-.647 0-1.18.492-1.244 1.122L1.75 3v26c0 .647.492 1.18 1.122 1.244L3 30.25h18c.647 0 1.18-.492 1.244-1.122L22.25 29V9.75H15c-.38 0-.693-.282-.743-.648L14.25 9V1.75zM7.491 15.016c.56 0 .99.133 1.292.399.3.266.451.628.451 1.085 0 .453-.153.813-.458 1.081-.306.269-.734.403-1.285.403H6.322v1.47c0 .302-.244.546-.546.546-.301 0-.546-.244-.546-.546v-4.438zm4.396 0c.546 0 1.014.098 1.404.294.39.196.688.48.896.85.207.372.311.818.311 1.341 0 .527-.102.976-.308 1.348-.205.37-.503.655-.892.854-.39.198-.86.297-1.41.297H9.954v-4.984zm6.391 0c.24 0 .434.194.434.434s-.194.434-.434.434H16.43v1.155h1.712c.237 0 .43.193.43.43 0 .238-.193.431-.43.431H16.43v1.561c0 .298-.241.539-.539.539-.297 0-.539-.241-.539-.539v-4.445zm-6.468.882h-.763v3.22h.763c.532 0 .931-.134 1.197-.402.266-.269.4-.674.4-1.215 0-1.069-.533-1.603-1.597-1.603zm-4.459-.042H6.322v1.295h1.03c.289 0 .503-.056.643-.168.14-.112.21-.27.21-.476 0-.21-.069-.371-.206-.483-.138-.112-.354-.168-.648-.168zM15.75 2.914V8.25h5.324L15.75 2.914z" transform="translate(-775 -833) translate(775 833)"/>
            </g>
        </g>
    </g>
</svg>
