<svg xmlns="http://www.w3.org/2000/svg" width="34" height="34" viewBox="0 0 34 34">
    <g fill="none" fill-rule="evenodd">
        <path d="M1 1H33V33H1z"/>
        <path fill="#A88057" fill-rule="nonzero" d="M17.186.775c9.064 0 16.412 7.347 16.412 16.41 0 9.064-7.348 16.413-16.412 16.413H1.774c-.552 0-1-.448-1-1V17.185C.774 8.122 8.122.775 17.186.775zm0 2c-7.96 0-14.412 6.452-14.412 14.41v14.412h14.412c7.855 0 14.242-6.284 14.41-14.099l.002-.313c0-7.959-6.452-14.41-14.412-14.41zm-.615 11.193c.513 0 .935.386.993.883l.007.117v10.377c0 .553-.448 1-1 1-.513 0-.936-.386-.993-.883l-.007-.117V14.968c0-.553.448-1 1-1zm0-4.968c.513 0 .935.386.993.883l.007.117v1.076c0 .552-.448 1-1 1-.513 0-.936-.386-.993-.884l-.007-.116V10c0-.552.448-1 1-1z"/>
    </g>
</svg>
