<?xml version="1.0" encoding="UTF-8"?>
<svg width="39px" height="38px" viewBox="0 0 39 38" version="1.1" xmlns="http://www.w3.org/2000/svg" xmlns:xlink="http://www.w3.org/1999/xlink">
    <title>DCC000F0-3404-4DCF-886D-09CF4AC68FE4</title>
    <g id="Sourcing_Module" stroke="none" stroke-width="1" fill="none" fill-rule="evenodd">
        <g id="13_Sourcing" transform="translate(-1146.000000, -905.000000)">
            <g id="Group-25" transform="translate(631.000000, 905.000000)">
                <g id="Group-20" transform="translate(516.000000, 0.000000)">
                    <g id="Group-21">
                        <rect id="Rectangle" x="0" y="0" width="38" height="38"></rect>
                        <g id="Group-16" transform="translate(0.000000, 4.000000)" stroke="#A88057" stroke-linecap="round" stroke-linejoin="round" stroke-width="1.32000003">
                            <path d="M28.7267402,23.1224551 C30.0450977,20.8522529 30.8000007,18.2142852 30.8000007,15.4000003 C30.8000007,6.894815 23.9051857,0 15.4000003,0 C6.894815,0 0,6.894815 0,15.4000003 C0,23.9051857 6.894815,30.8000007 15.4000003,30.8000007" id="Path"></path>
                            <polyline id="Path-8" transform="translate(27.934582, 24.885020) rotate(-249.000000) translate(-27.934582, -24.885020) " points="26.2845818 28.1850198 29.5845819 24.8850197 26.2845818 21.5850197"></polyline>
                            <g id="Group-19" transform="translate(11.000000, 8.800000)">
                                <path d="M9.29413784,8.12504157 C7.98480943,11.6719554 4.97941147,13.8618945 2.57975263,13.0198432 C0.18009379,12.1777919 -0.70366406,8.62027676 0.605664354,5.07487744 C1.91499277,1.52947812 4.92194391,-0.661975452 7.32004957,0.180075818 C7.91957598,0.392103116 8.42435859,0.772237771 8.82507832,1.27807433 C10.0256843,2.80012743 10.2757459,5.46561346 9.29413784,8.12504157 Z" id="Stroke-5"></path>
                                <path d="M8.80000019,2.20000005 C8.80000019,2.20000005 4.83530606,4.24073866 4.18898962,8.68651836 C3.54112327,13.135522 1.70317617,12.5141661 1.70317617,12.5141661" id="Stroke-7"></path>
                            </g>
                        </g>
                    </g>
                </g>
            </g>
        </g>
    </g>
</svg>