<svg xmlns="http://www.w3.org/2000/svg" xmlns:xlink="http://www.w3.org/1999/xlink" width="90" height="90" viewBox="0 0 90 90">
    <defs>
        <path id="prefix__a" d="M45 0c24.853 0 45 20.147 45 45S69.853 90 45 90 0 69.853 0 45 20.147 0 45 0z"/>
    </defs>
    <g fill="none" fill-rule="evenodd">
        <mask id="prefix__b" fill="#fff">
            <use xlink:href="#prefix__a"/>
        </mask>
        <use fill="#EEE" xlink:href="#prefix__a"/>
        <path fill="#DBD8D8" fill-rule="nonzero" d="M29.528 79.88l-15.104 8.23c-.886.482-1.683 1.075-2.424 1.722L77 90c-.81-.683-1.689-1.297-2.663-1.782l-16.174-8.076c-2.09-1.043-3.41-3.176-3.41-5.51v-6.338c.455-.517.974-1.18 1.53-1.965 2.205-3.11 3.872-6.53 5.028-10.119 2.075-.64 3.603-2.553 3.603-4.827v-6.765c0-1.488-.663-2.818-1.693-3.749v-8.65S65.233 17 44.596 17C23.96 17 25.972 32.219 25.972 32.219v8.65c-1.032.931-1.693 2.26-1.693 3.749v6.765c0 1.782.938 3.35 2.342 4.257 1.693 7.358 6.124 12.654 6.124 12.654v6.182c-.002 2.251-1.236 4.325-3.217 5.405z" mask="url(#prefix__b)"/>
    </g>
</svg>
