<svg xmlns="http://www.w3.org/2000/svg" width="31" height="31" viewBox="0 0 31 31">
    <g fill="none" fill-rule="evenodd">
        <path d="M0 0H30.118V30.118H0z"/>
        <path fill="#A88057" fill-rule="nonzero" d="M15.049 13.864l.31.005c6.589.168 12.183 4.816 13.566 11.176.442 2.036-1.12 3.964-3.212 3.955L4.26 28.913c-2.091-.007-3.637-1.948-3.18-3.98 1.457-6.448 7.245-11.095 13.969-11.07zm-.007 1.796l-.293.002C9 15.773 4.09 19.791 2.84 25.327c-.206.914.49 1.787 1.426 1.79l21.454.087c.937.004 1.64-.863 1.44-1.78-1.225-5.64-6.247-9.739-12.12-9.764zM15 2c2.951 0 5.343 2.382 5.343 5.32S17.951 12.64 15 12.64c-2.95 0-5.343-2.382-5.343-5.32S12.049 2 15 2zm0 1.796c-1.954 0-3.539 1.578-3.539 3.524s1.585 3.524 3.54 3.524c1.954 0 3.538-1.578 3.538-3.524S16.955 3.796 15 3.796z"/>
    </g>
</svg>
