<svg xmlns="http://www.w3.org/2000/svg" xmlns:xlink="http://www.w3.org/1999/xlink" width="32" height="32" viewBox="0 0 32 32">
    <defs>
        <path id="gxwbial35a" d="M0 0H32V32H0z"/>
    </defs>
    <g fill="none" fill-rule="evenodd">
        <g>
            <g>
                <g>
                    <g>
                        <g>
                            <g>
                                <g transform="translate(-204 -1790) translate(148 268) translate(32 425) translate(0 417) translate(0 300) translate(0 356) translate(24 24)">
                                    <mask id="d4dyl11bgb" fill="#fff">
                                        <use xlink:href="#gxwbial35a"/>
                                    </mask>
                                    <g fill="#232334" fill-rule="nonzero" mask="url(#d4dyl11bgb)">
                                        <path d="M.942 7.427c0-1.718.822-3.277 2.15-4.408C6.004.54 10.76.54 13.673 3.02c1.329 1.131 2.15 2.69 2.15 4.408 0 3.89-3.869 6.266-7.44 6.266-.4 0-.773-.029-1.169-.075l-4.259 2.398.916-3.598C2.144 11.2.941 9.621.941 7.427M17.86 5.423c2.053-.78 4.574-.46 6.263.98 1.563 1.33 2.096 3.417 1.09 5.239-.447.81-1.003 1.285-1.74 1.805l.654 2.569-3.057-1.722c-1.004.097-1.796.088-2.807-.216-.852-.258-1.649-.695-2.292-1.313-.381-.366-1.054.292-.653.676.73.698 1.622 1.203 2.581 1.507 1.007.32 1.94.39 2.973.314l3.753 2.113.958.539-.272-1.065-.768-3.018c.619-.487 1.129-1.076 1.494-1.737 1.224-2.217.602-4.783-1.306-6.407-1.953-1.662-4.825-2.05-7.2-1.145-.499.19-.185 1.077.33.88zm3.655 1.055c-.719-.61-1.965-.542-2.655.07-.43.38-.612.884-.612 1.45 0 .285.195.483.485.462.243 0 .431-.241.431-.472 0-.24.048-.48.181-.685.31-.478 1.222-.516 1.596-.126.272.282.253.774.075 1.1-.14.253-.382.478-.603.662-.61.505-.782 1.066-.782 1.838 0 .265.193.456.457.456.256 0 .458-.2.458-.456 0-.677.086-.923.608-1.358.267-.223.525-.485.695-.791.375-.676.27-1.636-.334-2.15zm-.964 5.698c-.232-.267-.703-.274-.927.006-.195.242-.195.62.008.857.22.273.693.258.92-.004.207-.24.207-.619 0-.859zM7.582 7.427c0 .442.358.8.8.8.442 0 .8-.358.8-.8 0-.442-.359-.8-.8-.8-.442 0-.8.358-.8.8zm3.57 0c0 .441.358.799.8.799.442 0 .8-.358.8-.8 0-.44-.359-.799-.8-.799-.442 0-.8.358-.8.8zm-6.34.8c.441 0 .8-.359.8-.8 0-.442-.359-.8-.8-.8-.442 0-.8.359-.8.8 0 .441.358.8.8.8zM2.484 2.305C.95 3.612 0 5.423 0 7.427c0 2.164 1.109 4.08 2.802 5.379l-1.303 5.11 5.912-3.33c.32.033.65.049.972.049 4.093 0 8.382-2.793 8.382-7.208 0-2.004-.95-3.815-2.484-5.122-3.267-2.782-8.53-2.782-11.796 0z" transform="translate(2.667 6.667)"/>
                                    </g>
                                </g>
                            </g>
                        </g>
                    </g>
                </g>
            </g>
        </g>
    </g>
</svg>
