<svg xmlns="http://www.w3.org/2000/svg" width="16" height="16" viewBox="0 0 16 16">
    <g>
        <g>
            <g>
                <path fill="none" fill-rule="evenodd" d="M0 0h16v16H0z"/>
                <path fill="#979797" d="M12.87.51a2.75 2.75 0 0 1 2.75 2.75v2a.749.749 0 0 1-.75.75h-1.12v8.716a.749.749 0 0 1-.648.743l-.1.007H3a.75.75 0 0 1-.75-.75V6.01H1.205a.75.75 0 0 1-.743-.648l-.006-.1v-2A2.75 2.75 0 0 1 3.206.51zm-.62 5.5h-8.5v7.966h8.5zM6.28 7.448a.749.749 0 0 1 .742.648l.007.1v3.985a.75.75 0 0 1-1.493.1l-.007-.1V8.2a.75.75 0 0 1 .75-.75zm3.273 0a.75.75 0 0 1 .747.652l.007.1v3.985a.75.75 0 0 1-1.493.1l-.007-.1V8.2a.75.75 0 0 1 .746-.752zM12.87 2.01H3.206a1.25 1.25 0 0 0-1.25 1.25v1.25H14.12V3.26A1.248 1.248 0 0 0 13 2.017l-.128-.007z"/>
            </g>
        </g>
    </g>
</svg>
