<?xml version="1.0" encoding="UTF-8"?>
<svg width="14px" height="14px" viewBox="0 0 14 14" version="1.1" xmlns="http://www.w3.org/2000/svg" xmlns:xlink="http://www.w3.org/1999/xlink">
    <title>84F5068F-333F-41CA-8D85-D882E7C222DD</title>
    <g id="File-Share" stroke="none" stroke-width="1" fill="none" fill-rule="evenodd">
        <g id="08_Farm_Link" transform="translate(-271.000000, -709.000000)" fill="#232334" fill-rule="nonzero">
            <g id="Group-10" transform="translate(257.000000, 699.000000)">
                <path d="M20.5847399,10 C20.9644357,10 21.2782309,10.2821539 21.3278933,10.6482294 L21.3347399,10.75 L21.334,15.834 L26.4194799,15.8347399 C26.8336934,15.8347399 27.1694799,16.1705264 27.1694799,16.5847399 C27.1694799,16.9644357 26.887326,17.2782309 26.5212504,17.3278933 L26.4194799,17.3347399 L21.334,17.334 L21.3347399,22.4194799 C21.3347399,22.8336934 20.9989535,23.1694799 20.5847399,23.1694799 C20.2050442,23.1694799 19.891249,22.887326 19.8415866,22.5212504 L19.8347399,22.4194799 L19.834,17.334 L14.75,17.3347399 C14.3357864,17.3347399 14,16.9989535 14,16.5847399 C14,16.2050442 14.2821539,15.891249 14.6482294,15.8415866 L14.75,15.8347399 L19.834,15.834 L19.8347399,10.75 C19.8347399,10.3357864 20.1705264,10 20.5847399,10 Z" id="Combined-Shape"></path>
            </g>
        </g>
    </g>
</svg>