<svg xmlns="http://www.w3.org/2000/svg" width="32" height="32" viewBox="0 0 32 32">
    <g fill="none" fill-rule="evenodd">
        <g>
            <g>
                <g>
                    <path d="M0 0H32V32H0z" transform="translate(-559 -372) translate(439 329) translate(120 43)"/>
                    <g stroke="#A88057" stroke-linecap="round" stroke-linejoin="round" stroke-width="1.3">
                        <g>
                            <path d="M0 14.566L0 4.716 20.429 4.716" transform="translate(-559 -372) translate(439 329) translate(120 43) translate(5 3)"/>
                            <path d="M16.589 0L21.305 4.716 16.589 9.432" transform="translate(-559 -372) translate(439 329) translate(120 43) translate(5 3)"/>
                        </g>
                        <g>
                            <path d="M0 14.566L0 4.716 20.429 4.716" transform="translate(-559 -372) translate(439 329) translate(120 43) translate(5 3) rotate(-180 11 13)"/>
                            <path d="M16.589 0L21.305 4.716 16.589 9.432" transform="translate(-559 -372) translate(439 329) translate(120 43) translate(5 3) rotate(-180 11 13)"/>
                        </g>
                    </g>
                </g>
            </g>
        </g>
    </g>
</svg>
