<svg xmlns="http://www.w3.org/2000/svg" width="23" height="32" viewBox="0 0 23 32">
    <g fill="none" fill-rule="evenodd">
        <path d="M0 0H32V32H0z" transform="translate(-5)"/>
        <path fill="#87623B" fill-rule="nonzero" d="M25.056.5c.942 0 1.705.764 1.705 1.706v.33c0 .277-.223.5-.5.5h-.695v2.089c0 .245-.177.45-.41.491l-.09.009-7.782-.001v.984h7.783c.245 0 .45.178.492.41l.008.09c0 2.074-1.069 3.897-2.685 4.952h3.995c.276 0 .5.224.5.5v2.658c0 .276-.224.5-.5.5l-.665-.001v11.734h.665c.245 0 .45.177.492.41l.008.09v2.658c0 .276-.224.5-.5.5H6c-.276 0-.5-.224-.5-.5v-2.658c0-.276.224-.5.5-.5h.665V15.717H6c-.245 0-.45-.176-.492-.41l-.008-.09V12.56c0-.276.224-.5.5-.5h4.687c-1.616-1.054-2.684-2.878-2.684-4.951 0-.276.224-.5.5-.5l7.781-.001v-.984h-.146c-.276 0-.5-.223-.5-.5 0-.245.177-.45.41-.491l.09-.008.146-.001v-.362c0-.276.225-.5.5-.5.246 0 .45.177.493.41l.008.09-.001.362h7.282V3.036h-.716c-.245 0-.45-.176-.492-.41l-.008-.09v-.33c0-.942.764-1.706 1.706-1.706zm1.32 27.951H6.5v1.657h19.876v-1.657zm-1.165-12.734H7.665v11.734h17.547l-.001-11.734zm-3.423 7.023c.246 0 .45.177.492.41l.008.09v2.934c0 .276-.224.5-.5.5-.245 0-.45-.177-.492-.41l-.008-.09v-2.435H11.159v2.435c0 .245-.176.45-.41.492l-.09.008c-.245 0-.45-.177-.491-.41l-.008-.09V23.24c0-.246.176-.45.41-.492l.09-.008h11.128zm-4.4 1.466c.277 0 .5.224.5.5 0 .246-.176.45-.41.492l-.09.008h-2.07c-.276 0-.5-.223-.5-.5 0-.245.177-.45.41-.492l.09-.008h2.07zm-3.831-4.572c.276 0 .5.224.5.5 0 .246-.177.45-.41.492l-.09.008h-.6c-.276 0-.5-.224-.5-.5 0-.245.177-.45.41-.492l.09-.008h.6zm3.18 0c.277 0 .5.224.5.5 0 .246-.176.45-.41.492l-.09.008h-.599c-.276 0-.5-.224-.5-.5 0-.245.177-.45.41-.492l.09-.008h.6zm3.182 0c.276 0 .5.224.5.5 0 .246-.177.45-.41.492l-.09.008h-.6c-.276 0-.5-.224-.5-.5 0-.245.177-.45.41-.492l.09-.008h.6zm6.457-6.575H6.5v1.658H26.376v-1.658zM24.54 7.608H9.029l.017.149c.308 2.333 2.255 4.15 4.646 4.254l.219.005h5.747c2.491 0 4.549-1.855 4.866-4.26l.016-.148zm.516-6.108c-.324 0-.598.22-.68.518l-.005.018h1.369l-.004-.018c-.074-.268-.303-.473-.584-.512z" transform="translate(-5)"/>
    </g>
</svg>
