<svg xmlns="http://www.w3.org/2000/svg" xmlns:xlink="http://www.w3.org/1999/xlink" width="90" height="90" viewBox="0 0 90 90">
    <defs>
        <path id="prefix__a" d="M45 0c24.853 0 45 20.147 45 45S69.853 90 45 90 0 69.853 0 45 20.147 0 45 0z"/>
    </defs>
    <g fill="none" fill-rule="evenodd">
        <mask id="prefix__b" fill="#fff">
            <use xlink:href="#prefix__a"/>
        </mask>
        <use fill="#EEE" xlink:href="#prefix__a"/>
        <g fill="#D6D2D2" fill-rule="nonzero" mask="url(#prefix__b)">
            <path d="M59.6 56.4V34c0-1.76-1.44-3.2-3.2-3.2H34c-1.76 0-3.2 1.44-3.2 3.2v22.4c0 1.76 1.44 3.2 3.2 3.2h22.4c1.76 0 3.2-1.44 3.2-3.2zm-20-8.8l4 4.816 5.6-7.216 7.2 9.6H34l5.6-7.2z"/>
        </g>
    </g>
</svg>
