<svg xmlns="http://www.w3.org/2000/svg" width="136" height="105" viewBox="0 0 136 105">
    <g fill="none" fill-rule="evenodd" stroke="#A88057" stroke-linecap="round" stroke-linejoin="round" transform="translate(1)">
        <g>
            <path d="M6.642 62.97c-1.416-.428-2.406-1.567-2.406-2.707 0-1.567 1.415-2.992 3.538-2.992" transform="translate(60)"/>
            <path d="M11.453 52.712c-.708-.854-1.84-1.424-3.255-1.424-2.123 0-3.82 1.282-3.82 2.991v5.984M9.613 65.962L9.613 70.093.132 70.093.132 67.671 7.208 67.671 7.349 60.975M36.5 16.526s-2.972 21.37 7.217 23.222c10.189 1.852 14.01-9.83 14.01-9.83M38.764 56.416c.708-5.128 2.972-9.972 6.651-13.676l.425-.428s-.85 8.406 9.764-.997l2.688-3.989h0c3.68 1.567 6.934 4.132 9.199 7.55l1.98 2.85c2.548 3.847 3.821 8.406 3.538 12.964l-1.132 19.66L74 104h-8.915" transform="translate(60)"/>
            <path d="M51.783 22.51c0-1.71 1.415-3.135 3.113-2.422 3.113 1.424.566 7.408-1.98 8.263M.274 80.208L19.802 74.652 22.774 72.8M34.943 81.775L22.208 85.764 12.16 86.477M45.415 42.882L29.849 62.115" transform="translate(60)"/>
            <path d="M54.755 51.003L44.566 64.537c-.849 1.282-2.547 1.995-3.962 1.567l-23.49-7.693-4.53-4.986c-.99-1.14-2.688-.998-3.537.142-.707.997-1.556 2.707-1.698 5.271-.566 6.411 2.972 7.836 6.793 8.263l24.764 14.247c2.264 1.282 5.377.855 7.783-.997l18.396-13.962M64.094 104c0-5.699.425-11.112 1.132-15.244 2.69-14.816-3.396-19.803-3.396-19.803M35.368 79.496L31.689 104" transform="translate(60)"/>
            <path d="M50.51 55.704s-7.642 5.556-11.604-.57l-1.698 9.83M65.792 81.205c1.982.143 4.104 0 6.085-.57M50.51 55.847c1.698-2.707 3.537-6.411 5.235-8.976 1.698-2.707 3.821-5.129 6.793-6.126" transform="translate(60)"/>
            <path d="M44.566 44.307c-.424.712-.849 1.567-1.274 2.28-1.556 2.991-2.405 6.41-2.405 9.83M51.783 22.51c-.425 1.424-.99 2.706-1.415 4.131.424-.997-.566-2.137-1.557-2.707-.99-.57-2.122-.997-2.688-1.994-.85-1.567.283-3.42-.142-5.129-1.698-.57-3.396-.855-5.094-.712-1.557 0-3.255.285-4.67-.143-1.981-.712-3.113-2.564-4.245-4.274-.708-1.282-1.132-2.707-1.132-4.131 0-1.425.566-2.992 1.698-3.99 1.698-1.424 4.387-1.14 6.51-.284.707.285 1.414.57 2.122.57 1.132 0 2.122-.57 2.972-.998C48.387.712 53.34.142 57.868 1.282c2.406.57 4.811 1.71 6.368 3.562.849 1.14 1.556 2.422 1.981 3.704.849 2.422 1.557 5.129 1.415 7.693-.141 4.844-2.264 9.403-5.377 13.107-1.557 1.994-3.397 3.704-4.812 5.841.283-1.567.708-3.277.425-4.986-.283-1.71-1.274-3.277-2.972-3.704" transform="translate(60)"/>
            <path d="M57.302 31.912v4.274c0 .57 0 1.282.566 1.71M45.698 40.175c.283.998.142 1.852-.424 2.565M44.283 65.107s6.651 8.12 6.792 11.967" transform="translate(60)"/>
        </g>
        <path d="M10 84V65.551c0-12.63 9.697-22.99 22-24.551M40 41c11.329 2.143 20 12.286 20 24.429V84M65.354 94H5.646C2.541 94 0 91.429 0 88.286V84h71v4.286C71 91.429 68.46 94 65.354 94zM60 94.556L60 104 11 104 11 94"/>
        <circle cx="35" cy="63" r="8"/>
        <circle cx="35" cy="63" r="4"/>
        <path d="M32.772 55L32.772 38.341 32.772 38.341 23 31 47 31 37.946 38.341 37.946 38.341 37.515 55"/>
        <g>
            <path d="M7.35 6.463C6.15 8.8 3.75 10.175 2.1 9.488.45 8.8 0 6.325 1.2 3.85 2.4 1.513 4.8.138 6.45.825c.45.138.75.413 1.05.825.75 1.238.75 3.025-.15 4.813z" transform="translate(33 4)"/>
            <path d="M7.5 2.2s-3 1.1-3.75 3.987C3 9.075 1.2 8.938 1.2 8.938" transform="translate(33 4)"/>
        </g>
        <g>
            <path d="M.688 10.45C.275 9.075.275 7.15.825 5.363 1.925 1.786 4.675-.55 7.15.274c.55.137 1.1.55 1.512.963C9.9 2.75 10.175 5.362 9.35 7.974c-.275.825-.688 1.65-1.1 2.475" transform="translate(33 20)"/>
            <path d="M8.938 1.788S5.224 3.85 4.811 7.975c-.137 1.1-.275 1.787-.687 2.475" transform="translate(33 20)"/>
        </g>
        <g>
            <path d="M.512 8.89c1.1 3.783 3.85 6.255 6.325 5.383 2.476-.873 3.3-4.51 2.2-8.291C7.938 2.2 5.188-.273 2.712.6c-.55.145-1.1.582-1.512 1.018C.1 3.364-.312 6.128.512 8.891z" transform="translate(19 9)"/>
            <path d="M1.063 2.49s3.712 2.183 4.125 6.546c.412 4.364 2.75 4.51 2.75 4.51" transform="translate(19 9)"/>
        </g>
        <path d="M64.458 62.028s-2.698-.248-2.44.743C62.273 63.76 66 65 66 65"/>
    </g>
</svg>
