<svg xmlns="http://www.w3.org/2000/svg" width="24" height="24" viewBox="0 0 24 24">
    <g fill="none" fill-rule="evenodd">
        <path d="M0 0H24V24H0z"/>
        <path fill="#747588" fill-rule="nonzero" d="M13.96 11.635c1.232 0 2.24.956 2.322 2.167l.005.159v7.976c0 .511-.385.932-.88.99l-.117.007H1.997c-.511 0-.933-.385-.99-.881L1 21.937V13.96c0-1.231.957-2.24 2.167-2.321l.16-.005H13.96zm0 1.993H3.327c-.16 0-.294.114-.325.266l-.007.067v6.978h11.299v-6.978c0-.131-.076-.245-.186-.299l-.07-.025-.076-.009zm5.542-8.857c.369 0 .674.275.722.63l.007.1v2.492h2.493c.403 0 .73.328.73.73 0 .37-.275.675-.63.723l-.1.007h-2.493v2.493c0 .403-.327.73-.73.73-.369 0-.674-.275-.722-.631l-.007-.1V9.453h-2.493c-.403 0-.73-.326-.73-.729 0-.369.275-.674.631-.722l.1-.007h2.492V5.5c0-.403.327-.73.73-.73zM8.644 1c2.753 0 4.984 2.232 4.984 4.985s-2.231 4.985-4.984 4.985c-2.754 0-4.985-2.232-4.985-4.985S5.89 1 8.644 1zm0 1.994c-1.652 0-2.991 1.34-2.991 2.99 0 1.653 1.339 2.992 2.99 2.992 1.652 0 2.992-1.34 2.992-2.991 0-1.652-1.34-2.991-2.991-2.991z"/>
    </g>
</svg>
