<svg xmlns="http://www.w3.org/2000/svg" width="32" height="34" viewBox="0 0 32 34">
    <g fill="none" fill-rule="evenodd">
        <path d="M0 1H32V33H0z"/>
        <path fill="#A88057" fill-rule="nonzero" d="M16.835.75c3.668 0 6.66 2.894 6.816 6.523 3.52.343 6.27 3.31 6.27 6.92v12.263c0 3.84-3.114 6.954-6.954 6.954H10.703c-3.84 0-6.953-3.113-6.953-6.954V14.193c0-3.61 2.75-6.576 6.268-6.92.158-3.63 3.15-6.523 6.817-6.523zm6.132 8.49H11.012l-.018-.002-.29.001c-2.664 0-4.837 2.103-4.95 4.74l-.004.214v12.263c0 2.736 2.218 4.954 4.953 4.954h12.264c2.736 0 4.953-2.218 4.953-4.954V14.193c0-2.736-2.217-4.954-4.953-4.954zM18.76 21.451c.553 0 1 .448 1 1 0 .513-.386.936-.883.993l-.117.007h-.925v4.544c0 .552-.447 1-1 1-.513 0-.935-.386-.993-.883l-.007-.117v-4.545l-.925.001c-.552 0-1-.448-1-1 0-.513.386-.935.884-.993l.116-.007h3.85zM16.835 2.75c-2.551 0-4.64 1.98-4.812 4.488h9.624c-.172-2.507-2.26-4.488-4.812-4.488z"/>
    </g>
</svg>
