<svg xmlns="http://www.w3.org/2000/svg" xmlns:xlink="http://www.w3.org/1999/xlink" width="24" height="24" viewBox="0 0 24 24">
    <defs>
        <circle id="y7hxrpheaa" cx="12" cy="12" r="12"/>
    </defs>
    <g fill="none" fill-rule="evenodd">
        <g>
            <g>
                <g>
                    <g>
                        <g>
                            <g>
                                <g transform="translate(-210 -743) translate(24 134) translate(8 16) translate(0 140) translate(0 340) translate(20 12) translate(158 101)">
                                    <mask id="dj097p0ukb" fill="#fff">
                                        <use xlink:href="#y7hxrpheaa"/>
                                    </mask>
                                    <use fill="#FFF" xlink:href="#y7hxrpheaa"/>
                                    <g fill="#232334" fill-rule="nonzero" mask="url(#dj097p0ukb)">
                                        <g>
                                            <path d="M12.464 10.328c-.365 0-.741.346-.881.579-.03.05-.067.126-.112.223-.268.57-.914 1.939-2.908 2.34.526-.255 1.052-.529 1.252-.69.292-.232.407-.62.287-.962-.108-.308-.377-.499-.7-.499-.511 0-2.71.49-2.956.545-.1.02-2.478.535-3.494 1.815-.626.79-1.626 3.213-1.668 3.316-.033.08-.024.174.025.246.048.072.13.116.217.116H5.01c.096 0 .185-.053.23-.138.006-.01.536-.963 2.127-1.19 2.1-.3 4.785-1.463 5.44-3.754.258-.907.28-1.46.065-1.746-.098-.13-.243-.201-.407-.201zm-.163 1.803c-.585 2.049-3.063 3.1-5.008 3.377-1.491.214-2.196 1-2.426 1.324H1.923c.305-.71.996-2.266 1.44-2.827.898-1.131 3.17-1.624 3.196-1.63.954-.213 2.5-.532 2.843-.532.126 0 .18.08.204.148.039.11.017.27-.12.38-.318.254-1.879.975-2.453 1.23-.112.05-.174.171-.15.291.023.12.128.208.25.212 3.472.087 4.484-2.055 4.812-2.752.036-.076.064-.137.088-.176.087-.146.325-.324.418-.333.001.003.161.197-.15 1.288zM14.362 7.95c-.12-3.154-2.425-5.754-5.445-6.321C8.824 1.027 8.307.563 7.68.563c-.628 0-1.145.464-1.238 1.066-3.02.567-5.326 3.167-5.445 6.32-.412.04-.736.383-.736.805 0 .448.364.812.812.812h13.214c.447 0 .812-.364.812-.812 0-.422-.325-.766-.737-.805zM7.68 1.087c.305 0 .568.188.677.455-.223-.022-.45-.035-.678-.035-.228 0-.454.013-.677.035.11-.266.372-.455.678-.455zm0 .946c3.314 0 6.027 2.626 6.165 5.908H1.515c.137-3.282 2.85-5.908 6.164-5.908zm6.607 7.007H1.073c-.158 0-.287-.129-.287-.287 0-.159.129-.287.287-.287h13.214c.158 0 .286.128.286.287 0 .159-.128.287-.286.287z" transform="translate(4 3)"/>
                                        </g>
                                    </g>
                                </g>
                            </g>
                        </g>
                    </g>
                </g>
            </g>
        </g>
    </g>
</svg>
