<svg xmlns="http://www.w3.org/2000/svg" width="32" height="32" viewBox="0 0 32 32">
    <g fill="none" fill-rule="evenodd">
        <path d="M0 0H32V32H0z"/>
        <path fill="#A88057" fill-rule="nonzero" d="M17.329 0c1.495 0 2.71 1.215 2.71 2.71v1.972l.351.13c.14.055.28.112.419.173l.337.154 1.393-1.392c.989-.99 2.655-1.03 3.7-.124l.133.123 1.881 1.88c.51.511.793 1.195.793 1.918 0 .723-.282 1.406-.793 1.917l-1.393 1.392.156.341c.06.139.118.278.173.419l.128.347 1.973.001c1.44 0 2.62 1.127 2.705 2.545l.005.165v2.658c0 1.495-1.215 2.71-2.71 2.71h-1.973l-.128.351c-.056.14-.113.28-.174.419l-.155.337 1.394 1.394c.464.464.74 1.07.786 1.72l.007.196c0 .723-.283 1.407-.793 1.917l-1.88 1.88c-1.032 1.032-2.801 1.033-3.834 0l-1.394-1.394-.337.156c-.138.06-.278.118-.418.173l-.352.13v1.972c0 1.44-1.126 2.62-2.544 2.705L17.33 32h-2.658c-1.495 0-2.71-1.215-2.71-2.71v-1.972l-.351-.129c-.141-.055-.28-.113-.419-.173l-.338-.156-1.393 1.395c-1.014 1.012-2.634 1.054-3.698.126l-.136-.127-1.88-1.88c-1.057-1.058-1.057-2.777 0-3.834l1.393-1.395-.155-.337c-.06-.139-.118-.278-.173-.419l-.13-.35H2.71c-1.44 0-2.62-1.127-2.705-2.544L0 17.33v-2.658c0-1.495 1.215-2.71 2.71-2.71h1.97l.13-.351c.056-.141.114-.28.174-.419l.155-.338-1.394-1.393C2.733 8.447 2.691 6.827 3.62 5.763l.127-.136 1.88-1.88c1.058-1.057 2.777-1.057 3.834 0l1.394 1.393.338-.155c.139-.06.278-.118.419-.173l.35-.13V2.71c0-1.44 1.127-2.62 2.545-2.705L14.671 0zm0 1.433h-2.658c-.703 0-1.277.574-1.277 1.277v2.488c0 .314-.205.592-.506.685-.637.195-1.253.45-1.841.761-.278.147-.62.096-.842-.126L8.447 4.76c-.498-.498-1.31-.498-1.807 0L4.759 6.64c-.497.498-.497 1.31 0 1.808l1.758 1.758c.222.223.273.564.126.842-.31.586-.566 1.202-.762 1.84-.092.301-.37.507-.684.507H2.71c-.703 0-1.277.573-1.277 1.277v2.658c0 .702.574 1.276 1.277 1.276h2.488c.314 0 .592.205.685.506.195.637.45 1.253.761 1.841.147.278.096.62-.126.842L4.76 23.553c-.498.498-.498 1.31 0 1.807l1.88 1.881c.498.497 1.31.497 1.808 0l1.758-1.758c.223-.222.564-.273.842-.126.586.31 1.202.566 1.84.762.301.092.507.37.507.684v2.487c0 .703.573 1.277 1.277 1.277h2.658c.703 0 1.277-.574 1.277-1.277v-2.488c0-.314.205-.592.506-.685.638-.196 1.255-.45 1.84-.761.278-.148.62-.096.842.126l1.758 1.758c.473.473 1.335.473 1.807 0l1.88-1.88c.242-.242.374-.56.374-.904 0-.343-.132-.661-.374-.903l-1.757-1.758c-.223-.223-.274-.564-.127-.842.31-.586.566-1.203.762-1.84.092-.302.37-.507.685-.507h2.487c.703 0 1.277-.574 1.277-1.277v-2.658c0-.703-.574-1.277-1.277-1.277h-2.488c-.315 0-.593-.206-.685-.507-.194-.634-.45-1.25-.761-1.84-.147-.278-.096-.62.126-.842l1.758-1.757c.242-.242.373-.56.373-.904 0-.343-.131-.662-.373-.904l-1.88-1.88c-.473-.473-1.335-.473-1.808 0l-1.757 1.757c-.223.223-.564.274-.842.127-.586-.31-1.203-.566-1.84-.762-.302-.092-.507-.37-.507-.685V2.71c0-.703-.574-1.277-1.277-1.277zM16 10.507c3.033 0 5.493 2.46 5.493 5.493 0 3.033-2.46 5.493-5.493 5.493-3.033 0-5.493-2.46-5.493-5.493 0-3.033 2.46-5.493 5.493-5.493zm0 1.433c-2.242 0-4.06 1.818-4.06 4.06 0 2.242 1.818 4.06 4.06 4.06 2.242 0 4.06-1.818 4.06-4.06 0-2.242-1.818-4.06-4.06-4.06z"/>
    </g>
</svg>
