<svg xmlns="http://www.w3.org/2000/svg" width="115" height="27" viewBox="0 0 115 27">
    <path d="M10 .38l9.617 9.546-3.602 3.574 3.602 3.574L10 26.619.383 17.074l3.6-3.574-3.6-3.574L10 .381zM5.047 14.557l-2.535 2.518L10 24.506l7.487-7.433-2.535-2.516L10 19.472l-4.953-4.916zm34.337-9.302c.901 0 1.62.087 2.158.26.537.173 1.083.425 1.638.754.19.104.36.19.507.26.147.07.273.104.377.104.156 0 .277-.091.364-.273.087-.182.156-.472.208-.871h.598l-.013.19c-.078 1.182-.117 3.094-.117 5.738h-.598l-.038-.398c-.095-.792-.294-1.552-.599-2.28-.355-.85-.858-1.538-1.508-2.067-.65-.529-1.408-.793-2.275-.793-.85 0-1.538.238-2.067.715-.529.477-.793 1.122-.793 1.937 0 .607.13 1.135.39 1.586.26.45.624.862 1.092 1.235.468.373 1.187.88 2.158 1.521l.832.572.333.222c.866.584 1.561 1.1 2.085 1.546.59.503 1.07 1.088 1.443 1.755.373.667.559 1.443.559 2.327 0 1.11-.286 2.041-.858 2.795-.572.754-1.348 1.322-2.327 1.703-.98.381-2.067.572-3.263.572-.97 0-1.777-.087-2.418-.26-.641-.173-1.23-.407-1.768-.702-.381-.243-.676-.364-.884-.364-.156 0-.277.091-.364.273-.087.182-.156.472-.208.871h-.598l.008-.132c.059-1.05.09-3.078.095-6.082l.001-.806h.598l.028.383c.152 1.766.576 3.212 1.272 4.336.745 1.205 1.89 1.807 3.432 1.807.936 0 1.707-.251 2.314-.754s.91-1.222.91-2.158c0-.97-.312-1.803-.936-2.496-.624-.693-1.612-1.473-2.964-2.34-1.04-.676-1.872-1.265-2.496-1.768-.624-.503-1.135-1.096-1.534-1.781-.399-.685-.598-1.478-.598-2.379 0-1.04.264-1.92.793-2.639.529-.72 1.235-1.252 2.119-1.599.884-.347 1.855-.52 2.912-.52zm54.971.338v.52l-.161.073c-.377.186-.743.496-1.1.928-.407.494-.75 1.192-1.027 2.093l-4.576 14.846c-.19-.017-.494-.026-.91-.026-.416 0-.719.009-.91.026L81.85 12.456l-3.848 11.596-.104-.008c-.19-.012-.459-.018-.806-.018-.416 0-.719.009-.91.026L70.357 7.776l-.08-.207c-.191-.467-.416-.814-.674-1.041-.294-.26-.589-.399-.884-.416v-.52l.32.015c.872.037 1.905.058 3.1.062l.454.001c1.456 0 2.522-.026 3.198-.078v.52l-.134.024c-.517.116-.776.446-.776.99 0 .277.078.667.234 1.17l3.796 10.998 2.626-7.748-1.326-4.03-.066-.181c-.158-.407-.34-.698-.545-.872-.234-.2-.507-.316-.819-.351v-.52l.3.015c.82.037 1.81.058 2.974.062l.444.001c1.7 0 2.947-.026 3.744-.078v.52l-.225.01c-.509.027-.884.097-1.127.211-.277.13-.416.377-.416.741 0 .312.087.72.26 1.222l3.562 10.868 2.47-7.852.096-.319c.335-1.147.502-2.046.502-2.697 0-.745-.186-1.287-.559-1.625-.372-.338-.931-.524-1.677-.559v-.52l.581.024c.953.036 1.835.054 2.643.054.815 0 1.482-.026 2.002-.078zm20.648 0v.52l-.207.035c-.468.09-.819.225-1.054.407-.269.208-.45.537-.546.988-.095.45-.143 1.118-.143 2.002v14.508l-.624-.026-.702.026-11.284-14.3v9.984l.002.299c.01.87.06 1.521.154 1.95.104.477.33.823.676 1.04.347.217.91.368 1.69.455V24l-.21-.015c-.656-.042-1.521-.063-2.598-.063-.953 0-1.707.026-2.262.078v-.52l.208-.035c.467-.09.818-.225 1.053-.407.269-.208.45-.537.546-.988.095-.45.143-1.118.143-2.002v-11.7l-.002-.238c-.01-.537-.057-.934-.14-1.192-.096-.295-.278-.494-.547-.598-.269-.104-.689-.173-1.26-.208v-.52l.191.016c.533.041 1.223.062 2.07.062.867 0 1.612-.026 2.236-.078l10.062 12.402V9.856l-.001-.299c-.01-.87-.061-1.521-.155-1.95-.104-.477-.33-.823-.676-1.04-.347-.217-.91-.368-1.69-.455v-.52l.21.015c.583.037 1.332.058 2.247.062l.351.001c.97 0 1.725-.026 2.262-.078zm-50.24 0c-.12 1.439-.181 2.721-.181 3.848 0 .763.026 1.352.078 1.768h-.598l-.051-.341c-.269-1.674-.72-2.86-1.353-3.559-.676-.745-1.63-1.118-2.86-1.118h-1.066l-.195.002c-.438.01-.763.052-.975.128-.243.087-.408.256-.494.507-.087.251-.13.654-.13 1.209v6.448h.832l.208-.006c.816-.048 1.445-.384 1.885-1.008.476-.676.81-1.482 1-2.418h.599l-.024.371c-.036.631-.054 1.322-.054 2.073v1.476c.009.864.06 2.018.156 3.464h-.598l-.044-.25c-.4-2.121-1.442-3.182-3.128-3.182h-.832v6.552l.002.2c.01.453.052.79.128 1.009.086.251.251.42.494.507.242.087.632.13 1.17.13h1.274l.243-.006c1.119-.052 2.03-.47 2.734-1.255.754-.84 1.287-2.266 1.599-4.277h.598l-.019.222c-.04.534-.06 1.189-.06 1.962 0 1.595.061 2.912.183 3.952-1.179-.052-3.164-.078-5.954-.078h-.51c-3.524.002-6.18.028-7.966.078v-.52l.207-.015c.467-.038.819-.102 1.054-.193.268-.104.45-.303.546-.598.095-.295.143-.771.143-1.43V8.348L52.8 8.11c-.01-.537-.057-.934-.14-1.192-.096-.295-.278-.494-.546-.598-.269-.104-.69-.173-1.261-.208v-.52l.275.007c1.69.043 4.089.066 7.194.07h1.829c2.12-.005 3.656-.03 4.612-.077zM10 9.642L6.11 13.5 10 17.359l3.887-3.86L10 9.642zm0-7.148L2.512 9.927l2.535 2.517L10 7.528l4.95 4.915 2.537-2.517L10 2.494z" style="mix-blend-mode:screen" fill="#FFF"/>
</svg>
