<svg xmlns="http://www.w3.org/2000/svg" width="34" height="34" viewBox="0 0 34 34">
    <g fill="none" fill-rule="evenodd">
        <g stroke="#A88057">
            <g transform="translate(-381 -948) translate(382 949)">
                <circle cx="16" cy="16" r="16" stroke-linecap="round" stroke-linejoin="round" stroke-width="1.2"/>
                <g fill="#A88057" fill-rule="nonzero" stroke-width=".5">
                    <path d="M16.67 17H.33c-.182 0-.33-.146-.33-.324 0-3.028 1.647-5.84 4.299-7.34.158-.088.36-.036.45.12.09.155.037.353-.121.443C2.275 11.23.778 13.68.666 16.351h15.668c-.15-3.643-2.818-6.706-6.455-7.347l-.128-.015c-.164 0-.302-.118-.326-.277-.024-.16.074-.312.232-.358 1.703-.504 2.846-2.018 2.846-3.767 0-2.172-1.796-3.938-4.003-3.938S4.497 2.415 4.497 4.587c0 1.724 1.171 3.274 2.848 3.77.174.052.273.233.22.404-.052.172-.236.27-.41.218C5.2 8.4 3.837 6.595 3.837 4.587 3.838 2.057 5.929 0 8.5 0c2.57 0 4.663 2.058 4.663 4.587 0 1.676-.902 3.167-2.327 3.97C14.456 9.577 17 12.865 17 16.676c0 .178-.148.324-.33.324z" transform="translate(8 7)"/>
                </g>
            </g>
        </g>
    </g>
</svg>
