<svg xmlns="http://www.w3.org/2000/svg" width="8" height="12" viewBox="0 0 8 12">
    <g fill="none" fill-rule="evenodd">
        <g fill="#979797" fill-rule="nonzero">
            <g>
                <g>
                    <path d="M11.789 9.113l.058.056c.185.205.202.525.05.751l-.05.065L8.37 13.83c-.185.205-.475.223-.68.056l-.058-.056-3.478-3.846c-.204-.225-.204-.59 0-.816.185-.205.475-.223.68-.056l.058.056L8 12.607l3.11-3.438c.185-.205.474-.223.679-.056zm-3.479-7l.059.056 3.478 3.846c.204.225.204.59 0 .816-.185.205-.475.223-.68.056l-.058-.056L8 3.393 4.89 6.831c-.185.205-.474.223-.679.056l-.058-.056c-.185-.205-.202-.525-.05-.751l.05-.065L7.63 2.17c.185-.205.475-.223.68-.056z" transform="translate(-577 -370) translate(477 367) translate(96 1)"/>
                </g>
            </g>
        </g>
    </g>
</svg>
