<svg xmlns="http://www.w3.org/2000/svg" width="22" height="22" viewBox="0 0 22 22">
    <g fill="none" fill-rule="evenodd">
        <path d="M0 0H22V22H0z"/>
        <path fill="#666" fill-rule="nonzero" d="M13.533.5c.74 0 1.442.328 1.917.896l3.467 4.142c.377.45.583 1.018.583 1.605V19c0 1.38-1.12 2.5-2.5 2.5H5c-1.38 0-2.5-1.12-2.5-2.5V3C2.5 1.62 3.62.5 5 .5zm0 1.5H5c-.552 0-1 .448-1 1v16c0 .552.448 1 1 1h12c.552 0 1-.448 1-1V7.143c0-.235-.083-.462-.233-.642L14.3 2.358c-.19-.227-.471-.358-.767-.358zm-1.84 5.3c2.286 0 4.14 1.854 4.14 4.141s-1.854 4.141-4.14 4.141c-.387 0-.7-.313-.7-.7 0-.387.313-.7.7-.7 1.513 0 2.74-1.227 2.74-2.741S13.206 8.7 11.693 8.7c-1.514 0-2.742 1.227-2.742 2.741l-.001.017.876-.936c.264-.282.707-.297.99-.034.253.238.291.62.104.9l-.071.09-2.086 2.233c-.254.272-.67.294-.951.067l-.08-.075-2.02-2.233c-.26-.287-.237-.73.05-.99.257-.233.642-.238.905-.028l.083.078.802.886.004-.182C7.664 9.044 9.475 7.3 11.692 7.3z"/>
    </g>
</svg>
