<svg xmlns="http://www.w3.org/2000/svg" width="16" height="15" viewBox="0 0 16 15">
    <g fill="none" fill-rule="evenodd">
        <g fill="#FFC107" fill-rule="nonzero">
            <g>
                <g>
                    <g>
                        <path d="M15.877 5.668c-.104-.317-.39-.542-.728-.572l-4.595-.41L8.737.505C8.603.198 8.298 0 7.96 0s-.644.198-.778.506l-1.817 4.18-4.595.41c-.337.031-.623.255-.727.572-.105.317-.008.665.247.884l3.473 2.995-1.024 4.436c-.075.326.054.663.329.858.148.105.32.159.495.159.15 0 .3-.04.434-.119l3.963-2.329 3.962 2.33c.29.17.655.155.93-.04.275-.197.404-.534.329-.86l-1.024-4.435 3.473-2.994c.255-.22.353-.567.248-.885z" transform="translate(-947 -951) translate(878 605) translate(69 346) matrix(-1 0 0 1 16 0)"/>
                    </g>
                </g>
            </g>
        </g>
    </g>
</svg>
