<svg id="Star" xmlns="http://www.w3.org/2000/svg" width="19.5" height="18.2" viewBox="0 0 19.5 18.2">
  <path id="Path_Copy_4" data-name="Path Copy 4" d="M19.467,6.895a.562.562,0,0,0-.5-.391l-6.348-.4L10.263.313A.561.561,0,0,0,9.749,0,.574.574,0,0,0,9.2.313L6.847,6.1.54,6.5a.59.59,0,0,0-.514.391.558.558,0,0,0,.183.6l4.856,3.978L3.488,17.511a.556.556,0,0,0,.217.581.58.58,0,0,0,.64.022l5.4-3.319,5.358,3.319a.6.6,0,0,0,.651-.022.549.549,0,0,0,.217-.581L14.4,11.477,19.3,7.5A.535.535,0,0,0,19.467,6.895Z" fill="#d6d6d6"/>
</svg>
