<svg xmlns="http://www.w3.org/2000/svg" width="29" height="27" viewBox="0 0 29 27">
    <path fill="#FFA001" fill-rule="evenodd" d="M28.95 10.229c-.101-.332-.39-.547-.747-.58l-9.44-.597-3.5-8.588c-.12-.298-.442-.447-.765-.464-.34 0-.68.15-.815.464l-3.5 8.588-9.38.596c-.357.034-.645.25-.764.58-.102.316 0 .68.272.896l7.221 5.902-2.344 8.952c-.085.315.05.663.322.862.29.199.663.215.952.033l8.036-4.924 7.968 4.924c.306.182.68.166.969-.033.272-.2.408-.53.323-.862l-2.345-8.952 7.283-5.902c.272-.216.374-.58.255-.895z"/>
</svg>
