<svg xmlns="http://www.w3.org/2000/svg" width="13" height="13" viewBox="0 0 13 13">
    <path fill="#232334" d="M12.387 7.195c.338 0 .613.275.613.613v4.579c0 .338-.275.613-.613.613H7.808c-.338 0-.613-.275-.613-.613V7.808c0-.338.275-.613.613-.613zm-7.195 0c.338 0 .613.275.613.613v4.579c0 .338-.275.613-.613.613H.613C.275 13 0 12.725 0 12.387V7.808c0-.338.275-.613.613-.613zm6.582 1.226H8.42v3.353h3.353V8.42zm-7.195 0H1.226v3.353H4.58V8.42zM5.192 0c.338 0 .613.275.613.613v4.579c0 .338-.275.613-.613.613H.613C.275 5.805 0 5.53 0 5.192V.613C0 .275.275 0 .613 0zm7.195 0c.338 0 .613.275.613.613v4.579c0 .338-.275.613-.613.613H7.808c-.338 0-.613-.275-.613-.613V.613c0-.338.275-.613.613-.613zM4.579 1.226H1.226V4.58H4.58V1.226zm7.195 0H8.42V4.58h3.353V1.226z"/>
</svg>
