<?xml version="1.0" encoding="UTF-8"?>
<svg width="41px" height="40px" viewBox="0 0 41 40" version="1.1" xmlns="http://www.w3.org/2000/svg" xmlns:xlink="http://www.w3.org/1999/xlink">
    <title>12A91389-1141-4406-94FD-DCBAD924EC6F</title>
    <g id="Sourcing_Module" stroke="none" stroke-width="1" fill="none" fill-rule="evenodd" stroke-linecap="round" stroke-linejoin="round">
        <g id="07_Sourcing" transform="translate(-509.000000, -944.000000)" stroke="#A88057">
            <g id="Group-29" transform="translate(148.000000, 738.000000)">
                <g id="1__total-farm-" transform="translate(362.000000, 207.000000)">
                    <g id="Group" transform="translate(0.150000, -0.000000)">
                        <path d="M5.6,12.3010301 C9,6.60103014 13.3,0.101030145 15.2,0.00103014497 C17.2,-0.098969855 21.8,7.10103014 25.3,13.1010301" id="Path"></path>
                        <path d="M38.7,26.9010301 C38.7,26.9010301 30.5,11.4010301 28,11.3010301 C25.5,11.2010301 17.1,26.9010301 17.1,26.9010301" id="Path"></path>
                        <g transform="translate(0.000000, 13.401030)" id="Path">
                            <path d="M5.5,7.6 C6.7,7.6 7.6,6.7 7.6,5.5 C7.6,4.3 6.7,3.4 5.5,3.4 C5.5,3.4 5.5,3.4 5.5,3.4 C5.8,3 5.9,2.6 5.9,2.1 C5.9,0.9 5,-3.55271368e-15 3.8,-3.55271368e-15 C2.6,-3.55271368e-15 1.7,0.9 1.7,2.1 C1.7,2.6 1.9,3 2.1,3.4 C2.1,3.4 2.1,3.4 2.1,3.4 C0.9,3.4 0,4.3 0,5.5 C0,6.7 0.9,7.6 2.1,7.6"></path>
                            <line x1="4.6" y1="7.3" x2="5.6" y2="5.7"></line>
                            <line x1="2.3" y1="6.2" x2="3" y2="7.1"></line>
                            <line x1="3.8" y1="3.8" x2="3.8" y2="13.5"></line>
                        </g>
                        <path d="M27.9,11.2010301 L30.4,15.6010301 C30.8,16.3010301 30.9,17.0010301 30.7,17.7010301 L30.7,17.7010301 C30.4,18.8010301 30.9,20.0010301 31.7,20.7010301 L33.3,22.0010301 C34.2,22.7010301 34.6,23.9010301 34.4,25.0010301 L34,26.9010301" id="Path"></path>
                        <path d="M15.2,0.00103014497 L14.9,0.701030145 C14.4,1.80103014 14.9,3.10103014 16,3.70103014 L17.4,4.50103014 C18.1,4.90103014 18.6,5.60103014 18.6,6.50103014 L18.9,10.6010301 C18.9,11.2010301 19.2,11.8010301 19.7,12.3010301 L21,13.5010301 C21.5,14.0010301 21.8,14.6010301 21.8,15.3010301 L21.8,18.5010301" id="Path"></path>
                    </g>
                    <g id="Group" transform="translate(0.000000, 26.951030)">
                        <line x1="38.85" y1="1.95" x2="37.95" y2="2.45" id="Path"></line>
                        <line x1="36.05" y1="3.35" x2="21.35" y2="10.15" id="Path" stroke-dasharray="2.1584,2.1584"></line>
                        <polyline id="Path" points="20.35 10.65 19.45 11.05 18.55 10.55"></polyline>
                        <line x1="16.95" y1="9.75" x2="1.75" y2="1.15" id="Path" stroke-dasharray="1.8377,1.8377"></line>
                        <line x1="0.95" y1="0.75" x2="0.05" y2="0.25" id="Path"></line>
                    </g>
                </g>
            </g>
        </g>
    </g>
</svg>