<svg xmlns="http://www.w3.org/2000/svg" width="39" height="38" viewBox="0 0 39 38">
    <g fill="none" fill-rule="evenodd">
        <g>
            <g>
                <path d="M0 0H38V38H0z" transform="translate(-171 -1400) translate(172 1400)"/>
                <g stroke="#A88057" stroke-linecap="round" stroke-linejoin="round" stroke-width="1.2">
                    <path d="M7.947 9.306L13.478 0 21.876 12.889M1.867 19.514L8.293 8.723" transform="translate(-171 -1400) translate(172 1400) translate(0 6)"/>
                    <path d="M20.636 16.284l5.903-11.04 10.693 17.434c0 2.095-8.335 3.793-18.616 3.793C8.335 26.471 0 24.773 0 22.678l3.071-5.164" transform="translate(-171 -1400) translate(172 1400) translate(0 6)"/>
                    <path d="M23.697 10.559L26.049 10.063 27.052 14.169 27.979 11.34 32.19 14.459M10.679 5.09L13.234 4.124 17.978 6.904" transform="translate(-171 -1400) translate(172 1400) translate(0 6)"/>
                </g>
            </g>
        </g>
    </g>
</svg>
