<?xml version="1.0" encoding="UTF-8"?>
<svg width="1046px" height="338px" viewBox="0 0 1046 338" version="1.1" xmlns="http://www.w3.org/2000/svg" xmlns:xlink="http://www.w3.org/1999/xlink">
    <title>2541CEB1-833D-4CE0-AE63-A45F96E2A2EA</title>
    <g id="Dashboard" stroke="none" stroke-width="1" fill="none" fill-rule="evenodd">
        <g id="04_Roaster-dashboard" transform="translate(-193.000000, -3080.000000)">
            <g id="Group-7" transform="translate(143.000000, 3052.000000)">
                <g id="Group-75" transform="translate(51.000055, 28.999870)">
                    <g id="Group-73" transform="translate(864.286990, 19.005539)" stroke="#A88057" stroke-width="0.964599976">
                        <g id="Group-72" transform="translate(126.520608, 211.026906)">
                            <path d="M11.4344063,0.19039337 C17.0850329,1.09952885 21.1551625,5.00712335 20.5262434,8.91954085 C19.8968419,12.8309938 14.8061655,15.2656441 9.15553885,14.3565086 C3.50539449,13.4473731 -0.565217407,9.53929633 0.0641840772,5.62687883 C0.693103261,1.71542593 5.78377963,-0.718742107 11.4344063,0.19039337 Z" id="Stroke-1"></path>
                            <path d="M0.139905175,6.20877377 C1.90946383,8.8556361 5.88506263,9.22700709 8.35154477,7.36436454 C10.1538998,6.00331397 11.7372907,4.8221613 14.1203349,5.1076829 C16.303707,5.36908949 20.3434517,6.30523377 20.5373363,8.9882686" id="Stroke-3"></path>
                        </g>
                        <g id="Group-71" transform="translate(21.132746, 43.004134)">
                            <polyline id="Stroke-65" stroke-linecap="round" stroke-linejoin="round" points="123.796761 89.5912258 131.753264 145.038362 21.1594651 160.90796 -3.69482223e-13 13.4495622 91.7696302 0.281325583 93.7301796 0.000144689996 96.0375028 16.0790617 112.858679 13.5402345 113.126356 15.2278022 120.492041 66.5614014"></polyline>
                            <line x1="93.7302761" y1="-3.64153152e-14" x2="112.858776" y2="13.5405722" id="Stroke-67" stroke-linecap="round" stroke-linejoin="round"></line>
                            <path d="M155.835322,47.694694 L155.835322,47.694694 C158.010977,49.9426943 157.952619,53.529077 155.704619,55.7042499 L91.1072876,118.218045 L83.2289173,110.076821 L147.825766,47.5635084 C150.073766,45.3878532 153.659667,45.4466938 155.835322,47.694694 Z" id="Stroke-69"></path>
                            <path d="M150.212138,61.3620629 C149.698489,60.8310506 142.333768,53.2213214 142.333768,53.2213214" id="Stroke-71"></path>
                            <line x1="88.8808944" y1="115.917088" x2="147.637573" y2="59.055849" id="Stroke-73"></line>
                            <line x1="85.6267682" y1="112.554638" x2="144.383446" y2="55.6929159" id="Stroke-75"></line>
                            <polyline id="Stroke-77" points="91.1072876 118.2179 77.5170386 123.829943 83.2289173 110.076677"></polyline>
                            <line x1="84.7959582" y1="120.726873" x2="80.5999483" y2="116.390996" id="Stroke-79"></line>
                            <line x1="151.462597" y1="59.4665274" x2="144.01251" y2="51.768055" id="Stroke-81"></line>
                            <line x1="17.0558639" y1="39.8924307" x2="99.806002" y2="28.0707757" id="Stroke-83"></line>
                            <line x1="20.0109159" y1="59.5948675" x2="102.269108" y2="47.2807842" id="Stroke-85"></line>
                            <line x1="23.9517408" y1="78.8049242" x2="106.209451" y2="66.4908409" id="Stroke-87"></line>
                            <line x1="27.3994141" y1="98.0144987" x2="91.9248826" y2="88.6559497" id="Stroke-89"></line>
                            <line x1="30.8475696" y1="114.761739" x2="71.7302104" y2="108.851152" id="Stroke-91"></line>
                            <line x1="33.3104345" y1="131.016261" x2="74.1930753" y2="125.105675" id="Stroke-93"></line>
                        </g>
                        <g id="Group-70" stroke-linecap="round" stroke-linejoin="round">
                            <path d="M14.6892178,36.747883 C17.0119746,33.6929949 20.6181316,32.5263112 22.7431453,34.1420161 C24.8681591,35.7577211 24.7080355,39.5442583 22.3852787,42.5991464 C20.062522,45.6540346 16.4568473,46.8207182 14.3318335,45.2050133 C12.2068198,43.5893083 12.3669434,39.8027711 14.6892178,36.747883 Z" id="Stroke-101"></path>
                            <path d="M28.9043347,42.3296372 C25.4472084,40.663773 23.5840836,37.3638765 24.7425681,34.9586465 C25.9010527,32.5534164 29.6432183,31.9543999 33.1008269,33.6197817 C36.5579532,35.2856459 38.4210781,38.5855424 37.2625935,40.9907724 C36.104109,43.3960025 32.3619433,43.9955014 28.9043347,42.3296372 Z" id="Stroke-105"></path>
                            <path d="M28.7889686,27.0418369 C28.8396101,30.8790156 26.7170078,34.0187885 24.0474774,34.0539964 C21.377947,34.0892043 19.1728714,31.0073074 19.1217476,27.1701287 C19.0711061,23.3324677 21.1937084,20.193177 23.8632388,20.1579691 C26.5322869,20.1222789 28.7383271,23.2041759 28.7889686,27.0418369 Z" id="Stroke-109"></path>
                            <path d="M27.5982664,21.6176018 L27.5982664,21.6176018 C30.5470485,14.0088372 36.7629307,8.13104727 44.5245844,5.61199443 L55.3555953,2.09650982 L54.5332738,9.73903542 C53.4775191,19.5514287 47.1777167,28.0172404 38.0815389,31.84622 L33.417698,33.7855482" id="Stroke-113"></path>
                            <path d="M55.2570614,3.01302448 C55.2570614,3.01302448 38.6201233,15.9434872 27.5981217,32.1627535" id="Stroke-115"></path>
                            <polyline id="Stroke-117" points="32.1217097 13.9717001 33.443694 24.4096365 44.4893283 28.0355678"></polyline>
                            <polyline id="Stroke-119" points="39.1259113 8.04350982 40.2352013 16.8030422 51.7124941 19.1904271"></polyline>
                            <polyline id="Stroke-121" points="46.143762 5.08633567 46.143762 10.9554442 54.3727644 10.9554442"></polyline>
                            <path d="M28.4055401,19.7569367 C25.500165,12.1317739 18.5584212,6.13967885 10.8112365,3.57625441 L-2.48689958e-13,3.19744231e-14 L0.77891448,7.64686631 C1.77920466,17.4650472 8.0312594,25.966549 17.1047691,29.8471347 L20.0164141,31.0769997" id="Stroke-123"></path>
                            <path d="M0.0935179676,0.916852277 C0.0935179676,0.916852277 9.13808964,6.43436414 21.0523462,21.5173317" id="Stroke-125"></path>
                            <polyline id="Stroke-127" points="23.1662189 12.0064724 20.3153436 20.6068457 10.7195031 25.9999242"></polyline>
                            <polyline id="Stroke-129" points="16.195923 6.03868523 15.0369561 14.7914654 3.54615889 17.1142221"></polyline>
                            <polyline id="Stroke-131" points="9.19504927 3.04176956 9.16177057 8.91039582 0.932285877 8.86409502"></polyline>
                        </g>
                    </g>
                    <g id="Group-74" transform="translate(588.493989, 295.349696)" stroke="#A88057" stroke-width="0.964599976">
                        <path d="M5.36433478,4.7242162 C10.8331343,-0.429641466 18.1583066,-1.53748454 21.7258796,2.24808807 C25.2934526,6.03414297 23.7525041,13.2807003 18.2837046,18.4340757 C12.8153873,23.587451 5.49021508,24.6957764 1.92215977,20.9102038 C-1.64541324,17.1241489 -0.104464778,9.87759157 5.36433478,4.7242162 Z" id="Stroke-5"></path>
                        <path d="M2.58831251,21.2962367 C6.75972511,21.5730769 10.3277804,17.7320398 10.3634706,13.67445 C10.3895148,10.7102343 10.4276165,8.11642494 12.6322098,5.864084 C14.6511175,3.80176925 18.8587026,0.346572134 21.8070024,2.29217029" id="Stroke-7"></path>
                    </g>
                    <g id="Group-6" transform="translate(307.982961, 301.311299)" stroke="#A88057" stroke-width="0.964599976">
                        <path d="M5.01052099,13.8747575 C0.504392206,10.5714848 -1.29410445,5.36457417 0.992479794,2.24554015 C3.27954634,-0.873976175 8.7859653,-0.724945479 13.2920941,2.57832714 C17.7982229,5.88159975 19.5967195,11.0880281 17.3101353,14.2070621 C15.0230687,17.3270608 9.51664978,17.1780301 5.01052099,13.8747575 Z" id="Stroke-9"></path>
                        <path d="M17.5027177,13.6684777 C17.1419573,10.5807932 13.8526714,8.49050508 10.8807388,9.01187137 C8.70942429,9.39288836 6.80771544,9.71506475 4.86356419,8.40706718 C3.08339493,7.20855171 -0.0110417911,4.59834418 1.01384568,2.18057434" id="Stroke-11"></path>
                    </g>
                    <g id="Group">
                        <path d="M125.04268,43.8936736 C124.362155,58.2609079 123.461218,68.1586683 119.217943,81.96547 C116.337165,91.3399349 111.100352,101.656332 99.8661382,101.636586 C89.5656574,101.61823 79.2444377,94.4329247 72.9494582,86.7233594 C68.0652062,80.7413927 65.7906795,73.0438849 66.4374438,65.347824 L67.3769642,54.1748624 C67.3769642,54.1748624 57.7787121,52.8678295 62.9287114,35.0671015 C62.9287114,35.0671015 67.6388531,25.8937558 71.9477211,37.0208988" id="Stroke-13" stroke="#A88057" stroke-width="0.964599976" stroke-linecap="round" stroke-linejoin="round"></path>
                        <line x1="40.023658" y1="178.469502" x2="44.9436001" y2="154.929404" id="Stroke-15" stroke="#A88057" stroke-width="0.964599976" stroke-linecap="round" stroke-linejoin="round"></line>
                        <path d="M71.0928926,84.6777323 L65.4731332,92.0786256 L37.879304,99.8335271 L33.0693262,101.669161 C19.0151046,107.033301 9.11059201,119.767468 7.37141825,134.709121 L0.904740012,179.892431 C0.0718079333,185.709451 -0.18670486,191.594476 0.132095432,197.462138 C0.59076272,205.907693 1.90888859,211.444979 11.5650166,212.166982 C14.9039795,212.416813 18.2574113,211.927761 21.4512018,210.923612 L77.620823,193.261787 L89.7921455,191.881927 L118.262796,186.127606 C119.035923,185.970858 119.702944,185.486147 120.089748,184.798387 C121.097755,183.006642 119.824001,180.788062 117.767956,180.755748 L82.5277431,180.19628 L87.4611896,171.001713 C88.4002277,169.252411 87.2036414,167.120645 85.2218708,167.010681 C84.3262397,166.961004 83.4648519,167.356972 82.9193706,168.0674 L73.3688663,180.512187 L30.7784013,179.394215" id="Stroke-17" stroke="#A88057" stroke-width="0.964599976" stroke-linecap="round" stroke-linejoin="round"></path>
                        <polyline id="Stroke-19" stroke="#A88057" stroke-width="0.964599976" stroke-linecap="round" stroke-linejoin="round" points="172.661798 176.340147 161.171 183.354718 141.905045 170.089539"></polyline>
                        <path d="M114.742923,93.9732928 C119.852409,95.8504044 124.961412,97.7270336 130.069934,99.6036629 C136.995279,102.147795 143.07033,103.99211 148.787032,108.818004 C154.433318,113.584575 159.16034,119.281985 164.370627,124.448864 C170.279766,130.309292 176.015278,136.356851 181.833262,142.307951 C188.211197,148.831058 194.58865,155.354648 200.966103,161.877755" id="Stroke-21" stroke="#A88057" stroke-width="0.964599976" stroke-linecap="round" stroke-linejoin="round"></path>
                        <path d="M133.930359,139.1376 L139.693844,154.929548 L158.644375,152.087355 L182.115987,189.695179 C185.002552,194.320435 190.177631,196.989966 195.620869,196.694798 C203.302943,196.278091 213.216619,194.4304 214.546802,187.776589 C216.757666,176.722273 200.966199,161.877562 200.966199,161.877562 L164.329245,132.505493 L159.361555,126.166624 C156.905202,123.033121 152.617072,122.000035 149.003681,123.671686 L129.903154,132.505493 L132.03492,138.032651 L132.588119,138.822176 L145.379197,133.137306" id="Stroke-23" stroke="#A88057" stroke-width="0.964599976" stroke-linecap="round" stroke-linejoin="round"></path>
                        <line x1="161.250049" y1="183.117764" x2="190.227597" y2="196.303846" id="Stroke-25" stroke="#A88057" stroke-width="0.964599976" stroke-linecap="round" stroke-linejoin="round"></line>
                        <line x1="33.8893809" y1="270.209181" x2="38.1746163" y2="205.589182" id="Stroke-27" stroke="#A88057" stroke-width="0.964599976" stroke-linecap="round" stroke-linejoin="round"></line>
                        <polyline id="Stroke-29" stroke="#A88057" stroke-width="0.964599976" stroke-linecap="round" stroke-linejoin="round" points="140.957615 154.929597 140.0779 214.21777 143.423615 251.796173"></polyline>
                        <path d="M65.4729885,92.0784809 C67.1668261,104.105113 74.0449062,118.685524 87.6886905,119.763465 C94.0256301,120.264574 102.394499,118.580383 106.573629,113.42122 C110.509197,108.56253 112.200623,101.95502 112.848352,95.8683942" id="Stroke-31" stroke="#A88057" stroke-width="0.964599976" stroke-linecap="round" stroke-linejoin="round"></path>
                        <path d="M127.534724,128.873147 L87.7391873,128.873147 L87.7391873,143.401469 C87.7391873,151.94879 94.667909,158.877512 103.215229,158.877512 L111.904828,158.877512 C120.388485,158.877512 127.29068,152.047661 127.379906,143.564487 L127.534724,128.873147 Z" id="Stroke-33" stroke="#A88057" stroke-width="0.964599976" stroke-linecap="round" stroke-linejoin="round"></path>
                        <path d="M134.335443,138.193208 C133.45621,141.071575 130.779445,143.164757 127.613146,143.164757" id="Stroke-35" stroke="#A88057" stroke-width="0.964599976" stroke-linecap="round" stroke-linejoin="round"></path>
                        <path d="M127.613387,129.110053 C129.55368,129.110053 131.310699,129.896684 132.582524,131.168509" id="Stroke-37" stroke="#A88057" stroke-width="0.964599976" stroke-linecap="round" stroke-linejoin="round"></path>
                        <path d="M135.588266,145.138521 C136.061884,145.138521 148.063437,140.559083 148.063437,140.559083" id="Stroke-39" stroke="#A88057" stroke-width="0.964599976" stroke-linecap="round" stroke-linejoin="round"></path>
                        <path d="M137.799129,150.823922 C138.430942,150.823922 148.853444,147.980763 148.853444,147.980763" id="Stroke-41" stroke="#A88057" stroke-width="0.964599976" stroke-linecap="round" stroke-linejoin="round"></path>
                        <path d="M85.6862292,175.301128 L135.588362,175.301128 C135.320203,178.514211 132.634275,180.985998 129.409617,180.985998 L119.006888,180.985998" id="Stroke-43" stroke="#A88057" stroke-width="0.964599976" stroke-linecap="round" stroke-linejoin="round"></path>
                        <path d="M107.501381,82.851214 C107.501381,82.851214 97.3533071,84.7591927 90.5615586,78.6870359 C90.5615586,78.6870359 93.8826764,94.9352402 101.030362,90.0842669 C105.470898,87.0708566 107.501381,82.851214 107.501381,82.851214 Z" id="Stroke-45" stroke="#A88057" stroke-width="0.964599976" stroke-linecap="round" stroke-linejoin="round"></path>
                        <path d="M1.67420141,175.10898 C1.67420141,175.10898 26.003342,169.861074 39.715613,174.154508" id="Stroke-47" stroke="#A88057" stroke-width="0.964599976" stroke-linecap="round" stroke-linejoin="round"></path>
                        <path d="M121.117867,103.232826 C123.645119,108.05679 123.522133,111.367297 122.914435,113.520284 C122.245485,115.887895 120.985235,116.876128 120.627851,119.398557 C120.181723,122.55521 121.53988,125.363161 122.750935,127.236414" id="Stroke-49" stroke="#A88057" stroke-width="0.964599976" stroke-linecap="round" stroke-linejoin="round"></path>
                        <path d="M107.605944,115.316948 C108.840149,117.672501 108.780344,119.289171 108.482765,120.340585 C108.15673,121.496658 107.540833,121.978958 107.366723,123.210752 C107.148723,124.752183 107.811886,126.123362 108.403186,127.038285" id="Stroke-51" stroke="#A88057" stroke-width="0.964599976" stroke-linecap="round" stroke-linejoin="round"></path>
                        <path d="M70.8786068,34.9306589 C70.8786068,34.9306589 73.2548988,39.8944903 73.6055309,46.1701778 C73.6055309,46.1701778 75.4430938,30.778056 81.0715347,29.5641069 C86.6994933,28.3496755 88.3441362,30.9560247 94.5513371,24.0137986 C94.5513371,24.0137986 114.252327,49.2935525 135.818371,43.5913197 C135.818371,43.5913197 148.481157,-13.4502998 88.1280658,2.96863866 C85.0616025,3.80301764 81.829228,3.70607534 78.8056894,2.72797097 C75.2844172,1.5887784 69.7890911,1.14506241 64.1601679,5.92658449 C54.7157696,13.9496448 42.45908,52.1087375 66.5764909,75.9430383" id="Stroke-53" stroke="#A88057" stroke-width="0.964599976" stroke-linecap="round" stroke-linejoin="round"></path>
                        <path d="M152.201716,277.844038 L51.3498944,277.844038 C46.6566332,277.844038 42.8527332,274.039656 42.8527332,269.347359 C42.8527332,264.65458 46.6566332,260.85068 51.3498944,260.85068 L151.339363,260.85068" id="Stroke-55" stroke="#A88057" stroke-width="0.964599976" stroke-linecap="round" stroke-linejoin="round"></path>
                        <path d="M164.269103,260.850487 L195.423753,260.850487 C200.116531,260.850487 203.920431,264.65487 203.920431,269.347166 C203.920431,274.039945 200.116531,277.843845 195.423753,277.843845 L163.530701,277.843845" id="Stroke-57" stroke="#A88057" stroke-width="0.964599976" stroke-linecap="round" stroke-linejoin="round"></path>
                        <path d="M147.545929,264.545002 L52.9500211,264.545002 C50.3658577,264.545002 48.2707466,266.640113 48.2707466,269.224276 C48.2707466,271.808922 50.3658577,273.903551 52.9500211,273.903551 L147.937074,273.903551" id="Fill-59" fill="#A88057"></path>
                        <path d="M165.956718,268.796669 C165.99482,275.339551 162.353455,280.664625 157.824176,280.691247 C153.293932,280.717195 149.591315,275.434564 149.553696,268.891682 C149.515594,262.3488 153.156959,257.023726 157.686721,256.9971 C162.216482,256.970673 165.919099,262.25427 165.956718,268.796669 Z" id="Stroke-61" stroke="#A88057" stroke-width="0.964599976"></path>
                        <path d="M157.044972,257.19229 C154.392805,259.686263 154.72318,264.238693 157.287087,266.669485 C159.16034,268.445796 160.790514,270.00893 160.916876,272.750805 C161.033111,275.261659 160.736979,279.99254 157.748166,280.716472" id="Stroke-63" stroke="#A88057" stroke-width="0.964599976"></path>
                        <path d="M109.661844,117.089304 C111.290571,115.515077 112.689241,113.734908 113.78165,111.768571 C113.78165,111.768571 118.21447,102.574004 117.558059,95.0216683" id="Stroke-97" stroke="#A88057" stroke-width="0.964599976" stroke-linecap="round" stroke-linejoin="round"></path>
                        <path d="M61.5703135,93.2154549 C62.2831528,102.210832 65.3631206,112.309229 71.9011792,118.768191 C80.9028262,127.66132 96.6605314,126.808614 106.799924,119.480065" id="Stroke-99" stroke="#A88057" stroke-width="0.964599976" stroke-linecap="round" stroke-linejoin="round"></path>
                    </g>
                    <path d="M120.357585,290.23712 C139.643315,302.837207 192.270419,316.812229 214.565218,322.709794 C291.691739,343.113494 374.822894,339.071821 451.565985,319.013929 C493.991022,307.925852 534.289115,288.652662 577.604959,281.827153 C625.972413,274.205366 680.265405,281.009172 726.735974,295.467079 C751.327968,303.117803 776.127351,310.38317 801.505976,314.949587 C824.983375,319.173088 855.441584,324.366012 878.875093,317.637927 C916.721173,306.771708 961.823437,270.304041 960.883434,232.600722 L960.524603,218.195386" id="Stroke-95" stroke="#A88057" stroke-width="0.964599976" stroke-dasharray="5.787599854373923"></path>
                </g>
            </g>
        </g>
    </g>
</svg>