<?xml version="1.0" encoding="UTF-8"?>
<svg width="287px" height="211px" viewBox="0 0 287 211" version="1.1" xmlns="http://www.w3.org/2000/svg" xmlns:xlink="http://www.w3.org/1999/xlink">
    <title>4C5889B9-CF36-401E-AA75-F019C2DAD77F</title>
    <g id="Dashboard" stroke="none" stroke-width="1" fill="none" fill-rule="evenodd">
        <g id="03_Roster_Dashboard_Mobile" transform="translate(-34.000000, -2656.000000)">
            <g id="Group-40" transform="translate(24.000000, 2485.000000)">
                <g id="Group-38" transform="translate(11.000000, 172.000000)">
                    <g id="Group" transform="translate(0.000000, 66.000000)">
                        <path d="M63.7717656,22.3857731 C63.4246977,29.7130625 62.9652201,34.7609202 60.8011498,41.8023889 C59.3319531,46.5833659 56.6611784,51.8447282 50.9317296,51.8346578 C45.6784844,51.8252963 40.4146625,48.1607907 37.204223,44.2289125 C34.7132545,41.1781095 33.5532459,37.2523806 33.8830957,33.3273896 L34.3622511,27.6291793 C34.3622511,27.6291793 29.4671426,26.9625925 32.0936422,17.8842214 C32.0936422,17.8842214 34.4958144,13.2058152 36.6933371,18.880658" id="Stroke-13" stroke="#A88057" stroke-width="0.5" stroke-linecap="round" stroke-linejoin="round"></path>
                        <line x1="20.4120652" y1="91.0194441" x2="22.9212356" y2="79.0139945" id="Stroke-15" stroke="#A88057" stroke-width="0.5" stroke-linecap="round" stroke-linejoin="round"></line>
                        <path d="M36.2573746,43.1856426 L33.3912973,46.9600982 L19.3184447,50.9150979 L16.865356,51.8512711 C9.69770314,54.5869826 4.64640184,61.0814075 3.75942324,68.7016507 L0.461417398,91.7451382 C0.0366220453,94.7118185 -0.0952194769,97.7131809 0.0673686689,100.705688 C0.301288982,105.012921 0.973533161,107.836937 5.89815838,108.205159 C7.60102938,108.332573 9.31127958,108.083156 10.9401127,107.57104 L39.586619,98.5635095 L45.7939933,97.8597808 L60.3140249,94.925077 C60.7083196,94.8451358 61.0485002,94.597933 61.2457705,94.2471755 C61.7598541,93.3333858 61.1102394,92.2019101 60.0616566,92.1854299 L42.0891482,91.9001012 L44.6052059,87.2108721 C45.0841153,86.3187281 44.4738563,85.2315275 43.4631533,85.1754457 C43.0063814,85.1501104 42.5670737,85.3520543 42.2888782,85.7143725 L37.4181211,92.0612135 L15.6969843,91.4910481" id="Stroke-17" stroke="#A88057" stroke-width="0.5" stroke-linecap="round" stroke-linejoin="round"></path>
                        <polyline id="Stroke-19" stroke="#A88057" stroke-width="0.5" stroke-linecap="round" stroke-linejoin="round" points="88.0575151 89.9334734 82.1972086 93.5109045 72.3715716 86.7456634"></polyline>
                        <path d="M58.5188894,47.9263785 C61.1247272,48.8837053 63.7303191,49.8407862 66.335665,50.7978671 C69.8675912,52.0953746 72.9658669,53.0359754 75.8813848,55.4971811 C78.7609906,57.9281321 81.1717718,60.8338111 83.829018,63.4689197 C86.8426791,66.4577375 89.7677899,69.5419928 92.7349621,72.5770535 C95.9877089,75.9038382 99.2402097,79.2308688 102.492711,82.5576535" id="Stroke-21" stroke="#A88057" stroke-width="0.5" stroke-linecap="round" stroke-linejoin="round"></path>
                        <path d="M68.304482,70.9601747 L71.2438592,79.0140683 L80.9086299,77.5645494 L92.8791514,96.7445392 C94.3512998,99.1034202 96.9905899,100.464881 99.7666411,100.314345 C103.684499,100.101825 108.740474,99.159502 109.418867,95.7660587 C110.546407,90.1283578 102.49276,82.5575551 102.49276,82.5575551 L83.8079136,67.5778001 L81.2743918,64.3449771 C80.0216513,62.7468906 77.8347055,62.2200164 75.9918758,63.0725588 L66.2506076,67.5778001 L67.3378082,70.3966505 L67.6199392,70.7993083 L74.1433888,67.9000247" id="Stroke-23" stroke="#A88057" stroke-width="0.5" stroke-linecap="round" stroke-linejoin="round"></path>
                        <line x1="82.2375236" y1="93.390058" x2="97.0160727" y2="100.11496" id="Stroke-25" stroke="#A88057" stroke-width="0.5" stroke-linecap="round" stroke-linejoin="round"></line>
                        <line x1="17.2835839" y1="137.80668" x2="19.4690539" y2="104.850481" id="Stroke-27" stroke="#A88057" stroke-width="0.5" stroke-linecap="round" stroke-linejoin="round"></line>
                        <polyline id="Stroke-29" stroke="#A88057" stroke-width="0.5" stroke-linecap="round" stroke-linejoin="round" points="71.8883823 79.0140928 71.4397275 109.25106 73.1460422 128.416046"></polyline>
                        <path d="M33.3912235,46.9600244 C34.2550806,53.0936068 37.7629014,60.5296163 44.7212313,61.0793659 C47.9530704,61.3349318 52.2211938,60.4759942 54.3525497,57.8448211 C56.3596893,55.3668892 57.2223166,51.9970592 57.5526583,48.8928801" id="Stroke-31" stroke="#A88057" stroke-width="0.5" stroke-linecap="round" stroke-linejoin="round"></path>
                        <path d="M65.042708,65.7253037 L44.7469847,65.7253037 L44.7469847,73.1347481 C44.7469847,77.4938814 48.2806327,81.0275293 52.639766,81.0275293 L57.0714613,81.0275293 C61.3981262,81.0275293 64.9182457,77.5443058 64.9637507,73.2178869 L65.042708,65.7253037 Z" id="Stroke-33" stroke="#A88057" stroke-width="0.5" stroke-linecap="round" stroke-linejoin="round"></path>
                        <path d="M68.5110747,70.478535 C68.062666,71.9465018 66.6975159,73.0140245 65.0827032,73.0140245" id="Stroke-35" stroke="#A88057" stroke-width="0.5" stroke-linecap="round" stroke-linejoin="round"></path>
                        <path d="M65.0828262,65.8461257 C66.0723755,65.8461257 66.9684551,66.2473076 67.6170859,66.8959384" id="Stroke-37" stroke="#A88057" stroke-width="0.5" stroke-linecap="round" stroke-linejoin="round"></path>
                        <path d="M69.1500142,74.0206444 C69.3915596,74.0206444 75.5123515,71.6851309 75.5123515,71.6851309" id="Stroke-39" stroke="#A88057" stroke-width="0.5" stroke-linecap="round" stroke-linejoin="round"></path>
                        <path d="M70.2775543,76.9201986 C70.599779,76.9201986 75.9152553,75.4701878 75.9152553,75.4701878" id="Stroke-41" stroke="#A88057" stroke-width="0.5" stroke-linecap="round" stroke-linejoin="round"></path>
                        <path d="M43.6999761,89.4035738 L69.1500634,89.4035738 C69.0133024,91.0422458 67.6434788,92.3028574 65.9989034,92.3028574 L60.693512,92.3028574" id="Stroke-43" stroke="#A88057" stroke-width="0.5" stroke-linecap="round" stroke-linejoin="round"></path>
                        <path d="M54.8257033,42.2541183 C54.8257033,42.2541183 49.6501857,43.2271875 46.186394,40.1303875 C46.186394,40.1303875 47.880164,48.4169716 51.5254837,45.9429753 C53.7901571,44.406136 54.8257033,42.2541183 54.8257033,42.2541183 Z" id="Stroke-45" stroke="#A88057" stroke-width="0.5" stroke-linecap="round" stroke-linejoin="round"></path>
                        <path d="M0.853842705,89.3055781 C0.853842705,89.3055781 13.2617042,86.629146 20.2549622,88.8187976" id="Stroke-47" stroke="#A88057" stroke-width="0.5" stroke-linecap="round" stroke-linejoin="round"></path>
                        <path d="M61.7701112,52.6487401 C63.0590096,55.1089619 62.9962865,56.7973205 62.6863606,57.8953439 C62.345196,59.1028253 61.7024686,59.606824 61.5202026,60.8932627 C61.2926776,62.5031559 61.9853375,63.9352107 62.6029757,64.8905698" id="Stroke-49" stroke="#A88057" stroke-width="0.5" stroke-linecap="round" stroke-linejoin="round"></path>
                        <path d="M54.8790303,58.8116425 C55.5084752,60.0129746 55.4779745,60.8374761 55.3262092,61.3736972 C55.1599314,61.9632944 54.8458239,62.2092674 54.7570277,62.8374824 C54.6458479,63.6236121 54.9840608,64.3229133 55.2856236,64.7895241" id="Stroke-51" stroke="#A88057" stroke-width="0.5" stroke-linecap="round" stroke-linejoin="round"></path>
                        <path d="M36.1480888,17.8146357 C36.1480888,17.8146357 37.3599977,20.3461897 37.5388201,23.5467902 C37.5388201,23.5467902 38.4759771,15.6968082 41.3464819,15.0776942 C44.2167407,14.4583342 45.0555086,15.7875723 48.221181,12.2470371 C48.221181,12.2470371 58.2686857,25.1397113 69.2673679,22.2315727 C69.2673679,22.2315727 75.7253887,-6.85965278 44.9453127,1.51400569 C43.3814165,1.93953896 41.7329055,1.89009839 40.1909008,1.39126517 C38.395052,0.810276968 35.5924358,0.583981818 32.721685,3.02255803 C27.905042,7.11431871 21.6541304,26.5754556 33.9540097,38.7309488" id="Stroke-53" stroke="#A88057" stroke-width="0.5" stroke-linecap="round" stroke-linejoin="round"></path>
                        <path d="M77.6228735,141.700457 L26.1884457,141.700457 C23.7948825,141.700457 21.8548935,139.760222 21.8548935,137.367151 C21.8548935,134.973833 23.7948825,133.033844 26.1884457,133.033844 L77.1830738,133.033844" id="Stroke-55" stroke="#A88057" stroke-width="0.5" stroke-linecap="round" stroke-linejoin="round"></path>
                        <path d="M83.7772407,133.033746 L99.6661119,133.033746 C102.059429,133.033746 103.999418,134.973981 103.999418,137.367052 C103.999418,139.760369 102.059429,141.700358 99.6661119,141.700358 L83.4006561,141.700358" id="Stroke-57" stroke="#A88057" stroke-width="0.5" stroke-linecap="round" stroke-linejoin="round"></path>
                        <path d="M75.2484225,134.917948 L27.0045102,134.917948 C25.686587,134.917948 24.6180803,135.986455 24.6180803,137.304378 C24.6180803,138.622548 25.686587,139.690808 27.0045102,139.690808 L75.4479066,139.690808" id="Fill-59" fill="#A88057"></path>
                        <path d="M84.6379248,137.086299 C84.6573567,140.423168 82.8002606,143.138956 80.4903283,143.152533 C78.179904,143.165767 76.2915693,140.471625 76.2723834,137.134755 C76.2529516,133.797886 78.1100476,131.082098 80.420226,131.068519 C82.7304043,131.055041 84.6187389,133.749675 84.6379248,137.086299 Z" id="Stroke-61" stroke="#A88057" stroke-width="0.5"></path>
                        <path d="M80.0929343,131.168066 C78.7403288,132.439992 78.9088203,134.761731 80.2164127,136.001435 C81.1717718,136.907353 82.0031605,137.704552 82.0676055,139.102908 C82.1268849,140.383444 81.9758575,142.796193 80.4515629,143.165398" id="Stroke-63" stroke="#A88057" stroke-width="0.5"></path>
                        <path d="M55.9275394,59.7155441 C56.7581901,58.9126882 57.4715118,58.0048019 58.0286406,57.00197 C58.0286406,57.00197 60.2893784,52.312741 59.9546091,48.4610499" id="Stroke-97" stroke="#A88057" stroke-width="0.5" stroke-linecap="round" stroke-linejoin="round"></path>
                        <path d="M31.4008593,47.5398811 C31.7644074,52.1275233 33.3351909,57.2777058 36.6696007,60.571776 C41.2604406,65.107272 49.2968701,64.6723917 54.4679602,60.9348322" id="Stroke-99" stroke="#A88057" stroke-width="0.5" stroke-linecap="round" stroke-linejoin="round"></path>
                    </g>
                    <path d="M70.7816756,144.335286 C75.1870088,147.21891 87.2083288,150.417197 92.3010072,151.766899 C109.918594,156.436437 128.907787,155.51147 146.43779,150.921073 C156.128707,148.383484 165.333779,143.972671 175.22818,142.410603 C186.276491,140.6663 198.678341,142.223402 209.293357,145.532201 C214.910771,147.283126 220.575558,148.94586 226.372658,149.990918 C231.735471,150.957497 238.692872,152.145937 244.04566,150.606164 C252.690632,148.11935 262.993094,139.773453 262.778375,131.144769 L262.696409,127.848001" id="Stroke-95" stroke="#A88057" stroke-width="0.964599976" stroke-dasharray="5.787599854373923" transform="translate(166.781676, 141.348001) rotate(-17.000000) translate(-166.781676, -141.348001) "></path>
                    <g id="Group-39" transform="translate(196.000000, 0.000000)" stroke="#A88057" stroke-width="0.5">
                        <path d="M68.9775073,105.60865 C71.8028206,106.063217 73.8378854,108.017015 73.5234259,109.973223 C73.2087251,111.92895 70.6633869,113.146275 67.8380736,112.691707 C65.0130014,112.237139 62.9776955,110.283101 63.2923962,108.326892 C63.6068558,106.371166 66.152194,105.154082 68.9775073,105.60865 Z" id="Stroke-1"></path>
                        <path d="M63.3302568,108.61784 C64.2150361,109.941271 66.2028355,110.126956 67.4360766,109.195635 C68.3372541,108.51511 69.1289495,107.924534 70.3204716,108.067294 C71.4121577,108.197998 73.43203,108.66607 73.5289723,110.007587" id="Stroke-3"></path>
                        <polyline id="Stroke-65" stroke-linecap="round" stroke-linejoin="round" points="72.4647533 66.2976798 76.4430047 94.0212477 21.1461054 101.956047 10.5663728 28.2268479 56.4511879 21.6427297 57.4314626 21.5021392 58.5851242 29.5415977 66.9957126 28.2721841 67.1295508 29.115968 70.8123935 54.7827676"></polyline>
                        <line x1="57.4315109" y1="21.5020669" x2="66.9957608" y2="28.2723529" id="Stroke-67" stroke-linecap="round" stroke-linejoin="round"></line>
                        <path d="M88.4840339,45.3494139 L88.4840339,45.3494139 C89.5718615,46.473414 89.5426823,48.2666054 88.4186822,49.3541918 L56.1200166,80.6110894 L52.1808315,76.5404775 L84.4792559,45.2838211 C85.603256,44.1959935 87.3962062,44.2254138 88.4840339,45.3494139 Z" id="Stroke-69"></path>
                        <path d="M85.672442,52.1830983 C85.4156172,51.9175921 81.7332568,48.1127275 81.7332568,48.1127275" id="Stroke-71"></path>
                        <line x1="55.00682" y1="79.4606111" x2="84.3851592" y2="51.0299914" id="Stroke-73"></line>
                        <line x1="53.3797569" y1="77.7793856" x2="82.7580961" y2="49.3485248" id="Stroke-75"></line>
                        <polyline id="Stroke-77" points="56.1200166 80.6110171 49.3248921 83.4170384 52.1808315 76.5404052"></polyline>
                        <line x1="52.9643519" y1="81.8655035" x2="50.866347" y2="79.697565" id="Stroke-79"></line>
                        <line x1="86.2976716" y1="51.2353306" x2="82.5726276" y2="47.3860944" id="Stroke-81"></line>
                        <line x1="19.0943047" y1="41.4482822" x2="60.4693738" y2="35.5374547" id="Stroke-83"></line>
                        <line x1="20.5718308" y1="51.2995006" x2="61.7009268" y2="45.142459" id="Stroke-85"></line>
                        <line x1="22.5422432" y1="60.904529" x2="63.6710982" y2="54.7474873" id="Stroke-87"></line>
                        <line x1="24.2660799" y1="70.5093162" x2="56.5288141" y2="65.8300417" id="Stroke-89"></line>
                        <line x1="25.9901576" y1="78.8829362" x2="46.431478" y2="75.9276431" id="Stroke-91"></line>
                        <line x1="27.2215901" y1="87.0101975" x2="47.6629105" y2="84.0549043" id="Stroke-93"></line>
                        <path d="M7.34460891,18.3739415 C8.50598728,16.8464974 10.3090658,16.2631556 11.3715727,17.0710081 C12.4340795,17.8788606 12.3540177,19.7721292 11.1926394,21.2995732 C10.031261,22.8270173 8.22842363,23.4103591 7.16591676,22.6025066 C6.10340989,21.7946542 6.18347168,19.9013855 7.34460891,18.3739415 Z" id="Stroke-101" stroke-linecap="round" stroke-linejoin="round"></path>
                        <line x1="8.06335646" y1="21.2293503" x2="8.06335646" y2="21.2293503" id="Stroke-103" stroke-linecap="round" stroke-linejoin="round"></line>
                        <path d="M14.4521674,21.1648186 C12.7236042,20.3318865 11.7920418,18.6819383 12.3712841,17.4793232 C12.9505264,16.2767082 14.8216092,15.9771999 16.5504135,16.8098909 C18.2789766,17.6428229 19.210539,19.2927712 18.6312968,20.4953862 C18.0520545,21.6980012 16.1809717,21.9977507 14.4521674,21.1648186 Z" id="Stroke-105" stroke-linecap="round" stroke-linejoin="round"></path>
                        <line x1="17.1064812" y1="19.8901962" x2="17.1064812" y2="19.8901962" id="Stroke-107" stroke-linecap="round" stroke-linejoin="round"></line>
                        <path d="M14.3944843,13.5209184 C14.419805,15.4395078 13.3585039,17.0093942 12.0237387,17.0269982 C10.6889735,17.0446021 9.58643571,15.5036537 9.56087381,13.5850643 C9.53555306,11.6662338 10.5968542,10.0965885 11.9316194,10.0789846 C13.2661435,10.0611395 14.3691635,11.6020879 14.3944843,13.5209184 Z" id="Stroke-109" stroke-linecap="round" stroke-linejoin="round"></path>
                        <line x1="12.0698707" y1="11.7134751" x2="12.0698707" y2="11.7134751" id="Stroke-111" stroke-linecap="round" stroke-linejoin="round"></line>
                        <path d="M13.7991332,10.8088009 L13.7991332,10.8088009 C15.2735242,7.00441861 18.3814654,4.06552363 22.2622922,2.80599721 L27.6777976,1.04825491 L27.2666369,4.86951771 C26.7387596,9.77571434 23.5888583,14.0086202 19.0407695,15.92311 L16.708849,16.8927741" id="Stroke-113" stroke-linecap="round" stroke-linejoin="round"></path>
                        <path d="M27.6285307,1.50651224 C27.6285307,1.50651224 19.3100616,7.97174358 13.7990608,16.0813767" id="Stroke-115" stroke-linecap="round" stroke-linejoin="round"></path>
                        <polyline id="Stroke-117" stroke-linecap="round" stroke-linejoin="round" points="16.0608549 6.98585006 16.721847 12.2048182 22.2446642 14.0177839"></polyline>
                        <polyline id="Stroke-119" stroke-linecap="round" stroke-linejoin="round" points="19.5629556 4.02175491 20.1176006 8.4015211 25.856247 9.59521357"></polyline>
                        <polyline id="Stroke-121" stroke-linecap="round" stroke-linejoin="round" points="23.071881 2.54316784 23.071881 5.47772211 27.1863822 5.47772211"></polyline>
                        <path d="M14.20277,9.87846835 C12.7500825,6.06588695 9.27921062,3.06983942 5.40561826,1.78812721 L-1.0658141e-14,1.59872116e-14 L0.38945724,3.82343315 C0.889602328,8.73252358 4.0156297,12.9832745 8.55238453,14.9235674 L10.008207,15.5384999" id="Stroke-123" stroke-linecap="round" stroke-linejoin="round"></path>
                        <path d="M0.0467589838,0.458426138 C0.0467589838,0.458426138 4.56904482,3.21718207 10.5261731,10.7586658" id="Stroke-125" stroke-linecap="round" stroke-linejoin="round"></path>
                        <polyline id="Stroke-127" stroke-linecap="round" stroke-linejoin="round" points="11.5831094 6.00323618 10.1576718 10.3034229 5.35975154 12.9999621"></polyline>
                        <polyline id="Stroke-129" stroke-linecap="round" stroke-linejoin="round" points="8.09796149 3.01934261 7.51847805 7.3957327 1.77307945 8.55711107"></polyline>
                        <polyline id="Stroke-131" stroke-linecap="round" stroke-linejoin="round" points="4.59752463 1.52088478 4.58088528 4.45519791 0.466142938 4.43204751"></polyline>
                    </g>
                    <g id="Group-54" transform="translate(187.000000, 141.000000)" stroke="#A88057" stroke-width="0.540175945">
                        <path d="M3.00402725,2.64556087 C6.06655477,-0.240599203 10.1686509,-0.860991276 12.1664916,1.25892922 C14.1643324,3.3791198 13.3014013,7.43719159 10.2388738,10.3230816 C7.17661634,13.2089716 3.07452021,13.8296337 1.07640939,11.7097132 C-0.921431344,9.58952264 -0.0585002714,5.53145086 3.00402725,2.64556087 Z" id="Stroke-5"></path>
                        <path d="M1.4494549,11.9258916 C3.78544577,12.0809221 5.78355659,9.92994153 5.8035431,7.65769141 C5.81812785,5.99773073 5.8394648,4.54519762 7.07403692,3.28388679 C8.20462518,2.12899062 10.5608726,0.19408038 12.2119204,1.28361526" id="Stroke-7"></path>
                    </g>
                    <g id="Group-6" transform="translate(123.000000, 143.000000)" stroke="#A88057" stroke-width="0.540175945">
                        <path d="M2.80589154,7.76986358 C0.282459614,5.92003105 -0.724698436,3.0041613 0.555788642,1.25750239 C1.83654581,-0.489426621 4.92014019,-0.405969437 7.44357212,1.44386309 C9.96700404,3.29369561 10.9741621,6.20929527 9.69367502,7.95595419 C8.41291785,9.70315329 5.32932347,9.6196961 2.80589154,7.76986358 Z" id="Stroke-9"></path>
                        <path d="M9.80152114,7.65434695 C9.59949534,5.92524375 7.75749537,4.75468248 6.09321328,5.04664758 C4.87727723,5.26001708 3.81232035,5.44043584 2.72359574,4.70795726 C1.72670103,4.03678865 -0.00618340254,2.57507254 0.567753539,1.22112154" id="Stroke-11"></path>
                    </g>
                </g>
            </g>
        </g>
    </g>
</svg>