<svg xmlns="http://www.w3.org/2000/svg" width="620" height="338" viewBox="0 0 620 338">
    <g fill="none" fill-rule="evenodd">
        <g>
            <g>
                <g>
                    <g stroke="#A88057" stroke-width=".965">
                        <g>
                            <path d="M6.282 5.657C11.751.503 19.076-.605 22.644 3.18 26.21 6.967 24.67 14.213 19.2 19.367 13.733 24.52 6.408 25.628 2.84 21.843-.728 18.057.813 10.81 6.282 5.657z" transform="translate(-98 -2594) translate(48 2566) translate(51 29) translate(574.494 294.35) translate(.082 .068)"/>
                            <path d="M3.506 22.229c4.171.277 7.74-3.564 7.775-7.622.026-2.964.064-5.558 2.269-7.81 2.019-2.063 6.226-5.518 9.175-3.572" transform="translate(-98 -2594) translate(48 2566) translate(51 29) translate(574.494 294.35) translate(.082 .068)"/>
                        </g>
                    </g>
                    <g stroke="#A88057" stroke-width=".965">
                        <path d="M5.01 13.875C.505 10.57-1.293 5.365.993 2.245c2.288-3.119 7.794-2.97 12.3.333 4.506 3.304 6.305 8.51 4.018 11.63-2.287 3.12-7.793 2.97-12.3-.333z" transform="translate(-98 -2594) translate(48 2566) translate(51 29) translate(307.983 301.311)"/>
                        <path d="M17.503 13.668c-.361-3.087-3.65-5.177-6.622-4.656-2.172.38-4.073.703-6.017-.605-1.78-1.198-4.875-3.809-3.85-6.226" transform="translate(-98 -2594) translate(48 2566) translate(51 29) translate(307.983 301.311)"/>
                    </g>
                    <g>
                        <path stroke="#A88057" stroke-linecap="round" stroke-linejoin="round" stroke-width=".965" d="M125.043 43.894c-.68 14.367-1.582 24.265-5.825 38.071-2.88 9.375-8.118 19.691-19.352 19.672-10.3-.019-20.622-7.204-26.917-14.914-4.884-5.982-7.158-13.68-6.512-21.375l.94-11.173s-9.598-1.307-4.448-19.108c0 0 4.71-9.173 9.019 1.954M40.024 178.47L44.944 154.929M71.093 84.678l-5.62 7.4-27.594 7.756-4.81 1.835c-14.054 5.364-23.958 18.098-25.698 33.04L.905 179.892c-.833 5.817-1.092 11.702-.773 17.57.459 8.446 1.777 13.983 11.433 14.705 3.339.25 6.692-.24 9.886-1.243l56.17-17.662 12.171-1.38 28.47-5.754c.774-.157 1.44-.642 1.828-1.33 1.008-1.791-.266-4.01-2.322-4.042l-35.24-.56 4.933-9.194c.94-1.75-.257-3.881-2.24-3.991-.895-.05-1.756.346-2.302 1.056l-9.55 12.445-42.59-1.118M172.662 176.34L161.171 183.355 141.905 170.09" transform="translate(-98 -2594) translate(48 2566) translate(51 29)"/>
                        <path stroke="#A88057" stroke-linecap="round" stroke-linejoin="round" stroke-width=".965" d="M114.743 93.973l15.327 5.63c6.925 2.545 13 4.39 18.717 9.215 5.646 4.767 10.373 10.464 15.584 15.63 5.909 5.861 11.644 11.909 17.462 17.86l19.133 19.57" transform="translate(-98 -2594) translate(48 2566) translate(51 29)"/>
                        <path stroke="#A88057" stroke-linecap="round" stroke-linejoin="round" stroke-width=".965" d="M133.93 139.138l5.764 15.792 18.95-2.843 23.472 37.608c2.887 4.625 8.062 7.295 13.505 7 7.682-.417 17.596-2.265 18.926-8.918 2.21-11.055-13.58-25.9-13.58-25.9l-36.638-29.372-4.967-6.338c-2.457-3.134-6.745-4.167-10.358-2.495l-19.1 8.833 2.13 5.528.554.79 12.791-5.686M161.25 183.118L190.228 196.304M33.889 270.209L38.175 205.589" transform="translate(-98 -2594) translate(48 2566) translate(51 29)"/>
                        <path stroke="#A88057" stroke-linecap="round" stroke-linejoin="round" stroke-width=".965" d="M140.958 154.93L140.078 214.218 143.424 251.796M65.473 92.078c1.694 12.027 8.572 26.608 22.216 27.685 6.337.502 14.705-1.183 18.885-6.342 3.935-4.858 5.627-11.466 6.274-17.553M127.535 128.873H87.739v14.528c0 8.548 6.929 15.477 15.476 15.477h8.69c8.483 0 15.386-6.83 15.475-15.314l.155-14.69zM134.335 138.193c-.879 2.879-3.556 4.972-6.722 4.972M127.613 129.11c1.94 0 3.698.787 4.97 2.059M135.588 145.139c.474 0 12.475-4.58 12.475-4.58M137.8 150.824c.63 0 11.053-2.843 11.053-2.843M85.686 175.301h49.902c-.268 3.213-2.954 5.685-6.178 5.685h-10.403M107.501 82.851s-10.148 1.908-16.94-4.164c0 0 3.322 16.248 10.47 11.397 4.44-3.013 6.47-7.233 6.47-7.233zM1.674 175.109s24.33-5.248 38.042-.954M121.118 103.233c2.527 4.824 2.404 8.134 1.796 10.287-.669 2.368-1.929 3.356-2.286 5.879-.446 3.156.912 5.964 2.123 7.837M107.606 115.317c1.234 2.356 1.174 3.972.877 5.024-.326 1.156-.942 1.638-1.116 2.87-.218 1.541.445 2.912 1.036 3.827M70.879 34.93s2.376 4.964 2.727 11.24c0 0 1.837-15.392 7.466-16.606 5.627-1.214 7.272 1.392 13.48-5.55 0 0 19.7 25.28 41.266 19.577 0 0 12.663-57.041-47.69-40.622-3.066.834-6.299.737-9.322-.241-3.522-1.14-9.017-1.583-14.646 3.199-9.444 8.023-21.7 46.182 2.416 70.016M152.202 277.844H51.35c-4.693 0-8.497-3.804-8.497-8.497 0-4.692 3.804-8.496 8.497-8.496h99.99M164.27 260.85h31.154c4.693 0 8.496 3.805 8.496 8.497 0 4.693-3.803 8.497-8.496 8.497H163.53" transform="translate(-98 -2594) translate(48 2566) translate(51 29)"/>
                        <path fill="#A88057" d="M147.546 264.545H52.95c-2.584 0-4.68 2.095-4.68 4.68 0 2.584 2.096 4.679 4.68 4.679h94.987" transform="translate(-98 -2594) translate(48 2566) translate(51 29)"/>
                        <path stroke="#A88057" stroke-width=".965" d="M165.957 268.797c.038 6.543-3.604 11.868-8.133 11.894-4.53.026-8.233-5.256-8.27-11.8-.038-6.542 3.603-11.867 8.133-11.894 4.53-.026 8.232 5.257 8.27 11.8z" transform="translate(-98 -2594) translate(48 2566) translate(51 29)"/>
                        <path stroke="#A88057" stroke-width=".965" d="M157.045 257.192c-2.652 2.494-2.322 7.047.242 9.477 1.873 1.777 3.504 3.34 3.63 6.082.116 2.51-.18 7.242-3.169 7.965" transform="translate(-98 -2594) translate(48 2566) translate(51 29)"/>
                        <path stroke="#A88057" stroke-linecap="round" stroke-linejoin="round" stroke-width=".965" d="M109.662 117.09c1.629-1.575 3.027-3.355 4.12-5.321 0 0 4.432-9.195 3.776-16.747M61.57 93.215c.713 8.996 3.793 19.094 10.331 25.553 9.002 8.893 24.76 8.04 34.899.712" transform="translate(-98 -2594) translate(48 2566) translate(51 29)"/>
                    </g>
                    <g stroke="#A88057" stroke-width=".675">
                        <path stroke-linecap="round" stroke-linejoin="round" d="M101.451 92.817L107.02 131.63 29.605 142.738 14.793 39.518 79.032 30.3 80.404 30.103 82.019 41.358 93.794 39.581 93.981 40.762 99.137 76.696M80.404 30.103L93.794 39.581" transform="translate(-98 -2594) translate(48 2566) translate(51 29) translate(493 122)"/>
                        <path d="M123.878 63.49h0c1.523 1.573 1.482 4.083-.092 5.606l-45.218 43.76-5.515-5.7 45.218-43.759c1.574-1.523 4.084-1.481 5.607.092zM119.941 73.056l-5.514-5.698M77.01 111.245L118.139 71.442M74.732 108.891L115.861 69.088" transform="translate(-98 -2594) translate(48 2566) translate(51 29) translate(493 122)"/>
                        <path d="M78.568 112.855L69.055 116.784 73.053 107.157M74.15 114.612L71.213 111.577M120.817 71.729L115.602 66.341M26.732 58.028L84.657 49.752M28.801 71.819L86.381 63.199M31.559 85.266L89.14 76.646M33.973 98.713L79.14 92.162M36.386 110.436L65.004 106.299M38.11 121.814L66.728 117.677" transform="translate(-98 -2594) translate(48 2566) translate(51 29) translate(493 122)"/>
                        <path stroke-linecap="round" stroke-linejoin="round" d="M10.282 25.724c1.626-2.139 4.15-2.956 5.638-1.825 1.488 1.131 1.376 3.782-.25 5.92-1.626 2.139-4.15 2.956-5.638 1.825-1.487-1.131-1.375-3.782.25-5.92zM11.289 29.721L11.289 29.721" transform="translate(-98 -2594) translate(48 2566) translate(51 29) translate(493 122)"/>
                        <path stroke-linecap="round" stroke-linejoin="round" d="M20.233 29.63c-2.42-1.165-3.724-3.475-2.913-5.159.81-1.684 3.43-2.103 5.85-.937 2.42 1.166 3.725 3.476 2.914 5.16-.811 1.683-3.43 2.103-5.851.937zM23.949 27.846L23.949 27.846" transform="translate(-98 -2594) translate(48 2566) translate(51 29) translate(493 122)"/>
                        <path stroke-linecap="round" stroke-linejoin="round" d="M20.152 18.93c.036 2.685-1.45 4.883-3.319 4.908-1.868.024-3.412-2.133-3.448-4.819-.035-2.686 1.45-4.884 3.32-4.908 1.868-.025 3.412 2.132 3.447 4.818zM16.898 16.399L16.898 16.399" transform="translate(-98 -2594) translate(48 2566) translate(51 29) translate(493 122)"/>
                        <path stroke-linecap="round" stroke-linejoin="round" d="M19.319 15.132h0c2.064-5.326 6.415-9.44 11.848-11.204l7.582-2.46-.576 5.35c-.739 6.868-5.149 12.794-11.516 15.474l-3.265 1.358M38.68 2.11s-11.646 9.05-19.361 20.404" transform="translate(-98 -2594) translate(48 2566) translate(51 29) translate(493 122)"/>
                        <path stroke-linecap="round" stroke-linejoin="round" d="M22.485 9.78L23.411 17.087 31.143 19.625M27.388 5.63L28.165 11.762 36.199 13.433M32.301 3.56L32.301 7.669 38.061 7.669M19.884 13.83C17.85 8.492 12.99 4.298 7.568 2.503L0 0l.545 5.353c.7 6.873 5.077 12.824 11.428 15.54l2.038.86M.065.642s6.332 3.862 14.672 14.42" transform="translate(-98 -2594) translate(48 2566) translate(51 29) translate(493 122)"/>
                        <path stroke-linecap="round" stroke-linejoin="round" d="M16.216 8.405L14.221 14.425 7.504 18.2M11.337 4.227L10.526 10.354 2.482 11.98M6.437 2.129L6.413 6.237.653 6.205" transform="translate(-98 -2594) translate(48 2566) translate(51 29) translate(493 122)"/>
                    </g>
                    <path stroke="#A88057" stroke-dasharray="5.788" stroke-width=".965" d="M120.358 290.237c19.285 12.6 71.912 26.575 94.207 32.473 77.127 20.403 160.258 16.362 237.001-3.696 42.425-11.088 82.723-30.361 126.039-37.187" transform="translate(-98 -2594) translate(48 2566) translate(51 29)"/>
                </g>
            </g>
        </g>
    </g>
</svg>
