<svg xmlns="http://www.w3.org/2000/svg" width="17" height="17" viewBox="0 0 17 17">
    <g fill="none" fill-rule="evenodd">
        <g>
            <g>
                <g>
                    <g>
                        <g>
                            <path d="M0 0H17V17H0z" transform="translate(-463 -2183) translate(372 2124) translate(0 26) translate(26 33) translate(65)"/>
                            <path fill="#232334" fill-rule="nonzero" d="M15.566 8.143c.38 0 .694.283.743.649l.007.101v7c0 .38-.282.694-.648.744l-.102.006h-14c-.38 0-.693-.282-.743-.648l-.007-.102v-5.73c0-.413.336-.75.75-.75.38 0 .694.283.743.649l.007.102v4.98h12.5v-6.25c0-.38.282-.694.648-.744l.102-.007zM8.591.474h-.025c.039 0 .076.003.113.008l.035.007c.025.004.05.01.073.018l.036.012c.023.008.045.018.067.028l.036.019c.024.013.047.027.068.042l.018.013c.008.006.01.007.012.01l.072.063 5 5c.293.292.293.767 0 1.06-.266.266-.682.29-.976.073l-.084-.073-3.72-3.72v9.86c0 .414-.336.75-.75.75-.38 0-.693-.283-.743-.649l-.007-.102v-9.86l-3.72 3.721c-.266.266-.682.29-.976.073l-.084-.073c-.266-.266-.29-.683-.073-.976l.073-.084 5-5L8.108.63 8.12.62l-.084.074c.037-.037.077-.07.119-.098.02-.013.041-.025.063-.036l.026-.014c.029-.013.059-.025.09-.035l.014-.005c.068-.02.142-.032.218-.032h.025z" transform="translate(-463 -2183) translate(372 2124) translate(0 26) translate(26 33) translate(65)"/>
                        </g>
                    </g>
                </g>
            </g>
        </g>
    </g>
</svg>
