<?xml version="1.0" encoding="UTF-8"?>
<svg width="17px" height="17px" viewBox="0 0 17 17" version="1.1" xmlns="http://www.w3.org/2000/svg" xmlns:xlink="http://www.w3.org/1999/xlink">
    <title>AD98214C-8C30-42C8-B54A-E481F4CC9F92</title>
    <g id="Brand-Profile" stroke="none" stroke-width="1" fill="none" fill-rule="evenodd">
        <g id="02_Farm-Link---Brand-profile" transform="translate(-185.000000, -505.000000)">
            <g id="Group-3" transform="translate(173.000000, 497.000000)">
                <g id="Group-6" transform="translate(12.000000, 8.000000)">
                    <rect id="Bounds" x="0" y="0" width="17" height="17"></rect>
                    <path d="M15.5661197,8.14338174 C15.9458155,8.14338174 16.2596107,8.42553562 16.3092731,8.79161118 L16.3161197,8.89338174 L16.3161197,15.8933817 C16.3161197,16.2730775 16.0339659,16.5868727 15.6678903,16.6365351 L15.5661197,16.6433817 L1.56611974,16.6433817 C1.18642398,16.6433817 0.872628781,16.3612279 0.822966358,15.9951523 L0.816119742,15.8933817 L0.816119742,10.1637448 C0.816119742,9.74953125 1.15190618,9.41374481 1.56611974,9.41374481 C1.94581551,9.41374481 2.2596107,9.69589869 2.30927313,10.0619743 L2.31611974,10.1637448 L2.31611974,15.1433817 L14.8161197,15.1433817 L14.8161197,8.89338174 C14.8161197,8.51368597 15.0982736,8.19989078 15.4643492,8.15022835 L15.5661197,8.14338174 Z M8.59098627,0.474311645 L8.56611974,0.473901868 C8.60451199,0.473901868 8.64223047,0.476786573 8.67907027,0.482351058 C8.69063785,0.484155715 8.70234753,0.48621136 8.71401241,0.4885462 C8.73901556,0.493489827 8.76331186,0.49966305 8.7871034,0.506988041 C8.7987632,0.510614599 8.81081268,0.514646511 8.82277372,0.518992598 C8.84607135,0.527476858 8.86813993,0.536778723 8.88964153,0.547075003 C8.90124261,0.552567194 8.91357968,0.558870152 8.92577076,0.565536879 C8.94978651,0.578772109 8.97250994,0.592877299 8.99438309,0.608118086 C9.00012483,0.61203938 9.00625447,0.616444658 9.0123314,0.620953628 C9.0199766,0.626756792 9.02220443,0.628459215 9.02442239,0.630173789 L9.09644983,0.693571782 L14.0964498,5.69357178 C14.389343,5.986465 14.389343,6.46133873 14.0964498,6.75423195 C13.8301833,7.02049852 13.4135196,7.04470457 13.1199081,6.82685011 L13.0357897,6.75423195 L9.31511974,3.03390187 L9.31611974,12.8933817 C9.31611974,13.3075953 8.9803333,13.6433817 8.56611974,13.6433817 C8.18642398,13.6433817 7.87262878,13.3612279 7.82296636,12.9951523 L7.81611974,12.8933817 L7.81511974,3.03390187 L4.09644983,6.75423195 C3.83018327,7.02049852 3.41351958,7.04470457 3.11990809,6.82685011 L3.03578966,6.75423195 C2.76952309,6.48796539 2.74531704,6.07130171 2.9631715,5.77769021 L3.03578966,5.69357178 L8.03578966,0.693571782 L8.1078171,0.630173789 C8.11193616,0.62698958 8.11608928,0.623847282 8.1202758,0.620747535 L8.03578966,0.693571782 C8.07284293,0.656518506 8.11280866,0.624152759 8.15494996,0.59647454 C8.17510488,0.583309694 8.19609221,0.570929535 8.21770149,0.559572827 C8.22682337,0.554739288 8.23555411,0.550382684 8.24434933,0.546206946 C8.27272526,0.532702595 8.30288236,0.520634072 8.33392841,0.510535856 C8.33922739,0.508867713 8.34359093,0.507501787 8.3479642,0.506176665 C8.41644288,0.485255036 8.48995547,0.473901868 8.56611974,0.473901868 C8.57828722,0.473973229 8.58463782,0.47410235 8.59098627,0.474311645 Z" id="Combined-Shape" fill="#232334" fill-rule="nonzero"></path>
                </g>
            </g>
        </g>
    </g>
</svg>