<?xml version="1.0" encoding="UTF-8"?>
<svg width="39px" height="38px" viewBox="0 0 39 38" version="1.1" xmlns="http://www.w3.org/2000/svg" xmlns:xlink="http://www.w3.org/1999/xlink">
    <title>2F88EBC2-F44D-4F88-9476-50B38E7578C7</title>
    <g id="Sourcing_Module" stroke="none" stroke-width="1" fill="none" fill-rule="evenodd">
        <g id="13_Sourcing" transform="translate(-630.000000, -905.000000)">
            <g id="Group-25" transform="translate(631.000000, 905.000000)">
                <g id="Group-11">
                    <g id="Group-17">
                        <rect id="Rectangle" x="0" y="0" width="38" height="38"></rect>
                        <g id="Group-13" transform="translate(0.000000, 1.000000)" stroke="#A88057" stroke-linecap="round" stroke-linejoin="round" stroke-width="1.16399996">
                            <path d="M18.9472225,13.3474418 C16.9034326,19.0232026 12.2101848,22.5315954 8.46482099,21.1831015 C4.72013617,19.8352865 3.34108724,14.1398348 5.38487714,8.46407409 C7.42866704,2.78763436 12.1219148,-0.720758465 15.8672786,0.628414469 C16.8036196,0.965198453 17.5919385,1.57426142 18.2159395,2.38634538 C20.0879424,4.82259726 20.4804044,9.09011205 18.9472225,13.3474418 Z" id="Stroke-1"></path>
                            <path d="M18.5798156,3.36695714 C18.5798156,3.36695714 12.3785089,6.43467898 11.3667989,13.1248657 C10.355768,19.8150523 6.53503518,19.9135073 6.53503518,19.9135073" id="Stroke-3"></path>
                            <path d="M33.3945085,22.4973059 C34.1814694,28.4792956 31.6202816,33.7483353 27.6732547,34.2677703 C23.7269069,34.7872053 19.8891991,30.3587675 19.1029172,24.3781358 C18.3159562,18.3961461 20.8771441,13.1264274 24.8241709,12.6076714 C25.8107578,12.4773034 26.7898758,12.6565594 27.7173897,13.0924774 C30.4985736,14.3988733 32.8044575,18.0118321 33.3945085,22.4973059 Z" id="Stroke-5"></path>
                            <path d="M28.4909744,13.7973472 C28.4909744,13.7973472 24.3870986,19.367184 26.5558245,25.7762646 C28.7259084,32.1853453 25.3750436,34.0247562 25.3750436,34.0247562" id="Stroke-7"></path>
                            <path d="M8.34443429,23.5450028 C13.1524331,22.9325449 17.3778498,25.0075688 17.7818548,28.1798566 C18.1858598,31.3521445 14.615678,34.4205453 9.80767922,35.0330033 C4.99968046,35.6447823 0.774942662,33.5704374 0.370937682,30.3981495 C0.269087687,29.6050775 0.41710968,28.8181166 0.770189662,28.0746116 C1.82875061,25.8447757 4.73826547,24.0040068 8.34443429,23.5450028 Z" id="Stroke-9"></path>
                            <path d="M1.33892003,27.4559069 C1.33892003,27.4559069 5.79994982,30.7714637 10.9555966,29.0495198 C16.1119223,27.3282549 17.5785622,30.0252427 17.5785622,30.0252427" id="Stroke-11"></path>
                        </g>
                    </g>
                </g>
            </g>
        </g>
    </g>
</svg>