<svg xmlns="http://www.w3.org/2000/svg" width="17" height="17" viewBox="0 0 17 17">
    <g fill="none" fill-rule="evenodd">
        <path d="M0 0H17V17H0z"/>
        <path fill="#232334" fill-rule="nonzero" d="M14.948 10.784c.408 0 .744.305.794.7l.006.1v2.754c0 .746-.565 1.364-1.293 1.434l-.138.007h-3.023c-.441 0-.8-.359-.8-.8 0-.408.306-.745.7-.794l.1-.006 2.853-.001.001-2.594c0-.408.305-.745.7-.794l.1-.006zm-12.63 0c.408 0 .745.305.794.7l.006.1v2.594h2.854c.408 0 .744.306.794.7l.006.1c0 .408-.305.745-.7.794l-.1.007H2.95c-.747 0-1.356-.574-1.425-1.303l-.007-.138v-2.754c0-.442.359-.8.8-.8zM5.972 2c.442 0 .8.358.8.8 0 .408-.305.744-.7.794l-.1.006H3.118v2.595c0 .408-.305.744-.7.794l-.1.006c-.407 0-.744-.305-.793-.7l-.007-.1V3.44c0-.747.566-1.364 1.294-1.434L2.95 2h3.022zm8.345 0c.746 0 1.355.574 1.425 1.303l.006.138v2.754c0 .442-.358.8-.8.8-.408 0-.744-.305-.794-.7l-.006-.1V3.6h-2.854c-.407 0-.744-.305-.793-.7l-.007-.1c0-.408.306-.744.7-.794l.1-.006h3.023z"/>
    </g>
</svg>
