<?xml version="1.0" encoding="UTF-8"?>
<svg width="17px" height="17px" viewBox="0 0 17 17" version="1.1" xmlns="http://www.w3.org/2000/svg" xmlns:xlink="http://www.w3.org/1999/xlink">
    <title>D791FDB8-2911-41A8-9DD5-EC56C49127BB</title>
    <g id="Sourcing_Module" stroke="none" stroke-width="1" fill="none" fill-rule="evenodd">
        <g id="12_Sourcing" transform="translate(-184.000000, -1016.000000)">
            <g id="Group-38" transform="translate(172.000000, 1008.000000)">
                <g id="Group-8" transform="translate(12.000000, 8.000000)">
                    <g id="Group-6">
                        <rect id="Bounds" x="0" y="0" width="17" height="17"></rect>
                        <path d="M14.9480707,10.7837652 C15.3559118,10.7837652 15.6924723,11.0889534 15.7418376,11.4834149 L15.7480707,11.5837652 L15.7480707,14.3375943 C15.7480707,15.0841159 15.1827437,15.7018572 14.4548717,15.7719495 L14.3165892,15.7785718 L11.2944992,15.7785718 C10.8526714,15.7785718 10.4944992,15.4203996 10.4944992,14.9785718 C10.4944992,14.5707307 10.7996874,14.2341702 11.1941489,14.1848049 L11.2944992,14.1785718 L14.1474407,14.178 L14.1480707,11.5837652 C14.1480707,11.1759242 14.4532589,10.8393636 14.8477204,10.7899984 L14.9480707,10.7837652 Z M2.31844075,10.7837652 C2.72628179,10.7837652 3.06284233,11.0889534 3.11220761,11.4834149 L3.11844075,11.5837652 L3.11844075,14.178 L5.97201228,14.1785718 C6.37985333,14.1785718 6.71641387,14.4837599 6.76577915,14.8782215 L6.77201228,14.9785718 C6.77201228,15.3864128 6.46682414,15.7229734 6.07236258,15.7723386 L5.97201228,15.7785718 L2.94992225,15.7785718 C2.20330557,15.7785718 1.59405986,15.2047435 1.52496734,14.4759557 L1.51844075,14.3375943 L1.51844075,11.5837652 C1.51844075,11.1419374 1.87661295,10.7837652 2.31844075,10.7837652 Z M5.97201228,2 C6.41384008,2 6.77201228,2.3581722 6.77201228,2.8 C6.77201228,3.20784105 6.46682414,3.54440158 6.07236258,3.59376686 L5.97201228,3.6 L3.11844075,3.6 L3.11844075,6.19480656 C3.11844075,6.60264761 2.8132526,6.93920814 2.41879105,6.98857342 L2.31844075,6.99480656 C1.9105997,6.99480656 1.57403917,6.68961841 1.52467388,6.29515686 L1.51844075,6.19480656 L1.51844075,3.44097746 C1.51844075,2.69445589 2.08376783,2.07671461 2.81163977,2.00662229 L2.94992225,2 L5.97201228,2 Z M14.3165892,2 C15.0632059,2 15.6724516,2.57382824 15.7415442,3.30261607 L15.7480707,3.44097746 L15.7480707,6.19480656 C15.7480707,6.63663436 15.3898985,6.99480656 14.9480707,6.99480656 C14.5402297,6.99480656 14.2036692,6.68961841 14.1543039,6.29515686 L14.1480707,6.19480656 L14.1474407,3.6 L11.2944992,3.6 C10.8866582,3.6 10.5500976,3.29481185 10.5007323,2.9003503 L10.4944992,2.8 C10.4944992,2.39215895 10.7996874,2.05559842 11.1941489,2.00623314 L11.2944992,2 L14.3165892,2 Z" id="Shape" fill="#232334" fill-rule="nonzero"></path>
                    </g>
                </g>
            </g>
        </g>
    </g>
</svg>