<svg xmlns="http://www.w3.org/2000/svg" id="Emojis_cafe_owner_copy_3" width="19.604" height="26.742" viewBox="0 0 19.604 26.742">
    <defs>
        <style>
            .cls-1{fill:#54381f}.cls-2{fill:#564a3e}.cls-4{fill:#fcd2ae}.cls-6{fill:#eadec7}.cls-7{fill:#dbc6a2}
        </style>
    </defs>
    <g id="Group_148">
        <g id="Group_147">
            <path id="Path_42" d="M31.708 28.487H13.226a.539.539 0 0 1-.526-.526V25.05a9.172 9.172 0 0 1 1.017-4.8 8.53 8.53 0 0 1 3.156-2.95h.035c.175-.105.351-.175.526-.281l.21-.105c-.281-.14-.526-.281-.807-.456l-.982-.631a2.368 2.368 0 0 1-1.087-2.28l.772-6.067a5.927 5.927 0 0 1 3.086-4.8A5.881 5.881 0 0 1 21.4 1.8c2.28-.175 3.682.07 4.314.772a1.778 1.778 0 0 1 .316.561 1.936 1.936 0 0 1 2.139 1.3l.21.316a21.461 21.461 0 0 1 .877 5.4v3.437a2.7 2.7 0 0 1-1.263 2.28l-.877.561c-.07.035-.105.07-.175.105.175.07.351.105.491.175a3.9 3.9 0 0 1 .561.245 8.03 8.03 0 0 1 3.855 3.748 7.55 7.55 0 0 1 .456 3.332v3.928a.668.668 0 0 1-.596.527zm-17.956-1.052h17.43v-3.4a7.545 7.545 0 0 0-.351-2.876 6.786 6.786 0 0 0-3.331-3.228c-.175-.07-.351-.14-.491-.21-.351-.14-.7-.245-1.052-.351-.21-.035-.421-.105-.631-.14a.484.484 0 0 1-.421-.456.473.473 0 0 1 .316-.526 11.221 11.221 0 0 0 1.3-.666l.877-.561a1.6 1.6 0 0 0 .772-1.368v-3.437a20.015 20.015 0 0 0-.772-4.98c-.035-.035-.035-.07-.07-.105a.766.766 0 0 1-.105-.175c-.175-.456-.456-.877-1.508-.6a.609.609 0 0 1-.491-.105.545.545 0 0 1-.175-.491.533.533 0 0 0-.07-.386c-.175-.21-.877-.631-3.437-.421a4.86 4.86 0 0 0-2.28.7.034.034 0 0 0-.035.035 4.849 4.849 0 0 0-2.56 3.928v.07l-.772 6.1a1.234 1.234 0 0 0 .6 1.227l.982.631a10.076 10.076 0 0 0 1.859.877.54.54 0 0 1 .351.526.526.526 0 0 1-.386.491.825.825 0 0 1-.281.07c-.175.07-.351.105-.526.175-.21.07-.351.14-.526.21a3.539 3.539 0 0 1-.526.245 7.341 7.341 0 0 0-2.77 2.6 8.368 8.368 0 0 0-.842 4.278v2.315z" class="cls-1" transform="translate(-12.7 -1.745)"/>
        </g>
    </g>
    <g id="Group_200" transform="translate(.526 .523)">
        <g id="Group_150" transform="translate(2.024 .267)">
            <g id="Group_149">
                <path id="Path_43" d="M32.362 16.871l-.877.561a9.1 9.1 0 0 1-9.679.035l-.982-.631a1.849 1.849 0 0 1-.842-1.753l.772-6.1A5.413 5.413 0 0 1 25.734 4l.526.035c1.718.105 2.315 1.157 3.507 1.613.807.316 2.315-.245 2.771.772a20.849 20.849 0 0 1 .807 5.19v3.437a2.2 2.2 0 0 1-.983 1.824z" class="cls-2" transform="translate(-19.972 -4)"/>
            </g>
        </g>
        <g id="Group_187" transform="translate(0 2.722)">
            <g id="Group_152" transform="translate(0 11.538)">
                <g id="Group_151">
                    <path id="Path_44" fill="#3a96dd" d="M32.682 55.333H14.2v-2.911a8.619 8.619 0 0 1 .947-4.559 8.922 8.922 0 0 1 7.575-3.963h2.1a8.229 8.229 0 0 1 7.435 4.384 8.108 8.108 0 0 1 .421 3.472v3.577z" transform="translate(-14.2 -43.9)"/>
                </g>
            </g>
            <g id="Group_154" transform="translate(6.909 8.873)">
                <g id="Group_153">
                    <path id="Path_45" d="M34.181 36.3l-.281 2.735.21.14a4.092 4.092 0 0 0 4.489-.14l-.245-2.735" class="cls-4" transform="translate(-33.9 -36.3)"/>
                </g>
            </g>
            <g id="Group_156" transform="translate(6.909 8.873)">
                <g id="Group_155">
                    <path id="Path_46" fill="#efbf9c" d="M34.181 36.3l-.281 2.735.21.14a.734.734 0 0 1 .21.14 29.965 29.965 0 0 0 4.1-2.069l-.105-.947z" transform="translate(-33.9 -36.3)"/>
                </g>
            </g>
            <g id="Group_164" transform="translate(3.823)">
                <g id="Group_163">
                    <g id="Group_158" transform="translate(9.153 4.384)">
                        <g id="Group_157">
                            <path id="Path_47" d="M51.481 25.6h.245a1.055 1.055 0 0 0 1.052-1.052 1.046 1.046 0 0 0-.526-.912L51.2 23.5" class="cls-4" transform="translate(-51.2 -23.5)"/>
                        </g>
                    </g>
                    <g id="Group_160" transform="translate(1.298)">
                        <g id="Group_159">
                            <path id="Path_48" d="M28.8 12.578v4.664a4.071 4.071 0 0 0 4.068 4.068 4.071 4.071 0 0 0 4.068-4.068V11" class="cls-4" transform="translate(-28.8 -11)"/>
                        </g>
                    </g>
                    <g id="Group_162" transform="translate(0 4.349)">
                        <g id="Group_161">
                            <path id="Path_49" d="M26.4 23.4h-.245a1.055 1.055 0 0 0-1.055 1.052 1.055 1.055 0 0 0 1.052 1.048h.248" class="cls-4" transform="translate(-25.1 -23.4)"/>
                        </g>
                    </g>
                </g>
            </g>
            <g id="Group_166" transform="translate(7.014 4.489)">
                <g id="Group_165">
                    <ellipse id="Ellipse_8" cx=".421" cy=".666" class="cls-1" rx=".421" ry=".666"/>
                </g>
            </g>
            <g id="Group_168" transform="translate(10.381 4.489)">
                <g id="Group_167">
                    <ellipse id="Ellipse_9" cx=".421" cy=".666" class="cls-1" rx=".421" ry=".666"/>
                </g>
            </g>
            <g id="Group_173" transform="translate(6.309 2.827)">
                <g id="Group_170" transform="translate(3.819)">
                    <g id="Group_169">
                        <path id="Path_50" d="M44.77 19.917a.211.211 0 0 1-.14-.035 1.688 1.688 0 0 0-1.333-.456.237.237 0 0 1-.21-.14c-.035-.07.07-.175.14-.21a1.963 1.963 0 0 1 1.613.561.17.17 0 0 1 0 .245c.001.035-.034.035-.07.035z" class="cls-2" transform="translate(-43.08 -19.062)"/>
                    </g>
                </g>
                <g id="Group_172" transform="translate(0 .083)">
                    <g id="Group_171">
                        <path id="Path_51" d="M32.369 20.212a.266.266 0 0 1-.14-.07.173.173 0 0 1 .035-.245 2.95 2.95 0 0 1 1.4-.6.179.179 0 0 1 .07.351 2.557 2.557 0 0 0-1.263.526.129.129 0 0 1-.102.038z" class="cls-2" transform="translate(-32.191 -19.3)"/>
                    </g>
                </g>
            </g>
            <g id="Group_175" transform="translate(2.946 17.254)">
                <g id="Group_174">
                    <path id="Rectangle_4" d="M0 0H12.45V5.716H0z" class="cls-6"/>
                </g>
            </g>
            <g id="Group_177" transform="translate(3.365 12.029)">
                <g id="Group_176">
                    <path id="Path_52" d="M24.884 51.788a1.108 1.108 0 0 0 1.122-1.122l-.035-5.366a9.48 9.48 0 0 0-2.171 1.017v4.349a1.079 1.079 0 0 0 1.084 1.122z" class="cls-7" transform="translate(-23.795 -45.3)"/>
                </g>
            </g>
            <g id="Group_179" transform="translate(12.728 11.818)">
                <g id="Group_178">
                    <path id="Path_53" d="M51.584 51.4a1.13 1.13 0 0 0 1.122-1.122l.07-4.7A9.108 9.108 0 0 0 50.6 44.7l-.1 5.541a1.088 1.088 0 0 0 1.084 1.159z" class="cls-7" transform="translate(-50.495 -44.7)"/>
                </g>
            </g>
            <g id="Group_186" transform="translate(7.831 18.546)">
                <g id="Group_182">
                    <g id="Group_181">
                        <g id="Group_180">
                            <path id="Path_54" fill="#846244" d="M38.938 65.994c-.281.947-1.052 1.578-1.683 1.368s-.912-1.122-.6-2.069 1.052-1.578 1.683-1.368a.735.735 0 0 1 .386.281 1.791 1.791 0 0 1 .214 1.788z" transform="translate(-36.528 -63.884)"/>
                        </g>
                    </g>
                </g>
                <g id="Group_185" transform="translate(.236 .216)">
                    <g id="Group_184">
                        <g id="Group_183">
                            <path id="Path_55" d="M37.2 67.726v-.316c.035 0 .666-.07.772-1.017a2.812 2.812 0 0 1 1.472-1.893l.14.281a2.551 2.551 0 0 0-1.3 1.648c-.137 1.227-1.049 1.297-1.084 1.297z" class="cls-6" transform="translate(-37.2 -64.5)"/>
                        </g>
                    </g>
                </g>
            </g>
        </g>
        <g id="Group_189" opacity="0.52" transform="translate(8.522 7.413)">
            <g id="Group_188">
                <path id="Path_56" fill="#a88057" d="M39.272 26.417a1.111 1.111 0 0 1-.561-.14.346.346 0 0 1-.21-.316.3.3 0 0 1 .07-.21 4 4 0 0 0 .456-1.227.179.179 0 0 1 .351.07 4.031 4.031 0 0 1-.491 1.333v.035l.035.035a1.08 1.08 0 0 0 .456.105.179.179 0 0 1 .07.351.469.469 0 0 0-.176-.036z" transform="translate(-38.5 -24.374)"/>
            </g>
        </g>
        <g id="Group_191" transform="translate(4.068 19.836)">
            <g id="Group_190">
                <circle id="Ellipse_10" cx=".386" cy=".386" r=".386" class="cls-6"/>
            </g>
        </g>
        <g id="Group_193" transform="translate(13.467 19.836)">
            <g id="Group_192">
                <circle id="Ellipse_11" cx=".386" cy=".386" r=".386" class="cls-6"/>
            </g>
        </g>
        <g id="Group_195" transform="translate(8.171 10.332)">
            <g id="Group_194">
                <path id="Path_57" fill="#fff" d="M39.464 32.7a.982.982 0 1 1-1.964 0" transform="translate(-37.5 -32.7)"/>
            </g>
        </g>
        <g id="Group_197" transform="translate(3.898)">
            <g id="Group_196">
                <path id="Path_58" d="M33.236 5.644s-1.613 2.385-6.207 3.542a8.558 8.558 0 0 1-.456 2.174s-.561-1.333-.912-.842c0 0-2.069-6.733 3.928-7.224s3.647 2.35 3.647 2.35z" class="cls-2" transform="translate(-25.316 -3.237)"/>
            </g>
        </g>
        <g id="Group_199" transform="translate(8.382 1.454)">
            <g id="Group_198">
                <path id="Path_59" d="M40.8 9.143s1.052-.561 1.613.877a11.567 11.567 0 0 1 .316 4.068s.526-.947.772-.912l.281.035s2.034-6.768-1.824-5.716L38.1 8.546z" class="cls-2" transform="translate(-38.1 -7.383)"/>
            </g>
        </g>
    </g>
</svg>
