<svg xmlns="http://www.w3.org/2000/svg" id="Emojis_cafe_owner" width="19.314" height="26.676" viewBox="0 0 19.314 26.676">
    <defs>
        <style>
            .cls-1{fill:#54381f}.cls-3{fill:#fcd2ae}.cls-5{fill:#a88057}.cls-6{fill:#eadec7}.cls-7{fill:#dbc6a2}
        </style>
    </defs>
    <g id="Group_362">
        <g id="Group_361">
            <path id="Path_114" d="M31.427 27.469H13.218a.531.531 0 0 1-.518-.518V21.7a6.4 6.4 0 0 1 3.559-5.77.034.034 0 0 0 .035-.035 3.77 3.77 0 0 1 .726-.311 6.48 6.48 0 0 1 1.624-.346h.035c.138 0 .346-.035.553-.035h.346l.1-1.037a4.341 4.341 0 0 1-1.831-2.937A1.566 1.566 0 0 1 16.5 9.675a1.706 1.706 0 0 1 .587-1.244 8.608 8.608 0 0 1 0-2.9 2.559 2.559 0 0 1-.725-1.731.591.591 0 0 1 .242-.449.471.471 0 0 1 .518 0 2.037 2.037 0 0 1 .276.138l-.276-.207a.45.45 0 0 1-.173-.449.527.527 0 0 1 .242-.415A12.156 12.156 0 0 1 24.827.933a3.385 3.385 0 0 1 2.73 3.11l.069 1.037V8.5a1.541 1.541 0 0 1 .518 1.14 1.567 1.567 0 0 1-1.382 1.56 5.705 5.705 0 0 1-.38 1.244 5 5 0 0 1-.829 1.209l-.035.035a6.015 6.015 0 0 1-.484.415l.1 1.071h.346a3.161 3.161 0 0 1 .587.035h.069a5.265 5.265 0 0 1 1.935.484 6.535 6.535 0 0 1 3.939 5.977v5.252a.656.656 0 0 1-.583.547zm-17.69-1.037h17.171V21.7a5.462 5.462 0 0 0-3.351-5.044c-.035 0-.035-.035-.069-.035A4.251 4.251 0 0 0 26 16.24h-.1c-.173 0-.311-.035-.484-.035h-.796a.525.525 0 0 1-.518-.484l-.173-1.866a.464.464 0 0 1 .242-.484c.207-.138.415-.311.587-.449l.035-.035a3.506 3.506 0 0 0 .656-.933 3.7 3.7 0 0 0 .346-1.382.494.494 0 0 1 .484-.484.651.651 0 0 1 .276.069.531.531 0 0 0 .518-.518.591.591 0 0 0-.242-.449.591.591 0 0 1-.242-.449V5.08l-.035-1a2.286 2.286 0 0 0-1.866-2.142 11.2 11.2 0 0 0-6.254 1l.933.864a.508.508 0 0 1 .173.484.6.6 0 0 1-.34.414 2.839 2.839 0 0 1-1.52 0 2.235 2.235 0 0 0 .276.311.5.5 0 0 1 .138.518 7.466 7.466 0 0 0 0 3.075.534.534 0 0 1-.311.587.52.52 0 0 0-.346.484.562.562 0 0 0 .38.518.493.493 0 0 1 .415-.207.531.531 0 0 1 .518.518 3.463 3.463 0 0 0 1.65 2.971.491.491 0 0 1 .242.484l-.207 1.8a.5.5 0 0 1-.518.449h-.795a2.281 2.281 0 0 0-.484.035h-.035a4.758 4.758 0 0 0-1.347.311c-.242.069-.38.138-.484.173-.035.035-.035.035-.069.035a5.45 5.45 0 0 0-3.04 4.906v4.768z" class="cls-1" transform="translate(-12.7 -.793)"/>
        </g>
    </g>
    <g id="Group_405" transform="translate(.518 .531)">
        <g id="Group_364" transform="translate(0 14.398)">
            <g id="Group_363">
                <path id="Path_115" fill="#3a96dd" d="M32.408 55.229H14.2v-5.252A5.979 5.979 0 0 1 20.177 44h6.254a5.979 5.979 0 0 1 5.977 5.977v5.252z" transform="translate(-14.2 -44)"/>
            </g>
        </g>
        <g id="Group_366" transform="translate(6.807 11.738)">
            <g id="Group_365">
                <path id="Path_116" d="M34.176 36.3l-.276 2.695.207.138a4.031 4.031 0 0 0 4.423-.138l-.242-2.695" class="cls-3" transform="translate(-33.9 -36.3)"/>
            </g>
        </g>
        <g id="Group_368" transform="translate(6.807 11.738)">
            <g id="Group_367">
                <path id="Path_117" fill="#efbf9c" d="M34.176 36.3l-.276 2.695.207.138a.723.723 0 0 1 .207.138 29.522 29.522 0 0 0 4.042-2.039l-.1-.933z" transform="translate(-33.9 -36.3)"/>
            </g>
        </g>
        <g id="Group_382" transform="translate(3.628)">
            <g id="Group_370" transform="translate(.626 4.067)">
                <g id="Group_369">
                    <path id="Path_118" d="M26.68 17.417a7.776 7.776 0 0 1 0-3.317c.207 0 .276.069.484.069a.311.311 0 0 1 .173.035.27.27 0 0 1 .138.138 2.947 2.947 0 0 1 .622 2.177 1.261 1.261 0 0 1-.449.9c-.277.136-.657-.002-.968-.002z" class="cls-5" transform="translate(-26.511 -14.1)"/>
                </g>
            </g>
            <g id="Group_379" transform="translate(.138 2.996)">
                <g id="Group_372" transform="translate(9.018 4.319)">
                    <g id="Group_371">
                        <path id="Path_119" d="M51.476 25.573h.242a1.039 1.039 0 0 0 1.037-1.037 1.031 1.031 0 0 0-.518-.9L51.2 23.5" class="cls-3" transform="translate(-51.2 -23.5)"/>
                    </g>
                </g>
                <g id="Group_374" transform="translate(1.278)">
                    <g id="Group_373">
                        <path id="Path_120" d="M28.8 12.555v4.6a4.011 4.011 0 0 0 4.008 4.008 4.011 4.011 0 0 0 4.008-4.008V11" class="cls-3" transform="translate(-28.8 -11)"/>
                    </g>
                </g>
                <g id="Group_376" transform="translate(1.278 4.423)">
                    <g id="Group_375">
                        <path id="Path_121" d="M33.43 25.873a1.454 1.454 0 0 0-1.071.1c-2.66 1.209-3.006-.173-3.559-2.108v1.658a4.011 4.011 0 0 0 4.008 4.008 4.011 4.011 0 0 0 4.008-4.008V23.8a5.159 5.159 0 0 0-.311 1.071 1.57 1.57 0 0 1-1.728 1.313c-.449-.069-.933-.207-1.347-.311z" class="cls-5" transform="translate(-28.8 -23.8)"/>
                    </g>
                </g>
                <g id="Group_378" transform="translate(0 4.284)">
                    <g id="Group_377">
                        <path id="Path_122" d="M26.378 23.4h-.242a1.039 1.039 0 0 0-1.036 1.037 1.039 1.039 0 0 0 1.037 1.037h.242" class="cls-3" transform="translate(-25.1 -23.4)"/>
                    </g>
                </g>
            </g>
            <g id="Group_381">
                <g id="Group_380">
                    <path id="Path_123" d="M34.927 6.119v3.662c-.449.035-.76.242-.795.656v.242l-.1-3.7V6.6a13.483 13.483 0 0 1-3.317 1.071s.795-1.071 1-1.071a5.79 5.79 0 0 1-3.766 1.037C26.98 7.5 24.7 6.4 24.7 4.806a3.475 3.475 0 0 0 2.211.38l-1.589-1.313a11.979 11.979 0 0 1 7.29-1.417 2.768 2.768 0 0 1 2.28 2.626z" class="cls-5" transform="translate(-24.7 -2.328)"/>
                </g>
            </g>
        </g>
        <g id="Group_384" transform="translate(6.91 7.419)">
            <g id="Group_383">
                <ellipse id="Ellipse_24" cx=".415" cy=".656" class="cls-1" rx=".415" ry=".656"/>
            </g>
        </g>
        <g id="Group_386" transform="translate(10.227 7.419)">
            <g id="Group_385">
                <ellipse id="Ellipse_25" cx=".415" cy=".656" class="cls-1" rx=".415" ry=".656"/>
            </g>
        </g>
        <g id="Group_391" transform="translate(6.216 5.782)">
            <g id="Group_388" transform="translate(3.762)">
                <g id="Group_387">
                    <path id="Path_124" d="M44.745 19.9a.208.208 0 0 1-.138-.035 1.663 1.663 0 0 0-1.313-.449.233.233 0 0 1-.207-.138c-.035-.069.069-.173.138-.207a1.934 1.934 0 0 1 1.589.553.167.167 0 0 1 0 .242c.001.034-.034.034-.069.034z" class="cls-5" transform="translate(-43.08 -19.062)"/>
                </g>
            </g>
            <g id="Group_390" transform="translate(0 .082)">
                <g id="Group_389">
                    <path id="Path_125" d="M32.367 20.2a.262.262 0 0 1-.138-.069.171.171 0 0 1 .035-.242 2.906 2.906 0 0 1 1.382-.587.176.176 0 1 1 .069.346 2.519 2.519 0 0 0-1.244.518.127.127 0 0 1-.104.034z" class="cls-5" transform="translate(-32.191 -19.3)"/>
                </g>
            </g>
        </g>
        <g id="Group_393" transform="translate(2.902 19.995)">
            <g id="Group_392">
                <path id="Rectangle_8" d="M0 0H12.266V5.632H0z" class="cls-6"/>
            </g>
        </g>
        <g id="Group_395" transform="translate(3.282 14.398)">
            <g id="Group_394">
                <path id="Path_126" d="M23.735 44.587l-.035 5.148a1.091 1.091 0 0 0 1.106 1.106 1.091 1.091 0 0 0 1.106-1.106L25.877 44a8.387 8.387 0 0 0-2.142.587z" class="cls-7" transform="translate(-23.7 -44)"/>
            </g>
        </g>
        <g id="Group_397" transform="translate(12.473 14.398)">
            <g id="Group_396">
                <path id="Path_127" d="M52.58 44.587l-.069 5.148a1.113 1.113 0 0 1-1.106 1.106A1.121 1.121 0 0 1 50.3 49.7l.173-5.7a4.012 4.012 0 0 1 2.107.587z" class="cls-7" transform="translate(-50.3 -44)"/>
            </g>
        </g>
        <g id="Group_404" transform="translate(7.715 21.268)">
            <g id="Group_400">
                <g id="Group_399">
                    <g id="Group_398">
                        <path id="Path_128" fill="#846244" d="M38.9 65.963c-.276.933-1.037 1.555-1.658 1.347s-.9-1.106-.587-2.039 1.037-1.555 1.658-1.347a.724.724 0 0 1 .38.276 1.765 1.765 0 0 1 .207 1.763z" transform="translate(-36.528 -63.884)"/>
                    </g>
                </g>
            </g>
            <g id="Group_403" transform="translate(.232 .213)">
                <g id="Group_402">
                    <g id="Group_401">
                        <path id="Path_129" d="M37.2 67.679v-.311c.035 0 .656-.069.76-1a2.771 2.771 0 0 1 1.451-1.868l.138.276a2.514 2.514 0 0 0-1.278 1.624c-.138 1.21-1.036 1.279-1.071 1.279z" class="cls-6" transform="translate(-37.2 -64.5)"/>
                    </g>
                </g>
            </g>
        </g>
    </g>
    <g id="Group_407" opacity="0.52" transform="translate(8.914 8.148)">
        <g id="Group_406">
            <path id="Path_130" d="M39.26 26.387a1.094 1.094 0 0 1-.553-.138.341.341 0 0 1-.207-.311.292.292 0 0 1 .069-.207 3.944 3.944 0 0 0 .449-1.209.176.176 0 0 1 .346.069 3.971 3.971 0 0 1-.484 1.309v.035l.035.035a1.064 1.064 0 0 0 .449.1.176.176 0 1 1 .069.346.462.462 0 0 0-.173-.029z" class="cls-5" transform="translate(-38.5 -24.374)"/>
        </g>
    </g>
    <g id="Group_409" transform="translate(4.526 20.388)">
        <g id="Group_408">
            <circle id="Ellipse_26" cx=".38" cy=".38" r=".38" class="cls-6"/>
        </g>
    </g>
    <g id="Group_411" transform="translate(13.717 20.388)">
        <g id="Group_410">
            <circle id="Ellipse_27" cx=".38" cy=".38" r=".38" class="cls-6"/>
        </g>
    </g>
    <g id="Group_413" transform="translate(8.569 11.024)">
        <g id="Group_412">
            <path id="Path_131" fill="#fff" d="M39.435 32.7a.967.967 0 0 1-1.935 0" transform="translate(-37.5 -32.7)"/>
        </g>
    </g>
</svg>
