<svg xmlns="http://www.w3.org/2000/svg" id="Emojis_coffee_cherry" width="27.763" height="26.742" viewBox="0 0 27.763 26.742">
    <defs>
        <style>
            .cls-2{fill:#48c190}.cls-3{fill:#008858}.cls-4{fill:#f03a17}.cls-5{fill:#ff523b}.cls-6{fill:#ff6f4d}.cls-7{fill:#f77066}.cls-8{opacity:.53}
        </style>
    </defs>
    <g id="Group_415">
        <g id="Group_414">
            <path id="Path_132" fill="#54381f" d="M5.973 30.142a3.941 3.941 0 0 1-2.78-1.126c-.106.035-.176.07-.281.106a.874.874 0 0 1-1.126-.528.909.909 0 0 1 .421-1.094 4.043 4.043 0 0 1-.246-1.267 3.981 3.981 0 0 1 2.815-6.791 3 3 0 0 1 .809.106 3.965 3.965 0 0 1 2.639-2.639 2.679 2.679 0 0 1 .106-.739 3.056 3.056 0 0 0-1.161-1.548 2.658 2.658 0 0 1-1.269-2.46c.035-.774-.176-.88-.528-1.056-.6-.281-1.161-.669-1.091-2.041a13.305 13.305 0 0 0-.739-4.4v-.033a.623.623 0 0 1 .281-.6.479.479 0 0 1 .528 0A12.912 12.912 0 0 0 8.612 5.37a1.8 1.8 0 0 1 1.865 1.337c.141.387.176.6.985.669a2.37 2.37 0 0 1 1.9 1.056.631.631 0 0 1 .176.246c.07.106.106.176.176.281s.106.176.176.281a3.906 3.906 0 0 1 2.85-1.2 3.959 3.959 0 0 1 1.795.422 2.637 2.637 0 0 1 2.252-1.583c.774-.106.844-.281.95-.7.211-.633.493-1.232 1.865-1.372a11.776 11.776 0 0 0 4.187-1.337c.035 0 .035-.035.07-.035a.317.317 0 0 1 .176-.035.446.446 0 0 1 .211.035c.035.035.106.035.141.07l.106.106a.5.5 0 0 1 .07.211V4c0 .035 0 .035-.035.07a12.516 12.516 0 0 0-.7 4.4 1.818 1.818 0 0 1-1.056 2.041c-.387.176-.563.281-.528 1.056A2.515 2.515 0 0 1 25.5 13.6l-.211.211c-.07.07-.176.141-.246.211a2.885 2.885 0 0 0-1.232 1.759 2.479 2.479 0 0 1-1.583 1.795 3.945 3.945 0 0 1-2.041 1.3 3.828 3.828 0 0 1 .246 1.407 4.01 4.01 0 0 1-4.01 4.017 3.758 3.758 0 0 1-.88-.106 3.808 3.808 0 0 1 .317 1.548 4.006 4.006 0 0 1-6.791 2.885 3.851 3.851 0 0 1-3.096 1.515zM3.439 27.89a.484.484 0 0 1 .281.176 2.91 2.91 0 0 0 4.821-.6.457.457 0 0 1 .422-.281.567.567 0 0 1 .457.211 2.986 2.986 0 0 0 2.393 1.267 2.951 2.951 0 0 0 2.956-2.956 2.912 2.912 0 0 0-2.428-2.885.545.545 0 0 1-.387-.281.6.6 0 0 1 0-.493 4.7 4.7 0 0 0 .246-.633.882.882 0 0 1 .141-.246l.035-.035.281-.281a.451.451 0 0 1 .493-.141.537.537 0 0 1 .387.387 2.94 2.94 0 0 0 5.771-.809 3.108 3.108 0 0 0-.422-1.548.557.557 0 0 1-.035-.528.457.457 0 0 1 .422-.281 2.92 2.92 0 0 0 2.111-1.161.484.484 0 0 1 .281-.176 1.409 1.409 0 0 0 1.02-1.091 3.959 3.959 0 0 1 1.583-2.322c.106-.07.176-.141.281-.211l.035-.035.035-.035a1.462 1.462 0 0 0 .457-1.3 1.848 1.848 0 0 1 1.126-2.041c.352-.176.528-.246.493-1.02a12.606 12.606 0 0 1 .422-3.659 12.6 12.6 0 0 1-3.554.985c-.739.07-.809.246-.95.633a1.817 1.817 0 0 1-1.862 1.4 1.552 1.552 0 0 0-1.442 1.06c-.106.176-.176.317-.281.493a.467.467 0 0 1-.352.211.489.489 0 0 1-.387-.07 2.833 2.833 0 0 0-1.689-.529 2.9 2.9 0 0 0-2.428 1.3.669.669 0 0 1-.387.246.474.474 0 0 1-.422-.176 4.069 4.069 0 0 1-.669-.985 1.964 1.964 0 0 0-.176-.281l-.035-.035-.036-.034a1.542 1.542 0 0 0-1.2-.669 1.85 1.85 0 0 1-1.861-1.407c-.141-.387-.176-.563-.95-.633a11.573 11.573 0 0 1-3.554-.95A12.522 12.522 0 0 1 5.339 9.1c-.035.739.141.844.493 1.02a1.821 1.821 0 0 1 1.126 2.041 1.6 1.6 0 0 0 .842 1.584 3.926 3.926 0 0 1 1.583 2.217.389.389 0 0 1 0 .281 3.2 3.2 0 0 0-.106.809v.176a.57.57 0 0 1-.422.563A2.915 2.915 0 0 0 6.5 20.255a.669.669 0 0 1-.246.387.526.526 0 0 1-.457.035 2.6 2.6 0 0 0-1.02-.176 2.951 2.951 0 0 0-2.957 2.956 2.874 2.874 0 0 0 1.02 2.217.583.583 0 0 1 .176.422v.104a3.2 3.2 0 0 0 .352 1.407.274.274 0 0 1 .071.283zm5.348-3.2a.5.5 0 0 1-.422-.211l-.035-.035a.533.533 0 0 1-.035-.6.523.523 0 0 1 .528-.246h.07a.545.545 0 0 1 .387.281.6.6 0 0 1 0 .493l-.035.07a.457.457 0 0 1-.422.281c0-.035 0-.035-.035-.035z" transform="translate(-.8 -3.4)"/>
        </g>
    </g>
    <g id="Group_508" transform="translate(.493 .528)">
        <g id="Group_437" transform="translate(2.78 .563)">
            <g id="Group_418">
                <g id="Group_417">
                    <g id="Group_416">
                        <path id="Path_133" d="M10.1 6.5a12.78 12.78 0 0 1 .774 4.61c-.106 2.217 1.689.844 1.654 3.061-.07 2.252 1.83 1.619 2.463 4.047.633 2.393 3.765 1.337 3.765 1.337a2.93 2.93 0 0 0 3.2.95l.422-.352a2.878 2.878 0 0 0-.528-3.272s1.513-2.956-.774-3.906-1.443-2.745-3.659-2.991c-2.252-.246-.6-1.865-2.815-2.041A13.578 13.578 0 0 1 10.1 6.5l.176.176" class="cls-2" transform="translate(-10.1 -6.5)"/>
                    </g>
                </g>
            </g>
            <g id="Group_421" transform="translate(.405 .51)">
                <g id="Group_420">
                    <g id="Group_419">
                        <path id="Path_134" d="M24.78 23.591a.267.267 0 0 1-.141-.07L11.3 8.249A.174.174 0 0 1 11.549 8l13.336 15.309a.17.17 0 0 1 0 .246.129.129 0 0 1-.105.036z" class="cls-3" transform="translate(-11.25 -7.95)"/>
                    </g>
                </g>
            </g>
            <g id="Group_424" transform="translate(3.33 1.676)">
                <g id="Group_423">
                    <g id="Group_422">
                        <path id="Path_135" d="M19.752 13.809h-.07a.157.157 0 0 1-.106-.211l.809-2.217a.167.167 0 0 1 .317.106l-.81 2.213a.157.157 0 0 1-.14.109z" class="cls-3" transform="translate(-19.563 -11.262)"/>
                    </g>
                </g>
            </g>
            <g id="Group_427" transform="translate(5.335 3.378)">
                <g id="Group_426">
                    <g id="Group_425">
                        <path id="Path_136" d="M25.451 19.056a.129.129 0 0 1-.106-.035.2.2 0 0 1-.07-.246 5.342 5.342 0 0 0 .985-2.5.166.166 0 0 1 .176-.176.166.166 0 0 1 .176.176 5.75 5.75 0 0 1-1.02 2.674.131.131 0 0 1-.141.107z" class="cls-3" transform="translate(-25.261 -16.1)"/>
                    </g>
                </g>
            </g>
            <g id="Group_430" transform="translate(7.175 4.293)">
                <g id="Group_429">
                    <g id="Group_428">
                        <path id="Path_137" d="M30.67 22.747a.129.129 0 0 1-.106-.035.174.174 0 0 1-.035-.246 7.031 7.031 0 0 0 1.407-3.589.176.176 0 0 1 .352 0 7.281 7.281 0 0 1-1.478 3.8.183.183 0 0 1-.14.07z" class="cls-3" transform="translate(-30.491 -18.7)"/>
                    </g>
                </g>
            </g>
            <g id="Group_433" transform="translate(9.005 6.888)">
                <g id="Group_432">
                    <g id="Group_431">
                        <path id="Path_138" d="M35.87 29.883a.267.267 0 0 1-.141-.07.174.174 0 0 1 .035-.246 4.939 4.939 0 0 0 1.9-3.343.179.179 0 1 1 .352.07 5.22 5.22 0 0 1-2.041 3.589z" class="cls-3" transform="translate(-35.691 -26.074)"/>
                    </g>
                </g>
            </g>
            <g id="Group_436" transform="translate(10.568 10.3)">
                <g id="Group_435">
                    <g id="Group_434">
                        <path id="Path_139" d="M40.3 37.964a.129.129 0 0 1-.106-.035.217.217 0 0 1-.035-.246l.422-.528a1.509 1.509 0 0 0 .387-1.161.167.167 0 0 1 .317-.106 1.724 1.724 0 0 1-.457 1.478l-.387.528c-.041.07-.072.07-.141.07z" class="cls-3" transform="translate(-40.134 -35.773)"/>
                    </g>
                </g>
            </g>
        </g>
        <g id="Group_459" transform="translate(12.785)">
            <g id="Group_440" transform="translate(1.476)">
                <g id="Group_439">
                    <g id="Group_438">
                        <path id="Path_140" d="M55.209 4.9a13.577 13.577 0 0 1-4.469 1.443c-2.217.211-.563 1.795-2.815 2.041-2.217.281-1.337 2.041-3.624 3.026s-.774 3.906-.774 3.906a2.826 2.826 0 0 0-.493 3.272l.422.352a2.857 2.857 0 0 0 3.167-.985s3.167 1.056 3.765-1.337 2.5-1.795 2.428-4.047 1.759-.88 1.619-3.061a13.694 13.694 0 0 1 .774-4.61" class="cls-2" transform="translate(-42.728 -4.9)"/>
                    </g>
                </g>
            </g>
            <g id="Group_443" transform="translate(0 .384)">
                <g id="Group_442">
                    <g id="Group_441">
                        <path id="Path_141" d="M38.7 21.864a.129.129 0 0 1-.106-.035.217.217 0 0 1-.035-.246L51.893 6.065a.174.174 0 0 1 .246-.035.217.217 0 0 1 .035.246L38.839 21.793a.183.183 0 0 1-.139.071z" class="cls-3" transform="translate(-38.534 -5.991)"/>
                    </g>
                </g>
            </g>
            <g id="Group_446" transform="translate(10.333 3.871)">
                <g id="Group_445">
                    <g id="Group_444">
                        <path id="Path_142" d="M70.433 16.885H70.4l-2.358-.633a.179.179 0 0 1 .07-.352l2.358.633a.193.193 0 0 1 .141.211.234.234 0 0 1-.178.141z" class="cls-3" transform="translate(-67.9 -15.9)"/>
                    </g>
                </g>
            </g>
            <g id="Group_449" transform="translate(8.455 6.145)">
                <g id="Group_448">
                    <g id="Group_447">
                        <path id="Path_143" d="M65.109 23.361a6.678 6.678 0 0 1-2.428-.633.189.189 0 0 1 .141-.352 5.549 5.549 0 0 0 2.6.6.179.179 0 0 1 .07.352 1.444 1.444 0 0 1-.383.033z" class="cls-3" transform="translate(-62.563 -22.363)"/>
                    </g>
                </g>
            </g>
            <g id="Group_452" transform="translate(6.778 8.268)">
                <g id="Group_451">
                    <g id="Group_450">
                        <path id="Path_144" d="M61.281 29.664a7.791 7.791 0 0 1-3.378-.915.181.181 0 0 1 .176-.317 6.787 6.787 0 0 0 3.765.88.179.179 0 1 1 .07.352 3.781 3.781 0 0 0-.633 0z" class="cls-3" transform="translate(-57.796 -28.396)"/>
                    </g>
                </g>
            </g>
            <g id="Group_455" transform="translate(4.685 10.433)">
                <g id="Group_454">
                    <g id="Group_453">
                        <path id="Path_145" d="M55.6 36.327a5.569 5.569 0 0 1-3.7-1.478.174.174 0 1 1 .246-.246 4.9 4.9 0 0 0 3.589 1.372.176.176 0 1 1 0 .352z" class="cls-3" transform="translate(-51.85 -34.55)"/>
                    </g>
                </g>
            </g>
            <g id="Group_458" transform="translate(3.176 12.224)">
                <g id="Group_457">
                    <g id="Group_456">
                        <path id="Path_146" d="M49.3 40.646a2.675 2.675 0 0 1-1.056-.317l-.6-.352a.2.2 0 0 1-.07-.246c.035-.106.141-.106.246-.07l.563.352a1.564 1.564 0 0 0 1.232.211.233.233 0 0 1 .246.07.218.218 0 0 1-.07.246 1.381 1.381 0 0 1-.491.106z" class="cls-3" transform="translate(-47.561 -39.64)"/>
                    </g>
                </g>
            </g>
        </g>
        <g id="Group_462" transform="translate(4.645 13.266)">
            <g id="Group_461">
                <g id="Group_460">
                    <circle id="Ellipse_28" cx="3.484" cy="3.484" r="3.484" class="cls-4"/>
                </g>
            </g>
        </g>
        <g id="Group_465" transform="translate(11.682 12.878)">
            <g id="Group_464">
                <g id="Group_463">
                    <circle id="Ellipse_29" cx="3.484" cy="3.484" r="3.484" class="cls-4"/>
                </g>
            </g>
        </g>
        <g id="Group_468" transform="translate(11.929 4.645)">
            <g id="Group_467">
                <g id="Group_466">
                    <circle id="Ellipse_30" cx="3.484" cy="3.484" r="3.484" class="cls-4"/>
                </g>
            </g>
        </g>
        <g id="Group_471" transform="translate(.998 7.435)">
            <g id="Group_470">
                <g id="Group_469">
                    <path id="Path_147" d="M5.376 43.332a.338.338 0 0 1-.317-.246.366.366 0 0 1 .211-.457C13.223 39.778 19.8 30.243 22.618 26.2a.356.356 0 0 1 .6.387C20.331 30.7 13.645 40.341 5.482 43.332z" class="cls-3" transform="translate(-5.037 -26.031)"/>
                </g>
            </g>
        </g>
        <g id="Group_474" transform="translate(0 16.01)">
            <g id="Group_473">
                <g id="Group_472">
                    <circle id="Ellipse_31" cx="3.484" cy="3.484" r="3.484" class="cls-5"/>
                </g>
            </g>
        </g>
        <g id="Group_477" transform="translate(7.108 18.333)">
            <g id="Group_476">
                <g id="Group_475">
                    <circle id="Ellipse_32" cx="3.484" cy="3.484" r="3.484" class="cls-5"/>
                </g>
            </g>
        </g>
        <g id="Group_480" transform="translate(1.196 18.755)">
            <g id="Group_479">
                <g id="Group_478">
                    <circle id="Ellipse_33" cx="3.484" cy="3.484" r="3.484" class="cls-6"/>
                </g>
            </g>
        </g>
        <g id="Group_483" transform="translate(7.495 9.676)">
            <g id="Group_482">
                <g id="Group_481">
                    <circle id="Ellipse_34" cx="3.484" cy="3.484" r="3.484" class="cls-6"/>
                </g>
            </g>
        </g>
        <g id="Group_486" transform="translate(14.356 7.636)">
            <g id="Group_485">
                <g id="Group_484">
                    <circle id="Ellipse_35" cx="3.484" cy="3.484" r="3.484" class="cls-5"/>
                </g>
            </g>
        </g>
        <g id="Group_489" transform="translate(9.641 10.169)">
            <g id="Group_488">
                <g id="Group_487">
                    <ellipse id="Ellipse_36" cx="1.161" cy=".457" class="cls-7" rx="1.161" ry=".457"/>
                </g>
            </g>
        </g>
        <g id="Group_492" transform="translate(18.045 7.951)">
            <g id="Group_491">
                <g id="Group_490">
                    <ellipse id="Ellipse_37" cx=".457" cy="1.161" class="cls-7" rx=".457" ry="1.161" transform="rotate(-53.106 .732 .366)"/>
                </g>
            </g>
        </g>
        <g id="Group_495" class="cls-8" transform="translate(15.492 17.471)">
            <g id="Group_494">
                <g id="Group_493">
                    <ellipse id="Ellipse_38" cx="1.161" cy=".457" class="cls-7" rx="1.161" ry=".457" transform="rotate(-34.946 2.113 .665)"/>
                </g>
            </g>
        </g>
        <g id="Group_498" class="cls-8" transform="translate(12.867 5.074)">
            <g id="Group_497">
                <g id="Group_496">
                    <ellipse id="Ellipse_39" cx="1.161" cy=".457" class="cls-7" rx="1.161" ry=".457" transform="rotate(-34.946 2.113 .665)"/>
                </g>
            </g>
        </g>
        <g id="Group_501" transform="translate(10.934 18.448)">
            <g id="Group_500">
                <g id="Group_499">
                    <ellipse id="Ellipse_40" cx=".457" cy="1.161" class="cls-7" rx=".457" ry="1.161" transform="rotate(-53.106 .732 .366)"/>
                </g>
            </g>
        </g>
        <g id="Group_504" transform="translate(3.889 16.416)">
            <g id="Group_503">
                <g id="Group_502">
                    <ellipse id="Ellipse_41" cx=".457" cy="1.161" class="cls-7" rx=".457" ry="1.161" transform="rotate(-53.106 .732 .366)"/>
                </g>
            </g>
        </g>
        <g id="Group_507" opacity="0.51" transform="translate(2.664 19.083)">
            <g id="Group_506">
                <g id="Group_505">
                    <ellipse id="Ellipse_42" cx="1.161" cy=".457" fill="#ff8683" rx="1.161" ry=".457" transform="matrix(.96 -.279 .279 .96 0 .649)"/>
                </g>
            </g>
        </g>
    </g>
</svg>
