<svg xmlns="http://www.w3.org/2000/svg" id="Emojis_coffee_leaves" width="27.831" height="26.742" viewBox="0 0 27.831 26.742">
    <defs>
        <style>
            .cls-2{fill:#f03a17}.cls-3{fill:#ed6351}.cls-5{fill:#008858}.cls-6{fill:#48c190}.cls-7{fill:#f77066}
        </style>
    </defs>
    <g id="Group_533">
        <g id="Group_532">
            <path id="Path_154" fill="#54381f" d="M19.625 31.967a.786.786 0 0 1-.6-.3c0 .038-.038.038-.075.075a.728.728 0 0 1-1.055 0l-.151-.188a3.871 3.871 0 0 1-3.842-.791 4.675 4.675 0 0 1-3.315.038 2.888 2.888 0 0 1-1.507-1.733 3.341 3.341 0 0 0-1.544-1.883 2.876 2.876 0 0 1-1.582-2.637c-.038-.9-.264-1.017-.716-1.205a1.964 1.964 0 0 1-1.356-2.185 14.429 14.429 0 0 0-1.205-4.972c0-.038-.038-.038-.038-.075 0-.075-.038-.113-.038-.188a.535.535 0 0 1 .075-.226c.038-.038.075-.113.113-.151a.52.52 0 0 1 .151-.113.535.535 0 0 1 .226-.075.34.34 0 0 1 .188.038c.038 0 .038 0 .075.038s.377.151.866.339a1.412 1.412 0 0 1-.038-.414A3.36 3.36 0 0 1 7.61 12a3.568 3.568 0 0 1 1.77.49v-.3a3.322 3.322 0 0 1 2.411-3.2 22.016 22.016 0 0 0 .716-3.2v-.076c0-.075.038-.113.075-.188s.113-.113.151-.151.113-.038.151-.075h.151a.535.535 0 0 1 .226.075c.038.038.113.075.151.113 0 .038.038.038.038.075a16.715 16.715 0 0 0 4.219 4.068 2.193 2.193 0 0 1 1.318 2.524 1.413 1.413 0 0 0-.038.377 3.415 3.415 0 0 1 2.222-.866 3.251 3.251 0 0 1 1.77.527 2.431 2.431 0 0 1 1.241-1.093 14.321 14.321 0 0 0 3.993-3.126c0-.038.038-.038.075-.075s.113-.075.151-.113a.558.558 0 0 1 .264-.038c.075 0 .113 0 .151.038.038.038.113.038.151.075a.376.376 0 0 1 .151.188.282.282 0 0 1 .038.188v.075a14.586 14.586 0 0 0 .979 5.009 1.976 1.976 0 0 1-.339 2.561c-.339.339-.49.527-.151 1.394a2.732 2.732 0 0 1-.038 2.524c-.038.075-.075.113-.113.188a3.312 3.312 0 0 0-.226.377 3.2 3.2 0 0 0-.6 2.373 2.768 2.768 0 0 1-.64 2.185 4.942 4.942 0 0 1-3.013 1.356 3.924 3.924 0 0 1-3.126 2.335l-1.017 2.674a.768.768 0 0 1-.753.49.861.861 0 0 1-.377.264c-.004-.075-.08-.075-.117-.075zm-5.612-2.411a.484.484 0 0 1 .377.151 2.78 2.78 0 0 0 2.976.791l.038-.038c.038-.038.113-.075.151-.113s.075-.113.113-.151l.038-.038a2.4 2.4 0 0 0 .113-1.205.49.49 0 0 1 .188-.49.593.593 0 0 1 .49-.151h.113l.075-.038c.075 0 .113-.038.188 0a.288.288 0 0 1 .188-.075h.075a2.952 2.952 0 0 0 .942-1.318.641.641 0 0 1 .49-.377.506.506 0 0 1 .527.264 3.367 3.367 0 0 0 .339.452h.038c.075.038.113.038.151.075a.34.34 0 0 1 .188.038h.038a2.732 2.732 0 0 0 2.373-1.959.58.58 0 0 1 .49-.339 4.209 4.209 0 0 0 2.561-.979 1.726 1.726 0 0 0 .377-1.318 4.346 4.346 0 0 1 .791-3.089 3.312 3.312 0 0 0 .226-.377v-.038a.037.037 0 0 1 .033-.034 1.693 1.693 0 0 0 0-1.62 2.138 2.138 0 0 1 .377-2.6c.339-.339.49-.527.113-1.318a14.058 14.058 0 0 1-1.017-4.143A14.685 14.685 0 0 1 24.71 12c-.791.377-.791.6-.753 1.092v.075a.617.617 0 0 1-.377.565.593.593 0 0 1-.64-.188 2.217 2.217 0 0 0-3.616.226.53.53 0 0 1-.866.075 2.053 2.053 0 0 1-.527-1.959c.075-.527.113-.829-.791-1.394a15.764 15.764 0 0 1-3.73-3.309 23.976 23.976 0 0 1-.64 2.448.583.583 0 0 1-.452.377 2.223 2.223 0 0 0-1.846 2.185A2.164 2.164 0 0 0 11 13.624a.57.57 0 0 1 .075.64.588.588 0 0 1-.565.3 1.815 1.815 0 0 0-.452 0 .6.6 0 0 1-.527-.3 2.157 2.157 0 0 0-1.921-1.13 2.226 2.226 0 0 0-2.222 2.222 2 2 0 0 0 .264 1.055.65.65 0 0 1-.038.64.536.536 0 0 1-.6.188c-.3-.075-.6-.188-.829-.264a14.163 14.163 0 0 1 .829 4.181c0 .9.226.979.678 1.168a2.078 2.078 0 0 1 1.428 2.185 1.887 1.887 0 0 0 1.092 1.77 4.369 4.369 0 0 1 2 2.486 1.66 1.66 0 0 0 .866 1.055 4.053 4.053 0 0 0 2.75-.188c.034-.076.109-.076.185-.076zm5.838-.452l.113.49.377-.979a5.882 5.882 0 0 1-.49.485zm-8.362-9.266h-.075a.584.584 0 0 1-.188-1.092l.264.49-.264-.49a.63.63 0 0 1 .452-.038.535.535 0 0 1 .339.3l-.49.226.49-.226v.038a.516.516 0 0 1-.075.565.493.493 0 0 1-.453.228z" transform="translate(-2.6 -5.3)"/>
        </g>
    </g>
    <g id="Group_620" transform="translate(.565 .527)">
        <g id="Group_536" transform="translate(6.742 3.578)">
            <g id="Group_535">
                <g id="Group_534">
                    <circle id="Ellipse_46" cx="2.787" cy="2.787" r="2.787" class="cls-2"/>
                </g>
            </g>
        </g>
        <g id="Group_538" transform="translate(7.259 3.781)">
            <g id="Group_537">
                <ellipse id="Ellipse_47" cx=".942" cy=".414" class="cls-3" rx=".942" ry=".414" transform="rotate(-41.282 1.65 .622)"/>
            </g>
        </g>
        <g id="Group_541" transform="translate(1.657 6.742)">
            <g id="Group_540">
                <g id="Group_539">
                    <circle id="Ellipse_48" cx="2.787" cy="2.787" r="2.787" class="cls-2"/>
                </g>
            </g>
        </g>
        <g id="Group_544" transform="translate(4.294 8.173)">
            <g id="Group_543">
                <g id="Group_542">
                    <circle id="Ellipse_49" cx="2.787" cy="2.787" r="2.787" class="cls-3"/>
                </g>
            </g>
        </g>
        <g id="Group_547" transform="translate(15.255 6.365)">
            <g id="Group_546">
                <g id="Group_545">
                    <circle id="Ellipse_50" cx="2.787" cy="2.787" r="2.787" class="cls-3"/>
                </g>
            </g>
        </g>
        <g id="Group_569" transform="translate(7.69)">
            <g id="Group_550">
                <g id="Group_549">
                    <g id="Group_548">
                        <path id="Path_155" fill="#30aa75" d="M26.695 6.7a16.933 16.933 0 0 1-1.77 5.8c-1.431 2.486 1.469 1.921.113 4.52-1.394 2.6 1.168 2.976.49 6.139s3.616 3.729 3.616 3.729a3.753 3.753 0 0 0 3.126 2.976l.716-.188A3.724 3.724 0 0 0 34.3 25.57s3.465-2.561 1.356-5.009-.075-4.03-2.524-5.612.377-2.486-2.072-3.993A17.517 17.517 0 0 1 26.695 6.7" transform="translate(-24.516 -6.7)"/>
                    </g>
                </g>
            </g>
            <g id="Group_553" transform="translate(2.169 .744)">
                <g id="Group_552">
                    <g id="Group_551">
                        <path id="Path_156" d="M36.875 33.505a.192.192 0 0 1-.188-.151L30.284 8.91c-.038-.113.038-.188.151-.226s.188.038.226.151l6.4 24.445c.038.113-.038.188-.151.226z" class="cls-5" transform="translate(-30.274 -8.674)"/>
                    </g>
                </g>
            </g>
            <g id="Group_556" transform="translate(3.704 4.388)">
                <g id="Group_555">
                    <g id="Group_554">
                        <path id="Path_157" d="M34.519 20.892a.138.138 0 0 1-.113-.038c-.075-.075-.075-.188 0-.226l2.26-2.222a.141.141 0 0 1 .226 0c.075.075.075.188 0 .226l-2.26 2.222c-.037.001-.075.038-.113.038z" class="cls-5" transform="translate(-34.35 -18.35)"/>
                    </g>
                </g>
            </g>
            <g id="Group_559" transform="translate(4.793 7.782)">
                <g id="Group_558">
                    <g id="Group_557">
                        <path id="Path_158" d="M37.413 30.125a.2.2 0 0 1-.151-.075.2.2 0 0 1 .075-.264 7.031 7.031 0 0 0 2.6-2.335.194.194 0 0 1 .339.188 7.415 7.415 0 0 1-2.712 2.486z" class="cls-5" transform="translate(-37.24 -27.361)"/>
                    </g>
                </g>
            </g>
            <g id="Group_562" transform="translate(5.81 10.117)">
                <g id="Group_561">
                    <g id="Group_560">
                        <path id="Path_159" d="M40.113 37.38a.2.2 0 0 1-.151-.075.2.2 0 0 1 .075-.264 8.706 8.706 0 0 0 3.729-3.39.194.194 0 0 1 .339.188 9.2 9.2 0 0 1-3.88 3.541z" class="cls-5" transform="translate(-39.94 -33.561)"/>
                    </g>
                </g>
            </g>
            <g id="Group_565" transform="translate(6.538 14.46)">
                <g id="Group_564">
                    <g id="Group_563">
                        <path id="Path_160" d="M42.072 48.371a.25.25 0 0 1-.188-.151c-.038-.113.038-.188.151-.226a6.645 6.645 0 0 0 4.181-2.825.188.188 0 1 1 .3.226 6.931 6.931 0 0 1-4.445 2.976z" class="cls-5" transform="translate(-41.874 -45.091)"/>
                    </g>
                </g>
            </g>
            <g id="Group_568" transform="translate(7.286 18.634)">
                <g id="Group_567">
                    <g id="Group_566">
                        <path id="Path_161" d="M44.064 58.255a.207.207 0 0 1-.188-.113.233.233 0 0 1 .075-.264l.791-.377c.49-.264 1.055-.64 1.168-1.168a.192.192 0 0 1 .377.075 2.143 2.143 0 0 1-1.356 1.431l-.791.377c-.001.039-.04.039-.076.039z" class="cls-5" transform="translate(-43.861 -56.174)"/>
                    </g>
                </g>
            </g>
        </g>
        <g id="Group_591" transform="translate(15.656 2.448)">
            <g id="Group_572">
                <g id="Group_571">
                    <g id="Group_570">
                        <path id="Path_162" d="M55.51 13.2a14.848 14.848 0 0 1-4.181 3.277c-2.3 1.092.113 2.147-2.185 3.315s-.64 2.712-2.712 4.67.716 4.482.716 4.482a3.289 3.289 0 0 0 .791 3.729l.6.226a3.293 3.293 0 0 0 3.013-2.3s3.8-.113 3.5-2.938 1.959-2.938 1.017-5.311c-.979-2.373 1.544-1.62.49-3.917A14.569 14.569 0 0 1 55.51 13.2" class="cls-6" transform="translate(-45.667 -13.2)"/>
                    </g>
                </g>
            </g>
            <g id="Group_575" transform="translate(1.241 .932)">
                <g id="Group_574">
                    <g id="Group_573">
                        <path id="Path_163" d="M49.165 37.6h-.075a.168.168 0 0 1-.113-.226l8.1-21.582c.038-.075.151-.151.226-.113a.168.168 0 0 1 .113.226l-8.1 21.545a.162.162 0 0 1-.151.15z" class="cls-5" transform="translate(-48.962 -15.673)"/>
                    </g>
                </g>
            </g>
            <g id="Group_578" transform="translate(7.772 5.047)">
                <g id="Group_577">
                    <g id="Group_576">
                        <path id="Path_164" d="M69.05 26.6l-2.674.452a1.114 1.114 0 0 1-.075.377l2.787-.452c.075 0 .151-.113.151-.226-.001-.076-.114-.151-.189-.151z" class="cls-5" transform="translate(-66.3 -26.6)"/>
                    </g>
                </g>
            </g>
            <g id="Group_581" transform="translate(6.491 8.272)">
                <g id="Group_580">
                    <g id="Group_579">
                        <path id="Path_165" d="M63.955 35.967a6.384 6.384 0 0 1-.866-.038.188.188 0 1 1 0-.377 6.3 6.3 0 0 0 3.013-.377.194.194 0 1 1 .188.339 5.073 5.073 0 0 1-2.335.453z" class="cls-5" transform="translate(-62.9 -35.161)"/>
                    </g>
                </g>
            </g>
            <g id="Group_584" transform="translate(5.474 11.021)">
                <g id="Group_583">
                    <g id="Group_582">
                        <path id="Path_166" d="M61.857 43.493c-.49 0-.979-.038-1.469-.075a.188.188 0 1 1 0-.377 7.689 7.689 0 0 0 4.369-.565.194.194 0 0 1 .188.339 6.138 6.138 0 0 1-3.088.678z" class="cls-5" transform="translate(-60.2 -42.461)"/>
                    </g>
                </g>
            </g>
            <g id="Group_587" transform="translate(4.104 14.713)">
                <g id="Group_586">
                    <g id="Group_585">
                        <path id="Path_167" d="M59.138 53.143a6.178 6.178 0 0 1-2.448-.49.2.2 0 1 1 .151-.377 5.6 5.6 0 0 0 4.407.075c.113-.038.188 0 .264.113s0 .188-.113.264a6.662 6.662 0 0 1-2.261.415z" class="cls-5" transform="translate(-56.562 -52.262)"/>
                    </g>
                </g>
            </g>
            <g id="Group_590" transform="translate(3.167 17.081)">
                <g id="Group_589">
                    <g id="Group_588">
                        <path id="Path_168" d="M55.553 59.284a2.851 2.851 0 0 1-.565-.038l-.753-.151a.192.192 0 1 1 .075-.377l.753.151a1.756 1.756 0 0 0 1.394-.264.186.186 0 0 1 .264.264 1.452 1.452 0 0 1-1.168.415z" class="cls-5" transform="translate(-54.074 -58.55)"/>
                    </g>
                </g>
            </g>
        </g>
        <g id="Group_613" transform="translate(0 10.17)">
            <g id="Group_594">
                <g id="Group_593">
                    <g id="Group_592">
                        <path id="Path_169" d="M17.057 40.141c-2.674-.9-1.846-3.013-4.407-3.126s-.829-2.072-3.352-2.072A15.365 15.365 0 0 1 4.1 33.7l.188.188a.037.037 0 0 0 .038.038L4.1 33.7a15.365 15.365 0 0 1 1.243 5.2c.038 2.524 2 .791 2.109 3.352s2.222 1.695 3.126 4.407c.9 2.674 4.407 1.205 4.407 1.205a3.274 3.274 0 0 0 3.691.829l.452-.452a3.274 3.274 0 0 0-.829-3.691c-.037-.04 1.432-3.543-1.242-4.409z" class="cls-6" transform="translate(-4.1 -33.7)"/>
                    </g>
                </g>
            </g>
            <g id="Group_597" transform="translate(.395 .395)">
                <g id="Group_596">
                    <g id="Group_595">
                        <path id="Path_170" d="M20.009 49.76a.138.138 0 0 1-.113-.038L5.206 35.07a.186.186 0 0 1 .264-.264l14.69 14.652a.182.182 0 0 1 0 .264c-.038 0-.113.038-.151.038z" class="cls-5" transform="translate(-5.15 -34.75)"/>
                    </g>
                </g>
            </g>
            <g id="Group_600" transform="translate(4.167 1.271)">
                <g id="Group_599">
                    <g id="Group_598">
                        <path id="Path_171" d="M15.327 40.285h-.037a.158.158 0 0 1-.113-.226l.866-2.863c.038-.075.151-.151.226-.113a.158.158 0 0 1 .113.226l-.9 2.825a.162.162 0 0 1-.155.151z" class="cls-5" transform="translate(-15.162 -37.073)"/>
                    </g>
                </g>
            </g>
            <g id="Group_603" transform="translate(6.577 3.352)">
                <g id="Group_602">
                    <g id="Group_601">
                        <path id="Path_172" d="M21.726 45.99c-.038 0-.075 0-.075-.038a.216.216 0 0 1-.075-.264 6.1 6.1 0 0 0 .9-2.9.188.188 0 0 1 .377 0 6.472 6.472 0 0 1-.942 3.089.207.207 0 0 1-.185.113z" class="cls-5" transform="translate(-21.561 -42.6)"/>
                    </g>
                </g>
            </g>
            <g id="Group_606" transform="translate(8.837 4.143)">
                <g id="Group_605">
                    <g id="Group_604">
                        <path id="Path_173" d="M27.726 49.408c-.038 0-.075 0-.075-.038a.216.216 0 0 1-.075-.264 7.984 7.984 0 0 0 1.318-4.219.188.188 0 0 1 .377 0 8.231 8.231 0 0 1-1.356 4.413c-.076.07-.115.108-.189.108z" class="cls-5" transform="translate(-27.561 -44.7)"/>
                    </g>
                </g>
            </g>
            <g id="Group_609" transform="translate(11.055 6.893)">
                <g id="Group_608">
                    <g id="Group_607">
                        <path id="Path_174" d="M33.657 56.52a.286.286 0 0 1-.151-.075.182.182 0 0 1 0-.264 5.583 5.583 0 0 0 1.883-3.993.188.188 0 0 1 .377 0 6.182 6.182 0 0 1-2.034 4.256.081.081 0 0 1-.075.076z" class="cls-5" transform="translate(-33.45 -52)"/>
                    </g>
                </g>
            </g>
            <g id="Group_612" transform="translate(12.991 10.758)">
                <g id="Group_611">
                    <g id="Group_610">
                        <path id="Path_175" d="M38.783 64.838a.138.138 0 0 1-.113-.038.186.186 0 0 1-.038-.264l.452-.64a1.612 1.612 0 0 0 .339-1.394.179.179 0 1 1 .339-.113 2.072 2.072 0 0 1-.377 1.733l-.452.64a.2.2 0 0 1-.15.076z" class="cls-5" transform="translate(-38.591 -62.263)"/>
                    </g>
                </g>
            </g>
        </g>
        <g id="Group_615" transform="translate(2.06 6.987)">
            <g id="Group_614">
                <ellipse id="Ellipse_51" cx=".942" cy=".414" class="cls-3" rx=".942" ry=".414" transform="rotate(-41.282 1.65 .622)"/>
            </g>
        </g>
        <g id="Group_617" transform="translate(5.159 8.597)">
            <g id="Group_616">
                <ellipse id="Ellipse_52" cx=".942" cy=".414" class="cls-7" rx=".942" ry=".414" transform="rotate(-41.282 1.65 .622)"/>
            </g>
        </g>
        <g id="Group_619" transform="translate(17.572 6.595)">
            <g id="Group_618">
                <ellipse id="Ellipse_53" cx=".414" cy=".942" class="cls-7" rx=".414" ry=".942" transform="rotate(-76 .515 .402)"/>
            </g>
        </g>
    </g>
</svg>
