<svg xmlns="http://www.w3.org/2000/svg" id="Emojis_facilitator-80" width="30.134" height="26.742" viewBox="0 0 30.134 26.742">
    <defs>
        <style>
            .cls-1{fill:#54381f}.cls-3{fill:#a88057}.cls-5{fill:#fcd2ae}.cls-6{fill:#846244}
        </style>
    </defs>
    <g id="Group_905">
        <g id="Group_898">
            <g id="Group_897">
                <path id="Path_278" d="M26.33 38.742a5.852 5.852 0 0 1-4.952-2.724l-.083.743a1.435 1.435 0 0 1-1.444 1.279H9.822a1.471 1.471 0 0 1-1.444-1.32L6.644 19.14h-.412A1.022 1.022 0 0 1 5.2 18.108v-1.486a1.022 1.022 0 0 1 1.032-1.032H7.3l.743-2.806A1.053 1.053 0 0 1 9.038 12H20.8a1.016 1.016 0 0 1 .99.743l.867 2.848h.949a1.022 1.022 0 0 1 1.032 1.032v1.486a1.022 1.022 0 0 1-1.032 1.032h-.413l-.33 3.054-.041.7-.248 2.27h9.616v.99a3.12 3.12 0 0 1 1.857.289 2.679 2.679 0 0 1 1.238 2.93c-.33 1.981-1.857 3.59-3.219 4.787a5.873 5.873 0 0 1-5.736 4.581zm-5.86-5.819l1.238.041a4.224 4.224 0 0 0 .536 2.022 4.639 4.639 0 0 0 8.667-1.321l.041-.206.041-.041V26.4h-9.781l.33-3.013.041-.619.536-4.87h1.321v-1.111h-1.65L20.676 13.2H9.2l-.949 3.59H6.438v1.11h1.321l1.857 18.779a.2.2 0 0 0 .206.206h10.029a.189.189 0 0 0 .206-.165zm11.761-4.663v2.848a4.527 4.527 0 0 0 1.069-2.064c.083-.413 0-.7-.165-.784a1.151 1.151 0 0 0-.904 0z" class="cls-1" transform="translate(-5.2 -12)"/>
            </g>
        </g>
        <g id="Group_900" transform="translate(19.991 5.602)">
            <g id="Group_899">
                <path id="Path_279" d="M55.564 33.921H55.4a2.112 2.112 0 0 1-1.57-1.321 2.26 2.26 0 0 1 .124-2.063 2.189 2.189 0 0 1 .371-.454c.041-.041.083-.124.165-.165a1.5 1.5 0 0 0 0-1.651 1.794 1.794 0 0 1-.165-.289 3.168 3.168 0 0 1-.578-1.362.889.889 0 0 1 .206-.7.784.784 0 0 1 .619-.33.889.889 0 0 1 .7.206.784.784 0 0 1 .33.619 1.856 1.856 0 0 0 .289.578l.248.371a3.438 3.438 0 0 1-.165 3.714 1.8 1.8 0 0 0-.248.289c-.083.083-.165.165-.165.206-.041.041-.041.165 0 .33a.7.7 0 0 0 .248.248.853.853 0 0 1 .578.413.844.844 0 0 1 .124.7 1 1 0 0 1-.947.661zm.041-1.238z" class="cls-1" transform="translate(-53.641 -25.575)"/>
            </g>
        </g>
        <g id="Group_902" transform="translate(22.775 8.52)">
            <g id="Group_901">
                <path id="Path_280" d="M61.919 38.321a1.446 1.446 0 0 1-1.156-.578 1.91 1.91 0 0 1-.33-1.568 3.031 3.031 0 0 1 .537-1.032c.083-.083.124-.206.206-.289a1.428 1.428 0 0 0 .165-1.073.844.844 0 0 1 .124-.7.853.853 0 0 1 .578-.413.844.844 0 0 1 .7.124.955.955 0 0 1 .413.578 3.312 3.312 0 0 1-.33 2.435 2.775 2.775 0 0 1-.289.454 1.673 1.673 0 0 0-.206.371.861.861 0 0 1 .536.825.937.937 0 0 1-.248.66 1.753 1.753 0 0 1-.7.206z" class="cls-1" transform="translate(-60.386 -32.644)"/>
            </g>
        </g>
        <g id="Group_904" transform="translate(16.997 9.559)">
            <g id="Group_903">
                <path id="Path_281" d="M47.836 39.718a1.2 1.2 0 0 1-.949-.413 1.659 1.659 0 0 1-.5-1.362 2.52 2.52 0 0 1 .413-1.114c.041-.083.083-.124.083-.165.041-.083.083-.124.083-.165a.81.81 0 0 1-.041-.619.853.853 0 0 1 .413-.578 1.028 1.028 0 0 1 .7-.124.853.853 0 0 1 .578.413 1.932 1.932 0 0 1-.083 1.94l-.124.248a.9.9 0 0 0-.124.206.981.981 0 0 1 .5.7.9.9 0 0 1-.785 1.033zm.083-.619zm.165-3.178z" class="cls-1" transform="translate(-46.385 -35.162)"/>
            </g>
        </g>
    </g>
    <g id="Group_951" transform="translate(.619 .619)">
        <g id="Group_925">
            <g id="Group_908" transform="translate(1.362 5.901)">
                <g id="Group_907">
                    <g id="Group_906">
                        <path id="Path_282" fill="#f9ecc7" d="M22.711 46.742h-10.07a.844.844 0 0 1-.825-.742L10 27.8h15.476L23.5 46a.8.8 0 0 1-.789.742z" transform="translate(-10 -27.8)"/>
                    </g>
                </g>
            </g>
            <g id="Group_911" transform="translate(0 3.59)">
                <g id="Group_910">
                    <g id="Group_909">
                        <path id="Path_283" d="M24.487 24.511H7.113A.414.414 0 0 1 6.7 24.1v-1.487a.414.414 0 0 1 .413-.413h17.374a.414.414 0 0 1 .413.413V24.1a.414.414 0 0 1-.413.411z" class="cls-3" transform="translate(-6.7 -22.2)"/>
                    </g>
                </g>
            </g>
            <g id="Group_914" transform="translate(1.981)">
                <g id="Group_913">
                    <g id="Group_912">
                        <path id="Path_284" fill="#dbbb91" d="M11.5 17.049l.867-3.26a.41.41 0 0 1 .413-.289H24.5a.5.5 0 0 1 .413.289l.99 3.26" transform="translate(-11.5 -13.5)"/>
                    </g>
                </g>
            </g>
            <g id="Group_917" transform="translate(1.816 10.193)">
                <g id="Group_916">
                    <g id="Group_915">
                        <path id="Path_285" d="M24.925 44.886H11.76L11.1 38.2h14.568z" class="cls-3" transform="translate(-11.1 -38.2)"/>
                    </g>
                </g>
            </g>
            <g id="Group_924" transform="translate(7.466 10.922)">
                <g id="Group_920">
                    <g id="Group_919">
                        <g id="Group_918">
                            <path id="Path_286" d="M28.055 42.827c-.413 1.279-1.4 2.146-2.27 1.857-.867-.248-1.238-1.527-.825-2.806s1.4-2.146 2.27-1.857a1.257 1.257 0 0 1 .536.371 2.674 2.674 0 0 1 .289 2.435z" class="cls-5" transform="translate(-24.791 -39.965)"/>
                        </g>
                    </g>
                </g>
                <g id="Group_923" transform="translate(.292 .303)">
                    <g id="Group_922">
                        <g id="Group_921">
                            <path id="Path_287" d="M25.541 45.075l-.041-.413c.041 0 .908-.083 1.073-1.4a3.751 3.751 0 0 1 1.981-2.562l.206.371a3.567 3.567 0 0 0-1.774 2.229c-.207 1.692-1.445 1.775-1.445 1.775z" class="cls-3" transform="translate(-25.5 -40.7)"/>
                        </g>
                    </g>
                </g>
            </g>
        </g>
        <g id="Group_950" transform="translate(15.228 5.605)">
            <g id="Group_932" transform="translate(0 7.56)">
                <g id="Group_928" transform="translate(9.327 .955)">
                    <g id="Group_927">
                        <g id="Group_926">
                            <path id="Path_288" d="M66.778 55.261l-.536-.619c1.238-1.032 3.136-2.6 3.425-4.5a1.335 1.335 0 0 0-.5-1.444 2.249 2.249 0 0 0-2.394.536l-.578-.619a3.139 3.139 0 0 1 3.343-.66 2.028 2.028 0 0 1 .908 2.311c-.284 2.189-2.306 3.881-3.668 4.995z" class="cls-6" transform="translate(-66.2 -47.715)"/>
                        </g>
                    </g>
                </g>
                <g id="Group_931">
                    <g id="Group_930">
                        <g id="Group_929">
                            <path id="Path_289" d="M48.882 57.739a5.287 5.287 0 0 1-4.663-2.806A5.461 5.461 0 0 1 43.6 52.5v-7.1h10.524v7.1a5.2 5.2 0 0 1-5.242 5.239z" class="cls-6" transform="translate(-43.6 -45.4)"/>
                        </g>
                    </g>
                </g>
            </g>
            <g id="Group_942" transform="translate(1.767)">
                <g id="Group_935" transform="translate(2.999)">
                    <g id="Group_934">
                        <g id="Group_933">
                            <path id="Path_290" d="M56.448 34.187h-.041a1.517 1.517 0 0 1-1.114-.949 1.571 1.571 0 0 1 .083-1.486 1.424 1.424 0 0 1 .33-.371c.041-.083.124-.124.165-.206a2.278 2.278 0 0 0 .083-2.352 1.448 1.448 0 0 0-.206-.33 2.491 2.491 0 0 1-.454-1.073.31.31 0 1 1 .619-.041 2.436 2.436 0 0 0 .371.825 1.673 1.673 0 0 1 .206.371 2.82 2.82 0 0 1-.124 3.013c-.083.083-.124.165-.206.248s-.165.206-.248.289a.994.994 0 0 0-.041.908.984.984 0 0 0 .66.619.321.321 0 0 1 .248.371.509.509 0 0 1-.331.164z" class="cls-3" transform="translate(-55.147 -27.081)"/>
                        </g>
                    </g>
                </g>
                <g id="Group_938" transform="translate(5.795 2.886)">
                    <g id="Group_937">
                        <g id="Group_936">
                            <path id="Path_291" d="M62.822 38.542a.862.862 0 0 1-.66-.33 1.321 1.321 0 0 1-.206-1.032 3.475 3.475 0 0 1 .454-.867 3.807 3.807 0 0 0 .206-.33 2.188 2.188 0 0 0 .206-1.527.3.3 0 0 1 .578-.165 2.563 2.563 0 0 1-.289 1.981 3.629 3.629 0 0 0-.248.413 2.669 2.669 0 0 0-.371.66.675.675 0 0 0 .083.5.256.256 0 0 0 .165.083.35.35 0 0 1 .33.289c.083.165-.083.33-.248.33z" class="cls-3" transform="translate(-61.923 -34.075)"/>
                        </g>
                    </g>
                </g>
                <g id="Group_941" transform="translate(0 4.011)">
                    <g id="Group_940">
                        <g id="Group_939">
                            <path id="Path_292" d="M48.714 40.06a.869.869 0 0 1-.536-.206 1.026 1.026 0 0 1-.289-.825 2.708 2.708 0 0 1 .33-.867c.041-.083.083-.124.124-.206.083-.124.248-.5.124-.7a.3.3 0 1 1 .533-.291 1.387 1.387 0 0 1-.083 1.321.9.9 0 0 1-.124.206 1.307 1.307 0 0 0-.248.619.469.469 0 0 0 .124.33.152.152 0 0 0 .124.041c.165 0 .33.083.33.248a.264.264 0 0 1-.248.33z" class="cls-3" transform="translate(-47.881 -36.8)"/>
                        </g>
                    </g>
                </g>
            </g>
            <g id="Group_949" transform="translate(3.587 10.6)">
                <g id="Group_945">
                    <g id="Group_944">
                        <g id="Group_943">
                            <path id="Path_293" d="M55.555 55.627c-.413 1.279-1.4 2.146-2.27 1.857-.867-.248-1.238-1.527-.825-2.806s1.4-2.146 2.27-1.857a1.257 1.257 0 0 1 .536.371 2.674 2.674 0 0 1 .289 2.435z" class="cls-5" transform="translate(-52.291 -52.765)"/>
                        </g>
                    </g>
                </g>
                <g id="Group_948" transform="translate(.251 .303)">
                    <g id="Group_947">
                        <g id="Group_946">
                            <path id="Path_294" d="M52.941 57.874l-.041-.413c.041 0 .908-.083 1.073-1.4a3.751 3.751 0 0 1 1.981-2.561l.206.371a3.567 3.567 0 0 0-1.774 2.229c-.165 1.692-1.403 1.774-1.445 1.774z" class="cls-6" transform="translate(-52.9 -53.5)"/>
                        </g>
                    </g>
                </g>
            </g>
        </g>
    </g>
</svg>
