<svg xmlns="http://www.w3.org/2000/svg" id="Emojis_coffee_cup" width="41.464" height="26.742" viewBox="0 0 41.464 26.742">
    <defs>
        <style>
            .cls-2{fill:#a88057}.cls-6{fill:#bc8858}
        </style>
    </defs>
    <g id="Group_510">
        <g id="Group_509">
            <path id="Path_148" fill="#54381f" d="M23.132 47.542c-7.609 0-14.06-.937-16.542-2.371a3.437 3.437 0 0 1-.662-.5l-2.04-1.489A2.359 2.359 0 0 1 2.4 41.2c0-1.764 2.922-3.088 8.712-3.915a12.569 12.569 0 0 1-1.6-6.176v-8.931a1.365 1.365 0 0 1 1.379-1.378h22.938a1.365 1.365 0 0 1 1.378 1.378v.276a5.522 5.522 0 0 1 4.742 5.459 5.461 5.461 0 0 1-4.963 5.459 13.443 13.443 0 0 1-1.268 3.8c6.727.827 10.146 2.206 10.146 4.135a1.792 1.792 0 0 1-.386 1.1 5.068 5.068 0 0 1-1.268.992l-1.82 1.323c-2.09 1.938-10.145 2.82-17.258 2.82zM4.881 41.918l2.04 1.489c.055 0 .055.055.11.055a1.372 1.372 0 0 0 .386.276c2.15 1.268 8.6 2.15 15.715 2.15 8.6 0 14.943-1.213 16.1-2.426l.11-.11 1.93-1.434c.055 0 .055-.055.11-.055.5-.276.717-.441.772-.551l.055-.055c-.165-.5-2.757-1.82-9.87-2.536a.868.868 0 0 1-.607-1.323 11.294 11.294 0 0 0 1.82-4.907.82.82 0 0 1 .717-.717.884.884 0 0 1-.605-.774v-6.12a.878.878 0 0 1 .662-.827.905.905 0 0 1-.662-.827v-.772H11.222v8.767a10.936 10.936 0 0 0 1.985 6.341.868.868 0 0 1-.607 1.323c-6.617.772-8.436 2.04-8.547 2.426s.11.221.717.551a.193.193 0 0 1 .111.056zm37.936-.055zm-7.609-16.045v4.191a2.34 2.34 0 0 0 1.489-2.1 2.258 2.258 0 0 0-1.489-2.091z" transform="translate(-2.4 -20.8)"/>
        </g>
    </g>
    <g id="Group_531" transform="translate(.827 .827)">
        <g id="Group_513" transform="translate(26.577 1.599)">
            <g id="Group_512">
                <g id="Group_511">
                    <path id="Path_149" d="M56.787 34.574a4.687 4.687 0 1 1 4.687-4.687 4.683 4.683 0 0 1-4.687 4.687zm0-7.719a3.088 3.088 0 1 0 3.088 3.088 3.155 3.155 0 0 0-3.088-3.089z" class="cls-2" transform="translate(-52.1 -25.2)"/>
                </g>
            </g>
        </g>
        <g id="Group_515" transform="translate(2.922 18.582)">
            <g id="Group_514">
                <ellipse id="Ellipse_43" cx="16.983" cy="3.253" class="cls-2" rx="16.983" ry="3.253"/>
            </g>
        </g>
        <g id="Group_517" transform="translate(1.158 20.236)">
            <g id="Group_516">
                <path id="Path_150" d="M6 59.717l2.647 1.93 32.808-.441L44.432 59H6.5z" class="cls-2" transform="translate(-6 -59)"/>
            </g>
        </g>
        <g id="Group_519" transform="translate(0 15.825)">
            <g id="Group_518">
                <ellipse id="Ellipse_44" cx="19.905" cy="3.86" fill="#dbbb91" rx="19.905" ry="3.86"/>
            </g>
        </g>
        <g id="Group_521" opacity="0.35" transform="translate(3.915 17.369)">
            <g id="Group_520">
                <ellipse id="Ellipse_45" cx="15.715" cy="2.316" fill="#f9ecc7" rx="15.715" ry="2.316"/>
            </g>
        </g>
        <g id="Group_523" transform="translate(7.168)">
            <g id="Group_522">
                <path id="Path_151" d="M28.92 43.914a12.048 12.048 0 0 1-12.02-12.02v-9.043a.521.521 0 0 1 .551-.551h22.938a.521.521 0 0 1 .551.551v9.043a12.048 12.048 0 0 1-12.02 12.02z" class="cls-6" transform="translate(-16.9 -22.3)"/>
            </g>
        </g>
        <g id="Group_530" transform="translate(15.35 3.816)">
            <g id="Group_526">
                <g id="Group_525">
                    <g id="Group_524">
                        <path id="Path_152" fill="#fcd2ae" d="M38.831 35.5c-.882 2.812-3.088 4.632-4.963 4.08s-2.646-3.368-1.768-6.18 3.088-4.632 4.963-4.08a2.986 2.986 0 0 1 1.213.827c.941 1.103 1.216 3.198.555 5.353z" transform="translate(-31.74 -29.221)"/>
                    </g>
                </g>
            </g>
            <g id="Group_529" transform="translate(.585 .65)">
                <g id="Group_528">
                    <g id="Group_527">
                        <path id="Path_153" d="M32.855 39.939l-.055-.882c.055 0 1.985-.165 2.316-3.033.386-3.529 4.191-5.514 4.3-5.624l.441.827c-.055 0-3.529 1.875-3.86 4.907-.385 3.64-3.087 3.805-3.142 3.805z" class="cls-6" transform="translate(-32.8 -30.4)"/>
                    </g>
                </g>
            </g>
        </g>
    </g>
</svg>
