<svg xmlns="http://www.w3.org/2000/svg" id="Emojis_Sack_with_coffee_icon" width="21.805" height="26.742" viewBox="0 0 21.805 26.742">
    <defs>
        <style>
            .cls-2{fill:#9b714b}.cls-3{fill:#7a563b}.cls-5{fill:#a88057}.cls-8{fill:#fcd2ae}
        </style>
    </defs>
    <g id="Group_40">
        <g id="Group_39">
            <path id="Path_7" fill="#54381f" d="M20.916 32.6c-7.128 0-7.848-.948-8.113-1.289a.8.8 0 0 1-.152-.682.287.287 0 0 1 .076-.152L13.675 29c-1.516-5.194-.038-10.8.417-12.321a2.482 2.482 0 0 1-1.062-2.616l.986-3.071a2.255 2.255 0 0 1-.038-2.085 1.92 1.92 0 0 1 .8-.758L15 8.038a3.55 3.55 0 0 1 1.592-.19 1.825 1.825 0 0 1 .758-1.441 2.04 2.04 0 0 1 .948-.341h.227A3.311 3.311 0 0 1 20.8 7.317a3.179 3.179 0 0 1 3.715-.493 1.484 1.484 0 0 1 .379.3 4.968 4.968 0 0 1 1.9-1.137 2.422 2.422 0 0 1 2.351.417 1.952 1.952 0 0 1 .607.948 2.889 2.889 0 0 1 3.26.607 1.918 1.918 0 0 1 .453 1.141v.265a3.033 3.033 0 0 1-.379 1.441l.872 3.45c.076.265.265 1.4-1.213 2.426 1.744 4.474.8 11.032.493 12.587 1.062.91 1.4 1.63 1.062 2.2-.455.645-.645.91-11.374 1.137zm-7.052-1.858c.531.265 2.388.834 8.985.72 4.891-.114 9.44-.227 10.312-.569a5.525 5.525 0 0 0-.948-.948.594.594 0 0 1-.19-.569c0-.076 1.516-8.037-.569-12.7 0-.038-.038-.076-.038-.114a.542.542 0 0 1 .265-.645c1.251-.72 1.1-1.365 1.1-1.4l-.91-3.677a.753.753 0 0 1 .038-.417 2.173 2.173 0 0 0 .341-1.1v-.148a1.107 1.107 0 0 0-.19-.531c-.417-.569-1.479-.531-2.54 0a.739.739 0 0 1-.569 0 .592.592 0 0 1-.265-.493.562.562 0 0 0-.038-.265c0-.038-.038-.114-.038-.152a1.089 1.089 0 0 0-.3-.493 1.352 1.352 0 0 0-1.29-.151 3.965 3.965 0 0 0-1.744 1.175l-.038.038-.076.076a.528.528 0 0 1-.531.19.6.6 0 0 1-.455-.341 1.528 1.528 0 0 0-.416-.528c-.682-.455-1.82-.152-2.768.8a.521.521 0 0 1-.455.152.721.721 0 0 1-.417-.265l-.038-.087c0-.038-.038-.038-.038-.076a2.428 2.428 0 0 0-1.668-1.1h-.114a.463.463 0 0 0-.341.114 1.08 1.08 0 0 0-.265 1.137.589.589 0 0 1-.19.531.469.469 0 0 1-.531.114 2.555 2.555 0 0 0-1.592-.038c-.038 0-.076.038-.114.038a.744.744 0 0 0-.341.341 1.244 1.244 0 0 0 .152 1.175.488.488 0 0 1 .038.455l-1.062 3.3s-.19.834.986 1.592a.617.617 0 0 1 .227.645v.038c-.038.114-2.237 6.635-.455 12.284a.484.484 0 0 1-.076.455zm19.411.265z" transform="translate(-12.622 -5.863)"/>
        </g>
    </g>
    <g id="Group_94" transform="translate(.558 .543)">
        <g id="Group_88">
            <g id="Group_47" transform="translate(10.576)">
                <g id="Group_43">
                    <g id="Group_42">
                        <g id="Group_41">
                            <path id="Path_8" d="M47.453 8.662a4.614 4.614 0 0 0-3.223 2.123c-.758 1.327-1.554 1.554-2.009 1.554a3.378 3.378 0 0 1 .834-3.564c1.213-1.4 2.919-1.9 3.867-1.1a1.761 1.761 0 0 1 .493.758c0 .115.038.153.038.229z" class="cls-2" transform="translate(-41.99 -7.296)"/>
                        </g>
                    </g>
                </g>
                <g id="Group_46" transform="translate(.231 1.404)">
                    <g id="Group_45">
                        <g id="Group_44">
                            <path id="Path_9" d="M46.808 13.957c-1.213 1.4-2.919 1.9-3.867 1.1-.114-.114-.227-.265-.341-.379.417 0 1.213-.227 2.009-1.554A4.614 4.614 0 0 1 47.832 11a3.741 3.741 0 0 1-1.024 2.957z" class="cls-3" transform="translate(-42.6 -11)"/>
                        </g>
                    </g>
                </g>
            </g>
            <g id="Group_54" transform="translate(9.738 2.468)">
                <g id="Group_50" transform="translate(0 .036)">
                    <g id="Group_49">
                        <g id="Group_48">
                            <path id="Path_10" fill="#8e6447" d="M41.039 13.9a4.548 4.548 0 0 0 2.313 3.071c1.4.682 1.63 1.479 1.668 1.9a3.33 3.33 0 0 1-3.6-.607c-1.479-1.1-2.047-2.805-1.327-3.791a1.707 1.707 0 0 1 .72-.531.481.481 0 0 0 .226-.042z" transform="translate(-39.78 -13.9)"/>
                        </g>
                    </g>
                </g>
                <g id="Group_53" transform="translate(1.259)">
                    <g id="Group_52">
                        <g id="Group_51">
                            <path id="Path_11" d="M46.133 14.713c1.479 1.1 2.047 2.805 1.327 3.791a1.075 1.075 0 0 1-.379.341c-.038-.417-.3-1.213-1.668-1.9a4.625 4.625 0 0 1-2.313-3.066 3.731 3.731 0 0 1 3.033.834z" class="cls-5" transform="translate(-43.1 -13.805)"/>
                        </g>
                    </g>
                </g>
            </g>
            <g id="Group_61" transform="translate(3.876 .153)">
                <g id="Group_57">
                    <g id="Group_56">
                        <g id="Group_55">
                            <path id="Path_12" d="M25.675 7.738a3.536 3.536 0 0 0 1.025 2.805c.872.834.91 1.479.834 1.782a2.561 2.561 0 0 1-2.54-1.289c-.834-1.175-.91-2.54-.152-3.109a1.03 1.03 0 0 1 .645-.227.412.412 0 0 0 .188.038z" class="cls-2" transform="translate(-24.317 -7.7)"/>
                        </g>
                    </g>
                </g>
                <g id="Group_60" transform="translate(1.385 .076)">
                    <g id="Group_59">
                        <g id="Group_58">
                            <path id="Path_13" d="M30.029 9.189c.834 1.175.91 2.54.152 3.109a1.537 1.537 0 0 1-.341.19c.076-.3.038-.986-.834-1.782A3.536 3.536 0 0 1 27.982 7.9a2.77 2.77 0 0 1 2.047 1.289z" class="cls-3" transform="translate(-27.971 -7.9)"/>
                        </g>
                    </g>
                </g>
            </g>
            <g id="Group_68" transform="translate(13.746 1.275)">
                <g id="Group_64">
                    <g id="Group_63">
                        <g id="Group_62">
                            <path id="Path_14" d="M56.247 12.343a4.618 4.618 0 0 0-3.564 1.479c-1.024 1.175-1.82 1.213-2.237 1.137-.341-.986.265-2.351 1.516-3.336 1.441-1.137 3.223-1.289 3.981-.341a1.633 1.633 0 0 1 .341.834.481.481 0 0 0-.037.227z" class="cls-2" transform="translate(-50.352 -10.659)"/>
                        </g>
                    </g>
                </g>
                <g id="Group_67" transform="translate(.094 1.684)">
                    <g id="Group_66">
                        <g id="Group_65">
                            <path id="Path_15" d="M54.808 17.83c-1.441 1.137-3.223 1.289-3.981.341a1.281 1.281 0 0 1-.227-.455c.417.076 1.251.038 2.237-1.137A4.618 4.618 0 0 1 56.4 15.1a3.744 3.744 0 0 1-1.592 2.73z" class="cls-3" transform="translate(-50.6 -15.1)"/>
                        </g>
                    </g>
                </g>
            </g>
            <g id="Group_75" transform="translate(5.75 .564)">
                <g id="Group_71">
                    <g id="Group_70">
                        <g id="Group_69">
                            <path id="Path_16" fill="#a57853" d="M35.189 10.117a5.45 5.45 0 0 0-3.412 2.843c-.682 1.63-1.592 1.971-2.085 2.047-.72-.948-.531-2.692.493-4.17 1.175-1.744 3.109-2.54 4.246-1.744a1.679 1.679 0 0 1 .645.8z" transform="translate(-29.259 -8.784)"/>
                        </g>
                    </g>
                </g>
                <g id="Group_74" transform="translate(.47 1.333)">
                    <g id="Group_73">
                        <g id="Group_72">
                            <path id="Path_17" d="M35.163 15.864c-1.175 1.744-3.109 2.54-4.246 1.744a2.173 2.173 0 0 1-.417-.417c.493-.076 1.365-.417 2.085-2.047A5.241 5.241 0 0 1 36 12.3a4.537 4.537 0 0 1-.837 3.564z" class="cls-3" transform="translate(-30.5 -12.3)"/>
                        </g>
                    </g>
                </g>
            </g>
            <g id="Group_82" transform="translate(1.041 1.949)">
                <g id="Group_78" transform="translate(0 .176)">
                    <g id="Group_77">
                        <g id="Group_76">
                            <path id="Path_18" d="M17.773 12.9a4.159 4.159 0 0 0 2.427 2.426c1.289.417 1.63 1.1 1.706 1.441a2.975 2.975 0 0 1-3.26-.076c-1.441-.8-2.161-2.2-1.63-3.147a1.633 1.633 0 0 1 .569-.569c.074-.037.115-.075.188-.075z" class="cls-3" transform="translate(-16.84 -12.9)"/>
                        </g>
                    </g>
                </g>
                <g id="Group_81" transform="translate(.895)">
                    <g id="Group_80">
                        <g id="Group_79">
                            <path id="Path_19" d="M22.006 12.954c1.441.8 2.161 2.2 1.63 3.147a.9.9 0 0 1-.3.341c-.076-.379-.417-1.024-1.706-1.441a4.159 4.159 0 0 1-2.43-2.427 3.639 3.639 0 0 1 2.806.38z" class="cls-5" transform="translate(-19.2 -12.437)"/>
                        </g>
                    </g>
                </g>
            </g>
            <g id="Group_87" transform="translate(0 4.134)">
                <g id="Group_84" transform="translate(0 5.876)">
                    <g id="Group_83">
                        <path id="Path_20" d="M15.613 33.7s-2.313 6.71-.455 12.625L14.1 48.031s-.417 1.441 9.668 1.251c10.123-.227 10.615-.455 10.919-.91.3-.417-1.213-1.63-1.213-1.63s1.592-8.151-.607-13.042" class="cls-3" transform="translate(-14.094 -33.7)"/>
                    </g>
                </g>
                <g id="Group_86" transform="translate(.308)">
                    <g id="Group_85">
                        <path id="Path_21" d="M16 18.465l-1.059 3.375s-1.175 3.943 9.9 3.715 9.933-3.564 9.933-3.564l-.953-3.791A22.829 22.829 0 0 1 16 18.465z" class="cls-5" transform="translate(-14.905 -18.2)"/>
                    </g>
                </g>
            </g>
        </g>
        <g id="Group_93" opacity="0.33" transform="translate(7.12 13.572)">
            <g id="Group_90">
                <g id="Group_89">
                    <path id="Path_22" d="M34.893 47.455a5.391 5.391 0 0 1 2.54-3.6c-.038-.038-.038-.076-.076-.114a1.829 1.829 0 0 0-.834-.569c-1.289-.417-2.806.872-3.412 2.805a4.222 4.222 0 0 0 .3 3.526c.307-.038 1.289-.341 1.482-2.048z" class="cls-8" transform="translate(-32.874 -43.093)"/>
                </g>
            </g>
            <g id="Group_92" transform="translate(.996 1.33)">
                <g id="Group_91">
                    <path id="Path_23" d="M37.13 49.709a2.808 2.808 0 0 1-1.63 2.5 1.281 1.281 0 0 0 .455.227c1.289.417 2.806-.872 3.412-2.806a4.567 4.567 0 0 0-.038-3.033 4.669 4.669 0 0 0-2.199 3.112z" class="cls-8" transform="translate(-35.5 -46.6)"/>
                </g>
            </g>
        </g>
    </g>
</svg>
