<svg xmlns="http://www.w3.org/2000/svg" id="Emojis_estate_owner_copy_3" width="19.271" height="26.742" viewBox="0 0 19.271 26.742">
    <defs>
        <style>
            .cls-1{fill:#54381f}.cls-2{fill:#564a3e}.cls-5{fill:#d8369e}.cls-6{fill:#fcd2ae}.cls-8{opacity:.52}.cls-9{fill:#a88057}
        </style>
    </defs>
    <g id="Group_667">
        <g id="Group_666">
            <path id="Path_193" d="M31.982 27.972H13.72a.533.533 0 0 1-.52-.52v-5.268a6.551 6.551 0 0 1 5.475-6.446.649.649 0 0 1 .243-.208l1.213-.728c-4.644-2.7-3.223-9.322-3.05-10.084 0-.035.035-.069.035-.139a1.7 1.7 0 0 1 1.733-1.419c.832-.8 4.332-3.708 8.144-.347 4.782 4.228.97 10.119 0 11.47a15.277 15.277 0 0 0 1.49 1.351 3.009 3.009 0 0 1 .8.936 6.515 6.515 0 0 1 3.188 5.614v5.267a.482.482 0 0 1-.489.521zm-17.742-1.04h17.222v-4.748a5.493 5.493 0 0 0-2.806-4.784.4.4 0 0 1-.208-.208 2.372 2.372 0 0 0-.589-.728c-1.7-1.351-1.975-1.8-1.975-2.114v-.24l.035-.1a.423.423 0 0 1 .277-.312c.9-1.178 4.332-6.376.139-10.05-3.569-3.188-6.723.277-6.861.416a.532.532 0 0 1-.45.173c-.416-.035-.728.035-.866.658 0 .035 0 .069-.035.069-.173.693-1.49 6.861 2.842 9.079a.489.489 0 0 1 .277.52l-.069.658a.517.517 0 0 1-.485.45l-1.178.693a.6.6 0 0 1-.416.347 5.472 5.472 0 0 0-4.817 5.441v4.782zm12.579-12.371l-.069.069c.034 0 .034-.03.069-.069z" class="cls-1" transform="translate(-13.2 -1.229)"/>
        </g>
    </g>
    <g id="Group_712" transform="translate(.52 .545)">
        <g id="Group_669" transform="translate(3.545 2.944)">
            <g id="Group_668">
                <path id="Path_194" d="M25.3 11.3s-2.045 7.554 3.465 9.98.416-7.97.416-7.97z" class="cls-2" transform="translate(-24.929 -11.3)"/>
            </g>
        </g>
        <g id="Group_671" transform="translate(9.045 8.766)">
            <g id="Group_670">
                <path id="Path_195" d="M45.374 28.481L44.2 32.57l-3.4-1.49 1.906-2.98z" class="cls-2" transform="translate(-40.8 -28.1)"/>
            </g>
        </g>
        <g id="Group_673" transform="translate(0 14.415)">
            <g id="Group_672">
                <path id="Path_196" fill="#e772b3" d="M32.962 55.662H14.7V50.4a6 6 0 0 1 6-6h6.272a6 6 0 0 1 6 6v5.267z" transform="translate(-14.7 -44.4)"/>
            </g>
        </g>
        <g id="Group_675" transform="translate(5.254 13.271)">
            <g id="Group_674">
                <path id="Path_197" fill="#00aaa5" d="M31.4 41.239l-1.317.8a.4.4 0 0 0-.173.554l1.213 2.356a.428.428 0 0 0 .693.1l1.455-1.663a.425.425 0 0 1 .658 0l1.213 1.421a.441.441 0 0 0 .693-.035l1.49-2.149a.408.408 0 0 0-.1-.589l-1.181-.934" transform="translate(-29.862 -41.1)"/>
            </g>
        </g>
        <g id="Group_682" transform="translate(3.847 22.558)">
            <g id="Group_678">
                <g id="Group_677">
                    <g id="Group_676">
                        <path id="Rectangle_11" d="M0 0H0.347V3.119H0z" class="cls-5"/>
                    </g>
                </g>
            </g>
            <g id="Group_681" transform="translate(9.946 .139)">
                <g id="Group_680">
                    <g id="Group_679">
                        <path id="Rectangle_12" d="M0 0H0.347V2.98H0z" class="cls-5"/>
                    </g>
                </g>
            </g>
        </g>
        <g id="Group_684" transform="translate(6.827 11.746)">
            <g id="Group_683">
                <path id="Path_198" d="M34.677 36.7l-.277 2.7.208.139a4.043 4.043 0 0 0 4.436-.139l-.277-2.7" class="cls-6" transform="translate(-34.4 -36.7)"/>
            </g>
        </g>
        <g id="Group_686" transform="translate(6.827 11.746)">
            <g id="Group_685">
                <path id="Path_199" fill="#efbf9c" d="M34.677 36.7l-.277 2.7.208.139a.725.725 0 0 1 .208.139 29.61 29.61 0 0 0 4.054-2.045l-.1-.936z" transform="translate(-34.4 -36.7)"/>
            </g>
        </g>
        <g id="Group_688" transform="translate(3.847 7.034)">
            <g id="Group_687">
                <path id="Path_200" d="M27.082 23.1h-.242a1.043 1.043 0 0 0-1.04 1.04 1.043 1.043 0 0 0 1.04 1.04h.243" class="cls-6" transform="translate(-25.8 -23.1)"/>
            </g>
        </g>
        <g id="Group_690" transform="translate(5.129 3.083)">
            <g id="Group_689">
                <path id="Path_201" d="M37.54 16.725v.832a4.023 4.023 0 0 1-4.02 4.02 4.023 4.023 0 0 1-4.02-4.02V12.6l7.8-.9z" class="cls-6" transform="translate(-29.5 -11.7)"/>
            </g>
        </g>
        <g id="Group_692" transform="translate(6.965 7.449)">
            <g id="Group_691">
                <ellipse id="Ellipse_56" cx=".416" cy=".658" class="cls-1" rx=".416" ry=".658"/>
            </g>
        </g>
        <g id="Group_694" transform="translate(10.257 7.449)">
            <g id="Group_693">
                <ellipse id="Ellipse_57" cx=".416" cy=".658" class="cls-1" rx=".416" ry=".658"/>
            </g>
        </g>
        <g id="Group_696" transform="translate(5.371)">
            <g id="Group_695">
                <path id="Path_202" d="M38 9.975c-5.548-1.075-7.453-4.262-7.453-4.262l-.347-.97s3.6-4.02 7.589-.485c5.094 4.5-.277 11.02-.277 11.02" class="cls-2" transform="translate(-30.2 -2.803)"/>
            </g>
        </g>
        <g id="Group_698" transform="translate(12.337 7.138)">
            <g id="Group_697">
                <path id="Path_203" d="M50.473 23.4l1 .069a1.034 1.034 0 0 1 .52.9 1.043 1.043 0 0 1-1.04 1.04H50.3" class="cls-6" transform="translate(-50.3 -23.4)"/>
            </g>
        </g>
        <g id="Group_700" transform="translate(10.729 12.336)">
            <g id="Group_699">
                <path id="Path_204" d="M46.194 38.4l.1 1.144a1.812 1.812 0 0 1-.208.554 10.842 10.842 0 0 0-.347 1.525 8.353 8.353 0 0 0-.035 2.079 3.459 3.459 0 0 0 .554 1.837c.554.693 1.386 1.074 1.49 2.045a.683.683 0 0 1-.1.52 1.053 1.053 0 0 1-.243.173 1.7 1.7 0 0 0 1.386-.347 4.375 4.375 0 0 0 1.282-2.391c.52-1.663.866-3.951-.658-5.2-2.01-1.629-1.8-1.8-1.8-1.8z" class="cls-2" transform="translate(-45.661 -38.4)"/>
            </g>
        </g>
        <g id="Group_702" transform="translate(3.797 1.927)">
            <g id="Group_701">
                <path id="Path_205" d="M28.271 10.213a6.665 6.665 0 0 1-1.282 3.431v1.074s-.173-1.074-.8-1.074c0 0-1.733-5.579 1.04-5.267 2.74.311 1.042 1.836 1.042 1.836z" class="cls-2" transform="translate(-25.657 -8.364)"/>
            </g>
        </g>
        <g id="Group_711" transform="translate(6.235 5.773)">
            <g id="Group_704" class="cls-8" transform="translate(2.082 2.638)">
                <g id="Group_703">
                    <path id="Path_206" d="M39.5 29.128a1.224 1.224 0 0 1-.589-.139.342.342 0 0 1-.208-.312.293.293 0 0 1 .069-.208 3.9 3.9 0 0 0 .485-1.248c.035-.1.1-.173.208-.139a.19.19 0 0 1 .139.208 4.559 4.559 0 0 1-.52 1.351v.035l.035.035a1.266 1.266 0 0 0 .52.1.177.177 0 0 1 .069.347.742.742 0 0 0-.208-.03z" class="cls-9" transform="translate(-38.7 -27.074)"/>
                </g>
            </g>
            <g id="Group_706" class="cls-8" transform="translate(1.861 5.069)">
                <g id="Group_705">
                    <path id="Path_207" d="M39.15 34.891a2.325 2.325 0 0 1-.97-.208.187.187 0 1 1 .139-.347 2.025 2.025 0 0 0 1.559.035.7.7 0 0 0 .312-.208.173.173 0 0 1 .277.208.89.89 0 0 1-.45.312 1.532 1.532 0 0 1-.867.208z" class="cls-9" transform="translate(-38.063 -34.091)"/>
                </g>
            </g>
            <g id="Group_708" transform="translate(3.773)">
                <g id="Group_707">
                    <path id="Path_208" d="M45.25 20.307a.208.208 0 0 1-.139-.035 1.555 1.555 0 0 0-1.317-.45.234.234 0 0 1-.208-.139c-.035-.069.069-.173.139-.208a1.94 1.94 0 0 1 1.594.554.167.167 0 0 1 0 .243c.035.035-.034.035-.069.035z" class="cls-1" transform="translate(-43.58 -19.462)"/>
                </g>
            </g>
            <g id="Group_710" transform="translate(0 .082)">
                <g id="Group_709">
                    <path id="Path_209" d="M32.867 20.6a.263.263 0 0 1-.139-.069.171.171 0 0 1 .035-.243 2.915 2.915 0 0 1 1.387-.588.177.177 0 1 1 .069.347 2.249 2.249 0 0 0-1.213.52.262.262 0 0 1-.139.033z" class="cls-1" transform="translate(-32.691 -19.7)"/>
                </g>
            </g>
        </g>
    </g>
</svg>
