<svg xmlns="http://www.w3.org/2000/svg" id="Emojis_estate_owner_copy_2" width="19.214" height="26.742" viewBox="0 0 19.214 26.742">
    <defs>
        <style>
            .cls-1{fill:#54381f}.cls-3{fill:#0078d7}.cls-5{fill:#e5a413}.cls-6{fill:#a07252}.cls-8{fill:#6c594b}.cls-9{fill:#3f362d}.cls-10{opacity:.52}
        </style>
    </defs>
    <g id="Group_622">
        <g id="Group_621">
            <path id="Path_176" d="M31.927 27.742H13.718a.531.531 0 0 1-.518-.518v-5.252a6.543 6.543 0 0 1 5.321-6.392c.035 0 .035-.035.069-.035l1.555-.933.035-.449a4.421 4.421 0 0 1-1.8-2.937 1.566 1.566 0 0 1-1.347-1.555 1.706 1.706 0 0 1 .587-1.244 10.444 10.444 0 0 1 0-3.179 1.377 1.377 0 0 1-.311-1.175.557.557 0 0 1 .138-.242 3.55 3.55 0 0 1-.069-1.347.466.466 0 0 1 .484-.449.528.528 0 0 1 .346.138 1.716 1.716 0 0 1 .967-.864A5.05 5.05 0 0 1 20.421 1h3.593a4.1 4.1 0 0 1 4.112 4.112V8.5a1.541 1.541 0 0 1 .518 1.14 1.567 1.567 0 0 1-1.382 1.555 4.466 4.466 0 0 1-1.831 2.937l.035.311 1.347 1.071a6.48 6.48 0 0 1 5.6 6.426v5.25a.492.492 0 0 1-.486.552zm-17.69-1.037h17.171v-4.733a5.457 5.457 0 0 0-4.837-5.424.621.621 0 0 1-.311-.138l-1.313-1.037a.514.514 0 0 1-.449-.449l-.1-.933a.464.464 0 0 1 .242-.484 3.433 3.433 0 0 0 1.658-2.833.5.5 0 0 1 .518-.484.651.651 0 0 1 .276.069.531.531 0 0 0 .518-.518.591.591 0 0 0-.242-.449.591.591 0 0 1-.242-.449V5.181a3.082 3.082 0 0 0-3.075-3.075H20.49a4.64 4.64 0 0 0-.933.242.708.708 0 0 0-.415.346.262.262 0 0 0 .035.242.5.5 0 0 1 .207.622.5.5 0 0 1-.553.346c-.138-.035-.242-.035-.38-.069a.67.67 0 0 0 .518.415.523.523 0 0 1 .518.449.478.478 0 0 1-.415.553 1.97 1.97 0 0 1-.449.035 9.1 9.1 0 0 0 0 3.386.534.534 0 0 1-.311.587.52.52 0 0 0-.346.484.562.562 0 0 0 .38.518.493.493 0 0 1 .415-.207.531.531 0 0 1 .518.518 3.506 3.506 0 0 0 1.658 2.971.491.491 0 0 1 .242.484l-.1 1.071a.516.516 0 0 1-.484.449l-1.347.795a.535.535 0 0 1-.38.276 5.464 5.464 0 0 0-4.7 5.39v4.7z" class="cls-1" transform="translate(-13.2 -1)"/>
        </g>
    </g>
    <g id="Group_665" transform="translate(.518 .553)">
        <g id="Group_624" transform="translate(0 14.442)">
            <g id="Group_623">
                <path id="Path_177" fill="#ffc83d" d="M32.908 55.629H14.7v-5.252a5.979 5.979 0 0 1 5.977-5.977h6.254a5.979 5.979 0 0 1 5.977 5.977v5.252z" transform="translate(-14.7 -44.4)"/>
            </g>
        </g>
        <g id="Group_626" transform="translate(7.394 17.293)">
            <g id="Group_625">
                <path id="Path_178" d="M37.517 52.805L36.1 58.61a.311.311 0 0 0 .035.173l1.555 2.142a.23.23 0 0 0 .346 0l1.52-2.211a.259.259 0 0 0 .035-.173l-1.658-5.735c-.105-.206-.382-.206-.416-.001z" class="cls-3" transform="translate(-36.1 -52.65)"/>
            </g>
        </g>
        <g id="Group_628" transform="translate(5.114 13.302)">
            <g id="Group_627">
                <path id="Path_179" fill="#3a96dd" d="M31.158 41.238l-1.658 1 1.658 3.282L33.37 43l1.9 2.211 2.039-2.937-1.486-1.174" transform="translate(-29.5 -41.1)"/>
            </g>
        </g>
        <g id="Group_630" transform="translate(7.912 14.961)">
            <g id="Group_629">
                <path id="Path_180" d="M38.671 48.94L37.6 47.386l1.071-1.486 1.106 1.52z" class="cls-3" transform="translate(-37.6 -45.9)"/>
            </g>
        </g>
        <g id="Group_632" transform="translate(3.835 22.562)">
            <g id="Group_631">
                <path id="Rectangle_9" d="M0 0H0.346V3.11H0z" class="cls-5"/>
            </g>
        </g>
        <g id="Group_634" transform="translate(13.751 22.7)">
            <g id="Group_633">
                <path id="Rectangle_10" d="M0 0H0.346V2.971H0z" class="cls-5"/>
            </g>
        </g>
        <g id="Group_636" transform="translate(6.807 11.782)">
            <g id="Group_635">
                <path id="Path_181" d="M34.676 36.7l-.276 2.695.207.138a4.031 4.031 0 0 0 4.423-.138l-.277-2.695" class="cls-6" transform="translate(-34.4 -36.7)"/>
            </g>
        </g>
        <g id="Group_638" opacity="0.26" transform="translate(6.807 11.782)">
            <g id="Group_637">
                <path id="Path_182" d="M34.676 36.7l-.276 2.695.207.138a.723.723 0 0 1 .207.138 29.522 29.522 0 0 0 4.042-2.039l-.1-.933z" class="cls-8" transform="translate(-34.4 -36.7)"/>
            </g>
        </g>
        <g id="Group_640" transform="translate(4.288 3.524)">
            <g id="Group_639">
                <path id="Path_183" d="M27.28 12.8a9.815 9.815 0 0 0 0 3.662l1.209.035V12.8" class="cls-9" transform="translate(-27.111 -12.8)"/>
            </g>
        </g>
        <g id="Group_647" transform="translate(3.835 3.144)">
            <g id="Group_642" transform="translate(0 3.939)">
                <g id="Group_641">
                    <path id="Path_184" d="M27.078 23.1h-.242a1.039 1.039 0 0 0-1.036 1.037 1.039 1.039 0 0 0 1.037 1.037h.242" class="cls-6" transform="translate(-25.8 -23.1)"/>
                </g>
            </g>
            <g id="Group_644" transform="translate(1.278)">
                <g id="Group_643">
                    <path id="Path_185" d="M37.516 16.71v.829a4.011 4.011 0 0 1-4.008 4.008 4.011 4.011 0 0 1-4.008-4.008V12.6l7.774-.9z" class="cls-6" transform="translate(-29.5 -11.7)"/>
                </g>
            </g>
            <g id="Group_646" transform="translate(9.052 4.042)">
                <g id="Group_645">
                    <path id="Path_186" d="M52.242 25.4h.242a1.039 1.039 0 0 0 1.037-1.037 1.031 1.031 0 0 0-.518-.9L52 23.4" class="cls-6" transform="translate(-52 -23.4)"/>
                </g>
            </g>
        </g>
        <g id="Group_649" transform="translate(4.09)">
            <g id="Group_648">
                <path id="Path_187" d="M35.369 9.51c0 .38-.035 1.14-.069 1.52l.276-.518c.035-.449.346-.622.795-.656V6.193A3.613 3.613 0 0 0 32.778 2.6h-3.559a3.994 3.994 0 0 0-1.106.276 1.179 1.179 0 0 0-.691.656.74.74 0 0 0 .242.864 1.609 1.609 0 0 1-.691-.207.649.649 0 0 1-.38-.553 2.955 2.955 0 0 0 .138 1.347 1.237 1.237 0 0 0 1.037.795 1.2 1.2 0 0 1-1.209-.484.829.829 0 0 0 .207.726 4.075 4.075 0 0 0 2.764 1.072 9.421 9.421 0 0 0 2.591-.242c.449-.1 2.246-.726 2.246.069a4.211 4.211 0 0 0 0 .933.672.672 0 0 0 .311.484c.207.138.553.173.726.346z" class="cls-9" transform="translate(-26.537 -2.6)"/>
            </g>
        </g>
        <g id="Group_651" transform="translate(4.63 5.355)">
            <g id="Group_650">
                <path id="Path_188" d="M28.342 19.828a2.605 2.605 0 0 1 .242 1.037V18.1l-.484 1z" class="cls-9" transform="translate(-28.1 -18.1)"/>
            </g>
        </g>
        <g id="Group_653" transform="translate(6.945 7.498)">
            <g id="Group_652">
                <ellipse id="Ellipse_54" cx=".415" cy=".656" class="cls-1" rx=".415" ry=".656"/>
            </g>
        </g>
        <g id="Group_655" transform="translate(10.227 7.498)">
            <g id="Group_654">
                <ellipse id="Ellipse_55" cx=".415" cy=".656" class="cls-1" rx=".415" ry=".656"/>
            </g>
        </g>
        <g id="Group_664" transform="translate(6.216 5.826)">
            <g id="Group_657" class="cls-10" transform="translate(2.076 2.63)">
                <g id="Group_656">
                    <path id="Path_189" d="M39.495 29.121a1.221 1.221 0 0 1-.587-.138.377.377 0 0 1-.207-.311.292.292 0 0 1 .069-.207 3.888 3.888 0 0 0 .484-1.244c.035-.1.1-.173.207-.138a.189.189 0 0 1 .138.207 4.546 4.546 0 0 1-.518 1.347v.035l.035.035a1.262 1.262 0 0 0 .518.1.176.176 0 0 1 .069.346.74.74 0 0 0-.208-.032z" class="cls-8" transform="translate(-38.7 -27.074)"/>
                </g>
            </g>
            <g id="Group_659" class="cls-10" transform="translate(1.856 5.054)">
                <g id="Group_658">
                    <path id="Path_190" d="M39.147 34.889a2.318 2.318 0 0 1-.967-.207.186.186 0 0 1 .138-.346 2.019 2.019 0 0 0 1.555.035.7.7 0 0 0 .311-.207.173.173 0 0 1 .276.207.887.887 0 0 1-.449.311 1.527 1.527 0 0 1-.864.207z" class="cls-8" transform="translate(-38.063 -34.091)"/>
                </g>
            </g>
            <g id="Group_661" transform="translate(3.769)">
                <g id="Group_660">
                    <path id="Path_191" d="M45.258 20.3a.208.208 0 0 1-.138-.035 1.551 1.551 0 0 0-1.313-.449.176.176 0 0 1-.069-.346 1.934 1.934 0 0 1 1.589.553.167.167 0 0 1 0 .242c.035.035-.034.035-.069.035z" class="cls-9" transform="translate(-43.6 -19.462)"/>
                </g>
            </g>
            <g id="Group_663" transform="translate(0 .082)">
                <g id="Group_662">
                    <path id="Path_192" d="M32.867 20.6a.262.262 0 0 1-.138-.069.171.171 0 0 1 .035-.242 2.906 2.906 0 0 1 1.382-.587.176.176 0 1 1 .069.346 2.242 2.242 0 0 0-1.209.518.261.261 0 0 1-.139.034z" class="cls-9" transform="translate(-32.691 -19.7)"/>
                </g>
            </g>
        </g>
    </g>
</svg>
