<svg xmlns="http://www.w3.org/2000/svg" id="Emojis_green_coffee" width="33.264" height="26.742" viewBox="0 0 33.264 26.742">
    <defs>
        <style>
            .cls-2{fill:#48c190}.cls-3{fill:#008858}.cls-4{fill:#8aed7c}.cls-5{fill:#4baf43}.cls-6{fill:#69d35e}.cls-7{fill:#5bbc51}
        </style>
    </defs>
    <g id="Group_953">
        <g id="Group_952">
            <path id="Path_295" fill="#54381f" d="M7.352 40.042a6.876 6.876 0 0 1-3.458-.875A3.355 3.355 0 0 1 2.1 36.5a2.961 2.961 0 0 1 .438-1.576 1.33 1.33 0 0 1 .219-.306 4.794 4.794 0 0 1 1.4-1.226c-1.269-2.32-1.313-4.683-.131-6.259a4.583 4.583 0 0 1 1.4-1.182 3.019 3.019 0 0 1-.963-2.714c.088-.919-.131-1.05-.525-1.269a2.118 2.118 0 0 1-1.138-2.54 15.6 15.6 0 0 0-.481-5.3v-.307a.378.378 0 0 1 .131-.263l.131-.131a.332.332 0 0 1 .175-.088.649.649 0 0 1 .306-.044c.088 0 .131.044.219.044.044 0 .044.044.088.044a14.707 14.707 0 0 0 4.946 1.926c1.619.263 1.926 1.007 2.1 1.794.131.481.175.7 1.094.875a2.951 2.951 0 0 1 2.188 1.4 1.1 1.1 0 0 1 .175.306c.044.131.131.219.175.35a3.283 3.283 0 0 0 1.444 1.707c2.539-2.1 5.471-2.714 7.528-1.707a4.774 4.774 0 0 0 .263-.481 3.161 3.161 0 0 1 2.67-1.926c.919-.131.963-.35 1.138-.788.219-.744.613-1.488 2.232-1.663a14.824 14.824 0 0 0 5.033-1.619c.044 0 .044-.044.088-.044a.4.4 0 0 1 .219-.044.854.854 0 0 1 .306.044c.044.044.131.044.175.088a.6.6 0 0 1 .131.175.622.622 0 0 1 .088.263v.219c0 .044 0 .044-.044.088a15 15 0 0 0-.832 5.252 2.153 2.153 0 0 1-1.269 2.451c-.438.219-.657.306-.613 1.226a2.985 2.985 0 0 1-.919 2.451l-.263.263c-.088.088-.175.131-.263.219a3.845 3.845 0 0 0-1.138 1.226c2.714.788 4.464 2.495 4.683 4.6a3.892 3.892 0 0 1-.175 1.576 2.253 2.253 0 0 1 .7 1.094 2.748 2.748 0 0 1 .131.832c-.044 1.532-1.444 3.108-3.5 3.808a4.913 4.913 0 0 1-4.9-.657h-.219a11.066 11.066 0 0 1-2.407 0 9.642 9.642 0 0 1-9.016.219 7.572 7.572 0 0 1-4.07-.044A7 7 0 0 1 7.615 40a.555.555 0 0 1-.263.042zm-3.414-24.86a15.2 15.2 0 0 1 .219 4.333c-.131.875.044.963.481 1.226a2.179 2.179 0 0 1 1.182 2.538A1.863 1.863 0 0 0 6.7 25.2c.131.131.306.263.481.438a.65.65 0 0 1 .175.613.668.668 0 0 1-.481.481c-.131.044-.219.044-.35.088a3.054 3.054 0 0 0-1.4 1.007c-1.007 1.269-.788 3.37.525 5.383a.835.835 0 0 1 .088.569.517.517 0 0 1-.394.394 3.227 3.227 0 0 0-1.532 1.094c-.044.044-.088.131-.131.175a1.259 1.259 0 0 0-.219.875A2.048 2.048 0 0 0 4.6 37.936a5.519 5.519 0 0 0 3.02.7 5.285 5.285 0 0 0 3.108-1.05.76.76 0 0 1 .613-.131 6.133 6.133 0 0 0 3.852.088.654.654 0 0 1 .569.044 8.067 8.067 0 0 0 4.2.963 7.542 7.542 0 0 0 3.9-1.138.509.509 0 0 1 .438-.088 14.213 14.213 0 0 0 2.363.044c.175 0 .35-.044.525-.044a.633.633 0 0 1 .613.263c.569.788 2.145 1.007 3.677.525 1.488-.481 2.582-1.619 2.626-2.582a1.212 1.212 0 0 0-.044-.394 1.335 1.335 0 0 0-.613-.7.688.688 0 0 1-.263-.832 2.787 2.787 0 0 0 .219-1.444c-.175-1.707-1.882-3.108-4.421-3.633a.633.633 0 0 1-.438-.306.563.563 0 0 1-.044-.525 4.482 4.482 0 0 1 1.831-2.496c.088-.088.219-.175.306-.263l.044-.044.044-.044a1.8 1.8 0 0 0 .569-1.532 2.239 2.239 0 0 1 1.357-2.451c.438-.219.613-.306.569-1.182a15.986 15.986 0 0 1 .481-4.333A14.59 14.59 0 0 1 29.5 16.5c-.875.088-.963.263-1.094.744a2.2 2.2 0 0 1-2.232 1.707c-1.05.131-1.269.525-1.707 1.269a7.16 7.16 0 0 1-.744 1.138.624.624 0 0 1-.875.088c-1.619-1.182-4.421-.525-6.784 1.576a.671.671 0 0 1-.744.088l-.088-.044a4.8 4.8 0 0 1-2.32-2.451 2.6 2.6 0 0 0-.175-.35.043.043 0 0 0-.044-.044.153.153 0 0 1-.044-.088 1.753 1.753 0 0 0-1.357-.875c-1.619-.306-1.926-1.094-2.1-1.838-.131-.481-.175-.657-1.05-.788a14.686 14.686 0 0 1-4.204-1.45z" transform="translate(-2.1 -13.3)"/>
        </g>
    </g>
    <g id="Group_1040" transform="translate(.7 .569)">
        <g id="Group_975" transform="translate(15.203 .306)">
            <g id="Group_956" transform="translate(1.846)">
                <g id="Group_955">
                    <g id="Group_954">
                        <path id="Path_296" d="M51.776 29.306c.744-2.889 2.976-2.145 2.889-4.814s2.1-1.05 1.926-3.677a15.8 15.8 0 0 1 .875-5.515l-.175.219a.043.043 0 0 0-.044.044l.219-.263a15.352 15.352 0 0 1-5.3 1.707c-2.626.219-.657 2.145-3.326 2.451s-1.619 2.451-4.333 3.589-.919 4.683-.919 4.683a3.435 3.435 0 0 0-.569 3.939l.525.438a3.469 3.469 0 0 0 3.808-1.182c-.04 0 3.724 1.269 4.424-1.619z" class="cls-2" transform="translate(-42.651 -15.3)"/>
                    </g>
                </g>
            </g>
            <g id="Group_959" transform="translate(0 .453)">
                <g id="Group_958">
                    <g id="Group_957">
                        <path id="Path_297" d="M38.638 35.271a.161.161 0 0 1-.131-.044.27.27 0 0 1-.044-.306l15.844-18.514a.219.219 0 1 1 .35.263L38.813 35.183a.227.227 0 0 1-.175.088z" class="cls-3" transform="translate(-38.434 -16.334)"/>
                    </g>
                </g>
            </g>
            <g id="Group_962" transform="translate(12.355 4.623)">
                <g id="Group_961">
                    <g id="Group_960">
                        <path id="Path_298" d="M69.655 27.017h-.044l-2.8-.744a.208.208 0 1 1 .131-.394l2.8.744a.184.184 0 0 1 .131.263.372.372 0 0 1-.218.131z" class="cls-3" transform="translate(-66.662 -25.862)"/>
                    </g>
                </g>
            </g>
            <g id="Group_965" transform="translate(10.128 7.298)">
                <g id="Group_964">
                    <g id="Group_963">
                        <path id="Path_299" d="M64.605 33.167a7.626 7.626 0 0 1-2.889-.788c-.088-.044-.175-.175-.131-.263s.175-.175.263-.131a6.351 6.351 0 0 0 3.108.7c.088 0 .219.088.219.175a.2.2 0 0 1-.175.219.65.65 0 0 1-.395.088z" class="cls-3" transform="translate(-61.573 -31.973)"/>
                    </g>
                </g>
            </g>
            <g id="Group_968" transform="translate(8.109 9.874)">
                <g id="Group_967">
                    <g id="Group_966">
                        <path id="Path_300" d="M61.092 39.322a9.683 9.683 0 0 1-4.027-1.094.2.2 0 1 1 .175-.35 8.284 8.284 0 0 0 4.508 1.05.2.2 0 1 1 .044.394z" class="cls-3" transform="translate(-56.961 -37.861)"/>
                    </g>
                </g>
            </g>
            <g id="Group_971" transform="translate(5.653 12.364)">
                <g id="Group_970">
                    <g id="Group_969">
                        <path id="Path_301" d="M55.792 45.717a6.269 6.269 0 0 1-4.377-1.794.217.217 0 0 1 .306-.306 6.015 6.015 0 0 0 4.289 1.663.219.219 0 0 1 0 .438z" class="cls-3" transform="translate(-51.35 -43.55)"/>
                    </g>
                </g>
            </g>
            <g id="Group_974" transform="translate(3.776 14.514)">
                <g id="Group_973">
                    <g id="Group_972">
                        <path id="Path_302" d="M49.135 49.7a2.717 2.717 0 0 1-1.269-.394l-.7-.438a.225.225 0 1 1 .219-.394l.7.394c.481.219 1.007.481 1.444.263a.2.2 0 1 1 .175.35.725.725 0 0 1-.569.219z" class="cls-3" transform="translate(-47.061 -48.461)"/>
                    </g>
                </g>
            </g>
        </g>
        <g id="Group_997" transform="translate(.131)">
            <g id="Group_978">
                <g id="Group_977">
                    <g id="Group_976">
                        <path id="Path_303" d="M16.474 23.179c-2.626-1.313-1.444-3.37-4.114-3.852-2.626-.481-.569-2.232-3.151-2.67A15.516 15.516 0 0 1 4 14.6l.175.219v.044L4 14.6a15.49 15.49 0 0 1 .525 5.559c-.35 2.626 1.926 1.094 1.663 3.764s2.057 2.1 2.582 4.99 4.377 1.882 4.377 1.882a3.477 3.477 0 0 0 3.72 1.4l.525-.394a3.449 3.449 0 0 0-.306-3.939c.001.044 2.058-3.327-.612-4.683z" class="cls-2" transform="translate(-4 -14.6)"/>
                    </g>
                </g>
            </g>
            <g id="Group_981" transform="translate(.346 .521)">
                <g id="Group_980">
                    <g id="Group_979">
                        <path id="Path_304" d="M19.851 35.534c0 .044-.044.088-.088.131a.216.216 0 0 1-.306-.044L4.839 16.145a.219.219 0 0 1 .35-.263l14.662 19.477c0 .041.049.088 0 .175z" class="cls-3" transform="translate(-4.791 -15.791)"/>
                    </g>
                </g>
            </g>
            <g id="Group_984" transform="translate(3.703 2.346)">
                <g id="Group_983">
                    <g id="Group_982">
                        <path id="Path_305" d="M14.141 20.2v.044l-1.313 2.582a.2.2 0 1 1-.35-.175l1.313-2.582a.21.21 0 0 1 .263-.088c.087-.003.131.084.087.219z" class="cls-3" transform="translate(-12.461 -19.961)"/>
                    </g>
                </g>
            </g>
            <g id="Group_987" transform="translate(5.817 4.628)">
                <g id="Group_986">
                    <g id="Group_985">
                        <path id="Path_306" d="M19.046 25.842a7.694 7.694 0 0 1-1.357 2.67.27.27 0 0 1-.306.044.216.216 0 0 1-.044-.306 5.894 5.894 0 0 0 1.361-2.89c0-.131.131-.219.219-.175.131 0 .219.131.175.219a.72.72 0 0 1-.048.438z" class="cls-3" transform="translate(-17.291 -25.174)"/>
                    </g>
                </g>
            </g>
            <g id="Group_990" transform="translate(7.85 5.854)">
                <g id="Group_989">
                    <g id="Group_988">
                        <path id="Path_307" d="M24.239 28.9a8.979 8.979 0 0 1-1.926 3.677.219.219 0 0 1-.35-.263 8.193 8.193 0 0 0 1.97-4.158c0-.131.131-.219.219-.175.131 0 .219.131.175.219a1.814 1.814 0 0 1-.088.7z" class="cls-3" transform="translate(-21.934 -27.974)"/>
                    </g>
                </g>
            </g>
            <g id="Group_993" transform="translate(9.819 9.104)">
                <g id="Group_992">
                    <g id="Group_991">
                        <path id="Path_308" d="M29.439 35.881a6.469 6.469 0 0 1-2.67 3.9.219.219 0 1 1-.263-.35 5.855 5.855 0 0 0 2.539-3.852c0-.131.131-.175.263-.175s.175.131.175.263c0 .083-.044.127-.044.214z" class="cls-3" transform="translate(-26.434 -35.4)"/>
                    </g>
                </g>
            </g>
            <g id="Group_996" transform="translate(11.489 13.25)">
                <g id="Group_995">
                    <g id="Group_994">
                        <path id="Path_309" d="M31.848 45.586a2.784 2.784 0 0 1-.657 1.182l-.569.613a.217.217 0 0 1-.306-.306l.525-.569a1.889 1.889 0 0 0 .569-1.357c-.044-.131.044-.219.175-.263s.219.044.263.175a1.067 1.067 0 0 1 0 .525z" class="cls-3" transform="translate(-30.25 -44.874)"/>
                    </g>
                </g>
            </g>
        </g>
        <g id="Group_1004" transform="translate(15.521 13.857)">
            <g id="Group_1000" transform="translate(.105)">
                <g id="Group_999">
                    <g id="Group_998">
                        <path id="Path_310" d="M54.281 53.193a10.631 10.631 0 0 0-8.929-1.576c-3.5 1.05-5.208.131-5.952-.569.569-2.363 3.5-4.377 7.222-4.727 4.333-.438 8.053 1.532 8.316 4.377a3.775 3.775 0 0 1-.394 2.057c-.088.132-.175.307-.263.438z" class="cls-4" transform="translate(-39.4 -46.261)"/>
                    </g>
                </g>
            </g>
            <g id="Group_1003" transform="translate(0 4.788)">
                <g id="Group_1002">
                    <g id="Group_1001">
                        <path id="Path_311" d="M47.494 62.759c-4.333.438-8.053-1.532-8.316-4.377a3.6 3.6 0 0 1 .088-1.182c.744.7 2.451 1.619 5.952.569a11.071 11.071 0 0 1 8.973 1.576 9.048 9.048 0 0 1-6.697 3.414z" class="cls-5" transform="translate(-39.161 -57.2)"/>
                    </g>
                </g>
            </g>
        </g>
        <g id="Group_1011" transform="translate(9.092 6.333)">
            <g id="Group_1007">
                <g id="Group_1006">
                    <g id="Group_1005">
                        <path id="Path_312" d="M37.178 32.147a10.856 10.856 0 0 0-7.484 5.208c-1.751 3.2-3.633 3.764-4.6 3.764-1.269-2.1-.569-5.6 1.795-8.447 2.757-3.326 6.784-4.6 9.016-2.757a3.784 3.784 0 0 1 1.182 1.751 1.861 1.861 0 0 1 .091.481z" class="cls-6" transform="translate(-24.474 -29.069)"/>
                    </g>
                </g>
            </g>
            <g id="Group_1010" transform="translate(.624 3.077)">
                <g id="Group_1009">
                    <g id="Group_1008">
                        <path id="Path_313" d="M35.7 43.234c-2.757 3.326-6.828 4.6-9.016 2.757a3.981 3.981 0 0 1-.788-.919c1.007-.044 2.889-.569 4.6-3.764 2.1-3.9 6.215-4.946 7.484-5.208.438 2.057-.35 4.814-2.28 7.134z" class="cls-5" transform="translate(-25.9 -36.1)"/>
                    </g>
                </g>
            </g>
        </g>
        <g id="Group_1018" transform="translate(1.022 12.085)">
            <g id="Group_1014" transform="translate(0 .17)">
                <g id="Group_1013">
                    <g id="Group_1012">
                        <path id="Path_314" d="M8.952 42.6a10.909 10.909 0 0 0 5.471 7.266c3.283 1.619 3.9 3.458 3.939 4.464-2.057 1.313-5.559.788-8.535-1.444-3.37-2.67-4.771-6.653-3.064-8.929a3.736 3.736 0 0 1 1.707-1.226c.176-.043.351-.087.482-.131z" class="cls-6" transform="translate(-6.035 -42.6)"/>
                    </g>
                </g>
            </g>
            <g id="Group_1017" transform="translate(2.961)">
                <g id="Group_1016">
                    <g id="Group_1015">
                        <path id="Path_315" d="M19.978 44.4c3.458 2.626 4.858 6.609 3.108 8.885a3.95 3.95 0 0 1-.875.832c-.088-1.007-.7-2.845-3.939-4.464a10.678 10.678 0 0 1-5.472-7.271c2.013-.525 4.771.175 7.178 2.018z" class="cls-7" transform="translate(-12.8 -42.212)"/>
                    </g>
                </g>
            </g>
        </g>
        <g id="Group_1025" transform="translate(10.548 16.888)">
            <g id="Group_1021" transform="translate(0 2.502)">
                <g id="Group_1020">
                    <g id="Group_1019">
                        <path id="Path_316" d="M28.457 58.9a8.9 8.9 0 0 0 7.266 1.751c2.932-.7 4.289.175 4.858.788-.613 1.926-3.108 3.414-6.171 3.5-3.545.131-6.521-1.663-6.609-4.027a3.264 3.264 0 0 1 .438-1.663.953.953 0 0 1 .218-.349z" class="cls-4" transform="translate(-27.8 -58.9)"/>
                    </g>
                </g>
            </g>
            <g id="Group_1024" transform="translate(.613)">
                <g id="Group_1023">
                    <g id="Group_1022">
                        <path id="Path_317" d="M34.846 53.191c3.545-.131 6.521 1.663 6.609 4.027a3.413 3.413 0 0 1-.131.963c-.569-.613-1.926-1.444-4.858-.788a8.9 8.9 0 0 1-7.266-1.751 7.6 7.6 0 0 1 5.646-2.451z" class="cls-6" transform="translate(-29.2 -53.185)"/>
                    </g>
                </g>
            </g>
        </g>
        <g id="Group_1032" transform="translate(0 19.254)">
            <g id="Group_1028" transform="translate(0 1.842)">
                <g id="Group_1027">
                    <g id="Group_1026">
                        <path id="Path_318" d="M4.181 62.8a6.467 6.467 0 0 0 5.3 1.269c2.145-.481 3.108.131 3.545.569-.438 1.4-2.276 2.495-4.508 2.582-2.63.088-4.774-1.22-4.818-2.932a2.428 2.428 0 0 1 .306-1.226.558.558 0 0 1 .175-.262z" class="cls-6" transform="translate(-3.7 -62.8)"/>
                    </g>
                </g>
            </g>
            <g id="Group_1031" transform="translate(.481)">
                <g id="Group_1030">
                    <g id="Group_1029">
                        <path id="Path_319" d="M8.914 58.595c2.626-.088 4.771 1.226 4.815 2.932a3.4 3.4 0 0 1-.088.7c-.394-.438-1.4-1.05-3.545-.569a6.489 6.489 0 0 1-5.3-1.226 5.308 5.308 0 0 1 4.118-1.837z" class="cls-4" transform="translate(-4.8 -58.591)"/>
                    </g>
                </g>
            </g>
        </g>
        <g id="Group_1039" transform="translate(24.055 19.562)">
            <g id="Group_1035" transform="translate(0 1.9)">
                <g id="Group_1034">
                    <g id="Group_1033">
                        <path id="Path_320" d="M58.809 64.538a5.6 5.6 0 0 0 4.639-.263c1.619-.919 2.582-.657 3.02-.394 0 1.226-1.269 2.582-3.064 3.2-2.1.7-4.2.175-4.639-1.226a1.854 1.854 0 0 1-.044-1.094c.044-.091.044-.135.088-.223z" class="cls-6" transform="translate(-58.661 -63.634)"/>
                    </g>
                </g>
            </g>
            <g id="Group_1038" transform="translate(.149)">
                <g id="Group_1037">
                    <g id="Group_1036">
                        <path id="Path_321" d="M61.932 59.6c2.1-.7 4.2-.175 4.639 1.226a1.49 1.49 0 0 1 .088.613c-.438-.263-1.4-.525-3.02.394A5.6 5.6 0 0 1 59 62.1a4.516 4.516 0 0 1 2.932-2.5z" class="cls-7" transform="translate(-59 -59.294)"/>
                    </g>
                </g>
            </g>
        </g>
    </g>
</svg>
