<svg xmlns="http://www.w3.org/2000/svg" width="27.487" height="26.742" viewBox="0 0 27.487 26.742">
    <defs>
        <style>
            .cls-1{fill:#54381f}.cls-2{fill:#7a563b}.cls-3{fill:#9b714b}.cls-5{fill:#a88057}
        </style>
    </defs>
    <g id="Emojis_roasted_coffee_beans" transform="translate(-.817 -2.237)">
        <g id="Group_1042" transform="translate(.817 13.443)">
            <g id="Group_1041">
                <path id="Path_322" d="M20.241 49.436A8.909 8.909 0 0 1 15 47.49a8.08 8.08 0 0 1-1.486-1.416c-2.548 2.619-5.8 3.5-7.928 2.053a3.078 3.078 0 0 1-.956-.956 5.309 5.309 0 0 1-.885-2.3C1.271 43.243.174 40.659 1.2 38.854a3.373 3.373 0 0 1 1.239-1.2c.106-.071.248-.106.354-.177a5.494 5.494 0 0 1 3.4-.106c2.584-3.185 6.229-4.353 8.565-2.76a4.294 4.294 0 0 1 1.486 1.84 2.047 2.047 0 0 1 .177.5 5.5 5.5 0 0 1 .177.814c.354.035.743.142 1.1.212a3.611 3.611 0 0 1 1.38-2.442 3.278 3.278 0 0 1 1.8-.637h.422a7.588 7.588 0 0 1 5.309 3.256c2.159 2.937 2.265 6.512.248 8a3.714 3.714 0 0 1-.991.5 4.269 4.269 0 0 1-1.663.106 3.1 3.1 0 0 1-.566 1.133 3.24 3.24 0 0 1-.885.814 4.219 4.219 0 0 1-2.511.729zm-6.689-5.026l.389.531a9.647 9.647 0 0 0 1.7 1.7c2.265 1.734 5.026 2.23 6.583 1.2a1.853 1.853 0 0 0 .6-.566 2.5 2.5 0 0 0 .5-1.168l.071-.566.566.142a3.16 3.16 0 0 0 1.628 0 2.347 2.347 0 0 0 .672-.319c1.522-1.133 1.309-4.035-.5-6.512a6.4 6.4 0 0 0-4.495-2.831h-.319a2.255 2.255 0 0 0-1.239.425 2.841 2.841 0 0 0-1.026 2.3v.743l-.708-.248a6.2 6.2 0 0 0-1.911-.425l-.46-.035-.035-.46a4.8 4.8 0 0 0-.212-1.026c-.035-.142-.106-.283-.142-.389a3.086 3.086 0 0 0-1.1-1.38c-1.911-1.309-5.132-.071-7.326 2.831l-.212.283-.354-.106a4.691 4.691 0 0 0-3.044 0c-.071.035-.177.071-.248.106a1.924 1.924 0 0 0-.814.779c-.743 1.345.283 3.433 2.371 4.742l.213.139.035.248a3.926 3.926 0 0 0 .708 2.017 2.55 2.55 0 0 0 .708.672c1.77 1.2 4.742.212 6.937-2.336z" class="cls-1" transform="translate(-.817 -33.899)"/>
            </g>
        </g>
        <g id="Group_1044" transform="translate(19.697 3.613)">
            <g id="Group_1043">
                <path id="Path_323" d="M55.8 14.327a1.033 1.033 0 0 1-.319-.071.9.9 0 0 1-.5-.46.888.888 0 0 1-.035-.672 2.883 2.883 0 0 0-.283-2.442c-1.2-1.628 0-3.539.814-4.318A.876.876 0 1 1 56.724 7.6s-1.2 1.2-.6 2.017a4.521 4.521 0 0 1 .5 4.07.83.83 0 0 1-.824.64zm-.177-.956z" class="cls-1" transform="translate(-54.163 -6.125)"/>
            </g>
        </g>
        <g id="Group_1046" transform="translate(3.29 2.237)">
            <g id="Group_1045">
                <path id="Path_324" d="M9.926 15.035a1.033 1.033 0 0 1-.319-.071.861.861 0 0 1-.5-1.133 5.655 5.655 0 0 0-.566-4.778C6.316 5.975 9.82 2.507 9.855 2.472a.889.889 0 0 1 1.239 1.274c-.035.035-2.477 2.477-1.1 4.318a7.168 7.168 0 0 1 .779 6.406.938.938 0 0 1-.847.565zm.177-.814zm-.354-.142zm.6-11.113z" class="cls-1" transform="translate(-7.804 -2.237)"/>
            </g>
        </g>
        <g id="Group_1048" transform="translate(13.426 3.887)">
            <g id="Group_1047">
                <path id="Path_325" d="M38.34 15.748a.913.913 0 0 1-.779-.5 4.267 4.267 0 0 1 .283-4.353 1.894 1.894 0 0 0 .354-.92c-.035-.425-.5-.956-1.345-1.451A.741.741 0 0 1 36.464 8a.916.916 0 0 1 .106-.672.741.741 0 0 1 .531-.389.775.775 0 0 1 .672.106c1.38.849 2.088 1.77 2.159 2.831a3.3 3.3 0 0 1-.566 1.911 2.674 2.674 0 0 0-.212 2.76.888.888 0 0 1 .035.672.9.9 0 0 1-.46.5c-.141-.007-.248.029-.389.029zm-.177-.779zm.354-.177z" class="cls-1" transform="translate(-36.444 -6.9)"/>
            </g>
        </g>
        <g id="Group_1055" transform="translate(1.383 17.265)">
            <g id="Group_1051" transform="translate(0 .283)">
                <g id="Group_1050">
                    <g id="Group_1049">
                        <path id="Path_326" d="M4.039 45.5a7.291 7.291 0 0 0 4.353 4.353c2.336.779 2.937 1.982 3.079 2.619-1.239 1.1-3.645 1.062-5.84-.212-2.548-1.451-3.858-4-2.9-5.663a2.758 2.758 0 0 1 1.026-.991 2.439 2.439 0 0 1 .282-.106z" class="cls-2" transform="translate(-2.416 -45.5)"/>
                    </g>
                </g>
            </g>
            <g id="Group_1054" transform="translate(1.587)">
                <g id="Group_1053">
                    <g id="Group_1052">
                        <path id="Path_327" d="M11.961 45.656c2.548 1.451 3.858 4 2.9 5.663a2.318 2.318 0 0 1-.531.637c-.142-.672-.708-1.84-3.079-2.619A7.488 7.488 0 0 1 6.9 44.984a6.208 6.208 0 0 1 5.061.672z" class="cls-3" transform="translate(-6.9 -44.701)"/>
                    </g>
                </g>
            </g>
        </g>
        <g id="Group_1062" transform="translate(18.141 14.965)">
            <g id="Group_1058">
                <g id="Group_1057">
                    <g id="Group_1056">
                        <path id="Path_328" d="M52.929 38.235a8.33 8.33 0 0 0 2.477 6.547c2.053 1.911 2.123 3.4 1.947 4.141-1.8.531-4.282-.6-5.981-2.937-1.982-2.69-2.159-5.946-.354-7.255a2.921 2.921 0 0 1 1.522-.531c.141.035.283 0 .389.035z" class="cls-3" transform="translate(-49.768 -38.2)"/>
                    </g>
                </g>
            </g>
            <g id="Group_1061" transform="translate(3.144 .071)">
                <g id="Group_1060">
                    <g id="Group_1059">
                        <path id="Path_329" d="M63.553 41.408c1.982 2.69 2.159 5.946.354 7.255a3.566 3.566 0 0 1-.814.425c.177-.743.106-2.265-1.946-4.141a8.33 8.33 0 0 1-2.478-6.547 6.557 6.557 0 0 1 4.884 3.008z" class="cls-2" transform="translate(-58.652 -38.4)"/>
                    </g>
                </g>
            </g>
        </g>
        <g id="Group_1069" transform="translate(12.064 17.787)">
            <g id="Group_1065" transform="translate(0 .151)">
                <g id="Group_1064">
                    <g id="Group_1063">
                        <path id="Path_330" d="M35.074 46.6a9.15 9.15 0 0 0 4.636 6.123c2.76 1.345 3.291 2.937 3.327 3.751-1.734 1.133-4.672.672-7.184-1.239-2.9-2.23-4.105-5.592-2.619-7.5a2.883 2.883 0 0 1 1.451-1.026c.106-.038.248-.074.389-.109z" class="cls-3" transform="translate(-32.595 -46.6)"/>
                    </g>
                </g>
            </g>
            <g id="Group_1068" transform="translate(2.479)">
                <g id="Group_1067">
                    <g id="Group_1066">
                        <path id="Path_331" d="M45.687 48.024c2.9 2.23 4.105 5.592 2.619 7.5a2.676 2.676 0 0 1-.743.672c-.071-.849-.566-2.407-3.327-3.751a9.15 9.15 0 0 1-4.636-6.12 7.421 7.421 0 0 1 6.087 1.699z" class="cls-2" transform="translate(-39.6 -46.174)"/>
                    </g>
                </g>
            </g>
        </g>
        <g id="Group_1076" transform="translate(4.181 14.027)">
            <g id="Group_1072">
                <g id="Group_1071">
                    <g id="Group_1070">
                        <path id="Path_332" fill="#a57853" d="M22.03 38.186a10.618 10.618 0 0 0-6.76 5.7c-1.38 3.256-3.15 3.964-4.105 4.07-1.38-1.911-1.062-5.344.956-8.317 2.371-3.468 6.158-5.061 8.458-3.468a3.759 3.759 0 0 1 1.274 1.593.777.777 0 0 1 .177.422z" transform="translate(-10.323 -35.55)"/>
                    </g>
                </g>
            </g>
            <g id="Group_1075" transform="translate(.841 2.637)">
                <g id="Group_1074">
                    <g id="Group_1073">
                        <path id="Path_333" d="M22.008 50.078c-2.371 3.468-6.158 5.061-8.458 3.468a3.7 3.7 0 0 1-.849-.814c.956-.106 2.725-.814 4.105-4.07A10.73 10.73 0 0 1 23.565 43c.602 1.947.071 4.672-1.557 7.078z" class="cls-2" transform="translate(-12.7 -43)"/>
                    </g>
                </g>
            </g>
        </g>
        <g id="Group_1079" transform="translate(20.262 4.17)">
            <g id="Group_1078">
                <g id="Group_1077">
                    <path id="Path_334" d="M56.835 14.814a.13.13 0 0 1-.106-.035.33.33 0 0 1-.212-.425 3.4 3.4 0 0 0-.354-2.937c-.991-1.345.071-2.973.743-3.61a.35.35 0 1 1 .5.5s-1.557 1.522-.672 2.725a3.988 3.988 0 0 1 .425 3.574.358.358 0 0 1-.324.208z" class="cls-5" transform="translate(-55.759 -7.7)"/>
                </g>
            </g>
        </g>
        <g id="Group_1082" transform="translate(3.827 2.755)">
            <g id="Group_1081">
                <g id="Group_1080">
                    <path id="Path_335" d="M10.906 15.45a.13.13 0 0 1-.106-.035.33.33 0 0 1-.212-.425 6.18 6.18 0 0 0-.637-5.273C8 6.991 11.189 3.842 11.225 3.806a.35.35 0 1 1 .5.5c-.035.035-2.8 2.76-1.168 4.99a6.636 6.636 0 0 1 .708 5.91.426.426 0 0 1-.359.244z" class="cls-5" transform="translate(-9.321 -3.7)"/>
                </g>
            </g>
        </g>
        <g id="Group_1085" transform="translate(13.917 4.394)">
            <g id="Group_1084">
                <g id="Group_1083">
                    <path id="Path_336" d="M39.236 16.142a.34.34 0 0 1-.319-.212 3.76 3.76 0 0 1-.425-1.911 4.37 4.37 0 0 1 .672-1.982 2.077 2.077 0 0 0 .425-1.2c-.035-.637-.566-1.243-1.589-1.88a.334.334 0 1 1 .354-.566 3.414 3.414 0 0 1 1.908 2.409 2.928 2.928 0 0 1-.5 1.593 3.319 3.319 0 0 0-.566 1.663 3.259 3.259 0 0 0 .354 1.593.351.351 0 0 1-.177.46c-.031.033-.066.033-.137.033z" class="cls-5" transform="translate(-37.831 -8.331)"/>
                </g>
            </g>
        </g>
    </g>
</svg>
