<svg xmlns="http://www.w3.org/2000/svg" id="Emojis_Roaster-79" width="20.377" height="26.742" viewBox="0 0 20.377 26.742">
    <defs>
        <style>
            .cls-1{fill:#54381f}.cls-2{fill:#bc8858}.cls-3{fill:#f2b175}
        </style>
    </defs>
    <g id="Group_10">
        <g id="Group_9">
            <path id="Path_1" d="M30.852 28.842H12.289a.88.88 0 0 1-.889-.889v-1.742a.88.88 0 0 1 .889-.889h.427v-7.255h-.427a.88.88 0 0 1-.889-.889v-1.742a.88.88 0 0 1 .889-.889h4.8A6.31 6.31 0 0 1 13.6 9.781a1.127 1.127 0 0 1-.32-.818 1.184 1.184 0 0 1 1.178-1.173H20.5V6.047a1.048 1.048 0 0 1 1.067-1.067h7.575V4.8a1.534 1.534 0 0 1-.5-1.138 1.565 1.565 0 0 1 3.129 0 1.534 1.534 0 0 1-.5 1.138v1.247a1.048 1.048 0 0 1-1.067 1.067h-7.566v.676h6.081a1.184 1.184 0 0 1 1.174 1.174 1.243 1.243 0 0 1-.284.782 6.248 6.248 0 0 1-3.521 4.8h4.8a.88.88 0 0 1 .889.889v1.743a.88.88 0 0 1-.889.889h-.142v7.255h.142a.88.88 0 0 1 .889.889v1.743a.935.935 0 0 1-.925.888zm-18.385-1.066H30.71v-1.387h-1.031V17h1.031v-1.387h-8.321l-.036-1.067c3.414-.284 6.081-2.454 6.223-5.085v-.249l.213-.142a.124.124 0 0 0 .036-.07.094.094 0 0 0-.107-.107h-14.3a.094.094 0 0 0-.102.107.124.124 0 0 0 .036.071l.249.142V9.5c.142 2.6 2.809 4.8 6.223 5.085l-.036 1.067h-8.321V17h1.316v9.388h-1.316zM30.212 3.2a.486.486 0 0 0-.5.5.542.542 0 0 0 .249.427l.249.142.249-.178a.542.542 0 0 0 .249-.427.531.531 0 0 0-.496-.464z" class="cls-1" transform="translate(-11.4 -2.1)"/>
        </g>
    </g>
    <g id="Group_38" transform="translate(.533 .533)">
        <g id="Group_13" transform="translate(9.104 .747)">
            <g id="Group_12">
                <g id="Group_11">
                    <path id="Path_2" d="M39.033 11.177a.547.547 0 0 1-.533-.533V8.367a.547.547 0 0 1 .533-.533h8.108v-1.6a.533.533 0 0 1 1.067 0v2.133a.547.547 0 0 1-.533.533h-8.108v1.743a.524.524 0 0 1-.534.534z" class="cls-2" transform="translate(-38.5 -5.7)"/>
                </g>
            </g>
        </g>
        <g id="Group_16" transform="translate(17.248)">
            <g id="Group_15">
                <g id="Group_14">
                    <circle id="Ellipse_2" cx="1.031" cy="1.031" r="1.031" class="cls-3"/>
                </g>
            </g>
        </g>
        <g id="Group_19" transform="translate(0 12.447)">
            <g id="Group_18">
                <g id="Group_17">
                    <path id="Path_3" d="M31.819 41.054H13.256a.336.336 0 0 1-.356-.354v-1.744a.336.336 0 0 1 .356-.356h18.6a.336.336 0 0 1 .356.356V40.7a.388.388 0 0 1-.393.354z" class="cls-3" transform="translate(-12.9 -38.6)"/>
                </g>
            </g>
        </g>
        <g id="Group_22" transform="translate(0 23.222)">
            <g id="Group_21">
                <g id="Group_20">
                    <path id="Path_4" d="M31.819 71.354H13.256A.336.336 0 0 1 12.9 71v-1.744a.336.336 0 0 1 .356-.356h18.6a.336.336 0 0 1 .356.356V71a.388.388 0 0 1-.393.354z" class="cls-3" transform="translate(-12.9 -68.9)"/>
                </g>
            </g>
        </g>
        <g id="Group_25" transform="translate(1.316 14.9)">
            <g id="Group_24">
                <g id="Group_23">
                    <path id="Rectangle_1" d="M0 0H16.963V8.321H0z" class="cls-2"/>
                </g>
            </g>
        </g>
        <g id="Group_28" transform="translate(2.134 6.614)">
            <g id="Group_27">
                <g id="Group_26">
                    <path id="Path_5" d="M33.907 22.2c0 3.236-3.343 5.868-7.5 5.868s-7.5-2.632-7.5-5.868" class="cls-2" transform="translate(-18.9 -22.2)"/>
                </g>
            </g>
        </g>
        <g id="Group_31" transform="translate(1.849 5.69)">
            <g id="Group_30">
                <g id="Group_29">
                    <path id="Path_6" d="M33.036 20.88H18.74a.637.637 0 0 1-.64-.64.637.637 0 0 1 .64-.64h14.3a.637.637 0 0 1 .64.64.637.637 0 0 1-.644.64z" class="cls-3" transform="translate(-18.1 -19.6)"/>
                </g>
            </g>
        </g>
        <g id="Group_34" opacity="0.41" transform="translate(5.085 16.252)">
            <g id="Group_33">
                <g id="Group_32">
                    <path id="Rectangle_2" d="M0 0H9.317V5.405H0z" class="cls-1"/>
                </g>
            </g>
        </g>
        <g id="Group_37" opacity="0.54" transform="translate(6.472 17.247)">
            <g id="Group_36">
                <g id="Group_35">
                    <ellipse id="Ellipse_3" cx="3.236" cy="1.778" class="cls-1" rx="3.236" ry="1.778"/>
                </g>
            </g>
        </g>
    </g>
</svg>
