<svg xmlns="http://www.w3.org/2000/svg" width="92" height="67" viewBox="0 0 92 67">
    <g fill="none" fill-rule="evenodd" transform="translate(2 2)">
        <rect width="80.19" height="56.133" stroke="#A88057" stroke-linecap="round" stroke-linejoin="round" stroke-width="2.5" rx="3.564"/>
        <path stroke="#A88057" stroke-linecap="round" stroke-linejoin="round" stroke-width="2.5" d="M1.782.891l37.169 25.932c.687.48 1.6.48 2.288 0L78.408.89h0"/>
        <g fill-rule="nonzero">
            <path fill="#A88057" d="M19.507.832C9.193.832.832 9.192.832 19.507c0 10.314 8.36 18.675 18.675 18.675 10.314 0 18.675-8.36 18.675-18.675 0-10.314-8.36-18.675-18.675-18.675z" transform="translate(51.381 26.433)"/>
            <path fill="#FFF" stroke="#FFF" stroke-width=".5" d="M29.816 12.937c-.367-.364-.963-.364-1.33 0L17.213 24.101l-4.333-4.292c-.367-.363-.963-.363-1.33 0-.368.364-.368.954 0 1.318l4.998 4.95c.367.364.963.364 1.33 0l11.938-11.822c.368-.364.368-.954 0-1.318z" transform="translate(51.381 26.433)"/>
        </g>
    </g>
</svg>
